G04 #@! TF.GenerationSoftware,KiCad,Pcbnew,(5.1.4-0-10_14)*
G04 #@! TF.CreationDate,2021-06-29T11:43:56+12:00*
G04 #@! TF.ProjectId,rupter,72757074-6572-42e6-9b69-6361645f7063,rev?*
G04 #@! TF.SameCoordinates,Original*
G04 #@! TF.FileFunction,Copper,L1,Top*
G04 #@! TF.FilePolarity,Positive*
%FSLAX46Y46*%
G04 Gerber Fmt 4.6, Leading zero omitted, Abs format (unit mm)*
G04 Created by KiCad (PCBNEW (5.1.4-0-10_14)) date 2021-06-29 11:43:56*
%MOMM*%
%LPD*%
G04 APERTURE LIST*
%ADD10O,3.000000X1.800000*%
%ADD11C,1.700000*%
%ADD12O,1.600000X1.600000*%
%ADD13C,1.600000*%
%ADD14O,1.800000X3.000000*%
%ADD15R,1.100000X1.800000*%
%ADD16C,0.100000*%
%ADD17C,1.100000*%
%ADD18C,4.000000*%
%ADD19C,1.800000*%
%ADD20R,1.600000X1.600000*%
%ADD21C,3.000000*%
%ADD22C,2.550000*%
%ADD23R,3.500000X3.500000*%
%ADD24C,3.500000*%
%ADD25R,1.600000X2.400000*%
%ADD26O,1.600000X2.400000*%
%ADD27C,0.600000*%
%ADD28C,0.250000*%
%ADD29C,0.254000*%
G04 APERTURE END LIST*
D10*
X127850000Y-52450000D03*
X127850000Y-64250000D03*
D11*
X127900000Y-61350000D03*
X127900000Y-58350000D03*
X127900000Y-55350000D03*
D12*
X170400000Y-55100000D03*
D13*
X178020000Y-55100000D03*
D10*
X181950000Y-69650000D03*
X181950000Y-81450000D03*
D11*
X182000000Y-78550000D03*
X182000000Y-75550000D03*
X182000000Y-72550000D03*
D10*
X117750000Y-69750000D03*
X117750000Y-81550000D03*
D11*
X117800000Y-78650000D03*
X117800000Y-75650000D03*
X117800000Y-72650000D03*
D10*
X110450000Y-69650000D03*
X110450000Y-81450000D03*
D11*
X110500000Y-78550000D03*
X110500000Y-75550000D03*
X110500000Y-72550000D03*
D10*
X103250000Y-69750000D03*
X103250000Y-81550000D03*
D11*
X103300000Y-78650000D03*
X103300000Y-75650000D03*
X103300000Y-72650000D03*
D14*
X155550000Y-53750000D03*
X167350000Y-53750000D03*
D11*
X164450000Y-53700000D03*
X161450000Y-53700000D03*
X158450000Y-53700000D03*
D15*
X168800000Y-60800000D03*
D16*
G36*
X171641955Y-59901324D02*
G01*
X171668650Y-59905284D01*
X171694828Y-59911841D01*
X171720238Y-59920933D01*
X171744634Y-59932472D01*
X171767782Y-59946346D01*
X171789458Y-59962422D01*
X171809454Y-59980546D01*
X171827578Y-60000542D01*
X171843654Y-60022218D01*
X171857528Y-60045366D01*
X171869067Y-60069762D01*
X171878159Y-60095172D01*
X171884716Y-60121350D01*
X171888676Y-60148045D01*
X171890000Y-60175000D01*
X171890000Y-61425000D01*
X171888676Y-61451955D01*
X171884716Y-61478650D01*
X171878159Y-61504828D01*
X171869067Y-61530238D01*
X171857528Y-61554634D01*
X171843654Y-61577782D01*
X171827578Y-61599458D01*
X171809454Y-61619454D01*
X171789458Y-61637578D01*
X171767782Y-61653654D01*
X171744634Y-61667528D01*
X171720238Y-61679067D01*
X171694828Y-61688159D01*
X171668650Y-61694716D01*
X171641955Y-61698676D01*
X171615000Y-61700000D01*
X171065000Y-61700000D01*
X171038045Y-61698676D01*
X171011350Y-61694716D01*
X170985172Y-61688159D01*
X170959762Y-61679067D01*
X170935366Y-61667528D01*
X170912218Y-61653654D01*
X170890542Y-61637578D01*
X170870546Y-61619454D01*
X170852422Y-61599458D01*
X170836346Y-61577782D01*
X170822472Y-61554634D01*
X170810933Y-61530238D01*
X170801841Y-61504828D01*
X170795284Y-61478650D01*
X170791324Y-61451955D01*
X170790000Y-61425000D01*
X170790000Y-60175000D01*
X170791324Y-60148045D01*
X170795284Y-60121350D01*
X170801841Y-60095172D01*
X170810933Y-60069762D01*
X170822472Y-60045366D01*
X170836346Y-60022218D01*
X170852422Y-60000542D01*
X170870546Y-59980546D01*
X170890542Y-59962422D01*
X170912218Y-59946346D01*
X170935366Y-59932472D01*
X170959762Y-59920933D01*
X170985172Y-59911841D01*
X171011350Y-59905284D01*
X171038045Y-59901324D01*
X171065000Y-59900000D01*
X171615000Y-59900000D01*
X171641955Y-59901324D01*
X171641955Y-59901324D01*
G37*
D17*
X171340000Y-60800000D03*
D16*
G36*
X170371955Y-57831324D02*
G01*
X170398650Y-57835284D01*
X170424828Y-57841841D01*
X170450238Y-57850933D01*
X170474634Y-57862472D01*
X170497782Y-57876346D01*
X170519458Y-57892422D01*
X170539454Y-57910546D01*
X170557578Y-57930542D01*
X170573654Y-57952218D01*
X170587528Y-57975366D01*
X170599067Y-57999762D01*
X170608159Y-58025172D01*
X170614716Y-58051350D01*
X170618676Y-58078045D01*
X170620000Y-58105000D01*
X170620000Y-59355000D01*
X170618676Y-59381955D01*
X170614716Y-59408650D01*
X170608159Y-59434828D01*
X170599067Y-59460238D01*
X170587528Y-59484634D01*
X170573654Y-59507782D01*
X170557578Y-59529458D01*
X170539454Y-59549454D01*
X170519458Y-59567578D01*
X170497782Y-59583654D01*
X170474634Y-59597528D01*
X170450238Y-59609067D01*
X170424828Y-59618159D01*
X170398650Y-59624716D01*
X170371955Y-59628676D01*
X170345000Y-59630000D01*
X169795000Y-59630000D01*
X169768045Y-59628676D01*
X169741350Y-59624716D01*
X169715172Y-59618159D01*
X169689762Y-59609067D01*
X169665366Y-59597528D01*
X169642218Y-59583654D01*
X169620542Y-59567578D01*
X169600546Y-59549454D01*
X169582422Y-59529458D01*
X169566346Y-59507782D01*
X169552472Y-59484634D01*
X169540933Y-59460238D01*
X169531841Y-59434828D01*
X169525284Y-59408650D01*
X169521324Y-59381955D01*
X169520000Y-59355000D01*
X169520000Y-58105000D01*
X169521324Y-58078045D01*
X169525284Y-58051350D01*
X169531841Y-58025172D01*
X169540933Y-57999762D01*
X169552472Y-57975366D01*
X169566346Y-57952218D01*
X169582422Y-57930542D01*
X169600546Y-57910546D01*
X169620542Y-57892422D01*
X169642218Y-57876346D01*
X169665366Y-57862472D01*
X169689762Y-57850933D01*
X169715172Y-57841841D01*
X169741350Y-57835284D01*
X169768045Y-57831324D01*
X169795000Y-57830000D01*
X170345000Y-57830000D01*
X170371955Y-57831324D01*
X170371955Y-57831324D01*
G37*
D17*
X170070000Y-58730000D03*
D18*
X161450000Y-80900000D03*
X151950000Y-80900000D03*
D19*
X159200000Y-88400000D03*
X156700000Y-88400000D03*
X154200000Y-88400000D03*
D18*
X175650000Y-80900000D03*
X166150000Y-80900000D03*
D19*
X173400000Y-88400000D03*
X170900000Y-88400000D03*
X168400000Y-88400000D03*
D18*
X133250000Y-80800000D03*
X123750000Y-80800000D03*
D19*
X131000000Y-88300000D03*
X128500000Y-88300000D03*
X126000000Y-88300000D03*
D18*
X147350000Y-80800000D03*
X137850000Y-80800000D03*
D19*
X145100000Y-88300000D03*
X142600000Y-88300000D03*
X140100000Y-88300000D03*
D13*
X179000000Y-60700000D03*
D20*
X179000000Y-58200000D03*
D13*
X179900000Y-83800000D03*
X179900000Y-88800000D03*
X118600000Y-83900000D03*
X118600000Y-88900000D03*
D21*
X187050000Y-62600000D03*
X197350000Y-62600000D03*
D22*
X192200000Y-61000000D03*
D23*
X149400000Y-59400000D03*
D16*
G36*
X150473513Y-51903611D02*
G01*
X150546318Y-51914411D01*
X150617714Y-51932295D01*
X150687013Y-51957090D01*
X150753548Y-51988559D01*
X150816678Y-52026398D01*
X150875795Y-52070242D01*
X150930330Y-52119670D01*
X150979758Y-52174205D01*
X151023602Y-52233322D01*
X151061441Y-52296452D01*
X151092910Y-52362987D01*
X151117705Y-52432286D01*
X151135589Y-52503682D01*
X151146389Y-52576487D01*
X151150000Y-52650000D01*
X151150000Y-54150000D01*
X151146389Y-54223513D01*
X151135589Y-54296318D01*
X151117705Y-54367714D01*
X151092910Y-54437013D01*
X151061441Y-54503548D01*
X151023602Y-54566678D01*
X150979758Y-54625795D01*
X150930330Y-54680330D01*
X150875795Y-54729758D01*
X150816678Y-54773602D01*
X150753548Y-54811441D01*
X150687013Y-54842910D01*
X150617714Y-54867705D01*
X150546318Y-54885589D01*
X150473513Y-54896389D01*
X150400000Y-54900000D01*
X148400000Y-54900000D01*
X148326487Y-54896389D01*
X148253682Y-54885589D01*
X148182286Y-54867705D01*
X148112987Y-54842910D01*
X148046452Y-54811441D01*
X147983322Y-54773602D01*
X147924205Y-54729758D01*
X147869670Y-54680330D01*
X147820242Y-54625795D01*
X147776398Y-54566678D01*
X147738559Y-54503548D01*
X147707090Y-54437013D01*
X147682295Y-54367714D01*
X147664411Y-54296318D01*
X147653611Y-54223513D01*
X147650000Y-54150000D01*
X147650000Y-52650000D01*
X147653611Y-52576487D01*
X147664411Y-52503682D01*
X147682295Y-52432286D01*
X147707090Y-52362987D01*
X147738559Y-52296452D01*
X147776398Y-52233322D01*
X147820242Y-52174205D01*
X147869670Y-52119670D01*
X147924205Y-52070242D01*
X147983322Y-52026398D01*
X148046452Y-51988559D01*
X148112987Y-51957090D01*
X148182286Y-51932295D01*
X148253682Y-51914411D01*
X148326487Y-51903611D01*
X148400000Y-51900000D01*
X150400000Y-51900000D01*
X150473513Y-51903611D01*
X150473513Y-51903611D01*
G37*
D21*
X149400000Y-53400000D03*
D16*
G36*
X145660765Y-54654213D02*
G01*
X145745704Y-54666813D01*
X145828999Y-54687677D01*
X145909848Y-54716605D01*
X145987472Y-54753319D01*
X146061124Y-54797464D01*
X146130094Y-54848616D01*
X146193718Y-54906282D01*
X146251384Y-54969906D01*
X146302536Y-55038876D01*
X146346681Y-55112528D01*
X146383395Y-55190152D01*
X146412323Y-55271001D01*
X146433187Y-55354296D01*
X146445787Y-55439235D01*
X146450000Y-55525000D01*
X146450000Y-57275000D01*
X146445787Y-57360765D01*
X146433187Y-57445704D01*
X146412323Y-57528999D01*
X146383395Y-57609848D01*
X146346681Y-57687472D01*
X146302536Y-57761124D01*
X146251384Y-57830094D01*
X146193718Y-57893718D01*
X146130094Y-57951384D01*
X146061124Y-58002536D01*
X145987472Y-58046681D01*
X145909848Y-58083395D01*
X145828999Y-58112323D01*
X145745704Y-58133187D01*
X145660765Y-58145787D01*
X145575000Y-58150000D01*
X143825000Y-58150000D01*
X143739235Y-58145787D01*
X143654296Y-58133187D01*
X143571001Y-58112323D01*
X143490152Y-58083395D01*
X143412528Y-58046681D01*
X143338876Y-58002536D01*
X143269906Y-57951384D01*
X143206282Y-57893718D01*
X143148616Y-57830094D01*
X143097464Y-57761124D01*
X143053319Y-57687472D01*
X143016605Y-57609848D01*
X142987677Y-57528999D01*
X142966813Y-57445704D01*
X142954213Y-57360765D01*
X142950000Y-57275000D01*
X142950000Y-55525000D01*
X142954213Y-55439235D01*
X142966813Y-55354296D01*
X142987677Y-55271001D01*
X143016605Y-55190152D01*
X143053319Y-55112528D01*
X143097464Y-55038876D01*
X143148616Y-54969906D01*
X143206282Y-54906282D01*
X143269906Y-54848616D01*
X143338876Y-54797464D01*
X143412528Y-54753319D01*
X143490152Y-54716605D01*
X143571001Y-54687677D01*
X143654296Y-54666813D01*
X143739235Y-54654213D01*
X143825000Y-54650000D01*
X145575000Y-54650000D01*
X145660765Y-54654213D01*
X145660765Y-54654213D01*
G37*
D24*
X144700000Y-56400000D03*
D22*
X108400000Y-60600000D03*
D21*
X113550000Y-62200000D03*
X103250000Y-62200000D03*
D13*
X159400000Y-60600000D03*
X164400000Y-60600000D03*
X170400000Y-51800000D03*
D12*
X178020000Y-51800000D03*
D13*
X109100000Y-83900000D03*
X109100000Y-88900000D03*
X113800000Y-88900000D03*
X113800000Y-83900000D03*
D11*
X136000000Y-55350000D03*
X136000000Y-58350000D03*
X136000000Y-61350000D03*
D10*
X135950000Y-64250000D03*
X135950000Y-52450000D03*
D13*
X184500000Y-83900000D03*
X184500000Y-88900000D03*
D20*
X188500000Y-86600000D03*
D13*
X191000000Y-86600000D03*
D11*
X189000000Y-72650000D03*
X189000000Y-75650000D03*
X189000000Y-78650000D03*
D10*
X188950000Y-81550000D03*
X188950000Y-69750000D03*
X196250000Y-69750000D03*
X196250000Y-81550000D03*
D11*
X196300000Y-78650000D03*
X196300000Y-75650000D03*
X196300000Y-72650000D03*
D25*
X150050000Y-64500000D03*
D26*
X142430000Y-72120000D03*
X147510000Y-64500000D03*
X144970000Y-72120000D03*
X144970000Y-64500000D03*
X147510000Y-72120000D03*
X142430000Y-64500000D03*
X150050000Y-72120000D03*
D16*
G36*
X152809703Y-69750722D02*
G01*
X152824264Y-69752882D01*
X152838543Y-69756459D01*
X152852403Y-69761418D01*
X152865710Y-69767712D01*
X152878336Y-69775280D01*
X152890159Y-69784048D01*
X152901066Y-69793934D01*
X152910952Y-69804841D01*
X152919720Y-69816664D01*
X152927288Y-69829290D01*
X152933582Y-69842597D01*
X152938541Y-69856457D01*
X152942118Y-69870736D01*
X152944278Y-69885297D01*
X152945000Y-69900000D01*
X152945000Y-71550000D01*
X152944278Y-71564703D01*
X152942118Y-71579264D01*
X152938541Y-71593543D01*
X152933582Y-71607403D01*
X152927288Y-71620710D01*
X152919720Y-71633336D01*
X152910952Y-71645159D01*
X152901066Y-71656066D01*
X152890159Y-71665952D01*
X152878336Y-71674720D01*
X152865710Y-71682288D01*
X152852403Y-71688582D01*
X152838543Y-71693541D01*
X152824264Y-71697118D01*
X152809703Y-71699278D01*
X152795000Y-71700000D01*
X152495000Y-71700000D01*
X152480297Y-71699278D01*
X152465736Y-71697118D01*
X152451457Y-71693541D01*
X152437597Y-71688582D01*
X152424290Y-71682288D01*
X152411664Y-71674720D01*
X152399841Y-71665952D01*
X152388934Y-71656066D01*
X152379048Y-71645159D01*
X152370280Y-71633336D01*
X152362712Y-71620710D01*
X152356418Y-71607403D01*
X152351459Y-71593543D01*
X152347882Y-71579264D01*
X152345722Y-71564703D01*
X152345000Y-71550000D01*
X152345000Y-69900000D01*
X152345722Y-69885297D01*
X152347882Y-69870736D01*
X152351459Y-69856457D01*
X152356418Y-69842597D01*
X152362712Y-69829290D01*
X152370280Y-69816664D01*
X152379048Y-69804841D01*
X152388934Y-69793934D01*
X152399841Y-69784048D01*
X152411664Y-69775280D01*
X152424290Y-69767712D01*
X152437597Y-69761418D01*
X152451457Y-69756459D01*
X152465736Y-69752882D01*
X152480297Y-69750722D01*
X152495000Y-69750000D01*
X152795000Y-69750000D01*
X152809703Y-69750722D01*
X152809703Y-69750722D01*
G37*
D27*
X152645000Y-70725000D03*
D16*
G36*
X154079703Y-69750722D02*
G01*
X154094264Y-69752882D01*
X154108543Y-69756459D01*
X154122403Y-69761418D01*
X154135710Y-69767712D01*
X154148336Y-69775280D01*
X154160159Y-69784048D01*
X154171066Y-69793934D01*
X154180952Y-69804841D01*
X154189720Y-69816664D01*
X154197288Y-69829290D01*
X154203582Y-69842597D01*
X154208541Y-69856457D01*
X154212118Y-69870736D01*
X154214278Y-69885297D01*
X154215000Y-69900000D01*
X154215000Y-71550000D01*
X154214278Y-71564703D01*
X154212118Y-71579264D01*
X154208541Y-71593543D01*
X154203582Y-71607403D01*
X154197288Y-71620710D01*
X154189720Y-71633336D01*
X154180952Y-71645159D01*
X154171066Y-71656066D01*
X154160159Y-71665952D01*
X154148336Y-71674720D01*
X154135710Y-71682288D01*
X154122403Y-71688582D01*
X154108543Y-71693541D01*
X154094264Y-71697118D01*
X154079703Y-71699278D01*
X154065000Y-71700000D01*
X153765000Y-71700000D01*
X153750297Y-71699278D01*
X153735736Y-71697118D01*
X153721457Y-71693541D01*
X153707597Y-71688582D01*
X153694290Y-71682288D01*
X153681664Y-71674720D01*
X153669841Y-71665952D01*
X153658934Y-71656066D01*
X153649048Y-71645159D01*
X153640280Y-71633336D01*
X153632712Y-71620710D01*
X153626418Y-71607403D01*
X153621459Y-71593543D01*
X153617882Y-71579264D01*
X153615722Y-71564703D01*
X153615000Y-71550000D01*
X153615000Y-69900000D01*
X153615722Y-69885297D01*
X153617882Y-69870736D01*
X153621459Y-69856457D01*
X153626418Y-69842597D01*
X153632712Y-69829290D01*
X153640280Y-69816664D01*
X153649048Y-69804841D01*
X153658934Y-69793934D01*
X153669841Y-69784048D01*
X153681664Y-69775280D01*
X153694290Y-69767712D01*
X153707597Y-69761418D01*
X153721457Y-69756459D01*
X153735736Y-69752882D01*
X153750297Y-69750722D01*
X153765000Y-69750000D01*
X154065000Y-69750000D01*
X154079703Y-69750722D01*
X154079703Y-69750722D01*
G37*
D27*
X153915000Y-70725000D03*
D16*
G36*
X155349703Y-69750722D02*
G01*
X155364264Y-69752882D01*
X155378543Y-69756459D01*
X155392403Y-69761418D01*
X155405710Y-69767712D01*
X155418336Y-69775280D01*
X155430159Y-69784048D01*
X155441066Y-69793934D01*
X155450952Y-69804841D01*
X155459720Y-69816664D01*
X155467288Y-69829290D01*
X155473582Y-69842597D01*
X155478541Y-69856457D01*
X155482118Y-69870736D01*
X155484278Y-69885297D01*
X155485000Y-69900000D01*
X155485000Y-71550000D01*
X155484278Y-71564703D01*
X155482118Y-71579264D01*
X155478541Y-71593543D01*
X155473582Y-71607403D01*
X155467288Y-71620710D01*
X155459720Y-71633336D01*
X155450952Y-71645159D01*
X155441066Y-71656066D01*
X155430159Y-71665952D01*
X155418336Y-71674720D01*
X155405710Y-71682288D01*
X155392403Y-71688582D01*
X155378543Y-71693541D01*
X155364264Y-71697118D01*
X155349703Y-71699278D01*
X155335000Y-71700000D01*
X155035000Y-71700000D01*
X155020297Y-71699278D01*
X155005736Y-71697118D01*
X154991457Y-71693541D01*
X154977597Y-71688582D01*
X154964290Y-71682288D01*
X154951664Y-71674720D01*
X154939841Y-71665952D01*
X154928934Y-71656066D01*
X154919048Y-71645159D01*
X154910280Y-71633336D01*
X154902712Y-71620710D01*
X154896418Y-71607403D01*
X154891459Y-71593543D01*
X154887882Y-71579264D01*
X154885722Y-71564703D01*
X154885000Y-71550000D01*
X154885000Y-69900000D01*
X154885722Y-69885297D01*
X154887882Y-69870736D01*
X154891459Y-69856457D01*
X154896418Y-69842597D01*
X154902712Y-69829290D01*
X154910280Y-69816664D01*
X154919048Y-69804841D01*
X154928934Y-69793934D01*
X154939841Y-69784048D01*
X154951664Y-69775280D01*
X154964290Y-69767712D01*
X154977597Y-69761418D01*
X154991457Y-69756459D01*
X155005736Y-69752882D01*
X155020297Y-69750722D01*
X155035000Y-69750000D01*
X155335000Y-69750000D01*
X155349703Y-69750722D01*
X155349703Y-69750722D01*
G37*
D27*
X155185000Y-70725000D03*
D16*
G36*
X156619703Y-69750722D02*
G01*
X156634264Y-69752882D01*
X156648543Y-69756459D01*
X156662403Y-69761418D01*
X156675710Y-69767712D01*
X156688336Y-69775280D01*
X156700159Y-69784048D01*
X156711066Y-69793934D01*
X156720952Y-69804841D01*
X156729720Y-69816664D01*
X156737288Y-69829290D01*
X156743582Y-69842597D01*
X156748541Y-69856457D01*
X156752118Y-69870736D01*
X156754278Y-69885297D01*
X156755000Y-69900000D01*
X156755000Y-71550000D01*
X156754278Y-71564703D01*
X156752118Y-71579264D01*
X156748541Y-71593543D01*
X156743582Y-71607403D01*
X156737288Y-71620710D01*
X156729720Y-71633336D01*
X156720952Y-71645159D01*
X156711066Y-71656066D01*
X156700159Y-71665952D01*
X156688336Y-71674720D01*
X156675710Y-71682288D01*
X156662403Y-71688582D01*
X156648543Y-71693541D01*
X156634264Y-71697118D01*
X156619703Y-71699278D01*
X156605000Y-71700000D01*
X156305000Y-71700000D01*
X156290297Y-71699278D01*
X156275736Y-71697118D01*
X156261457Y-71693541D01*
X156247597Y-71688582D01*
X156234290Y-71682288D01*
X156221664Y-71674720D01*
X156209841Y-71665952D01*
X156198934Y-71656066D01*
X156189048Y-71645159D01*
X156180280Y-71633336D01*
X156172712Y-71620710D01*
X156166418Y-71607403D01*
X156161459Y-71593543D01*
X156157882Y-71579264D01*
X156155722Y-71564703D01*
X156155000Y-71550000D01*
X156155000Y-69900000D01*
X156155722Y-69885297D01*
X156157882Y-69870736D01*
X156161459Y-69856457D01*
X156166418Y-69842597D01*
X156172712Y-69829290D01*
X156180280Y-69816664D01*
X156189048Y-69804841D01*
X156198934Y-69793934D01*
X156209841Y-69784048D01*
X156221664Y-69775280D01*
X156234290Y-69767712D01*
X156247597Y-69761418D01*
X156261457Y-69756459D01*
X156275736Y-69752882D01*
X156290297Y-69750722D01*
X156305000Y-69750000D01*
X156605000Y-69750000D01*
X156619703Y-69750722D01*
X156619703Y-69750722D01*
G37*
D27*
X156455000Y-70725000D03*
D16*
G36*
X156619703Y-64800722D02*
G01*
X156634264Y-64802882D01*
X156648543Y-64806459D01*
X156662403Y-64811418D01*
X156675710Y-64817712D01*
X156688336Y-64825280D01*
X156700159Y-64834048D01*
X156711066Y-64843934D01*
X156720952Y-64854841D01*
X156729720Y-64866664D01*
X156737288Y-64879290D01*
X156743582Y-64892597D01*
X156748541Y-64906457D01*
X156752118Y-64920736D01*
X156754278Y-64935297D01*
X156755000Y-64950000D01*
X156755000Y-66600000D01*
X156754278Y-66614703D01*
X156752118Y-66629264D01*
X156748541Y-66643543D01*
X156743582Y-66657403D01*
X156737288Y-66670710D01*
X156729720Y-66683336D01*
X156720952Y-66695159D01*
X156711066Y-66706066D01*
X156700159Y-66715952D01*
X156688336Y-66724720D01*
X156675710Y-66732288D01*
X156662403Y-66738582D01*
X156648543Y-66743541D01*
X156634264Y-66747118D01*
X156619703Y-66749278D01*
X156605000Y-66750000D01*
X156305000Y-66750000D01*
X156290297Y-66749278D01*
X156275736Y-66747118D01*
X156261457Y-66743541D01*
X156247597Y-66738582D01*
X156234290Y-66732288D01*
X156221664Y-66724720D01*
X156209841Y-66715952D01*
X156198934Y-66706066D01*
X156189048Y-66695159D01*
X156180280Y-66683336D01*
X156172712Y-66670710D01*
X156166418Y-66657403D01*
X156161459Y-66643543D01*
X156157882Y-66629264D01*
X156155722Y-66614703D01*
X156155000Y-66600000D01*
X156155000Y-64950000D01*
X156155722Y-64935297D01*
X156157882Y-64920736D01*
X156161459Y-64906457D01*
X156166418Y-64892597D01*
X156172712Y-64879290D01*
X156180280Y-64866664D01*
X156189048Y-64854841D01*
X156198934Y-64843934D01*
X156209841Y-64834048D01*
X156221664Y-64825280D01*
X156234290Y-64817712D01*
X156247597Y-64811418D01*
X156261457Y-64806459D01*
X156275736Y-64802882D01*
X156290297Y-64800722D01*
X156305000Y-64800000D01*
X156605000Y-64800000D01*
X156619703Y-64800722D01*
X156619703Y-64800722D01*
G37*
D27*
X156455000Y-65775000D03*
D16*
G36*
X155349703Y-64800722D02*
G01*
X155364264Y-64802882D01*
X155378543Y-64806459D01*
X155392403Y-64811418D01*
X155405710Y-64817712D01*
X155418336Y-64825280D01*
X155430159Y-64834048D01*
X155441066Y-64843934D01*
X155450952Y-64854841D01*
X155459720Y-64866664D01*
X155467288Y-64879290D01*
X155473582Y-64892597D01*
X155478541Y-64906457D01*
X155482118Y-64920736D01*
X155484278Y-64935297D01*
X155485000Y-64950000D01*
X155485000Y-66600000D01*
X155484278Y-66614703D01*
X155482118Y-66629264D01*
X155478541Y-66643543D01*
X155473582Y-66657403D01*
X155467288Y-66670710D01*
X155459720Y-66683336D01*
X155450952Y-66695159D01*
X155441066Y-66706066D01*
X155430159Y-66715952D01*
X155418336Y-66724720D01*
X155405710Y-66732288D01*
X155392403Y-66738582D01*
X155378543Y-66743541D01*
X155364264Y-66747118D01*
X155349703Y-66749278D01*
X155335000Y-66750000D01*
X155035000Y-66750000D01*
X155020297Y-66749278D01*
X155005736Y-66747118D01*
X154991457Y-66743541D01*
X154977597Y-66738582D01*
X154964290Y-66732288D01*
X154951664Y-66724720D01*
X154939841Y-66715952D01*
X154928934Y-66706066D01*
X154919048Y-66695159D01*
X154910280Y-66683336D01*
X154902712Y-66670710D01*
X154896418Y-66657403D01*
X154891459Y-66643543D01*
X154887882Y-66629264D01*
X154885722Y-66614703D01*
X154885000Y-66600000D01*
X154885000Y-64950000D01*
X154885722Y-64935297D01*
X154887882Y-64920736D01*
X154891459Y-64906457D01*
X154896418Y-64892597D01*
X154902712Y-64879290D01*
X154910280Y-64866664D01*
X154919048Y-64854841D01*
X154928934Y-64843934D01*
X154939841Y-64834048D01*
X154951664Y-64825280D01*
X154964290Y-64817712D01*
X154977597Y-64811418D01*
X154991457Y-64806459D01*
X155005736Y-64802882D01*
X155020297Y-64800722D01*
X155035000Y-64800000D01*
X155335000Y-64800000D01*
X155349703Y-64800722D01*
X155349703Y-64800722D01*
G37*
D27*
X155185000Y-65775000D03*
D16*
G36*
X154079703Y-64800722D02*
G01*
X154094264Y-64802882D01*
X154108543Y-64806459D01*
X154122403Y-64811418D01*
X154135710Y-64817712D01*
X154148336Y-64825280D01*
X154160159Y-64834048D01*
X154171066Y-64843934D01*
X154180952Y-64854841D01*
X154189720Y-64866664D01*
X154197288Y-64879290D01*
X154203582Y-64892597D01*
X154208541Y-64906457D01*
X154212118Y-64920736D01*
X154214278Y-64935297D01*
X154215000Y-64950000D01*
X154215000Y-66600000D01*
X154214278Y-66614703D01*
X154212118Y-66629264D01*
X154208541Y-66643543D01*
X154203582Y-66657403D01*
X154197288Y-66670710D01*
X154189720Y-66683336D01*
X154180952Y-66695159D01*
X154171066Y-66706066D01*
X154160159Y-66715952D01*
X154148336Y-66724720D01*
X154135710Y-66732288D01*
X154122403Y-66738582D01*
X154108543Y-66743541D01*
X154094264Y-66747118D01*
X154079703Y-66749278D01*
X154065000Y-66750000D01*
X153765000Y-66750000D01*
X153750297Y-66749278D01*
X153735736Y-66747118D01*
X153721457Y-66743541D01*
X153707597Y-66738582D01*
X153694290Y-66732288D01*
X153681664Y-66724720D01*
X153669841Y-66715952D01*
X153658934Y-66706066D01*
X153649048Y-66695159D01*
X153640280Y-66683336D01*
X153632712Y-66670710D01*
X153626418Y-66657403D01*
X153621459Y-66643543D01*
X153617882Y-66629264D01*
X153615722Y-66614703D01*
X153615000Y-66600000D01*
X153615000Y-64950000D01*
X153615722Y-64935297D01*
X153617882Y-64920736D01*
X153621459Y-64906457D01*
X153626418Y-64892597D01*
X153632712Y-64879290D01*
X153640280Y-64866664D01*
X153649048Y-64854841D01*
X153658934Y-64843934D01*
X153669841Y-64834048D01*
X153681664Y-64825280D01*
X153694290Y-64817712D01*
X153707597Y-64811418D01*
X153721457Y-64806459D01*
X153735736Y-64802882D01*
X153750297Y-64800722D01*
X153765000Y-64800000D01*
X154065000Y-64800000D01*
X154079703Y-64800722D01*
X154079703Y-64800722D01*
G37*
D27*
X153915000Y-65775000D03*
D16*
G36*
X152809703Y-64800722D02*
G01*
X152824264Y-64802882D01*
X152838543Y-64806459D01*
X152852403Y-64811418D01*
X152865710Y-64817712D01*
X152878336Y-64825280D01*
X152890159Y-64834048D01*
X152901066Y-64843934D01*
X152910952Y-64854841D01*
X152919720Y-64866664D01*
X152927288Y-64879290D01*
X152933582Y-64892597D01*
X152938541Y-64906457D01*
X152942118Y-64920736D01*
X152944278Y-64935297D01*
X152945000Y-64950000D01*
X152945000Y-66600000D01*
X152944278Y-66614703D01*
X152942118Y-66629264D01*
X152938541Y-66643543D01*
X152933582Y-66657403D01*
X152927288Y-66670710D01*
X152919720Y-66683336D01*
X152910952Y-66695159D01*
X152901066Y-66706066D01*
X152890159Y-66715952D01*
X152878336Y-66724720D01*
X152865710Y-66732288D01*
X152852403Y-66738582D01*
X152838543Y-66743541D01*
X152824264Y-66747118D01*
X152809703Y-66749278D01*
X152795000Y-66750000D01*
X152495000Y-66750000D01*
X152480297Y-66749278D01*
X152465736Y-66747118D01*
X152451457Y-66743541D01*
X152437597Y-66738582D01*
X152424290Y-66732288D01*
X152411664Y-66724720D01*
X152399841Y-66715952D01*
X152388934Y-66706066D01*
X152379048Y-66695159D01*
X152370280Y-66683336D01*
X152362712Y-66670710D01*
X152356418Y-66657403D01*
X152351459Y-66643543D01*
X152347882Y-66629264D01*
X152345722Y-66614703D01*
X152345000Y-66600000D01*
X152345000Y-64950000D01*
X152345722Y-64935297D01*
X152347882Y-64920736D01*
X152351459Y-64906457D01*
X152356418Y-64892597D01*
X152362712Y-64879290D01*
X152370280Y-64866664D01*
X152379048Y-64854841D01*
X152388934Y-64843934D01*
X152399841Y-64834048D01*
X152411664Y-64825280D01*
X152424290Y-64817712D01*
X152437597Y-64811418D01*
X152451457Y-64806459D01*
X152465736Y-64802882D01*
X152480297Y-64800722D01*
X152495000Y-64800000D01*
X152795000Y-64800000D01*
X152809703Y-64800722D01*
X152809703Y-64800722D01*
G37*
D27*
X152645000Y-65775000D03*
D28*
X182000000Y-79067575D02*
X182000000Y-78550000D01*
X179900000Y-81167575D02*
X182000000Y-79067575D01*
X179900000Y-83800000D02*
X179900000Y-81167575D01*
X178200001Y-61499999D02*
X179000000Y-60700000D01*
X172400000Y-67300000D02*
X178200001Y-61499999D01*
X172400000Y-87400000D02*
X172400000Y-67300000D01*
X173400000Y-88400000D02*
X172400000Y-87400000D01*
X110650000Y-58350000D02*
X127900000Y-58350000D01*
X108400000Y-60600000D02*
X110650000Y-58350000D01*
X127900000Y-55350000D02*
X136000000Y-55350000D01*
X155185000Y-64700000D02*
X155185000Y-65775000D01*
X152298242Y-64474990D02*
X154959990Y-64474990D01*
X146830000Y-70670000D02*
X152019990Y-65480010D01*
X152019990Y-64753242D02*
X152298242Y-64474990D01*
X146020000Y-70670000D02*
X146830000Y-70670000D01*
X154959990Y-64474990D02*
X155185000Y-64700000D01*
X152019990Y-65480010D02*
X152019990Y-64753242D01*
X144970000Y-71720000D02*
X146020000Y-70670000D01*
X144970000Y-72120000D02*
X144970000Y-71720000D01*
X153544290Y-66145710D02*
X153544290Y-68178942D01*
X153544290Y-68178942D02*
X151400000Y-70323232D01*
X153915000Y-65775000D02*
X153544290Y-66145710D01*
X151400000Y-70323232D02*
X151400000Y-72761004D01*
X148635010Y-73645010D02*
X147510000Y-72520000D01*
X147510000Y-72520000D02*
X147510000Y-72120000D01*
X150515994Y-73645010D02*
X148635010Y-73645010D01*
X151400000Y-72761004D02*
X150515994Y-73645010D01*
X127900000Y-61350000D02*
X136000000Y-61350000D01*
X144970000Y-65950000D02*
X144970000Y-64500000D01*
X144695019Y-74095019D02*
X143844990Y-73244990D01*
X143844990Y-73244990D02*
X143844990Y-67075010D01*
X152889980Y-74095019D02*
X144695019Y-74095019D01*
X155185000Y-71800000D02*
X152889980Y-74095019D01*
X143844990Y-67075010D02*
X144970000Y-65950000D01*
X155185000Y-70725000D02*
X155185000Y-71800000D01*
X113800000Y-81850000D02*
X113800000Y-83900000D01*
X110500000Y-78550000D02*
X113800000Y-81850000D01*
X119575010Y-82924990D02*
X119399999Y-83100001D01*
X119575010Y-80425010D02*
X119575010Y-82924990D01*
X119399999Y-83100001D02*
X118600000Y-83900000D01*
X117800000Y-78650000D02*
X119575010Y-80425010D01*
X188150001Y-79499999D02*
X189000000Y-78650000D01*
X185299999Y-82350001D02*
X188150001Y-79499999D01*
X185299999Y-83100001D02*
X185299999Y-82350001D01*
X184500000Y-83900000D02*
X185299999Y-83100001D01*
X141700001Y-89199999D02*
X142600000Y-88300000D01*
X129725001Y-89525001D02*
X141374999Y-89525001D01*
X141374999Y-89525001D02*
X141700001Y-89199999D01*
X128500000Y-88300000D02*
X129725001Y-89525001D01*
X156049990Y-89649990D02*
X173963012Y-89649990D01*
X143925001Y-89625001D02*
X154788001Y-89625001D01*
X155600000Y-89200000D02*
X156049990Y-89649990D01*
X155213002Y-89200000D02*
X155600000Y-89200000D01*
X154788001Y-89625001D02*
X155213002Y-89200000D01*
X142600000Y-88300000D02*
X143925001Y-89625001D01*
X128500000Y-88300000D02*
X128500000Y-82108998D01*
X122041002Y-75650000D02*
X117800000Y-75650000D01*
X128500000Y-82108998D02*
X122041002Y-75650000D01*
X110600000Y-75650000D02*
X110500000Y-75550000D01*
X117800000Y-75650000D02*
X110600000Y-75650000D01*
X110400000Y-75650000D02*
X110500000Y-75550000D01*
X103300000Y-75650000D02*
X110400000Y-75650000D01*
X181150001Y-76399999D02*
X182000000Y-75550000D01*
X180824999Y-76725001D02*
X181150001Y-76399999D01*
X176200000Y-83739000D02*
X180824999Y-79114001D01*
X180824999Y-79114001D02*
X180824999Y-76725001D01*
X176200000Y-87413002D02*
X176200000Y-83739000D01*
X173963012Y-89649990D02*
X176200000Y-87413002D01*
X183202081Y-75550000D02*
X189200000Y-75550000D01*
X182000000Y-75550000D02*
X183202081Y-75550000D01*
X189200000Y-75550000D02*
X196500000Y-75550000D01*
X150050000Y-64500000D02*
X147510000Y-64500000D01*
X152645000Y-70725000D02*
X153915000Y-70725000D01*
X154285710Y-69019290D02*
X156455000Y-66850000D01*
X156455000Y-66850000D02*
X156455000Y-65775000D01*
X154285710Y-70354290D02*
X154285710Y-69019290D01*
X153915000Y-70725000D02*
X154285710Y-70354290D01*
X155779981Y-64024981D02*
X156455000Y-64700000D01*
X156455000Y-64700000D02*
X156455000Y-65775000D01*
X151100000Y-64500000D02*
X151575019Y-64024981D01*
X151575019Y-64024981D02*
X155779981Y-64024981D01*
X150050000Y-64500000D02*
X151100000Y-64500000D01*
X141304990Y-69544990D02*
X142430000Y-70670000D01*
X141304990Y-63634006D02*
X141304990Y-69544990D01*
X142430000Y-70670000D02*
X142430000Y-72120000D01*
X141964006Y-62974990D02*
X141304990Y-63634006D01*
X146384990Y-62974990D02*
X141964006Y-62974990D01*
X147510000Y-64100000D02*
X146384990Y-62974990D01*
X147510000Y-64500000D02*
X147510000Y-64100000D01*
X142600000Y-81390000D02*
X142430000Y-81220000D01*
X142430000Y-81220000D02*
X142430000Y-72120000D01*
X142600000Y-88300000D02*
X142600000Y-81390000D01*
X108550000Y-83900000D02*
X109100000Y-83900000D01*
X103300000Y-78650000D02*
X108550000Y-83900000D01*
X150050000Y-68370000D02*
X150050000Y-72120000D01*
X152645000Y-65775000D02*
X150050000Y-68370000D01*
X171863534Y-62025010D02*
X170425010Y-62025010D01*
X175400000Y-58488544D02*
X171863534Y-62025010D01*
X170425010Y-62025010D02*
X168800000Y-60400000D01*
X175400000Y-57720000D02*
X178020000Y-55100000D01*
X175400000Y-58488544D02*
X175400000Y-57720000D01*
X178020000Y-53968630D02*
X178020000Y-51800000D01*
X178020000Y-55100000D02*
X178020000Y-53968630D01*
X171600000Y-57600000D02*
X170070000Y-59130000D01*
X171600000Y-53000000D02*
X171600000Y-57600000D01*
X170400000Y-51800000D02*
X171600000Y-53000000D01*
X167857415Y-55575010D02*
X170400000Y-53032425D01*
X166325010Y-55575010D02*
X167857415Y-55575010D01*
X170400000Y-52789949D02*
X170400000Y-51800000D01*
X170400000Y-53032425D02*
X170400000Y-52789949D01*
X164450000Y-53700000D02*
X166325010Y-55575010D01*
X160099999Y-87500001D02*
X159200000Y-88400000D01*
X160425001Y-87174999D02*
X160099999Y-87500001D01*
X169674999Y-87174999D02*
X160425001Y-87174999D01*
X170900000Y-88400000D02*
X169674999Y-87174999D01*
X143675001Y-50674999D02*
X136000000Y-58350000D01*
X181874999Y-50674999D02*
X143675001Y-50674999D01*
X192200000Y-61000000D02*
X181874999Y-50674999D01*
X188500000Y-85550000D02*
X195400000Y-78650000D01*
X195400000Y-78650000D02*
X196300000Y-78650000D01*
X188500000Y-86600000D02*
X188500000Y-85550000D01*
D29*
G36*
X137382601Y-55892598D02*
G01*
X137427932Y-55783158D01*
X137485000Y-55496260D01*
X137485000Y-55203740D01*
X137427932Y-54916842D01*
X137315990Y-54646589D01*
X137153475Y-54403368D01*
X136946632Y-54196525D01*
X136703411Y-54034010D01*
X136585090Y-53985000D01*
X136625408Y-53985000D01*
X136850913Y-53962790D01*
X137140261Y-53875017D01*
X137406927Y-53732481D01*
X137640661Y-53540661D01*
X137832481Y-53306927D01*
X137975017Y-53040261D01*
X138062790Y-52750913D01*
X138092427Y-52450000D01*
X138062790Y-52149087D01*
X137975017Y-51859739D01*
X137832481Y-51593073D01*
X137640661Y-51359339D01*
X137406927Y-51167519D01*
X137140261Y-51024983D01*
X136850913Y-50937210D01*
X136625408Y-50915000D01*
X135274592Y-50915000D01*
X135049087Y-50937210D01*
X134759739Y-51024983D01*
X134493073Y-51167519D01*
X134259339Y-51359339D01*
X134067519Y-51593073D01*
X133924983Y-51859739D01*
X133837210Y-52149087D01*
X133807573Y-52450000D01*
X133837210Y-52750913D01*
X133924983Y-53040261D01*
X134067519Y-53306927D01*
X134259339Y-53540661D01*
X134493073Y-53732481D01*
X134759739Y-53875017D01*
X135049087Y-53962790D01*
X135274592Y-53985000D01*
X135414910Y-53985000D01*
X135296589Y-54034010D01*
X135053368Y-54196525D01*
X134846525Y-54403368D01*
X134721822Y-54590000D01*
X129178178Y-54590000D01*
X129053475Y-54403368D01*
X128846632Y-54196525D01*
X128603411Y-54034010D01*
X128485090Y-53985000D01*
X128525408Y-53985000D01*
X128750913Y-53962790D01*
X129040261Y-53875017D01*
X129306927Y-53732481D01*
X129540661Y-53540661D01*
X129732481Y-53306927D01*
X129875017Y-53040261D01*
X129962790Y-52750913D01*
X129992427Y-52450000D01*
X129962790Y-52149087D01*
X129875017Y-51859739D01*
X129732481Y-51593073D01*
X129540661Y-51359339D01*
X129306927Y-51167519D01*
X129040261Y-51024983D01*
X128750913Y-50937210D01*
X128525408Y-50915000D01*
X127174592Y-50915000D01*
X126949087Y-50937210D01*
X126659739Y-51024983D01*
X126393073Y-51167519D01*
X126159339Y-51359339D01*
X125967519Y-51593073D01*
X125824983Y-51859739D01*
X125737210Y-52149087D01*
X125707573Y-52450000D01*
X125737210Y-52750913D01*
X125824983Y-53040261D01*
X125967519Y-53306927D01*
X126159339Y-53540661D01*
X126393073Y-53732481D01*
X126659739Y-53875017D01*
X126949087Y-53962790D01*
X127174592Y-53985000D01*
X127314910Y-53985000D01*
X127196589Y-54034010D01*
X126953368Y-54196525D01*
X126746525Y-54403368D01*
X126584010Y-54646589D01*
X126472068Y-54916842D01*
X126415000Y-55203740D01*
X126415000Y-55496260D01*
X126472068Y-55783158D01*
X126584010Y-56053411D01*
X126746525Y-56296632D01*
X126953368Y-56503475D01*
X127196589Y-56665990D01*
X127466842Y-56777932D01*
X127753740Y-56835000D01*
X128046260Y-56835000D01*
X128333158Y-56777932D01*
X128603411Y-56665990D01*
X128846632Y-56503475D01*
X129053475Y-56296632D01*
X129178178Y-56110000D01*
X134721822Y-56110000D01*
X134846525Y-56296632D01*
X135053368Y-56503475D01*
X135296589Y-56665990D01*
X135566842Y-56777932D01*
X135853740Y-56835000D01*
X136146260Y-56835000D01*
X136433158Y-56777932D01*
X136542598Y-56732601D01*
X136366408Y-56908791D01*
X136146260Y-56865000D01*
X135853740Y-56865000D01*
X135566842Y-56922068D01*
X135296589Y-57034010D01*
X135053368Y-57196525D01*
X134846525Y-57403368D01*
X134684010Y-57646589D01*
X134572068Y-57916842D01*
X134515000Y-58203740D01*
X134515000Y-58496260D01*
X134572068Y-58783158D01*
X134684010Y-59053411D01*
X134846525Y-59296632D01*
X135053368Y-59503475D01*
X135296589Y-59665990D01*
X135566842Y-59777932D01*
X135853740Y-59835000D01*
X136146260Y-59835000D01*
X136433158Y-59777932D01*
X136703411Y-59665990D01*
X136946632Y-59503475D01*
X137153475Y-59296632D01*
X137315990Y-59053411D01*
X137427932Y-58783158D01*
X137485000Y-58496260D01*
X137485000Y-58203740D01*
X137474311Y-58150000D01*
X142311928Y-58150000D01*
X142324188Y-58274482D01*
X142360498Y-58394180D01*
X142419463Y-58504494D01*
X142498815Y-58601185D01*
X142595506Y-58680537D01*
X142705820Y-58739502D01*
X142825518Y-58775812D01*
X142950000Y-58788072D01*
X144414250Y-58785000D01*
X144573000Y-58626250D01*
X144573000Y-56527000D01*
X144827000Y-56527000D01*
X144827000Y-58626250D01*
X144985750Y-58785000D01*
X146450000Y-58788072D01*
X146574482Y-58775812D01*
X146694180Y-58739502D01*
X146804494Y-58680537D01*
X146901185Y-58601185D01*
X146980537Y-58504494D01*
X147011928Y-58445767D01*
X147011928Y-61150000D01*
X147024188Y-61274482D01*
X147060498Y-61394180D01*
X147119463Y-61504494D01*
X147198815Y-61601185D01*
X147295506Y-61680537D01*
X147405820Y-61739502D01*
X147525518Y-61775812D01*
X147650000Y-61788072D01*
X151150000Y-61788072D01*
X151274482Y-61775812D01*
X151394180Y-61739502D01*
X151504494Y-61680537D01*
X151601185Y-61601185D01*
X151680537Y-61504494D01*
X151739502Y-61394180D01*
X151775812Y-61274482D01*
X151788072Y-61150000D01*
X151788072Y-60458665D01*
X157965000Y-60458665D01*
X157965000Y-60741335D01*
X158020147Y-61018574D01*
X158128320Y-61279727D01*
X158285363Y-61514759D01*
X158485241Y-61714637D01*
X158720273Y-61871680D01*
X158981426Y-61979853D01*
X159258665Y-62035000D01*
X159541335Y-62035000D01*
X159818574Y-61979853D01*
X160079727Y-61871680D01*
X160314759Y-61714637D01*
X160436694Y-61592702D01*
X163586903Y-61592702D01*
X163658486Y-61836671D01*
X163913996Y-61957571D01*
X164188184Y-62026300D01*
X164470512Y-62040217D01*
X164750130Y-61998787D01*
X165016292Y-61903603D01*
X165141514Y-61836671D01*
X165213097Y-61592702D01*
X164400000Y-60779605D01*
X163586903Y-61592702D01*
X160436694Y-61592702D01*
X160514637Y-61514759D01*
X160671680Y-61279727D01*
X160779853Y-61018574D01*
X160835000Y-60741335D01*
X160835000Y-60670512D01*
X162959783Y-60670512D01*
X163001213Y-60950130D01*
X163096397Y-61216292D01*
X163163329Y-61341514D01*
X163407298Y-61413097D01*
X164220395Y-60600000D01*
X164579605Y-60600000D01*
X165392702Y-61413097D01*
X165636671Y-61341514D01*
X165757571Y-61086004D01*
X165826300Y-60811816D01*
X165840217Y-60529488D01*
X165798787Y-60249870D01*
X165703603Y-59983708D01*
X165636671Y-59858486D01*
X165392702Y-59786903D01*
X164579605Y-60600000D01*
X164220395Y-60600000D01*
X163407298Y-59786903D01*
X163163329Y-59858486D01*
X163042429Y-60113996D01*
X162973700Y-60388184D01*
X162959783Y-60670512D01*
X160835000Y-60670512D01*
X160835000Y-60458665D01*
X160779853Y-60181426D01*
X160671680Y-59920273D01*
X160514637Y-59685241D01*
X160436694Y-59607298D01*
X163586903Y-59607298D01*
X164400000Y-60420395D01*
X165213097Y-59607298D01*
X165141514Y-59363329D01*
X164886004Y-59242429D01*
X164611816Y-59173700D01*
X164329488Y-59159783D01*
X164049870Y-59201213D01*
X163783708Y-59296397D01*
X163658486Y-59363329D01*
X163586903Y-59607298D01*
X160436694Y-59607298D01*
X160314759Y-59485363D01*
X160079727Y-59328320D01*
X159818574Y-59220147D01*
X159541335Y-59165000D01*
X159258665Y-59165000D01*
X158981426Y-59220147D01*
X158720273Y-59328320D01*
X158485241Y-59485363D01*
X158285363Y-59685241D01*
X158128320Y-59920273D01*
X158020147Y-60181426D01*
X157965000Y-60458665D01*
X151788072Y-60458665D01*
X151788072Y-57650000D01*
X151775812Y-57525518D01*
X151739502Y-57405820D01*
X151680537Y-57295506D01*
X151601185Y-57198815D01*
X151504494Y-57119463D01*
X151394180Y-57060498D01*
X151274482Y-57024188D01*
X151150000Y-57011928D01*
X147650000Y-57011928D01*
X147525518Y-57024188D01*
X147405820Y-57060498D01*
X147295506Y-57119463D01*
X147198815Y-57198815D01*
X147119463Y-57295506D01*
X147086409Y-57357345D01*
X147085000Y-56685750D01*
X146926250Y-56527000D01*
X144827000Y-56527000D01*
X144573000Y-56527000D01*
X142473750Y-56527000D01*
X142315000Y-56685750D01*
X142311928Y-58150000D01*
X137474311Y-58150000D01*
X137441209Y-57983592D01*
X140774801Y-54650000D01*
X142311928Y-54650000D01*
X142315000Y-56114250D01*
X142473750Y-56273000D01*
X144573000Y-56273000D01*
X144573000Y-54173750D01*
X144827000Y-54173750D01*
X144827000Y-56273000D01*
X146926250Y-56273000D01*
X147085000Y-56114250D01*
X147086931Y-55193633D01*
X147119463Y-55254494D01*
X147198815Y-55351185D01*
X147295506Y-55430537D01*
X147405820Y-55489502D01*
X147525518Y-55525812D01*
X147650000Y-55538072D01*
X149114250Y-55535000D01*
X149273000Y-55376250D01*
X149273000Y-53527000D01*
X149527000Y-53527000D01*
X149527000Y-55376250D01*
X149685750Y-55535000D01*
X151150000Y-55538072D01*
X151274482Y-55525812D01*
X151394180Y-55489502D01*
X151504494Y-55430537D01*
X151601185Y-55351185D01*
X151680537Y-55254494D01*
X151739502Y-55144180D01*
X151775812Y-55024482D01*
X151788072Y-54900000D01*
X151785000Y-53685750D01*
X151626250Y-53527000D01*
X149527000Y-53527000D01*
X149273000Y-53527000D01*
X147173750Y-53527000D01*
X147015000Y-53685750D01*
X147013302Y-54356805D01*
X146980537Y-54295506D01*
X146901185Y-54198815D01*
X146804494Y-54119463D01*
X146694180Y-54060498D01*
X146574482Y-54024188D01*
X146450000Y-54011928D01*
X144985750Y-54015000D01*
X144827000Y-54173750D01*
X144573000Y-54173750D01*
X144414250Y-54015000D01*
X142950000Y-54011928D01*
X142825518Y-54024188D01*
X142705820Y-54060498D01*
X142595506Y-54119463D01*
X142498815Y-54198815D01*
X142419463Y-54295506D01*
X142360498Y-54405820D01*
X142324188Y-54525518D01*
X142311928Y-54650000D01*
X140774801Y-54650000D01*
X143989803Y-51434999D01*
X147215650Y-51434999D01*
X147198815Y-51448815D01*
X147119463Y-51545506D01*
X147060498Y-51655820D01*
X147024188Y-51775518D01*
X147011928Y-51900000D01*
X147015000Y-53114250D01*
X147173750Y-53273000D01*
X149273000Y-53273000D01*
X149273000Y-53253000D01*
X149527000Y-53253000D01*
X149527000Y-53273000D01*
X151626250Y-53273000D01*
X151785000Y-53114250D01*
X151785100Y-53074593D01*
X154015000Y-53074593D01*
X154015000Y-54425408D01*
X154037210Y-54650913D01*
X154124983Y-54940261D01*
X154267520Y-55206927D01*
X154459340Y-55440661D01*
X154693074Y-55632481D01*
X154959740Y-55775017D01*
X155249088Y-55862790D01*
X155550000Y-55892427D01*
X155850913Y-55862790D01*
X156140261Y-55775017D01*
X156406927Y-55632481D01*
X156640661Y-55440661D01*
X156832481Y-55206927D01*
X156975017Y-54940261D01*
X157062790Y-54650913D01*
X157085000Y-54425408D01*
X157085000Y-54285090D01*
X157134010Y-54403411D01*
X157296525Y-54646632D01*
X157503368Y-54853475D01*
X157746589Y-55015990D01*
X158016842Y-55127932D01*
X158303740Y-55185000D01*
X158596260Y-55185000D01*
X158883158Y-55127932D01*
X159153411Y-55015990D01*
X159396632Y-54853475D01*
X159603475Y-54646632D01*
X159765990Y-54403411D01*
X159877932Y-54133158D01*
X159935000Y-53846260D01*
X159935000Y-53553740D01*
X159965000Y-53553740D01*
X159965000Y-53846260D01*
X160022068Y-54133158D01*
X160134010Y-54403411D01*
X160296525Y-54646632D01*
X160503368Y-54853475D01*
X160746589Y-55015990D01*
X161016842Y-55127932D01*
X161303740Y-55185000D01*
X161596260Y-55185000D01*
X161883158Y-55127932D01*
X162153411Y-55015990D01*
X162396632Y-54853475D01*
X162603475Y-54646632D01*
X162765990Y-54403411D01*
X162877932Y-54133158D01*
X162935000Y-53846260D01*
X162935000Y-53553740D01*
X162877932Y-53266842D01*
X162765990Y-52996589D01*
X162603475Y-52753368D01*
X162396632Y-52546525D01*
X162153411Y-52384010D01*
X161883158Y-52272068D01*
X161596260Y-52215000D01*
X161303740Y-52215000D01*
X161016842Y-52272068D01*
X160746589Y-52384010D01*
X160503368Y-52546525D01*
X160296525Y-52753368D01*
X160134010Y-52996589D01*
X160022068Y-53266842D01*
X159965000Y-53553740D01*
X159935000Y-53553740D01*
X159877932Y-53266842D01*
X159765990Y-52996589D01*
X159603475Y-52753368D01*
X159396632Y-52546525D01*
X159153411Y-52384010D01*
X158883158Y-52272068D01*
X158596260Y-52215000D01*
X158303740Y-52215000D01*
X158016842Y-52272068D01*
X157746589Y-52384010D01*
X157503368Y-52546525D01*
X157296525Y-52753368D01*
X157134010Y-52996589D01*
X157085000Y-53114910D01*
X157085000Y-53074592D01*
X157062790Y-52849087D01*
X156975017Y-52559739D01*
X156832481Y-52293073D01*
X156640661Y-52059339D01*
X156406926Y-51867519D01*
X156140260Y-51724983D01*
X155850912Y-51637210D01*
X155550000Y-51607573D01*
X155249087Y-51637210D01*
X154959739Y-51724983D01*
X154693073Y-51867519D01*
X154459339Y-52059339D01*
X154267519Y-52293074D01*
X154124983Y-52559740D01*
X154037210Y-52849088D01*
X154015000Y-53074593D01*
X151785100Y-53074593D01*
X151788072Y-51900000D01*
X151775812Y-51775518D01*
X151739502Y-51655820D01*
X151680537Y-51545506D01*
X151601185Y-51448815D01*
X151584350Y-51434999D01*
X169009491Y-51434999D01*
X168965000Y-51658665D01*
X168965000Y-51941335D01*
X169020147Y-52218574D01*
X169128320Y-52479727D01*
X169285363Y-52714759D01*
X169464114Y-52893510D01*
X168885000Y-53472623D01*
X168885000Y-53074592D01*
X168862790Y-52849087D01*
X168775017Y-52559739D01*
X168632481Y-52293073D01*
X168440661Y-52059339D01*
X168206926Y-51867519D01*
X167940260Y-51724983D01*
X167650912Y-51637210D01*
X167350000Y-51607573D01*
X167049087Y-51637210D01*
X166759739Y-51724983D01*
X166493073Y-51867519D01*
X166259339Y-52059339D01*
X166067519Y-52293074D01*
X165924983Y-52559740D01*
X165837210Y-52849088D01*
X165815000Y-53074593D01*
X165815000Y-53114910D01*
X165765990Y-52996589D01*
X165603475Y-52753368D01*
X165396632Y-52546525D01*
X165153411Y-52384010D01*
X164883158Y-52272068D01*
X164596260Y-52215000D01*
X164303740Y-52215000D01*
X164016842Y-52272068D01*
X163746589Y-52384010D01*
X163503368Y-52546525D01*
X163296525Y-52753368D01*
X163134010Y-52996589D01*
X163022068Y-53266842D01*
X162965000Y-53553740D01*
X162965000Y-53846260D01*
X163022068Y-54133158D01*
X163134010Y-54403411D01*
X163296525Y-54646632D01*
X163503368Y-54853475D01*
X163746589Y-55015990D01*
X164016842Y-55127932D01*
X164303740Y-55185000D01*
X164596260Y-55185000D01*
X164816408Y-55141209D01*
X165761211Y-56086013D01*
X165785009Y-56115011D01*
X165814007Y-56138809D01*
X165900734Y-56209984D01*
X166032763Y-56280556D01*
X166176024Y-56324013D01*
X166325010Y-56338687D01*
X166362343Y-56335010D01*
X167820093Y-56335010D01*
X167857415Y-56338686D01*
X167894737Y-56335010D01*
X167894748Y-56335010D01*
X168006401Y-56324013D01*
X168149662Y-56280556D01*
X168281691Y-56209984D01*
X168397416Y-56115011D01*
X168421219Y-56086007D01*
X169019753Y-55487473D01*
X169048754Y-55583087D01*
X169168963Y-55837420D01*
X169336481Y-56063414D01*
X169544869Y-56252385D01*
X169786119Y-56397070D01*
X170050960Y-56491909D01*
X170273000Y-56370624D01*
X170273000Y-55227000D01*
X170253000Y-55227000D01*
X170253000Y-54973000D01*
X170273000Y-54973000D01*
X170273000Y-54953000D01*
X170527000Y-54953000D01*
X170527000Y-54973000D01*
X170547000Y-54973000D01*
X170547000Y-55227000D01*
X170527000Y-55227000D01*
X170527000Y-56370624D01*
X170749040Y-56491909D01*
X170840001Y-56459336D01*
X170840001Y-57285197D01*
X170804778Y-57320420D01*
X170694418Y-57261431D01*
X170523132Y-57209472D01*
X170345000Y-57191928D01*
X169795000Y-57191928D01*
X169616868Y-57209472D01*
X169445582Y-57261431D01*
X169287724Y-57345808D01*
X169149361Y-57459361D01*
X169035808Y-57597724D01*
X168951431Y-57755582D01*
X168899472Y-57926868D01*
X168881928Y-58105000D01*
X168881928Y-59261928D01*
X168250000Y-59261928D01*
X168125518Y-59274188D01*
X168005820Y-59310498D01*
X167895506Y-59369463D01*
X167798815Y-59448815D01*
X167719463Y-59545506D01*
X167660498Y-59655820D01*
X167624188Y-59775518D01*
X167611928Y-59900000D01*
X167611928Y-61700000D01*
X167624188Y-61824482D01*
X167660498Y-61944180D01*
X167719463Y-62054494D01*
X167798815Y-62151185D01*
X167895506Y-62230537D01*
X168005820Y-62289502D01*
X168125518Y-62325812D01*
X168250000Y-62338072D01*
X169350000Y-62338072D01*
X169474482Y-62325812D01*
X169594180Y-62289502D01*
X169607552Y-62282354D01*
X169861211Y-62536013D01*
X169885009Y-62565011D01*
X170000734Y-62659984D01*
X170132763Y-62730556D01*
X170276024Y-62774013D01*
X170387677Y-62785010D01*
X170387686Y-62785010D01*
X170425009Y-62788686D01*
X170462332Y-62785010D01*
X171826212Y-62785010D01*
X171863534Y-62788686D01*
X171900856Y-62785010D01*
X171900867Y-62785010D01*
X172012520Y-62774013D01*
X172155781Y-62730556D01*
X172287810Y-62659984D01*
X172403535Y-62565011D01*
X172427338Y-62536007D01*
X175911004Y-59052342D01*
X175940001Y-59028545D01*
X176034974Y-58912820D01*
X176105546Y-58780791D01*
X176149003Y-58637530D01*
X176160000Y-58525877D01*
X176160000Y-58525868D01*
X176163676Y-58488545D01*
X176160000Y-58451222D01*
X176160000Y-58034801D01*
X177696114Y-56498688D01*
X177878665Y-56535000D01*
X178161335Y-56535000D01*
X178438574Y-56479853D01*
X178699727Y-56371680D01*
X178934759Y-56214637D01*
X179134637Y-56014759D01*
X179291680Y-55779727D01*
X179399853Y-55518574D01*
X179455000Y-55241335D01*
X179455000Y-54958665D01*
X179399853Y-54681426D01*
X179291680Y-54420273D01*
X179134637Y-54185241D01*
X178934759Y-53985363D01*
X178780000Y-53881957D01*
X178780000Y-53020901D01*
X178821101Y-52998932D01*
X179039608Y-52819608D01*
X179218932Y-52601101D01*
X179352182Y-52351808D01*
X179434236Y-52081309D01*
X179461943Y-51800000D01*
X179434236Y-51518691D01*
X179408849Y-51434999D01*
X181560198Y-51434999D01*
X190423347Y-60298149D01*
X190363400Y-60442873D01*
X190290000Y-60811881D01*
X190290000Y-61188119D01*
X190363400Y-61557127D01*
X190507380Y-61904724D01*
X190716406Y-62217554D01*
X190982446Y-62483594D01*
X191295276Y-62692620D01*
X191642873Y-62836600D01*
X192011881Y-62910000D01*
X192388119Y-62910000D01*
X192757127Y-62836600D01*
X193104724Y-62692620D01*
X193179249Y-62642824D01*
X195205098Y-62642824D01*
X195254666Y-63060451D01*
X195384757Y-63460383D01*
X195542786Y-63756038D01*
X195858347Y-63912048D01*
X197170395Y-62600000D01*
X195858347Y-61287952D01*
X195542786Y-61443962D01*
X195351980Y-61818745D01*
X195237956Y-62223551D01*
X195205098Y-62642824D01*
X193179249Y-62642824D01*
X193417554Y-62483594D01*
X193683594Y-62217554D01*
X193892620Y-61904724D01*
X194036600Y-61557127D01*
X194110000Y-61188119D01*
X194110000Y-61108347D01*
X196037952Y-61108347D01*
X197350000Y-62420395D01*
X198662048Y-61108347D01*
X198506038Y-60792786D01*
X198131255Y-60601980D01*
X197726449Y-60487956D01*
X197307176Y-60455098D01*
X196889549Y-60504666D01*
X196489617Y-60634757D01*
X196193962Y-60792786D01*
X196037952Y-61108347D01*
X194110000Y-61108347D01*
X194110000Y-60811881D01*
X194036600Y-60442873D01*
X193892620Y-60095276D01*
X193683594Y-59782446D01*
X193417554Y-59516406D01*
X193104724Y-59307380D01*
X192757127Y-59163400D01*
X192388119Y-59090000D01*
X192011881Y-59090000D01*
X191642873Y-59163400D01*
X191498149Y-59223347D01*
X185554674Y-53279872D01*
X194365000Y-53279872D01*
X194365000Y-53720128D01*
X194450890Y-54151925D01*
X194619369Y-54558669D01*
X194863962Y-54924729D01*
X195175271Y-55236038D01*
X195541331Y-55480631D01*
X195948075Y-55649110D01*
X196379872Y-55735000D01*
X196820128Y-55735000D01*
X197251925Y-55649110D01*
X197658669Y-55480631D01*
X198024729Y-55236038D01*
X198336038Y-54924729D01*
X198580631Y-54558669D01*
X198749110Y-54151925D01*
X198835000Y-53720128D01*
X198835000Y-53279872D01*
X198749110Y-52848075D01*
X198580631Y-52441331D01*
X198336038Y-52075271D01*
X198024729Y-51763962D01*
X197658669Y-51519369D01*
X197251925Y-51350890D01*
X196820128Y-51265000D01*
X196379872Y-51265000D01*
X195948075Y-51350890D01*
X195541331Y-51519369D01*
X195175271Y-51763962D01*
X194863962Y-52075271D01*
X194619369Y-52441331D01*
X194450890Y-52848075D01*
X194365000Y-53279872D01*
X185554674Y-53279872D01*
X182934801Y-50660000D01*
X199340000Y-50660000D01*
X199340000Y-61815727D01*
X199315243Y-61739617D01*
X199157214Y-61443962D01*
X198841653Y-61287952D01*
X197529605Y-62600000D01*
X198841653Y-63912048D01*
X199157214Y-63756038D01*
X199340000Y-63397007D01*
X199340001Y-89340000D01*
X185869103Y-89340000D01*
X185926300Y-89111816D01*
X185940217Y-88829488D01*
X185898787Y-88549870D01*
X185803603Y-88283708D01*
X185736671Y-88158486D01*
X185492702Y-88086903D01*
X184679605Y-88900000D01*
X184693748Y-88914143D01*
X184514143Y-89093748D01*
X184500000Y-89079605D01*
X184485858Y-89093748D01*
X184306253Y-88914143D01*
X184320395Y-88900000D01*
X183507298Y-88086903D01*
X183263329Y-88158486D01*
X183142429Y-88413996D01*
X183073700Y-88688184D01*
X183059783Y-88970512D01*
X183101213Y-89250130D01*
X183133352Y-89340000D01*
X181232022Y-89340000D01*
X181257571Y-89286004D01*
X181326300Y-89011816D01*
X181340217Y-88729488D01*
X181298787Y-88449870D01*
X181203603Y-88183708D01*
X181136671Y-88058486D01*
X180892702Y-87986903D01*
X180079605Y-88800000D01*
X180093748Y-88814143D01*
X179914143Y-88993748D01*
X179900000Y-88979605D01*
X179885858Y-88993748D01*
X179706253Y-88814143D01*
X179720395Y-88800000D01*
X178907298Y-87986903D01*
X178663329Y-88058486D01*
X178542429Y-88313996D01*
X178473700Y-88588184D01*
X178459783Y-88870512D01*
X178501213Y-89150130D01*
X178569114Y-89340000D01*
X175347803Y-89340000D01*
X176711004Y-87976800D01*
X176740001Y-87953003D01*
X176834974Y-87837278D01*
X176850998Y-87807298D01*
X179086903Y-87807298D01*
X179900000Y-88620395D01*
X180613097Y-87907298D01*
X183686903Y-87907298D01*
X184500000Y-88720395D01*
X185313097Y-87907298D01*
X185241514Y-87663329D01*
X184986004Y-87542429D01*
X184711816Y-87473700D01*
X184429488Y-87459783D01*
X184149870Y-87501213D01*
X183883708Y-87596397D01*
X183758486Y-87663329D01*
X183686903Y-87907298D01*
X180613097Y-87907298D01*
X180713097Y-87807298D01*
X180641514Y-87563329D01*
X180386004Y-87442429D01*
X180111816Y-87373700D01*
X179829488Y-87359783D01*
X179549870Y-87401213D01*
X179283708Y-87496397D01*
X179158486Y-87563329D01*
X179086903Y-87807298D01*
X176850998Y-87807298D01*
X176905546Y-87705249D01*
X176949003Y-87561988D01*
X176960000Y-87450335D01*
X176960000Y-87450327D01*
X176963676Y-87413002D01*
X176960000Y-87375677D01*
X176960000Y-84053801D01*
X179140001Y-81873801D01*
X179140000Y-82581956D01*
X178985241Y-82685363D01*
X178785363Y-82885241D01*
X178628320Y-83120273D01*
X178520147Y-83381426D01*
X178465000Y-83658665D01*
X178465000Y-83941335D01*
X178520147Y-84218574D01*
X178628320Y-84479727D01*
X178785363Y-84714759D01*
X178985241Y-84914637D01*
X179220273Y-85071680D01*
X179481426Y-85179853D01*
X179758665Y-85235000D01*
X180041335Y-85235000D01*
X180318574Y-85179853D01*
X180579727Y-85071680D01*
X180814759Y-84914637D01*
X181014637Y-84714759D01*
X181171680Y-84479727D01*
X181279853Y-84218574D01*
X181335000Y-83941335D01*
X181335000Y-83758665D01*
X183065000Y-83758665D01*
X183065000Y-84041335D01*
X183120147Y-84318574D01*
X183228320Y-84579727D01*
X183385363Y-84814759D01*
X183585241Y-85014637D01*
X183820273Y-85171680D01*
X184081426Y-85279853D01*
X184358665Y-85335000D01*
X184641335Y-85335000D01*
X184918574Y-85279853D01*
X185179727Y-85171680D01*
X185414759Y-85014637D01*
X185614637Y-84814759D01*
X185771680Y-84579727D01*
X185879853Y-84318574D01*
X185935000Y-84041335D01*
X185935000Y-83758665D01*
X185897467Y-83569978D01*
X185934972Y-83524278D01*
X185934973Y-83524277D01*
X186005545Y-83392248D01*
X186049002Y-83248987D01*
X186059999Y-83137334D01*
X186059999Y-83137325D01*
X186063675Y-83100002D01*
X186059999Y-83062679D01*
X186059999Y-82664802D01*
X186845747Y-81879055D01*
X186924983Y-82140261D01*
X187067519Y-82406927D01*
X187259339Y-82640661D01*
X187493073Y-82832481D01*
X187759739Y-82975017D01*
X188049087Y-83062790D01*
X188274592Y-83085000D01*
X189625408Y-83085000D01*
X189850913Y-83062790D01*
X189939186Y-83036013D01*
X187988998Y-84986201D01*
X187960000Y-85009999D01*
X187936202Y-85038997D01*
X187936201Y-85038998D01*
X187865026Y-85125724D01*
X187845674Y-85161928D01*
X187700000Y-85161928D01*
X187575518Y-85174188D01*
X187455820Y-85210498D01*
X187345506Y-85269463D01*
X187248815Y-85348815D01*
X187169463Y-85445506D01*
X187110498Y-85555820D01*
X187074188Y-85675518D01*
X187061928Y-85800000D01*
X187061928Y-87400000D01*
X187074188Y-87524482D01*
X187110498Y-87644180D01*
X187169463Y-87754494D01*
X187248815Y-87851185D01*
X187345506Y-87930537D01*
X187455820Y-87989502D01*
X187575518Y-88025812D01*
X187700000Y-88038072D01*
X189300000Y-88038072D01*
X189424482Y-88025812D01*
X189544180Y-87989502D01*
X189654494Y-87930537D01*
X189751185Y-87851185D01*
X189830537Y-87754494D01*
X189889502Y-87644180D01*
X189905117Y-87592702D01*
X190186903Y-87592702D01*
X190258486Y-87836671D01*
X190513996Y-87957571D01*
X190788184Y-88026300D01*
X191070512Y-88040217D01*
X191350130Y-87998787D01*
X191616292Y-87903603D01*
X191741514Y-87836671D01*
X191813097Y-87592702D01*
X191000000Y-86779605D01*
X190186903Y-87592702D01*
X189905117Y-87592702D01*
X189925812Y-87524482D01*
X189938072Y-87400000D01*
X189938072Y-87392785D01*
X190007298Y-87413097D01*
X190820395Y-86600000D01*
X191179605Y-86600000D01*
X191992702Y-87413097D01*
X192236671Y-87341514D01*
X192357571Y-87086004D01*
X192426300Y-86811816D01*
X192440217Y-86529488D01*
X192403233Y-86279872D01*
X194265000Y-86279872D01*
X194265000Y-86720128D01*
X194350890Y-87151925D01*
X194519369Y-87558669D01*
X194763962Y-87924729D01*
X195075271Y-88236038D01*
X195441331Y-88480631D01*
X195848075Y-88649110D01*
X196279872Y-88735000D01*
X196720128Y-88735000D01*
X197151925Y-88649110D01*
X197558669Y-88480631D01*
X197924729Y-88236038D01*
X198236038Y-87924729D01*
X198480631Y-87558669D01*
X198649110Y-87151925D01*
X198735000Y-86720128D01*
X198735000Y-86279872D01*
X198649110Y-85848075D01*
X198480631Y-85441331D01*
X198236038Y-85075271D01*
X197924729Y-84763962D01*
X197558669Y-84519369D01*
X197151925Y-84350890D01*
X196720128Y-84265000D01*
X196279872Y-84265000D01*
X195848075Y-84350890D01*
X195441331Y-84519369D01*
X195075271Y-84763962D01*
X194763962Y-85075271D01*
X194519369Y-85441331D01*
X194350890Y-85848075D01*
X194265000Y-86279872D01*
X192403233Y-86279872D01*
X192398787Y-86249870D01*
X192303603Y-85983708D01*
X192236671Y-85858486D01*
X191992702Y-85786903D01*
X191179605Y-86600000D01*
X190820395Y-86600000D01*
X190007298Y-85786903D01*
X189938072Y-85807215D01*
X189938072Y-85800000D01*
X189925812Y-85675518D01*
X189905118Y-85607298D01*
X190186903Y-85607298D01*
X191000000Y-86420395D01*
X191813097Y-85607298D01*
X191741514Y-85363329D01*
X191486004Y-85242429D01*
X191211816Y-85173700D01*
X190929488Y-85159783D01*
X190649870Y-85201213D01*
X190383708Y-85296397D01*
X190258486Y-85363329D01*
X190186903Y-85607298D01*
X189905118Y-85607298D01*
X189889502Y-85555820D01*
X189830537Y-85445506D01*
X189762364Y-85362437D01*
X194293788Y-80831014D01*
X194224983Y-80959739D01*
X194137210Y-81249087D01*
X194107573Y-81550000D01*
X194137210Y-81850913D01*
X194224983Y-82140261D01*
X194367519Y-82406927D01*
X194559339Y-82640661D01*
X194793073Y-82832481D01*
X195059739Y-82975017D01*
X195349087Y-83062790D01*
X195574592Y-83085000D01*
X196925408Y-83085000D01*
X197150913Y-83062790D01*
X197440261Y-82975017D01*
X197706927Y-82832481D01*
X197940661Y-82640661D01*
X198132481Y-82406927D01*
X198275017Y-82140261D01*
X198362790Y-81850913D01*
X198392427Y-81550000D01*
X198362790Y-81249087D01*
X198275017Y-80959739D01*
X198132481Y-80693073D01*
X197940661Y-80459339D01*
X197706927Y-80267519D01*
X197440261Y-80124983D01*
X197150913Y-80037210D01*
X196925408Y-80015000D01*
X196885090Y-80015000D01*
X197003411Y-79965990D01*
X197246632Y-79803475D01*
X197453475Y-79596632D01*
X197615990Y-79353411D01*
X197727932Y-79083158D01*
X197785000Y-78796260D01*
X197785000Y-78503740D01*
X197727932Y-78216842D01*
X197615990Y-77946589D01*
X197453475Y-77703368D01*
X197246632Y-77496525D01*
X197003411Y-77334010D01*
X196733158Y-77222068D01*
X196446260Y-77165000D01*
X196153740Y-77165000D01*
X195866842Y-77222068D01*
X195596589Y-77334010D01*
X195353368Y-77496525D01*
X195146525Y-77703368D01*
X194984010Y-77946589D01*
X194945331Y-78039969D01*
X194859999Y-78109999D01*
X194836201Y-78138997D01*
X191036013Y-81939186D01*
X191062790Y-81850913D01*
X191092427Y-81550000D01*
X191062790Y-81249087D01*
X190975017Y-80959739D01*
X190832481Y-80693073D01*
X190640661Y-80459339D01*
X190406927Y-80267519D01*
X190140261Y-80124983D01*
X189850913Y-80037210D01*
X189625408Y-80015000D01*
X189585090Y-80015000D01*
X189703411Y-79965990D01*
X189946632Y-79803475D01*
X190153475Y-79596632D01*
X190315990Y-79353411D01*
X190427932Y-79083158D01*
X190485000Y-78796260D01*
X190485000Y-78503740D01*
X190427932Y-78216842D01*
X190315990Y-77946589D01*
X190153475Y-77703368D01*
X189946632Y-77496525D01*
X189703411Y-77334010D01*
X189433158Y-77222068D01*
X189146260Y-77165000D01*
X188853740Y-77165000D01*
X188566842Y-77222068D01*
X188296589Y-77334010D01*
X188053368Y-77496525D01*
X187846525Y-77703368D01*
X187684010Y-77946589D01*
X187572068Y-78216842D01*
X187515000Y-78503740D01*
X187515000Y-78796260D01*
X187558790Y-79016407D01*
X184788997Y-81786202D01*
X184759999Y-81810000D01*
X184736201Y-81838998D01*
X184736200Y-81838999D01*
X184665025Y-81925725D01*
X184594453Y-82057755D01*
X184590234Y-82071665D01*
X184550996Y-82201015D01*
X184539999Y-82312668D01*
X184539999Y-82312679D01*
X184536323Y-82350001D01*
X184539999Y-82387323D01*
X184539999Y-82465000D01*
X184358665Y-82465000D01*
X184081426Y-82520147D01*
X183820273Y-82628320D01*
X183585241Y-82785363D01*
X183385363Y-82985241D01*
X183228320Y-83220273D01*
X183120147Y-83481426D01*
X183065000Y-83758665D01*
X181335000Y-83758665D01*
X181335000Y-83658665D01*
X181279853Y-83381426D01*
X181171680Y-83120273D01*
X181067677Y-82964621D01*
X181274592Y-82985000D01*
X182625408Y-82985000D01*
X182850913Y-82962790D01*
X183140261Y-82875017D01*
X183406927Y-82732481D01*
X183640661Y-82540661D01*
X183832481Y-82306927D01*
X183975017Y-82040261D01*
X184062790Y-81750913D01*
X184092427Y-81450000D01*
X184062790Y-81149087D01*
X183975017Y-80859739D01*
X183832481Y-80593073D01*
X183640661Y-80359339D01*
X183406927Y-80167519D01*
X183140261Y-80024983D01*
X182850913Y-79937210D01*
X182625408Y-79915000D01*
X182585090Y-79915000D01*
X182703411Y-79865990D01*
X182946632Y-79703475D01*
X183153475Y-79496632D01*
X183315990Y-79253411D01*
X183427932Y-78983158D01*
X183485000Y-78696260D01*
X183485000Y-78403740D01*
X183427932Y-78116842D01*
X183315990Y-77846589D01*
X183153475Y-77603368D01*
X182946632Y-77396525D01*
X182703411Y-77234010D01*
X182433158Y-77122068D01*
X182146260Y-77065000D01*
X181853740Y-77065000D01*
X181584999Y-77118456D01*
X181584999Y-77039802D01*
X181633592Y-76991209D01*
X181853740Y-77035000D01*
X182146260Y-77035000D01*
X182433158Y-76977932D01*
X182703411Y-76865990D01*
X182946632Y-76703475D01*
X183153475Y-76496632D01*
X183278178Y-76310000D01*
X187666029Y-76310000D01*
X187684010Y-76353411D01*
X187846525Y-76596632D01*
X188053368Y-76803475D01*
X188296589Y-76965990D01*
X188566842Y-77077932D01*
X188853740Y-77135000D01*
X189146260Y-77135000D01*
X189433158Y-77077932D01*
X189703411Y-76965990D01*
X189946632Y-76803475D01*
X190153475Y-76596632D01*
X190315990Y-76353411D01*
X190333971Y-76310000D01*
X194966029Y-76310000D01*
X194984010Y-76353411D01*
X195146525Y-76596632D01*
X195353368Y-76803475D01*
X195596589Y-76965990D01*
X195866842Y-77077932D01*
X196153740Y-77135000D01*
X196446260Y-77135000D01*
X196733158Y-77077932D01*
X197003411Y-76965990D01*
X197246632Y-76803475D01*
X197453475Y-76596632D01*
X197615990Y-76353411D01*
X197727932Y-76083158D01*
X197785000Y-75796260D01*
X197785000Y-75503740D01*
X197727932Y-75216842D01*
X197615990Y-74946589D01*
X197453475Y-74703368D01*
X197246632Y-74496525D01*
X197003411Y-74334010D01*
X196733158Y-74222068D01*
X196446260Y-74165000D01*
X196153740Y-74165000D01*
X195866842Y-74222068D01*
X195596589Y-74334010D01*
X195353368Y-74496525D01*
X195146525Y-74703368D01*
X195088639Y-74790000D01*
X190211361Y-74790000D01*
X190153475Y-74703368D01*
X189946632Y-74496525D01*
X189703411Y-74334010D01*
X189433158Y-74222068D01*
X189146260Y-74165000D01*
X188853740Y-74165000D01*
X188566842Y-74222068D01*
X188296589Y-74334010D01*
X188053368Y-74496525D01*
X187846525Y-74703368D01*
X187788639Y-74790000D01*
X183278178Y-74790000D01*
X183153475Y-74603368D01*
X182946632Y-74396525D01*
X182703411Y-74234010D01*
X182433158Y-74122068D01*
X182146260Y-74065000D01*
X181853740Y-74065000D01*
X181566842Y-74122068D01*
X181296589Y-74234010D01*
X181053368Y-74396525D01*
X180846525Y-74603368D01*
X180684010Y-74846589D01*
X180572068Y-75116842D01*
X180515000Y-75403740D01*
X180515000Y-75696260D01*
X180558791Y-75916408D01*
X180313997Y-76161202D01*
X180284999Y-76185000D01*
X180261201Y-76213998D01*
X180261200Y-76213999D01*
X180190025Y-76300725D01*
X180119453Y-76432755D01*
X180075997Y-76576016D01*
X180061323Y-76725001D01*
X180065000Y-76762333D01*
X180064999Y-78799199D01*
X178274834Y-80589365D01*
X178183739Y-80131399D01*
X177985107Y-79651859D01*
X177696738Y-79220285D01*
X177329715Y-78853262D01*
X176898141Y-78564893D01*
X176418601Y-78366261D01*
X175909525Y-78265000D01*
X175390475Y-78265000D01*
X174881399Y-78366261D01*
X174401859Y-78564893D01*
X173970285Y-78853262D01*
X173603262Y-79220285D01*
X173314893Y-79651859D01*
X173160000Y-80025804D01*
X173160000Y-69650000D01*
X179807573Y-69650000D01*
X179837210Y-69950913D01*
X179924983Y-70240261D01*
X180067519Y-70506927D01*
X180259339Y-70740661D01*
X180493073Y-70932481D01*
X180759739Y-71075017D01*
X181049087Y-71162790D01*
X181274592Y-71185000D01*
X181414910Y-71185000D01*
X181296589Y-71234010D01*
X181053368Y-71396525D01*
X180846525Y-71603368D01*
X180684010Y-71846589D01*
X180572068Y-72116842D01*
X180515000Y-72403740D01*
X180515000Y-72696260D01*
X180572068Y-72983158D01*
X180684010Y-73253411D01*
X180846525Y-73496632D01*
X181053368Y-73703475D01*
X181296589Y-73865990D01*
X181566842Y-73977932D01*
X181853740Y-74035000D01*
X182146260Y-74035000D01*
X182433158Y-73977932D01*
X182703411Y-73865990D01*
X182946632Y-73703475D01*
X183153475Y-73496632D01*
X183315990Y-73253411D01*
X183427932Y-72983158D01*
X183485000Y-72696260D01*
X183485000Y-72403740D01*
X183427932Y-72116842D01*
X183315990Y-71846589D01*
X183153475Y-71603368D01*
X182946632Y-71396525D01*
X182703411Y-71234010D01*
X182585090Y-71185000D01*
X182625408Y-71185000D01*
X182850913Y-71162790D01*
X183140261Y-71075017D01*
X183406927Y-70932481D01*
X183640661Y-70740661D01*
X183832481Y-70506927D01*
X183975017Y-70240261D01*
X184062790Y-69950913D01*
X184082577Y-69750000D01*
X186807573Y-69750000D01*
X186837210Y-70050913D01*
X186924983Y-70340261D01*
X187067519Y-70606927D01*
X187259339Y-70840661D01*
X187493073Y-71032481D01*
X187759739Y-71175017D01*
X188049087Y-71262790D01*
X188274592Y-71285000D01*
X188414910Y-71285000D01*
X188296589Y-71334010D01*
X188053368Y-71496525D01*
X187846525Y-71703368D01*
X187684010Y-71946589D01*
X187572068Y-72216842D01*
X187515000Y-72503740D01*
X187515000Y-72796260D01*
X187572068Y-73083158D01*
X187684010Y-73353411D01*
X187846525Y-73596632D01*
X188053368Y-73803475D01*
X188296589Y-73965990D01*
X188566842Y-74077932D01*
X188853740Y-74135000D01*
X189146260Y-74135000D01*
X189433158Y-74077932D01*
X189703411Y-73965990D01*
X189946632Y-73803475D01*
X190153475Y-73596632D01*
X190315990Y-73353411D01*
X190427932Y-73083158D01*
X190485000Y-72796260D01*
X190485000Y-72503740D01*
X190427932Y-72216842D01*
X190315990Y-71946589D01*
X190153475Y-71703368D01*
X189946632Y-71496525D01*
X189703411Y-71334010D01*
X189585090Y-71285000D01*
X189625408Y-71285000D01*
X189850913Y-71262790D01*
X190140261Y-71175017D01*
X190406927Y-71032481D01*
X190640661Y-70840661D01*
X190832481Y-70606927D01*
X190975017Y-70340261D01*
X191062790Y-70050913D01*
X191092427Y-69750000D01*
X194107573Y-69750000D01*
X194137210Y-70050913D01*
X194224983Y-70340261D01*
X194367519Y-70606927D01*
X194559339Y-70840661D01*
X194793073Y-71032481D01*
X195059739Y-71175017D01*
X195349087Y-71262790D01*
X195574592Y-71285000D01*
X195714910Y-71285000D01*
X195596589Y-71334010D01*
X195353368Y-71496525D01*
X195146525Y-71703368D01*
X194984010Y-71946589D01*
X194872068Y-72216842D01*
X194815000Y-72503740D01*
X194815000Y-72796260D01*
X194872068Y-73083158D01*
X194984010Y-73353411D01*
X195146525Y-73596632D01*
X195353368Y-73803475D01*
X195596589Y-73965990D01*
X195866842Y-74077932D01*
X196153740Y-74135000D01*
X196446260Y-74135000D01*
X196733158Y-74077932D01*
X197003411Y-73965990D01*
X197246632Y-73803475D01*
X197453475Y-73596632D01*
X197615990Y-73353411D01*
X197727932Y-73083158D01*
X197785000Y-72796260D01*
X197785000Y-72503740D01*
X197727932Y-72216842D01*
X197615990Y-71946589D01*
X197453475Y-71703368D01*
X197246632Y-71496525D01*
X197003411Y-71334010D01*
X196885090Y-71285000D01*
X196925408Y-71285000D01*
X197150913Y-71262790D01*
X197440261Y-71175017D01*
X197706927Y-71032481D01*
X197940661Y-70840661D01*
X198132481Y-70606927D01*
X198275017Y-70340261D01*
X198362790Y-70050913D01*
X198392427Y-69750000D01*
X198362790Y-69449087D01*
X198275017Y-69159739D01*
X198132481Y-68893073D01*
X197940661Y-68659339D01*
X197706927Y-68467519D01*
X197440261Y-68324983D01*
X197150913Y-68237210D01*
X196925408Y-68215000D01*
X195574592Y-68215000D01*
X195349087Y-68237210D01*
X195059739Y-68324983D01*
X194793073Y-68467519D01*
X194559339Y-68659339D01*
X194367519Y-68893073D01*
X194224983Y-69159739D01*
X194137210Y-69449087D01*
X194107573Y-69750000D01*
X191092427Y-69750000D01*
X191062790Y-69449087D01*
X190975017Y-69159739D01*
X190832481Y-68893073D01*
X190640661Y-68659339D01*
X190406927Y-68467519D01*
X190140261Y-68324983D01*
X189850913Y-68237210D01*
X189625408Y-68215000D01*
X188274592Y-68215000D01*
X188049087Y-68237210D01*
X187759739Y-68324983D01*
X187493073Y-68467519D01*
X187259339Y-68659339D01*
X187067519Y-68893073D01*
X186924983Y-69159739D01*
X186837210Y-69449087D01*
X186807573Y-69750000D01*
X184082577Y-69750000D01*
X184092427Y-69650000D01*
X184062790Y-69349087D01*
X183975017Y-69059739D01*
X183832481Y-68793073D01*
X183640661Y-68559339D01*
X183406927Y-68367519D01*
X183140261Y-68224983D01*
X182850913Y-68137210D01*
X182625408Y-68115000D01*
X181274592Y-68115000D01*
X181049087Y-68137210D01*
X180759739Y-68224983D01*
X180493073Y-68367519D01*
X180259339Y-68559339D01*
X180067519Y-68793073D01*
X179924983Y-69059739D01*
X179837210Y-69349087D01*
X179807573Y-69650000D01*
X173160000Y-69650000D01*
X173160000Y-67614801D01*
X176683148Y-64091653D01*
X185737952Y-64091653D01*
X185893962Y-64407214D01*
X186268745Y-64598020D01*
X186673551Y-64712044D01*
X187092824Y-64744902D01*
X187510451Y-64695334D01*
X187910383Y-64565243D01*
X188206038Y-64407214D01*
X188362048Y-64091653D01*
X196037952Y-64091653D01*
X196193962Y-64407214D01*
X196568745Y-64598020D01*
X196973551Y-64712044D01*
X197392824Y-64744902D01*
X197810451Y-64695334D01*
X198210383Y-64565243D01*
X198506038Y-64407214D01*
X198662048Y-64091653D01*
X197350000Y-62779605D01*
X196037952Y-64091653D01*
X188362048Y-64091653D01*
X187050000Y-62779605D01*
X185737952Y-64091653D01*
X176683148Y-64091653D01*
X178131977Y-62642824D01*
X184905098Y-62642824D01*
X184954666Y-63060451D01*
X185084757Y-63460383D01*
X185242786Y-63756038D01*
X185558347Y-63912048D01*
X186870395Y-62600000D01*
X187229605Y-62600000D01*
X188541653Y-63912048D01*
X188857214Y-63756038D01*
X189048020Y-63381255D01*
X189162044Y-62976449D01*
X189194902Y-62557176D01*
X189145334Y-62139549D01*
X189015243Y-61739617D01*
X188857214Y-61443962D01*
X188541653Y-61287952D01*
X187229605Y-62600000D01*
X186870395Y-62600000D01*
X185558347Y-61287952D01*
X185242786Y-61443962D01*
X185051980Y-61818745D01*
X184937956Y-62223551D01*
X184905098Y-62642824D01*
X178131977Y-62642824D01*
X178676114Y-62098688D01*
X178858665Y-62135000D01*
X179141335Y-62135000D01*
X179418574Y-62079853D01*
X179679727Y-61971680D01*
X179914759Y-61814637D01*
X180114637Y-61614759D01*
X180271680Y-61379727D01*
X180379853Y-61118574D01*
X180381887Y-61108347D01*
X185737952Y-61108347D01*
X187050000Y-62420395D01*
X188362048Y-61108347D01*
X188206038Y-60792786D01*
X187831255Y-60601980D01*
X187426449Y-60487956D01*
X187007176Y-60455098D01*
X186589549Y-60504666D01*
X186189617Y-60634757D01*
X185893962Y-60792786D01*
X185737952Y-61108347D01*
X180381887Y-61108347D01*
X180435000Y-60841335D01*
X180435000Y-60558665D01*
X180379853Y-60281426D01*
X180271680Y-60020273D01*
X180114637Y-59785241D01*
X179948057Y-59618661D01*
X180044180Y-59589502D01*
X180154494Y-59530537D01*
X180251185Y-59451185D01*
X180330537Y-59354494D01*
X180389502Y-59244180D01*
X180425812Y-59124482D01*
X180438072Y-59000000D01*
X180438072Y-57400000D01*
X180425812Y-57275518D01*
X180389502Y-57155820D01*
X180330537Y-57045506D01*
X180251185Y-56948815D01*
X180154494Y-56869463D01*
X180044180Y-56810498D01*
X179924482Y-56774188D01*
X179800000Y-56761928D01*
X178200000Y-56761928D01*
X178075518Y-56774188D01*
X177955820Y-56810498D01*
X177845506Y-56869463D01*
X177748815Y-56948815D01*
X177669463Y-57045506D01*
X177610498Y-57155820D01*
X177574188Y-57275518D01*
X177561928Y-57400000D01*
X177561928Y-59000000D01*
X177574188Y-59124482D01*
X177610498Y-59244180D01*
X177669463Y-59354494D01*
X177748815Y-59451185D01*
X177845506Y-59530537D01*
X177955820Y-59589502D01*
X178051943Y-59618661D01*
X177885363Y-59785241D01*
X177728320Y-60020273D01*
X177620147Y-60281426D01*
X177565000Y-60558665D01*
X177565000Y-60841335D01*
X177601312Y-61023886D01*
X171888998Y-66736201D01*
X171860000Y-66759999D01*
X171836202Y-66788997D01*
X171836201Y-66788998D01*
X171765026Y-66875724D01*
X171694454Y-67007754D01*
X171674053Y-67075010D01*
X171653658Y-67142247D01*
X171650998Y-67151015D01*
X171636324Y-67300000D01*
X171640001Y-67337333D01*
X171640000Y-87048324D01*
X171627095Y-87039701D01*
X171347743Y-86923989D01*
X171051184Y-86865000D01*
X170748816Y-86865000D01*
X170491070Y-86916269D01*
X170238800Y-86663999D01*
X170215000Y-86634998D01*
X170099275Y-86540025D01*
X169967246Y-86469453D01*
X169823985Y-86425996D01*
X169712332Y-86414999D01*
X169712321Y-86414999D01*
X169674999Y-86411323D01*
X169637677Y-86414999D01*
X160462323Y-86414999D01*
X160425000Y-86411323D01*
X160387677Y-86414999D01*
X160387668Y-86414999D01*
X160276015Y-86425996D01*
X160132754Y-86469453D01*
X160000725Y-86540025D01*
X159885000Y-86634998D01*
X159861200Y-86663999D01*
X159608930Y-86916269D01*
X159351184Y-86865000D01*
X159048816Y-86865000D01*
X158752257Y-86923989D01*
X158472905Y-87039701D01*
X158221495Y-87207688D01*
X158007688Y-87421495D01*
X157950000Y-87507831D01*
X157892312Y-87421495D01*
X157678505Y-87207688D01*
X157427095Y-87039701D01*
X157147743Y-86923989D01*
X156851184Y-86865000D01*
X156548816Y-86865000D01*
X156252257Y-86923989D01*
X155972905Y-87039701D01*
X155721495Y-87207688D01*
X155507688Y-87421495D01*
X155450000Y-87507831D01*
X155392312Y-87421495D01*
X155178505Y-87207688D01*
X154927095Y-87039701D01*
X154647743Y-86923989D01*
X154351184Y-86865000D01*
X154048816Y-86865000D01*
X153752257Y-86923989D01*
X153472905Y-87039701D01*
X153221495Y-87207688D01*
X153007688Y-87421495D01*
X152839701Y-87672905D01*
X152723989Y-87952257D01*
X152665000Y-88248816D01*
X152665000Y-88551184D01*
X152723989Y-88847743D01*
X152731138Y-88865001D01*
X146531497Y-88865001D01*
X146549158Y-88828225D01*
X146624365Y-88535358D01*
X146640991Y-88233447D01*
X146598397Y-87934093D01*
X146498222Y-87648801D01*
X146418261Y-87499208D01*
X146164080Y-87415525D01*
X145279605Y-88300000D01*
X145293748Y-88314143D01*
X145114143Y-88493748D01*
X145100000Y-88479605D01*
X145085858Y-88493748D01*
X144906253Y-88314143D01*
X144920395Y-88300000D01*
X144035920Y-87415525D01*
X143887738Y-87464310D01*
X143792312Y-87321495D01*
X143706737Y-87235920D01*
X144215525Y-87235920D01*
X145100000Y-88120395D01*
X145984475Y-87235920D01*
X145900792Y-86981739D01*
X145628225Y-86850842D01*
X145335358Y-86775635D01*
X145033447Y-86759009D01*
X144734093Y-86801603D01*
X144448801Y-86901778D01*
X144299208Y-86981739D01*
X144215525Y-87235920D01*
X143706737Y-87235920D01*
X143578505Y-87107688D01*
X143360000Y-86961687D01*
X143360000Y-81427322D01*
X143363676Y-81389999D01*
X143360000Y-81352676D01*
X143360000Y-81352667D01*
X143349003Y-81241014D01*
X143305546Y-81097753D01*
X143234974Y-80965724D01*
X143190000Y-80910923D01*
X143190000Y-80540475D01*
X144715000Y-80540475D01*
X144715000Y-81059525D01*
X144816261Y-81568601D01*
X145014893Y-82048141D01*
X145303262Y-82479715D01*
X145670285Y-82846738D01*
X146101859Y-83135107D01*
X146581399Y-83333739D01*
X147090475Y-83435000D01*
X147609525Y-83435000D01*
X148118601Y-83333739D01*
X148598141Y-83135107D01*
X149029715Y-82846738D01*
X149396738Y-82479715D01*
X149616591Y-82150682D01*
X149903262Y-82579715D01*
X150270285Y-82946738D01*
X150701859Y-83235107D01*
X151181399Y-83433739D01*
X151690475Y-83535000D01*
X152209525Y-83535000D01*
X152718601Y-83433739D01*
X153198141Y-83235107D01*
X153629715Y-82946738D01*
X153996738Y-82579715D01*
X154285107Y-82148141D01*
X154483739Y-81668601D01*
X154585000Y-81159525D01*
X154585000Y-80640475D01*
X158815000Y-80640475D01*
X158815000Y-81159525D01*
X158916261Y-81668601D01*
X159114893Y-82148141D01*
X159403262Y-82579715D01*
X159770285Y-82946738D01*
X160201859Y-83235107D01*
X160681399Y-83433739D01*
X161190475Y-83535000D01*
X161709525Y-83535000D01*
X162218601Y-83433739D01*
X162698141Y-83235107D01*
X163129715Y-82946738D01*
X163496738Y-82579715D01*
X163785107Y-82148141D01*
X163800000Y-82112186D01*
X163814893Y-82148141D01*
X164103262Y-82579715D01*
X164470285Y-82946738D01*
X164901859Y-83235107D01*
X165381399Y-83433739D01*
X165890475Y-83535000D01*
X166409525Y-83535000D01*
X166918601Y-83433739D01*
X167398141Y-83235107D01*
X167829715Y-82946738D01*
X168196738Y-82579715D01*
X168485107Y-82148141D01*
X168683739Y-81668601D01*
X168785000Y-81159525D01*
X168785000Y-80640475D01*
X168683739Y-80131399D01*
X168485107Y-79651859D01*
X168196738Y-79220285D01*
X167829715Y-78853262D01*
X167398141Y-78564893D01*
X166918601Y-78366261D01*
X166409525Y-78265000D01*
X165890475Y-78265000D01*
X165381399Y-78366261D01*
X164901859Y-78564893D01*
X164470285Y-78853262D01*
X164103262Y-79220285D01*
X163814893Y-79651859D01*
X163800000Y-79687814D01*
X163785107Y-79651859D01*
X163496738Y-79220285D01*
X163129715Y-78853262D01*
X162698141Y-78564893D01*
X162218601Y-78366261D01*
X161709525Y-78265000D01*
X161190475Y-78265000D01*
X160681399Y-78366261D01*
X160201859Y-78564893D01*
X159770285Y-78853262D01*
X159403262Y-79220285D01*
X159114893Y-79651859D01*
X158916261Y-80131399D01*
X158815000Y-80640475D01*
X154585000Y-80640475D01*
X154483739Y-80131399D01*
X154285107Y-79651859D01*
X153996738Y-79220285D01*
X153629715Y-78853262D01*
X153198141Y-78564893D01*
X152718601Y-78366261D01*
X152209525Y-78265000D01*
X151690475Y-78265000D01*
X151181399Y-78366261D01*
X150701859Y-78564893D01*
X150270285Y-78853262D01*
X149903262Y-79220285D01*
X149683409Y-79549318D01*
X149396738Y-79120285D01*
X149029715Y-78753262D01*
X148598141Y-78464893D01*
X148118601Y-78266261D01*
X147609525Y-78165000D01*
X147090475Y-78165000D01*
X146581399Y-78266261D01*
X146101859Y-78464893D01*
X145670285Y-78753262D01*
X145303262Y-79120285D01*
X145014893Y-79551859D01*
X144816261Y-80031399D01*
X144715000Y-80540475D01*
X143190000Y-80540475D01*
X143190000Y-73740900D01*
X143231100Y-73718932D01*
X143242858Y-73709283D01*
X143304989Y-73784991D01*
X143333992Y-73808793D01*
X144131220Y-74606022D01*
X144155018Y-74635020D01*
X144184016Y-74658818D01*
X144270743Y-74729993D01*
X144402772Y-74800565D01*
X144546033Y-74844022D01*
X144695019Y-74858696D01*
X144732352Y-74855019D01*
X152852657Y-74855019D01*
X152889980Y-74858695D01*
X152927302Y-74855019D01*
X152927313Y-74855019D01*
X153038966Y-74844022D01*
X153182227Y-74800565D01*
X153314256Y-74729993D01*
X153429981Y-74635020D01*
X153453784Y-74606017D01*
X155696003Y-72363799D01*
X155725001Y-72340001D01*
X155751332Y-72307917D01*
X155810467Y-72235861D01*
X155910820Y-72289502D01*
X156030518Y-72325812D01*
X156155000Y-72338072D01*
X156169250Y-72335000D01*
X156328000Y-72176250D01*
X156328000Y-70852000D01*
X156582000Y-70852000D01*
X156582000Y-72176250D01*
X156740750Y-72335000D01*
X156755000Y-72338072D01*
X156879482Y-72325812D01*
X156999180Y-72289502D01*
X157109494Y-72230537D01*
X157206185Y-72151185D01*
X157285537Y-72054494D01*
X157344502Y-71944180D01*
X157380812Y-71824482D01*
X157393072Y-71700000D01*
X157390000Y-71010750D01*
X157231250Y-70852000D01*
X156582000Y-70852000D01*
X156328000Y-70852000D01*
X156308000Y-70852000D01*
X156308000Y-70598000D01*
X156328000Y-70598000D01*
X156328000Y-69273750D01*
X156582000Y-69273750D01*
X156582000Y-70598000D01*
X157231250Y-70598000D01*
X157390000Y-70439250D01*
X157393072Y-69750000D01*
X157380812Y-69625518D01*
X157344502Y-69505820D01*
X157285537Y-69395506D01*
X157206185Y-69298815D01*
X157109494Y-69219463D01*
X156999180Y-69160498D01*
X156879482Y-69124188D01*
X156755000Y-69111928D01*
X156740750Y-69115000D01*
X156582000Y-69273750D01*
X156328000Y-69273750D01*
X156169250Y-69115000D01*
X156155000Y-69111928D01*
X156030518Y-69124188D01*
X155910820Y-69160498D01*
X155800506Y-69219463D01*
X155770936Y-69243730D01*
X155636582Y-69171916D01*
X155488745Y-69127071D01*
X155335000Y-69111928D01*
X155267873Y-69111928D01*
X156966004Y-67413798D01*
X156995001Y-67390001D01*
X157089974Y-67274276D01*
X157144926Y-67171469D01*
X157162251Y-67157251D01*
X157260258Y-67037829D01*
X157333084Y-66901582D01*
X157377929Y-66753745D01*
X157393072Y-66600000D01*
X157393072Y-64950000D01*
X157377929Y-64796255D01*
X157333084Y-64648418D01*
X157260258Y-64512171D01*
X157162251Y-64392749D01*
X157144926Y-64378531D01*
X157141970Y-64373000D01*
X157089974Y-64275723D01*
X157018799Y-64188997D01*
X156995001Y-64159999D01*
X156966004Y-64136202D01*
X156343784Y-63513983D01*
X156319982Y-63484980D01*
X156204257Y-63390007D01*
X156072228Y-63319435D01*
X155928967Y-63275978D01*
X155817314Y-63264981D01*
X155817303Y-63264981D01*
X155779981Y-63261305D01*
X155742659Y-63264981D01*
X151612341Y-63264981D01*
X151575018Y-63261305D01*
X151537695Y-63264981D01*
X151537686Y-63264981D01*
X151485133Y-63270157D01*
X151475812Y-63175518D01*
X151439502Y-63055820D01*
X151380537Y-62945506D01*
X151301185Y-62848815D01*
X151204494Y-62769463D01*
X151094180Y-62710498D01*
X150974482Y-62674188D01*
X150850000Y-62661928D01*
X149250000Y-62661928D01*
X149125518Y-62674188D01*
X149005820Y-62710498D01*
X148895506Y-62769463D01*
X148798815Y-62848815D01*
X148719463Y-62945506D01*
X148660498Y-63055820D01*
X148624188Y-63175518D01*
X148622419Y-63193482D01*
X148529608Y-63080392D01*
X148311101Y-62901068D01*
X148061808Y-62767818D01*
X147791309Y-62685764D01*
X147510000Y-62658057D01*
X147228692Y-62685764D01*
X147184094Y-62699292D01*
X146948793Y-62463992D01*
X146924991Y-62434989D01*
X146809266Y-62340016D01*
X146677237Y-62269444D01*
X146533976Y-62225987D01*
X146422323Y-62214990D01*
X146422312Y-62214990D01*
X146384990Y-62211314D01*
X146347668Y-62214990D01*
X142001328Y-62214990D01*
X141964005Y-62211314D01*
X141926682Y-62214990D01*
X141926673Y-62214990D01*
X141815020Y-62225987D01*
X141671759Y-62269444D01*
X141539730Y-62340016D01*
X141424005Y-62434989D01*
X141400206Y-62463988D01*
X140793992Y-63070203D01*
X140764989Y-63094005D01*
X140740393Y-63123976D01*
X140670016Y-63209730D01*
X140611377Y-63319435D01*
X140599444Y-63341760D01*
X140555987Y-63485021D01*
X140544990Y-63596674D01*
X140544990Y-63596684D01*
X140541314Y-63634006D01*
X140544990Y-63671329D01*
X140544991Y-69507658D01*
X140541314Y-69544990D01*
X140555988Y-69693975D01*
X140599444Y-69837236D01*
X140670016Y-69969266D01*
X140737023Y-70050913D01*
X140764990Y-70084991D01*
X140793988Y-70108789D01*
X141399213Y-70714015D01*
X141231068Y-70918899D01*
X141097818Y-71168192D01*
X141015764Y-71438691D01*
X140995000Y-71649508D01*
X140995000Y-72590491D01*
X141015764Y-72801308D01*
X141097818Y-73071807D01*
X141231068Y-73321100D01*
X141410392Y-73539607D01*
X141628899Y-73718932D01*
X141670001Y-73740901D01*
X141670000Y-81182678D01*
X141666324Y-81220000D01*
X141670000Y-81257322D01*
X141670000Y-81257332D01*
X141680997Y-81368985D01*
X141712860Y-81474024D01*
X141724454Y-81512246D01*
X141795026Y-81644276D01*
X141826188Y-81682246D01*
X141840001Y-81699078D01*
X141840000Y-86961687D01*
X141621495Y-87107688D01*
X141407688Y-87321495D01*
X141350000Y-87407831D01*
X141292312Y-87321495D01*
X141078505Y-87107688D01*
X140827095Y-86939701D01*
X140547743Y-86823989D01*
X140251184Y-86765000D01*
X139948816Y-86765000D01*
X139652257Y-86823989D01*
X139372905Y-86939701D01*
X139121495Y-87107688D01*
X138907688Y-87321495D01*
X138739701Y-87572905D01*
X138623989Y-87852257D01*
X138565000Y-88148816D01*
X138565000Y-88451184D01*
X138623989Y-88747743D01*
X138631138Y-88765001D01*
X132468862Y-88765001D01*
X132476011Y-88747743D01*
X132535000Y-88451184D01*
X132535000Y-88148816D01*
X132476011Y-87852257D01*
X132360299Y-87572905D01*
X132192312Y-87321495D01*
X131978505Y-87107688D01*
X131727095Y-86939701D01*
X131447743Y-86823989D01*
X131151184Y-86765000D01*
X130848816Y-86765000D01*
X130552257Y-86823989D01*
X130272905Y-86939701D01*
X130021495Y-87107688D01*
X129807688Y-87321495D01*
X129750000Y-87407831D01*
X129692312Y-87321495D01*
X129478505Y-87107688D01*
X129260000Y-86961687D01*
X129260000Y-82146331D01*
X129263677Y-82108998D01*
X129249003Y-81960012D01*
X129205546Y-81816751D01*
X129134974Y-81684722D01*
X129101780Y-81644275D01*
X129040001Y-81568997D01*
X129011003Y-81545199D01*
X128006279Y-80540475D01*
X130615000Y-80540475D01*
X130615000Y-81059525D01*
X130716261Y-81568601D01*
X130914893Y-82048141D01*
X131203262Y-82479715D01*
X131570285Y-82846738D01*
X132001859Y-83135107D01*
X132481399Y-83333739D01*
X132990475Y-83435000D01*
X133509525Y-83435000D01*
X134018601Y-83333739D01*
X134498141Y-83135107D01*
X134929715Y-82846738D01*
X135296738Y-82479715D01*
X135550000Y-82100682D01*
X135803262Y-82479715D01*
X136170285Y-82846738D01*
X136601859Y-83135107D01*
X137081399Y-83333739D01*
X137590475Y-83435000D01*
X138109525Y-83435000D01*
X138618601Y-83333739D01*
X139098141Y-83135107D01*
X139529715Y-82846738D01*
X139896738Y-82479715D01*
X140185107Y-82048141D01*
X140383739Y-81568601D01*
X140485000Y-81059525D01*
X140485000Y-80540475D01*
X140383739Y-80031399D01*
X140185107Y-79551859D01*
X139896738Y-79120285D01*
X139529715Y-78753262D01*
X139098141Y-78464893D01*
X138618601Y-78266261D01*
X138109525Y-78165000D01*
X137590475Y-78165000D01*
X137081399Y-78266261D01*
X136601859Y-78464893D01*
X136170285Y-78753262D01*
X135803262Y-79120285D01*
X135550000Y-79499318D01*
X135296738Y-79120285D01*
X134929715Y-78753262D01*
X134498141Y-78464893D01*
X134018601Y-78266261D01*
X133509525Y-78165000D01*
X132990475Y-78165000D01*
X132481399Y-78266261D01*
X132001859Y-78464893D01*
X131570285Y-78753262D01*
X131203262Y-79120285D01*
X130914893Y-79551859D01*
X130716261Y-80031399D01*
X130615000Y-80540475D01*
X128006279Y-80540475D01*
X122604806Y-75139003D01*
X122581003Y-75109999D01*
X122465278Y-75015026D01*
X122333249Y-74944454D01*
X122189988Y-74900997D01*
X122078335Y-74890000D01*
X122078324Y-74890000D01*
X122041002Y-74886324D01*
X122003680Y-74890000D01*
X119078178Y-74890000D01*
X118953475Y-74703368D01*
X118746632Y-74496525D01*
X118503411Y-74334010D01*
X118233158Y-74222068D01*
X117946260Y-74165000D01*
X117653740Y-74165000D01*
X117366842Y-74222068D01*
X117096589Y-74334010D01*
X116853368Y-74496525D01*
X116646525Y-74703368D01*
X116521822Y-74890000D01*
X111833971Y-74890000D01*
X111815990Y-74846589D01*
X111653475Y-74603368D01*
X111446632Y-74396525D01*
X111203411Y-74234010D01*
X110933158Y-74122068D01*
X110646260Y-74065000D01*
X110353740Y-74065000D01*
X110066842Y-74122068D01*
X109796589Y-74234010D01*
X109553368Y-74396525D01*
X109346525Y-74603368D01*
X109184010Y-74846589D01*
X109166029Y-74890000D01*
X104578178Y-74890000D01*
X104453475Y-74703368D01*
X104246632Y-74496525D01*
X104003411Y-74334010D01*
X103733158Y-74222068D01*
X103446260Y-74165000D01*
X103153740Y-74165000D01*
X102866842Y-74222068D01*
X102596589Y-74334010D01*
X102353368Y-74496525D01*
X102146525Y-74703368D01*
X101984010Y-74946589D01*
X101872068Y-75216842D01*
X101815000Y-75503740D01*
X101815000Y-75796260D01*
X101872068Y-76083158D01*
X101984010Y-76353411D01*
X102146525Y-76596632D01*
X102353368Y-76803475D01*
X102596589Y-76965990D01*
X102866842Y-77077932D01*
X103153740Y-77135000D01*
X103446260Y-77135000D01*
X103733158Y-77077932D01*
X104003411Y-76965990D01*
X104246632Y-76803475D01*
X104453475Y-76596632D01*
X104578178Y-76410000D01*
X109288639Y-76410000D01*
X109346525Y-76496632D01*
X109553368Y-76703475D01*
X109796589Y-76865990D01*
X110066842Y-76977932D01*
X110353740Y-77035000D01*
X110646260Y-77035000D01*
X110933158Y-76977932D01*
X111203411Y-76865990D01*
X111446632Y-76703475D01*
X111653475Y-76496632D01*
X111711361Y-76410000D01*
X116521822Y-76410000D01*
X116646525Y-76596632D01*
X116853368Y-76803475D01*
X117096589Y-76965990D01*
X117366842Y-77077932D01*
X117653740Y-77135000D01*
X117946260Y-77135000D01*
X118233158Y-77077932D01*
X118503411Y-76965990D01*
X118746632Y-76803475D01*
X118953475Y-76596632D01*
X119078178Y-76410000D01*
X121726201Y-76410000D01*
X123482739Y-78166539D01*
X122981399Y-78266261D01*
X122501859Y-78464893D01*
X122070285Y-78753262D01*
X121703262Y-79120285D01*
X121414893Y-79551859D01*
X121216261Y-80031399D01*
X121115000Y-80540475D01*
X121115000Y-81059525D01*
X121216261Y-81568601D01*
X121414893Y-82048141D01*
X121703262Y-82479715D01*
X122070285Y-82846738D01*
X122501859Y-83135107D01*
X122981399Y-83333739D01*
X123490475Y-83435000D01*
X124009525Y-83435000D01*
X124518601Y-83333739D01*
X124998141Y-83135107D01*
X125429715Y-82846738D01*
X125796738Y-82479715D01*
X126085107Y-82048141D01*
X126283739Y-81568601D01*
X126383461Y-81067261D01*
X127740001Y-82423801D01*
X127740000Y-86961687D01*
X127521495Y-87107688D01*
X127307688Y-87321495D01*
X127250000Y-87407831D01*
X127192312Y-87321495D01*
X126978505Y-87107688D01*
X126727095Y-86939701D01*
X126447743Y-86823989D01*
X126151184Y-86765000D01*
X125848816Y-86765000D01*
X125552257Y-86823989D01*
X125272905Y-86939701D01*
X125021495Y-87107688D01*
X124807688Y-87321495D01*
X124639701Y-87572905D01*
X124523989Y-87852257D01*
X124465000Y-88148816D01*
X124465000Y-88451184D01*
X124523989Y-88747743D01*
X124639701Y-89027095D01*
X124807688Y-89278505D01*
X124869183Y-89340000D01*
X119969103Y-89340000D01*
X120026300Y-89111816D01*
X120040217Y-88829488D01*
X119998787Y-88549870D01*
X119903603Y-88283708D01*
X119836671Y-88158486D01*
X119592702Y-88086903D01*
X118779605Y-88900000D01*
X118793748Y-88914143D01*
X118614143Y-89093748D01*
X118600000Y-89079605D01*
X118585858Y-89093748D01*
X118406253Y-88914143D01*
X118420395Y-88900000D01*
X117607298Y-88086903D01*
X117363329Y-88158486D01*
X117242429Y-88413996D01*
X117173700Y-88688184D01*
X117159783Y-88970512D01*
X117201213Y-89250130D01*
X117233352Y-89340000D01*
X115169103Y-89340000D01*
X115226300Y-89111816D01*
X115240217Y-88829488D01*
X115198787Y-88549870D01*
X115103603Y-88283708D01*
X115036671Y-88158486D01*
X114792702Y-88086903D01*
X113979605Y-88900000D01*
X113993748Y-88914143D01*
X113814143Y-89093748D01*
X113800000Y-89079605D01*
X113785858Y-89093748D01*
X113606253Y-88914143D01*
X113620395Y-88900000D01*
X112807298Y-88086903D01*
X112563329Y-88158486D01*
X112442429Y-88413996D01*
X112373700Y-88688184D01*
X112359783Y-88970512D01*
X112401213Y-89250130D01*
X112433352Y-89340000D01*
X110469103Y-89340000D01*
X110526300Y-89111816D01*
X110540217Y-88829488D01*
X110498787Y-88549870D01*
X110403603Y-88283708D01*
X110336671Y-88158486D01*
X110092702Y-88086903D01*
X109279605Y-88900000D01*
X109293748Y-88914143D01*
X109114143Y-89093748D01*
X109100000Y-89079605D01*
X109085858Y-89093748D01*
X108906253Y-88914143D01*
X108920395Y-88900000D01*
X108107298Y-88086903D01*
X107863329Y-88158486D01*
X107742429Y-88413996D01*
X107673700Y-88688184D01*
X107659783Y-88970512D01*
X107701213Y-89250130D01*
X107733352Y-89340000D01*
X100660000Y-89340000D01*
X100660000Y-86279872D01*
X101265000Y-86279872D01*
X101265000Y-86720128D01*
X101350890Y-87151925D01*
X101519369Y-87558669D01*
X101763962Y-87924729D01*
X102075271Y-88236038D01*
X102441331Y-88480631D01*
X102848075Y-88649110D01*
X103279872Y-88735000D01*
X103720128Y-88735000D01*
X104151925Y-88649110D01*
X104558669Y-88480631D01*
X104924729Y-88236038D01*
X105236038Y-87924729D01*
X105247684Y-87907298D01*
X108286903Y-87907298D01*
X109100000Y-88720395D01*
X109913097Y-87907298D01*
X112986903Y-87907298D01*
X113800000Y-88720395D01*
X114613097Y-87907298D01*
X117786903Y-87907298D01*
X118600000Y-88720395D01*
X119413097Y-87907298D01*
X119341514Y-87663329D01*
X119086004Y-87542429D01*
X118811816Y-87473700D01*
X118529488Y-87459783D01*
X118249870Y-87501213D01*
X117983708Y-87596397D01*
X117858486Y-87663329D01*
X117786903Y-87907298D01*
X114613097Y-87907298D01*
X114541514Y-87663329D01*
X114286004Y-87542429D01*
X114011816Y-87473700D01*
X113729488Y-87459783D01*
X113449870Y-87501213D01*
X113183708Y-87596397D01*
X113058486Y-87663329D01*
X112986903Y-87907298D01*
X109913097Y-87907298D01*
X109841514Y-87663329D01*
X109586004Y-87542429D01*
X109311816Y-87473700D01*
X109029488Y-87459783D01*
X108749870Y-87501213D01*
X108483708Y-87596397D01*
X108358486Y-87663329D01*
X108286903Y-87907298D01*
X105247684Y-87907298D01*
X105480631Y-87558669D01*
X105649110Y-87151925D01*
X105735000Y-86720128D01*
X105735000Y-86279872D01*
X105649110Y-85848075D01*
X105480631Y-85441331D01*
X105236038Y-85075271D01*
X104924729Y-84763962D01*
X104558669Y-84519369D01*
X104151925Y-84350890D01*
X103720128Y-84265000D01*
X103279872Y-84265000D01*
X102848075Y-84350890D01*
X102441331Y-84519369D01*
X102075271Y-84763962D01*
X101763962Y-85075271D01*
X101519369Y-85441331D01*
X101350890Y-85848075D01*
X101265000Y-86279872D01*
X100660000Y-86279872D01*
X100660000Y-81550000D01*
X101107573Y-81550000D01*
X101137210Y-81850913D01*
X101224983Y-82140261D01*
X101367519Y-82406927D01*
X101559339Y-82640661D01*
X101793073Y-82832481D01*
X102059739Y-82975017D01*
X102349087Y-83062790D01*
X102574592Y-83085000D01*
X103925408Y-83085000D01*
X104150913Y-83062790D01*
X104440261Y-82975017D01*
X104706927Y-82832481D01*
X104940661Y-82640661D01*
X105132481Y-82406927D01*
X105275017Y-82140261D01*
X105362790Y-81850913D01*
X105368467Y-81793269D01*
X107677035Y-84101837D01*
X107720147Y-84318574D01*
X107828320Y-84579727D01*
X107985363Y-84814759D01*
X108185241Y-85014637D01*
X108420273Y-85171680D01*
X108681426Y-85279853D01*
X108958665Y-85335000D01*
X109241335Y-85335000D01*
X109518574Y-85279853D01*
X109779727Y-85171680D01*
X110014759Y-85014637D01*
X110214637Y-84814759D01*
X110371680Y-84579727D01*
X110479853Y-84318574D01*
X110535000Y-84041335D01*
X110535000Y-83758665D01*
X110479853Y-83481426D01*
X110371680Y-83220273D01*
X110214637Y-82985241D01*
X110214396Y-82985000D01*
X111125408Y-82985000D01*
X111350913Y-82962790D01*
X111640261Y-82875017D01*
X111906927Y-82732481D01*
X112140661Y-82540661D01*
X112332481Y-82306927D01*
X112475017Y-82040261D01*
X112562790Y-81750913D01*
X112568467Y-81693269D01*
X113040000Y-82164802D01*
X113040000Y-82681956D01*
X112885241Y-82785363D01*
X112685363Y-82985241D01*
X112528320Y-83220273D01*
X112420147Y-83481426D01*
X112365000Y-83758665D01*
X112365000Y-84041335D01*
X112420147Y-84318574D01*
X112528320Y-84579727D01*
X112685363Y-84814759D01*
X112885241Y-85014637D01*
X113120273Y-85171680D01*
X113381426Y-85279853D01*
X113658665Y-85335000D01*
X113941335Y-85335000D01*
X114218574Y-85279853D01*
X114479727Y-85171680D01*
X114714759Y-85014637D01*
X114914637Y-84814759D01*
X115071680Y-84579727D01*
X115179853Y-84318574D01*
X115235000Y-84041335D01*
X115235000Y-83758665D01*
X115179853Y-83481426D01*
X115071680Y-83220273D01*
X114914637Y-82985241D01*
X114714759Y-82785363D01*
X114560000Y-82681957D01*
X114560000Y-81887325D01*
X114563676Y-81850000D01*
X114560000Y-81812675D01*
X114560000Y-81812667D01*
X114549003Y-81701014D01*
X114505546Y-81557753D01*
X114501402Y-81550000D01*
X115607573Y-81550000D01*
X115637210Y-81850913D01*
X115724983Y-82140261D01*
X115867519Y-82406927D01*
X116059339Y-82640661D01*
X116293073Y-82832481D01*
X116559739Y-82975017D01*
X116849087Y-83062790D01*
X117074592Y-83085000D01*
X117418706Y-83085000D01*
X117328320Y-83220273D01*
X117220147Y-83481426D01*
X117165000Y-83758665D01*
X117165000Y-84041335D01*
X117220147Y-84318574D01*
X117328320Y-84579727D01*
X117485363Y-84814759D01*
X117685241Y-85014637D01*
X117920273Y-85171680D01*
X118181426Y-85279853D01*
X118458665Y-85335000D01*
X118741335Y-85335000D01*
X119018574Y-85279853D01*
X119279727Y-85171680D01*
X119514759Y-85014637D01*
X119714637Y-84814759D01*
X119871680Y-84579727D01*
X119979853Y-84318574D01*
X120035000Y-84041335D01*
X120035000Y-83758665D01*
X119998688Y-83576113D01*
X120086007Y-83488794D01*
X120115011Y-83464991D01*
X120209984Y-83349266D01*
X120280556Y-83217237D01*
X120324013Y-83073976D01*
X120335010Y-82962323D01*
X120335010Y-82962313D01*
X120338686Y-82924990D01*
X120335010Y-82887667D01*
X120335010Y-80462332D01*
X120338686Y-80425009D01*
X120335010Y-80387686D01*
X120335010Y-80387677D01*
X120324013Y-80276024D01*
X120280556Y-80132763D01*
X120209984Y-80000734D01*
X120115011Y-79885009D01*
X120086014Y-79861212D01*
X119241210Y-79016408D01*
X119285000Y-78796260D01*
X119285000Y-78503740D01*
X119227932Y-78216842D01*
X119115990Y-77946589D01*
X118953475Y-77703368D01*
X118746632Y-77496525D01*
X118503411Y-77334010D01*
X118233158Y-77222068D01*
X117946260Y-77165000D01*
X117653740Y-77165000D01*
X117366842Y-77222068D01*
X117096589Y-77334010D01*
X116853368Y-77496525D01*
X116646525Y-77703368D01*
X116484010Y-77946589D01*
X116372068Y-78216842D01*
X116315000Y-78503740D01*
X116315000Y-78796260D01*
X116372068Y-79083158D01*
X116484010Y-79353411D01*
X116646525Y-79596632D01*
X116853368Y-79803475D01*
X117096589Y-79965990D01*
X117214910Y-80015000D01*
X117074592Y-80015000D01*
X116849087Y-80037210D01*
X116559739Y-80124983D01*
X116293073Y-80267519D01*
X116059339Y-80459339D01*
X115867519Y-80693073D01*
X115724983Y-80959739D01*
X115637210Y-81249087D01*
X115607573Y-81550000D01*
X114501402Y-81550000D01*
X114434974Y-81425724D01*
X114340001Y-81309999D01*
X114311004Y-81286202D01*
X111941209Y-78916408D01*
X111985000Y-78696260D01*
X111985000Y-78403740D01*
X111927932Y-78116842D01*
X111815990Y-77846589D01*
X111653475Y-77603368D01*
X111446632Y-77396525D01*
X111203411Y-77234010D01*
X110933158Y-77122068D01*
X110646260Y-77065000D01*
X110353740Y-77065000D01*
X110066842Y-77122068D01*
X109796589Y-77234010D01*
X109553368Y-77396525D01*
X109346525Y-77603368D01*
X109184010Y-77846589D01*
X109072068Y-78116842D01*
X109015000Y-78403740D01*
X109015000Y-78696260D01*
X109072068Y-78983158D01*
X109184010Y-79253411D01*
X109346525Y-79496632D01*
X109553368Y-79703475D01*
X109796589Y-79865990D01*
X109914910Y-79915000D01*
X109774592Y-79915000D01*
X109549087Y-79937210D01*
X109259739Y-80024983D01*
X108993073Y-80167519D01*
X108759339Y-80359339D01*
X108567519Y-80593073D01*
X108424983Y-80859739D01*
X108337210Y-81149087D01*
X108307573Y-81450000D01*
X108337210Y-81750913D01*
X108424983Y-82040261D01*
X108567519Y-82306927D01*
X108733932Y-82509703D01*
X108681426Y-82520147D01*
X108420273Y-82628320D01*
X108380019Y-82655217D01*
X104741209Y-79016408D01*
X104785000Y-78796260D01*
X104785000Y-78503740D01*
X104727932Y-78216842D01*
X104615990Y-77946589D01*
X104453475Y-77703368D01*
X104246632Y-77496525D01*
X104003411Y-77334010D01*
X103733158Y-77222068D01*
X103446260Y-77165000D01*
X103153740Y-77165000D01*
X102866842Y-77222068D01*
X102596589Y-77334010D01*
X102353368Y-77496525D01*
X102146525Y-77703368D01*
X101984010Y-77946589D01*
X101872068Y-78216842D01*
X101815000Y-78503740D01*
X101815000Y-78796260D01*
X101872068Y-79083158D01*
X101984010Y-79353411D01*
X102146525Y-79596632D01*
X102353368Y-79803475D01*
X102596589Y-79965990D01*
X102714910Y-80015000D01*
X102574592Y-80015000D01*
X102349087Y-80037210D01*
X102059739Y-80124983D01*
X101793073Y-80267519D01*
X101559339Y-80459339D01*
X101367519Y-80693073D01*
X101224983Y-80959739D01*
X101137210Y-81249087D01*
X101107573Y-81550000D01*
X100660000Y-81550000D01*
X100660000Y-69750000D01*
X101107573Y-69750000D01*
X101137210Y-70050913D01*
X101224983Y-70340261D01*
X101367519Y-70606927D01*
X101559339Y-70840661D01*
X101793073Y-71032481D01*
X102059739Y-71175017D01*
X102349087Y-71262790D01*
X102574592Y-71285000D01*
X102714910Y-71285000D01*
X102596589Y-71334010D01*
X102353368Y-71496525D01*
X102146525Y-71703368D01*
X101984010Y-71946589D01*
X101872068Y-72216842D01*
X101815000Y-72503740D01*
X101815000Y-72796260D01*
X101872068Y-73083158D01*
X101984010Y-73353411D01*
X102146525Y-73596632D01*
X102353368Y-73803475D01*
X102596589Y-73965990D01*
X102866842Y-74077932D01*
X103153740Y-74135000D01*
X103446260Y-74135000D01*
X103733158Y-74077932D01*
X104003411Y-73965990D01*
X104246632Y-73803475D01*
X104453475Y-73596632D01*
X104615990Y-73353411D01*
X104727932Y-73083158D01*
X104785000Y-72796260D01*
X104785000Y-72503740D01*
X104727932Y-72216842D01*
X104615990Y-71946589D01*
X104453475Y-71703368D01*
X104246632Y-71496525D01*
X104003411Y-71334010D01*
X103885090Y-71285000D01*
X103925408Y-71285000D01*
X104150913Y-71262790D01*
X104440261Y-71175017D01*
X104706927Y-71032481D01*
X104940661Y-70840661D01*
X105132481Y-70606927D01*
X105275017Y-70340261D01*
X105362790Y-70050913D01*
X105392427Y-69750000D01*
X105382578Y-69650000D01*
X108307573Y-69650000D01*
X108337210Y-69950913D01*
X108424983Y-70240261D01*
X108567519Y-70506927D01*
X108759339Y-70740661D01*
X108993073Y-70932481D01*
X109259739Y-71075017D01*
X109549087Y-71162790D01*
X109774592Y-71185000D01*
X109914910Y-71185000D01*
X109796589Y-71234010D01*
X109553368Y-71396525D01*
X109346525Y-71603368D01*
X109184010Y-71846589D01*
X109072068Y-72116842D01*
X109015000Y-72403740D01*
X109015000Y-72696260D01*
X109072068Y-72983158D01*
X109184010Y-73253411D01*
X109346525Y-73496632D01*
X109553368Y-73703475D01*
X109796589Y-73865990D01*
X110066842Y-73977932D01*
X110353740Y-74035000D01*
X110646260Y-74035000D01*
X110933158Y-73977932D01*
X111203411Y-73865990D01*
X111446632Y-73703475D01*
X111653475Y-73496632D01*
X111815990Y-73253411D01*
X111927932Y-72983158D01*
X111985000Y-72696260D01*
X111985000Y-72403740D01*
X111927932Y-72116842D01*
X111815990Y-71846589D01*
X111653475Y-71603368D01*
X111446632Y-71396525D01*
X111203411Y-71234010D01*
X111085090Y-71185000D01*
X111125408Y-71185000D01*
X111350913Y-71162790D01*
X111640261Y-71075017D01*
X111906927Y-70932481D01*
X112140661Y-70740661D01*
X112332481Y-70506927D01*
X112475017Y-70240261D01*
X112562790Y-69950913D01*
X112582577Y-69750000D01*
X115607573Y-69750000D01*
X115637210Y-70050913D01*
X115724983Y-70340261D01*
X115867519Y-70606927D01*
X116059339Y-70840661D01*
X116293073Y-71032481D01*
X116559739Y-71175017D01*
X116849087Y-71262790D01*
X117074592Y-71285000D01*
X117214910Y-71285000D01*
X117096589Y-71334010D01*
X116853368Y-71496525D01*
X116646525Y-71703368D01*
X116484010Y-71946589D01*
X116372068Y-72216842D01*
X116315000Y-72503740D01*
X116315000Y-72796260D01*
X116372068Y-73083158D01*
X116484010Y-73353411D01*
X116646525Y-73596632D01*
X116853368Y-73803475D01*
X117096589Y-73965990D01*
X117366842Y-74077932D01*
X117653740Y-74135000D01*
X117946260Y-74135000D01*
X118233158Y-74077932D01*
X118503411Y-73965990D01*
X118746632Y-73803475D01*
X118953475Y-73596632D01*
X119115990Y-73353411D01*
X119227932Y-73083158D01*
X119285000Y-72796260D01*
X119285000Y-72503740D01*
X119227932Y-72216842D01*
X119115990Y-71946589D01*
X118953475Y-71703368D01*
X118746632Y-71496525D01*
X118503411Y-71334010D01*
X118385090Y-71285000D01*
X118425408Y-71285000D01*
X118650913Y-71262790D01*
X118940261Y-71175017D01*
X119206927Y-71032481D01*
X119440661Y-70840661D01*
X119632481Y-70606927D01*
X119775017Y-70340261D01*
X119862790Y-70050913D01*
X119892427Y-69750000D01*
X119862790Y-69449087D01*
X119775017Y-69159739D01*
X119632481Y-68893073D01*
X119440661Y-68659339D01*
X119206927Y-68467519D01*
X118940261Y-68324983D01*
X118650913Y-68237210D01*
X118425408Y-68215000D01*
X117074592Y-68215000D01*
X116849087Y-68237210D01*
X116559739Y-68324983D01*
X116293073Y-68467519D01*
X116059339Y-68659339D01*
X115867519Y-68893073D01*
X115724983Y-69159739D01*
X115637210Y-69449087D01*
X115607573Y-69750000D01*
X112582577Y-69750000D01*
X112592427Y-69650000D01*
X112562790Y-69349087D01*
X112475017Y-69059739D01*
X112332481Y-68793073D01*
X112140661Y-68559339D01*
X111906927Y-68367519D01*
X111640261Y-68224983D01*
X111350913Y-68137210D01*
X111125408Y-68115000D01*
X109774592Y-68115000D01*
X109549087Y-68137210D01*
X109259739Y-68224983D01*
X108993073Y-68367519D01*
X108759339Y-68559339D01*
X108567519Y-68793073D01*
X108424983Y-69059739D01*
X108337210Y-69349087D01*
X108307573Y-69650000D01*
X105382578Y-69650000D01*
X105362790Y-69449087D01*
X105275017Y-69159739D01*
X105132481Y-68893073D01*
X104940661Y-68659339D01*
X104706927Y-68467519D01*
X104440261Y-68324983D01*
X104150913Y-68237210D01*
X103925408Y-68215000D01*
X102574592Y-68215000D01*
X102349087Y-68237210D01*
X102059739Y-68324983D01*
X101793073Y-68467519D01*
X101559339Y-68659339D01*
X101367519Y-68893073D01*
X101224983Y-69159739D01*
X101137210Y-69449087D01*
X101107573Y-69750000D01*
X100660000Y-69750000D01*
X100660000Y-63691653D01*
X101937952Y-63691653D01*
X102093962Y-64007214D01*
X102468745Y-64198020D01*
X102873551Y-64312044D01*
X103292824Y-64344902D01*
X103710451Y-64295334D01*
X104110383Y-64165243D01*
X104406038Y-64007214D01*
X104562048Y-63691653D01*
X112237952Y-63691653D01*
X112393962Y-64007214D01*
X112768745Y-64198020D01*
X113173551Y-64312044D01*
X113592824Y-64344902D01*
X114010451Y-64295334D01*
X114149818Y-64250000D01*
X125707573Y-64250000D01*
X125737210Y-64550913D01*
X125824983Y-64840261D01*
X125967519Y-65106927D01*
X126159339Y-65340661D01*
X126393073Y-65532481D01*
X126659739Y-65675017D01*
X126949087Y-65762790D01*
X127174592Y-65785000D01*
X128525408Y-65785000D01*
X128750913Y-65762790D01*
X129040261Y-65675017D01*
X129306927Y-65532481D01*
X129540661Y-65340661D01*
X129732481Y-65106927D01*
X129875017Y-64840261D01*
X129962790Y-64550913D01*
X129992427Y-64250000D01*
X129962790Y-63949087D01*
X129875017Y-63659739D01*
X129732481Y-63393073D01*
X129540661Y-63159339D01*
X129306927Y-62967519D01*
X129040261Y-62824983D01*
X128750913Y-62737210D01*
X128525408Y-62715000D01*
X128485090Y-62715000D01*
X128603411Y-62665990D01*
X128846632Y-62503475D01*
X129053475Y-62296632D01*
X129178178Y-62110000D01*
X134721822Y-62110000D01*
X134846525Y-62296632D01*
X135053368Y-62503475D01*
X135296589Y-62665990D01*
X135414910Y-62715000D01*
X135274592Y-62715000D01*
X135049087Y-62737210D01*
X134759739Y-62824983D01*
X134493073Y-62967519D01*
X134259339Y-63159339D01*
X134067519Y-63393073D01*
X133924983Y-63659739D01*
X133837210Y-63949087D01*
X133807573Y-64250000D01*
X133837210Y-64550913D01*
X133924983Y-64840261D01*
X134067519Y-65106927D01*
X134259339Y-65340661D01*
X134493073Y-65532481D01*
X134759739Y-65675017D01*
X135049087Y-65762790D01*
X135274592Y-65785000D01*
X136625408Y-65785000D01*
X136850913Y-65762790D01*
X137140261Y-65675017D01*
X137406927Y-65532481D01*
X137640661Y-65340661D01*
X137832481Y-65106927D01*
X137975017Y-64840261D01*
X138062790Y-64550913D01*
X138092427Y-64250000D01*
X138062790Y-63949087D01*
X137975017Y-63659739D01*
X137832481Y-63393073D01*
X137640661Y-63159339D01*
X137406927Y-62967519D01*
X137140261Y-62824983D01*
X136850913Y-62737210D01*
X136625408Y-62715000D01*
X136585090Y-62715000D01*
X136703411Y-62665990D01*
X136946632Y-62503475D01*
X137153475Y-62296632D01*
X137315990Y-62053411D01*
X137427932Y-61783158D01*
X137485000Y-61496260D01*
X137485000Y-61203740D01*
X137427932Y-60916842D01*
X137315990Y-60646589D01*
X137153475Y-60403368D01*
X136946632Y-60196525D01*
X136703411Y-60034010D01*
X136433158Y-59922068D01*
X136146260Y-59865000D01*
X135853740Y-59865000D01*
X135566842Y-59922068D01*
X135296589Y-60034010D01*
X135053368Y-60196525D01*
X134846525Y-60403368D01*
X134721822Y-60590000D01*
X129178178Y-60590000D01*
X129053475Y-60403368D01*
X128846632Y-60196525D01*
X128603411Y-60034010D01*
X128333158Y-59922068D01*
X128046260Y-59865000D01*
X127753740Y-59865000D01*
X127466842Y-59922068D01*
X127196589Y-60034010D01*
X126953368Y-60196525D01*
X126746525Y-60403368D01*
X126584010Y-60646589D01*
X126472068Y-60916842D01*
X126415000Y-61203740D01*
X126415000Y-61496260D01*
X126472068Y-61783158D01*
X126584010Y-62053411D01*
X126746525Y-62296632D01*
X126953368Y-62503475D01*
X127196589Y-62665990D01*
X127314910Y-62715000D01*
X127174592Y-62715000D01*
X126949087Y-62737210D01*
X126659739Y-62824983D01*
X126393073Y-62967519D01*
X126159339Y-63159339D01*
X125967519Y-63393073D01*
X125824983Y-63659739D01*
X125737210Y-63949087D01*
X125707573Y-64250000D01*
X114149818Y-64250000D01*
X114410383Y-64165243D01*
X114706038Y-64007214D01*
X114862048Y-63691653D01*
X113550000Y-62379605D01*
X112237952Y-63691653D01*
X104562048Y-63691653D01*
X103250000Y-62379605D01*
X101937952Y-63691653D01*
X100660000Y-63691653D01*
X100660000Y-62242824D01*
X101105098Y-62242824D01*
X101154666Y-62660451D01*
X101284757Y-63060383D01*
X101442786Y-63356038D01*
X101758347Y-63512048D01*
X103070395Y-62200000D01*
X103429605Y-62200000D01*
X104741653Y-63512048D01*
X105057214Y-63356038D01*
X105248020Y-62981255D01*
X105362044Y-62576449D01*
X105394902Y-62157176D01*
X105345334Y-61739549D01*
X105215243Y-61339617D01*
X105057214Y-61043962D01*
X104741653Y-60887952D01*
X103429605Y-62200000D01*
X103070395Y-62200000D01*
X101758347Y-60887952D01*
X101442786Y-61043962D01*
X101251980Y-61418745D01*
X101137956Y-61823551D01*
X101105098Y-62242824D01*
X100660000Y-62242824D01*
X100660000Y-60708347D01*
X101937952Y-60708347D01*
X103250000Y-62020395D01*
X104562048Y-60708347D01*
X104415479Y-60411881D01*
X106490000Y-60411881D01*
X106490000Y-60788119D01*
X106563400Y-61157127D01*
X106707380Y-61504724D01*
X106916406Y-61817554D01*
X107182446Y-62083594D01*
X107495276Y-62292620D01*
X107842873Y-62436600D01*
X108211881Y-62510000D01*
X108588119Y-62510000D01*
X108957127Y-62436600D01*
X109304724Y-62292620D01*
X109379249Y-62242824D01*
X111405098Y-62242824D01*
X111454666Y-62660451D01*
X111584757Y-63060383D01*
X111742786Y-63356038D01*
X112058347Y-63512048D01*
X113370395Y-62200000D01*
X113729605Y-62200000D01*
X115041653Y-63512048D01*
X115357214Y-63356038D01*
X115548020Y-62981255D01*
X115662044Y-62576449D01*
X115694902Y-62157176D01*
X115645334Y-61739549D01*
X115515243Y-61339617D01*
X115357214Y-61043962D01*
X115041653Y-60887952D01*
X113729605Y-62200000D01*
X113370395Y-62200000D01*
X112058347Y-60887952D01*
X111742786Y-61043962D01*
X111551980Y-61418745D01*
X111437956Y-61823551D01*
X111405098Y-62242824D01*
X109379249Y-62242824D01*
X109617554Y-62083594D01*
X109883594Y-61817554D01*
X110092620Y-61504724D01*
X110236600Y-61157127D01*
X110310000Y-60788119D01*
X110310000Y-60708347D01*
X112237952Y-60708347D01*
X113550000Y-62020395D01*
X114862048Y-60708347D01*
X114706038Y-60392786D01*
X114331255Y-60201980D01*
X113926449Y-60087956D01*
X113507176Y-60055098D01*
X113089549Y-60104666D01*
X112689617Y-60234757D01*
X112393962Y-60392786D01*
X112237952Y-60708347D01*
X110310000Y-60708347D01*
X110310000Y-60411881D01*
X110236600Y-60042873D01*
X110176653Y-59898149D01*
X110964802Y-59110000D01*
X126621822Y-59110000D01*
X126746525Y-59296632D01*
X126953368Y-59503475D01*
X127196589Y-59665990D01*
X127466842Y-59777932D01*
X127753740Y-59835000D01*
X128046260Y-59835000D01*
X128333158Y-59777932D01*
X128603411Y-59665990D01*
X128846632Y-59503475D01*
X129053475Y-59296632D01*
X129215990Y-59053411D01*
X129327932Y-58783158D01*
X129385000Y-58496260D01*
X129385000Y-58203740D01*
X129327932Y-57916842D01*
X129215990Y-57646589D01*
X129053475Y-57403368D01*
X128846632Y-57196525D01*
X128603411Y-57034010D01*
X128333158Y-56922068D01*
X128046260Y-56865000D01*
X127753740Y-56865000D01*
X127466842Y-56922068D01*
X127196589Y-57034010D01*
X126953368Y-57196525D01*
X126746525Y-57403368D01*
X126621822Y-57590000D01*
X110687333Y-57590000D01*
X110650000Y-57586323D01*
X110612667Y-57590000D01*
X110501014Y-57600997D01*
X110357753Y-57644454D01*
X110225724Y-57715026D01*
X110109999Y-57809999D01*
X110086201Y-57838997D01*
X109101851Y-58823347D01*
X108957127Y-58763400D01*
X108588119Y-58690000D01*
X108211881Y-58690000D01*
X107842873Y-58763400D01*
X107495276Y-58907380D01*
X107182446Y-59116406D01*
X106916406Y-59382446D01*
X106707380Y-59695276D01*
X106563400Y-60042873D01*
X106490000Y-60411881D01*
X104415479Y-60411881D01*
X104406038Y-60392786D01*
X104031255Y-60201980D01*
X103626449Y-60087956D01*
X103207176Y-60055098D01*
X102789549Y-60104666D01*
X102389617Y-60234757D01*
X102093962Y-60392786D01*
X101937952Y-60708347D01*
X100660000Y-60708347D01*
X100660000Y-53379872D01*
X101265000Y-53379872D01*
X101265000Y-53820128D01*
X101350890Y-54251925D01*
X101519369Y-54658669D01*
X101763962Y-55024729D01*
X102075271Y-55336038D01*
X102441331Y-55580631D01*
X102848075Y-55749110D01*
X103279872Y-55835000D01*
X103720128Y-55835000D01*
X104151925Y-55749110D01*
X104558669Y-55580631D01*
X104924729Y-55336038D01*
X105236038Y-55024729D01*
X105480631Y-54658669D01*
X105649110Y-54251925D01*
X105735000Y-53820128D01*
X105735000Y-53379872D01*
X105649110Y-52948075D01*
X105480631Y-52541331D01*
X105236038Y-52175271D01*
X104924729Y-51863962D01*
X104558669Y-51619369D01*
X104151925Y-51450890D01*
X103720128Y-51365000D01*
X103279872Y-51365000D01*
X102848075Y-51450890D01*
X102441331Y-51619369D01*
X102075271Y-51863962D01*
X101763962Y-52175271D01*
X101519369Y-52541331D01*
X101350890Y-52948075D01*
X101265000Y-53379872D01*
X100660000Y-53379872D01*
X100660000Y-50660000D01*
X142615198Y-50660000D01*
X137382601Y-55892598D01*
X137382601Y-55892598D01*
G37*
X137382601Y-55892598D02*
X137427932Y-55783158D01*
X137485000Y-55496260D01*
X137485000Y-55203740D01*
X137427932Y-54916842D01*
X137315990Y-54646589D01*
X137153475Y-54403368D01*
X136946632Y-54196525D01*
X136703411Y-54034010D01*
X136585090Y-53985000D01*
X136625408Y-53985000D01*
X136850913Y-53962790D01*
X137140261Y-53875017D01*
X137406927Y-53732481D01*
X137640661Y-53540661D01*
X137832481Y-53306927D01*
X137975017Y-53040261D01*
X138062790Y-52750913D01*
X138092427Y-52450000D01*
X138062790Y-52149087D01*
X137975017Y-51859739D01*
X137832481Y-51593073D01*
X137640661Y-51359339D01*
X137406927Y-51167519D01*
X137140261Y-51024983D01*
X136850913Y-50937210D01*
X136625408Y-50915000D01*
X135274592Y-50915000D01*
X135049087Y-50937210D01*
X134759739Y-51024983D01*
X134493073Y-51167519D01*
X134259339Y-51359339D01*
X134067519Y-51593073D01*
X133924983Y-51859739D01*
X133837210Y-52149087D01*
X133807573Y-52450000D01*
X133837210Y-52750913D01*
X133924983Y-53040261D01*
X134067519Y-53306927D01*
X134259339Y-53540661D01*
X134493073Y-53732481D01*
X134759739Y-53875017D01*
X135049087Y-53962790D01*
X135274592Y-53985000D01*
X135414910Y-53985000D01*
X135296589Y-54034010D01*
X135053368Y-54196525D01*
X134846525Y-54403368D01*
X134721822Y-54590000D01*
X129178178Y-54590000D01*
X129053475Y-54403368D01*
X128846632Y-54196525D01*
X128603411Y-54034010D01*
X128485090Y-53985000D01*
X128525408Y-53985000D01*
X128750913Y-53962790D01*
X129040261Y-53875017D01*
X129306927Y-53732481D01*
X129540661Y-53540661D01*
X129732481Y-53306927D01*
X129875017Y-53040261D01*
X129962790Y-52750913D01*
X129992427Y-52450000D01*
X129962790Y-52149087D01*
X129875017Y-51859739D01*
X129732481Y-51593073D01*
X129540661Y-51359339D01*
X129306927Y-51167519D01*
X129040261Y-51024983D01*
X128750913Y-50937210D01*
X128525408Y-50915000D01*
X127174592Y-50915000D01*
X126949087Y-50937210D01*
X126659739Y-51024983D01*
X126393073Y-51167519D01*
X126159339Y-51359339D01*
X125967519Y-51593073D01*
X125824983Y-51859739D01*
X125737210Y-52149087D01*
X125707573Y-52450000D01*
X125737210Y-52750913D01*
X125824983Y-53040261D01*
X125967519Y-53306927D01*
X126159339Y-53540661D01*
X126393073Y-53732481D01*
X126659739Y-53875017D01*
X126949087Y-53962790D01*
X127174592Y-53985000D01*
X127314910Y-53985000D01*
X127196589Y-54034010D01*
X126953368Y-54196525D01*
X126746525Y-54403368D01*
X126584010Y-54646589D01*
X126472068Y-54916842D01*
X126415000Y-55203740D01*
X126415000Y-55496260D01*
X126472068Y-55783158D01*
X126584010Y-56053411D01*
X126746525Y-56296632D01*
X126953368Y-56503475D01*
X127196589Y-56665990D01*
X127466842Y-56777932D01*
X127753740Y-56835000D01*
X128046260Y-56835000D01*
X128333158Y-56777932D01*
X128603411Y-56665990D01*
X128846632Y-56503475D01*
X129053475Y-56296632D01*
X129178178Y-56110000D01*
X134721822Y-56110000D01*
X134846525Y-56296632D01*
X135053368Y-56503475D01*
X135296589Y-56665990D01*
X135566842Y-56777932D01*
X135853740Y-56835000D01*
X136146260Y-56835000D01*
X136433158Y-56777932D01*
X136542598Y-56732601D01*
X136366408Y-56908791D01*
X136146260Y-56865000D01*
X135853740Y-56865000D01*
X135566842Y-56922068D01*
X135296589Y-57034010D01*
X135053368Y-57196525D01*
X134846525Y-57403368D01*
X134684010Y-57646589D01*
X134572068Y-57916842D01*
X134515000Y-58203740D01*
X134515000Y-58496260D01*
X134572068Y-58783158D01*
X134684010Y-59053411D01*
X134846525Y-59296632D01*
X135053368Y-59503475D01*
X135296589Y-59665990D01*
X135566842Y-59777932D01*
X135853740Y-59835000D01*
X136146260Y-59835000D01*
X136433158Y-59777932D01*
X136703411Y-59665990D01*
X136946632Y-59503475D01*
X137153475Y-59296632D01*
X137315990Y-59053411D01*
X137427932Y-58783158D01*
X137485000Y-58496260D01*
X137485000Y-58203740D01*
X137474311Y-58150000D01*
X142311928Y-58150000D01*
X142324188Y-58274482D01*
X142360498Y-58394180D01*
X142419463Y-58504494D01*
X142498815Y-58601185D01*
X142595506Y-58680537D01*
X142705820Y-58739502D01*
X142825518Y-58775812D01*
X142950000Y-58788072D01*
X144414250Y-58785000D01*
X144573000Y-58626250D01*
X144573000Y-56527000D01*
X144827000Y-56527000D01*
X144827000Y-58626250D01*
X144985750Y-58785000D01*
X146450000Y-58788072D01*
X146574482Y-58775812D01*
X146694180Y-58739502D01*
X146804494Y-58680537D01*
X146901185Y-58601185D01*
X146980537Y-58504494D01*
X147011928Y-58445767D01*
X147011928Y-61150000D01*
X147024188Y-61274482D01*
X147060498Y-61394180D01*
X147119463Y-61504494D01*
X147198815Y-61601185D01*
X147295506Y-61680537D01*
X147405820Y-61739502D01*
X147525518Y-61775812D01*
X147650000Y-61788072D01*
X151150000Y-61788072D01*
X151274482Y-61775812D01*
X151394180Y-61739502D01*
X151504494Y-61680537D01*
X151601185Y-61601185D01*
X151680537Y-61504494D01*
X151739502Y-61394180D01*
X151775812Y-61274482D01*
X151788072Y-61150000D01*
X151788072Y-60458665D01*
X157965000Y-60458665D01*
X157965000Y-60741335D01*
X158020147Y-61018574D01*
X158128320Y-61279727D01*
X158285363Y-61514759D01*
X158485241Y-61714637D01*
X158720273Y-61871680D01*
X158981426Y-61979853D01*
X159258665Y-62035000D01*
X159541335Y-62035000D01*
X159818574Y-61979853D01*
X160079727Y-61871680D01*
X160314759Y-61714637D01*
X160436694Y-61592702D01*
X163586903Y-61592702D01*
X163658486Y-61836671D01*
X163913996Y-61957571D01*
X164188184Y-62026300D01*
X164470512Y-62040217D01*
X164750130Y-61998787D01*
X165016292Y-61903603D01*
X165141514Y-61836671D01*
X165213097Y-61592702D01*
X164400000Y-60779605D01*
X163586903Y-61592702D01*
X160436694Y-61592702D01*
X160514637Y-61514759D01*
X160671680Y-61279727D01*
X160779853Y-61018574D01*
X160835000Y-60741335D01*
X160835000Y-60670512D01*
X162959783Y-60670512D01*
X163001213Y-60950130D01*
X163096397Y-61216292D01*
X163163329Y-61341514D01*
X163407298Y-61413097D01*
X164220395Y-60600000D01*
X164579605Y-60600000D01*
X165392702Y-61413097D01*
X165636671Y-61341514D01*
X165757571Y-61086004D01*
X165826300Y-60811816D01*
X165840217Y-60529488D01*
X165798787Y-60249870D01*
X165703603Y-59983708D01*
X165636671Y-59858486D01*
X165392702Y-59786903D01*
X164579605Y-60600000D01*
X164220395Y-60600000D01*
X163407298Y-59786903D01*
X163163329Y-59858486D01*
X163042429Y-60113996D01*
X162973700Y-60388184D01*
X162959783Y-60670512D01*
X160835000Y-60670512D01*
X160835000Y-60458665D01*
X160779853Y-60181426D01*
X160671680Y-59920273D01*
X160514637Y-59685241D01*
X160436694Y-59607298D01*
X163586903Y-59607298D01*
X164400000Y-60420395D01*
X165213097Y-59607298D01*
X165141514Y-59363329D01*
X164886004Y-59242429D01*
X164611816Y-59173700D01*
X164329488Y-59159783D01*
X164049870Y-59201213D01*
X163783708Y-59296397D01*
X163658486Y-59363329D01*
X163586903Y-59607298D01*
X160436694Y-59607298D01*
X160314759Y-59485363D01*
X160079727Y-59328320D01*
X159818574Y-59220147D01*
X159541335Y-59165000D01*
X159258665Y-59165000D01*
X158981426Y-59220147D01*
X158720273Y-59328320D01*
X158485241Y-59485363D01*
X158285363Y-59685241D01*
X158128320Y-59920273D01*
X158020147Y-60181426D01*
X157965000Y-60458665D01*
X151788072Y-60458665D01*
X151788072Y-57650000D01*
X151775812Y-57525518D01*
X151739502Y-57405820D01*
X151680537Y-57295506D01*
X151601185Y-57198815D01*
X151504494Y-57119463D01*
X151394180Y-57060498D01*
X151274482Y-57024188D01*
X151150000Y-57011928D01*
X147650000Y-57011928D01*
X147525518Y-57024188D01*
X147405820Y-57060498D01*
X147295506Y-57119463D01*
X147198815Y-57198815D01*
X147119463Y-57295506D01*
X147086409Y-57357345D01*
X147085000Y-56685750D01*
X146926250Y-56527000D01*
X144827000Y-56527000D01*
X144573000Y-56527000D01*
X142473750Y-56527000D01*
X142315000Y-56685750D01*
X142311928Y-58150000D01*
X137474311Y-58150000D01*
X137441209Y-57983592D01*
X140774801Y-54650000D01*
X142311928Y-54650000D01*
X142315000Y-56114250D01*
X142473750Y-56273000D01*
X144573000Y-56273000D01*
X144573000Y-54173750D01*
X144827000Y-54173750D01*
X144827000Y-56273000D01*
X146926250Y-56273000D01*
X147085000Y-56114250D01*
X147086931Y-55193633D01*
X147119463Y-55254494D01*
X147198815Y-55351185D01*
X147295506Y-55430537D01*
X147405820Y-55489502D01*
X147525518Y-55525812D01*
X147650000Y-55538072D01*
X149114250Y-55535000D01*
X149273000Y-55376250D01*
X149273000Y-53527000D01*
X149527000Y-53527000D01*
X149527000Y-55376250D01*
X149685750Y-55535000D01*
X151150000Y-55538072D01*
X151274482Y-55525812D01*
X151394180Y-55489502D01*
X151504494Y-55430537D01*
X151601185Y-55351185D01*
X151680537Y-55254494D01*
X151739502Y-55144180D01*
X151775812Y-55024482D01*
X151788072Y-54900000D01*
X151785000Y-53685750D01*
X151626250Y-53527000D01*
X149527000Y-53527000D01*
X149273000Y-53527000D01*
X147173750Y-53527000D01*
X147015000Y-53685750D01*
X147013302Y-54356805D01*
X146980537Y-54295506D01*
X146901185Y-54198815D01*
X146804494Y-54119463D01*
X146694180Y-54060498D01*
X146574482Y-54024188D01*
X146450000Y-54011928D01*
X144985750Y-54015000D01*
X144827000Y-54173750D01*
X144573000Y-54173750D01*
X144414250Y-54015000D01*
X142950000Y-54011928D01*
X142825518Y-54024188D01*
X142705820Y-54060498D01*
X142595506Y-54119463D01*
X142498815Y-54198815D01*
X142419463Y-54295506D01*
X142360498Y-54405820D01*
X142324188Y-54525518D01*
X142311928Y-54650000D01*
X140774801Y-54650000D01*
X143989803Y-51434999D01*
X147215650Y-51434999D01*
X147198815Y-51448815D01*
X147119463Y-51545506D01*
X147060498Y-51655820D01*
X147024188Y-51775518D01*
X147011928Y-51900000D01*
X147015000Y-53114250D01*
X147173750Y-53273000D01*
X149273000Y-53273000D01*
X149273000Y-53253000D01*
X149527000Y-53253000D01*
X149527000Y-53273000D01*
X151626250Y-53273000D01*
X151785000Y-53114250D01*
X151785100Y-53074593D01*
X154015000Y-53074593D01*
X154015000Y-54425408D01*
X154037210Y-54650913D01*
X154124983Y-54940261D01*
X154267520Y-55206927D01*
X154459340Y-55440661D01*
X154693074Y-55632481D01*
X154959740Y-55775017D01*
X155249088Y-55862790D01*
X155550000Y-55892427D01*
X155850913Y-55862790D01*
X156140261Y-55775017D01*
X156406927Y-55632481D01*
X156640661Y-55440661D01*
X156832481Y-55206927D01*
X156975017Y-54940261D01*
X157062790Y-54650913D01*
X157085000Y-54425408D01*
X157085000Y-54285090D01*
X157134010Y-54403411D01*
X157296525Y-54646632D01*
X157503368Y-54853475D01*
X157746589Y-55015990D01*
X158016842Y-55127932D01*
X158303740Y-55185000D01*
X158596260Y-55185000D01*
X158883158Y-55127932D01*
X159153411Y-55015990D01*
X159396632Y-54853475D01*
X159603475Y-54646632D01*
X159765990Y-54403411D01*
X159877932Y-54133158D01*
X159935000Y-53846260D01*
X159935000Y-53553740D01*
X159965000Y-53553740D01*
X159965000Y-53846260D01*
X160022068Y-54133158D01*
X160134010Y-54403411D01*
X160296525Y-54646632D01*
X160503368Y-54853475D01*
X160746589Y-55015990D01*
X161016842Y-55127932D01*
X161303740Y-55185000D01*
X161596260Y-55185000D01*
X161883158Y-55127932D01*
X162153411Y-55015990D01*
X162396632Y-54853475D01*
X162603475Y-54646632D01*
X162765990Y-54403411D01*
X162877932Y-54133158D01*
X162935000Y-53846260D01*
X162935000Y-53553740D01*
X162877932Y-53266842D01*
X162765990Y-52996589D01*
X162603475Y-52753368D01*
X162396632Y-52546525D01*
X162153411Y-52384010D01*
X161883158Y-52272068D01*
X161596260Y-52215000D01*
X161303740Y-52215000D01*
X161016842Y-52272068D01*
X160746589Y-52384010D01*
X160503368Y-52546525D01*
X160296525Y-52753368D01*
X160134010Y-52996589D01*
X160022068Y-53266842D01*
X159965000Y-53553740D01*
X159935000Y-53553740D01*
X159877932Y-53266842D01*
X159765990Y-52996589D01*
X159603475Y-52753368D01*
X159396632Y-52546525D01*
X159153411Y-52384010D01*
X158883158Y-52272068D01*
X158596260Y-52215000D01*
X158303740Y-52215000D01*
X158016842Y-52272068D01*
X157746589Y-52384010D01*
X157503368Y-52546525D01*
X157296525Y-52753368D01*
X157134010Y-52996589D01*
X157085000Y-53114910D01*
X157085000Y-53074592D01*
X157062790Y-52849087D01*
X156975017Y-52559739D01*
X156832481Y-52293073D01*
X156640661Y-52059339D01*
X156406926Y-51867519D01*
X156140260Y-51724983D01*
X155850912Y-51637210D01*
X155550000Y-51607573D01*
X155249087Y-51637210D01*
X154959739Y-51724983D01*
X154693073Y-51867519D01*
X154459339Y-52059339D01*
X154267519Y-52293074D01*
X154124983Y-52559740D01*
X154037210Y-52849088D01*
X154015000Y-53074593D01*
X151785100Y-53074593D01*
X151788072Y-51900000D01*
X151775812Y-51775518D01*
X151739502Y-51655820D01*
X151680537Y-51545506D01*
X151601185Y-51448815D01*
X151584350Y-51434999D01*
X169009491Y-51434999D01*
X168965000Y-51658665D01*
X168965000Y-51941335D01*
X169020147Y-52218574D01*
X169128320Y-52479727D01*
X169285363Y-52714759D01*
X169464114Y-52893510D01*
X168885000Y-53472623D01*
X168885000Y-53074592D01*
X168862790Y-52849087D01*
X168775017Y-52559739D01*
X168632481Y-52293073D01*
X168440661Y-52059339D01*
X168206926Y-51867519D01*
X167940260Y-51724983D01*
X167650912Y-51637210D01*
X167350000Y-51607573D01*
X167049087Y-51637210D01*
X166759739Y-51724983D01*
X166493073Y-51867519D01*
X166259339Y-52059339D01*
X166067519Y-52293074D01*
X165924983Y-52559740D01*
X165837210Y-52849088D01*
X165815000Y-53074593D01*
X165815000Y-53114910D01*
X165765990Y-52996589D01*
X165603475Y-52753368D01*
X165396632Y-52546525D01*
X165153411Y-52384010D01*
X164883158Y-52272068D01*
X164596260Y-52215000D01*
X164303740Y-52215000D01*
X164016842Y-52272068D01*
X163746589Y-52384010D01*
X163503368Y-52546525D01*
X163296525Y-52753368D01*
X163134010Y-52996589D01*
X163022068Y-53266842D01*
X162965000Y-53553740D01*
X162965000Y-53846260D01*
X163022068Y-54133158D01*
X163134010Y-54403411D01*
X163296525Y-54646632D01*
X163503368Y-54853475D01*
X163746589Y-55015990D01*
X164016842Y-55127932D01*
X164303740Y-55185000D01*
X164596260Y-55185000D01*
X164816408Y-55141209D01*
X165761211Y-56086013D01*
X165785009Y-56115011D01*
X165814007Y-56138809D01*
X165900734Y-56209984D01*
X166032763Y-56280556D01*
X166176024Y-56324013D01*
X166325010Y-56338687D01*
X166362343Y-56335010D01*
X167820093Y-56335010D01*
X167857415Y-56338686D01*
X167894737Y-56335010D01*
X167894748Y-56335010D01*
X168006401Y-56324013D01*
X168149662Y-56280556D01*
X168281691Y-56209984D01*
X168397416Y-56115011D01*
X168421219Y-56086007D01*
X169019753Y-55487473D01*
X169048754Y-55583087D01*
X169168963Y-55837420D01*
X169336481Y-56063414D01*
X169544869Y-56252385D01*
X169786119Y-56397070D01*
X170050960Y-56491909D01*
X170273000Y-56370624D01*
X170273000Y-55227000D01*
X170253000Y-55227000D01*
X170253000Y-54973000D01*
X170273000Y-54973000D01*
X170273000Y-54953000D01*
X170527000Y-54953000D01*
X170527000Y-54973000D01*
X170547000Y-54973000D01*
X170547000Y-55227000D01*
X170527000Y-55227000D01*
X170527000Y-56370624D01*
X170749040Y-56491909D01*
X170840001Y-56459336D01*
X170840001Y-57285197D01*
X170804778Y-57320420D01*
X170694418Y-57261431D01*
X170523132Y-57209472D01*
X170345000Y-57191928D01*
X169795000Y-57191928D01*
X169616868Y-57209472D01*
X169445582Y-57261431D01*
X169287724Y-57345808D01*
X169149361Y-57459361D01*
X169035808Y-57597724D01*
X168951431Y-57755582D01*
X168899472Y-57926868D01*
X168881928Y-58105000D01*
X168881928Y-59261928D01*
X168250000Y-59261928D01*
X168125518Y-59274188D01*
X168005820Y-59310498D01*
X167895506Y-59369463D01*
X167798815Y-59448815D01*
X167719463Y-59545506D01*
X167660498Y-59655820D01*
X167624188Y-59775518D01*
X167611928Y-59900000D01*
X167611928Y-61700000D01*
X167624188Y-61824482D01*
X167660498Y-61944180D01*
X167719463Y-62054494D01*
X167798815Y-62151185D01*
X167895506Y-62230537D01*
X168005820Y-62289502D01*
X168125518Y-62325812D01*
X168250000Y-62338072D01*
X169350000Y-62338072D01*
X169474482Y-62325812D01*
X169594180Y-62289502D01*
X169607552Y-62282354D01*
X169861211Y-62536013D01*
X169885009Y-62565011D01*
X170000734Y-62659984D01*
X170132763Y-62730556D01*
X170276024Y-62774013D01*
X170387677Y-62785010D01*
X170387686Y-62785010D01*
X170425009Y-62788686D01*
X170462332Y-62785010D01*
X171826212Y-62785010D01*
X171863534Y-62788686D01*
X171900856Y-62785010D01*
X171900867Y-62785010D01*
X172012520Y-62774013D01*
X172155781Y-62730556D01*
X172287810Y-62659984D01*
X172403535Y-62565011D01*
X172427338Y-62536007D01*
X175911004Y-59052342D01*
X175940001Y-59028545D01*
X176034974Y-58912820D01*
X176105546Y-58780791D01*
X176149003Y-58637530D01*
X176160000Y-58525877D01*
X176160000Y-58525868D01*
X176163676Y-58488545D01*
X176160000Y-58451222D01*
X176160000Y-58034801D01*
X177696114Y-56498688D01*
X177878665Y-56535000D01*
X178161335Y-56535000D01*
X178438574Y-56479853D01*
X178699727Y-56371680D01*
X178934759Y-56214637D01*
X179134637Y-56014759D01*
X179291680Y-55779727D01*
X179399853Y-55518574D01*
X179455000Y-55241335D01*
X179455000Y-54958665D01*
X179399853Y-54681426D01*
X179291680Y-54420273D01*
X179134637Y-54185241D01*
X178934759Y-53985363D01*
X178780000Y-53881957D01*
X178780000Y-53020901D01*
X178821101Y-52998932D01*
X179039608Y-52819608D01*
X179218932Y-52601101D01*
X179352182Y-52351808D01*
X179434236Y-52081309D01*
X179461943Y-51800000D01*
X179434236Y-51518691D01*
X179408849Y-51434999D01*
X181560198Y-51434999D01*
X190423347Y-60298149D01*
X190363400Y-60442873D01*
X190290000Y-60811881D01*
X190290000Y-61188119D01*
X190363400Y-61557127D01*
X190507380Y-61904724D01*
X190716406Y-62217554D01*
X190982446Y-62483594D01*
X191295276Y-62692620D01*
X191642873Y-62836600D01*
X192011881Y-62910000D01*
X192388119Y-62910000D01*
X192757127Y-62836600D01*
X193104724Y-62692620D01*
X193179249Y-62642824D01*
X195205098Y-62642824D01*
X195254666Y-63060451D01*
X195384757Y-63460383D01*
X195542786Y-63756038D01*
X195858347Y-63912048D01*
X197170395Y-62600000D01*
X195858347Y-61287952D01*
X195542786Y-61443962D01*
X195351980Y-61818745D01*
X195237956Y-62223551D01*
X195205098Y-62642824D01*
X193179249Y-62642824D01*
X193417554Y-62483594D01*
X193683594Y-62217554D01*
X193892620Y-61904724D01*
X194036600Y-61557127D01*
X194110000Y-61188119D01*
X194110000Y-61108347D01*
X196037952Y-61108347D01*
X197350000Y-62420395D01*
X198662048Y-61108347D01*
X198506038Y-60792786D01*
X198131255Y-60601980D01*
X197726449Y-60487956D01*
X197307176Y-60455098D01*
X196889549Y-60504666D01*
X196489617Y-60634757D01*
X196193962Y-60792786D01*
X196037952Y-61108347D01*
X194110000Y-61108347D01*
X194110000Y-60811881D01*
X194036600Y-60442873D01*
X193892620Y-60095276D01*
X193683594Y-59782446D01*
X193417554Y-59516406D01*
X193104724Y-59307380D01*
X192757127Y-59163400D01*
X192388119Y-59090000D01*
X192011881Y-59090000D01*
X191642873Y-59163400D01*
X191498149Y-59223347D01*
X185554674Y-53279872D01*
X194365000Y-53279872D01*
X194365000Y-53720128D01*
X194450890Y-54151925D01*
X194619369Y-54558669D01*
X194863962Y-54924729D01*
X195175271Y-55236038D01*
X195541331Y-55480631D01*
X195948075Y-55649110D01*
X196379872Y-55735000D01*
X196820128Y-55735000D01*
X197251925Y-55649110D01*
X197658669Y-55480631D01*
X198024729Y-55236038D01*
X198336038Y-54924729D01*
X198580631Y-54558669D01*
X198749110Y-54151925D01*
X198835000Y-53720128D01*
X198835000Y-53279872D01*
X198749110Y-52848075D01*
X198580631Y-52441331D01*
X198336038Y-52075271D01*
X198024729Y-51763962D01*
X197658669Y-51519369D01*
X197251925Y-51350890D01*
X196820128Y-51265000D01*
X196379872Y-51265000D01*
X195948075Y-51350890D01*
X195541331Y-51519369D01*
X195175271Y-51763962D01*
X194863962Y-52075271D01*
X194619369Y-52441331D01*
X194450890Y-52848075D01*
X194365000Y-53279872D01*
X185554674Y-53279872D01*
X182934801Y-50660000D01*
X199340000Y-50660000D01*
X199340000Y-61815727D01*
X199315243Y-61739617D01*
X199157214Y-61443962D01*
X198841653Y-61287952D01*
X197529605Y-62600000D01*
X198841653Y-63912048D01*
X199157214Y-63756038D01*
X199340000Y-63397007D01*
X199340001Y-89340000D01*
X185869103Y-89340000D01*
X185926300Y-89111816D01*
X185940217Y-88829488D01*
X185898787Y-88549870D01*
X185803603Y-88283708D01*
X185736671Y-88158486D01*
X185492702Y-88086903D01*
X184679605Y-88900000D01*
X184693748Y-88914143D01*
X184514143Y-89093748D01*
X184500000Y-89079605D01*
X184485858Y-89093748D01*
X184306253Y-88914143D01*
X184320395Y-88900000D01*
X183507298Y-88086903D01*
X183263329Y-88158486D01*
X183142429Y-88413996D01*
X183073700Y-88688184D01*
X183059783Y-88970512D01*
X183101213Y-89250130D01*
X183133352Y-89340000D01*
X181232022Y-89340000D01*
X181257571Y-89286004D01*
X181326300Y-89011816D01*
X181340217Y-88729488D01*
X181298787Y-88449870D01*
X181203603Y-88183708D01*
X181136671Y-88058486D01*
X180892702Y-87986903D01*
X180079605Y-88800000D01*
X180093748Y-88814143D01*
X179914143Y-88993748D01*
X179900000Y-88979605D01*
X179885858Y-88993748D01*
X179706253Y-88814143D01*
X179720395Y-88800000D01*
X178907298Y-87986903D01*
X178663329Y-88058486D01*
X178542429Y-88313996D01*
X178473700Y-88588184D01*
X178459783Y-88870512D01*
X178501213Y-89150130D01*
X178569114Y-89340000D01*
X175347803Y-89340000D01*
X176711004Y-87976800D01*
X176740001Y-87953003D01*
X176834974Y-87837278D01*
X176850998Y-87807298D01*
X179086903Y-87807298D01*
X179900000Y-88620395D01*
X180613097Y-87907298D01*
X183686903Y-87907298D01*
X184500000Y-88720395D01*
X185313097Y-87907298D01*
X185241514Y-87663329D01*
X184986004Y-87542429D01*
X184711816Y-87473700D01*
X184429488Y-87459783D01*
X184149870Y-87501213D01*
X183883708Y-87596397D01*
X183758486Y-87663329D01*
X183686903Y-87907298D01*
X180613097Y-87907298D01*
X180713097Y-87807298D01*
X180641514Y-87563329D01*
X180386004Y-87442429D01*
X180111816Y-87373700D01*
X179829488Y-87359783D01*
X179549870Y-87401213D01*
X179283708Y-87496397D01*
X179158486Y-87563329D01*
X179086903Y-87807298D01*
X176850998Y-87807298D01*
X176905546Y-87705249D01*
X176949003Y-87561988D01*
X176960000Y-87450335D01*
X176960000Y-87450327D01*
X176963676Y-87413002D01*
X176960000Y-87375677D01*
X176960000Y-84053801D01*
X179140001Y-81873801D01*
X179140000Y-82581956D01*
X178985241Y-82685363D01*
X178785363Y-82885241D01*
X178628320Y-83120273D01*
X178520147Y-83381426D01*
X178465000Y-83658665D01*
X178465000Y-83941335D01*
X178520147Y-84218574D01*
X178628320Y-84479727D01*
X178785363Y-84714759D01*
X178985241Y-84914637D01*
X179220273Y-85071680D01*
X179481426Y-85179853D01*
X179758665Y-85235000D01*
X180041335Y-85235000D01*
X180318574Y-85179853D01*
X180579727Y-85071680D01*
X180814759Y-84914637D01*
X181014637Y-84714759D01*
X181171680Y-84479727D01*
X181279853Y-84218574D01*
X181335000Y-83941335D01*
X181335000Y-83758665D01*
X183065000Y-83758665D01*
X183065000Y-84041335D01*
X183120147Y-84318574D01*
X183228320Y-84579727D01*
X183385363Y-84814759D01*
X183585241Y-85014637D01*
X183820273Y-85171680D01*
X184081426Y-85279853D01*
X184358665Y-85335000D01*
X184641335Y-85335000D01*
X184918574Y-85279853D01*
X185179727Y-85171680D01*
X185414759Y-85014637D01*
X185614637Y-84814759D01*
X185771680Y-84579727D01*
X185879853Y-84318574D01*
X185935000Y-84041335D01*
X185935000Y-83758665D01*
X185897467Y-83569978D01*
X185934972Y-83524278D01*
X185934973Y-83524277D01*
X186005545Y-83392248D01*
X186049002Y-83248987D01*
X186059999Y-83137334D01*
X186059999Y-83137325D01*
X186063675Y-83100002D01*
X186059999Y-83062679D01*
X186059999Y-82664802D01*
X186845747Y-81879055D01*
X186924983Y-82140261D01*
X187067519Y-82406927D01*
X187259339Y-82640661D01*
X187493073Y-82832481D01*
X187759739Y-82975017D01*
X188049087Y-83062790D01*
X188274592Y-83085000D01*
X189625408Y-83085000D01*
X189850913Y-83062790D01*
X189939186Y-83036013D01*
X187988998Y-84986201D01*
X187960000Y-85009999D01*
X187936202Y-85038997D01*
X187936201Y-85038998D01*
X187865026Y-85125724D01*
X187845674Y-85161928D01*
X187700000Y-85161928D01*
X187575518Y-85174188D01*
X187455820Y-85210498D01*
X187345506Y-85269463D01*
X187248815Y-85348815D01*
X187169463Y-85445506D01*
X187110498Y-85555820D01*
X187074188Y-85675518D01*
X187061928Y-85800000D01*
X187061928Y-87400000D01*
X187074188Y-87524482D01*
X187110498Y-87644180D01*
X187169463Y-87754494D01*
X187248815Y-87851185D01*
X187345506Y-87930537D01*
X187455820Y-87989502D01*
X187575518Y-88025812D01*
X187700000Y-88038072D01*
X189300000Y-88038072D01*
X189424482Y-88025812D01*
X189544180Y-87989502D01*
X189654494Y-87930537D01*
X189751185Y-87851185D01*
X189830537Y-87754494D01*
X189889502Y-87644180D01*
X189905117Y-87592702D01*
X190186903Y-87592702D01*
X190258486Y-87836671D01*
X190513996Y-87957571D01*
X190788184Y-88026300D01*
X191070512Y-88040217D01*
X191350130Y-87998787D01*
X191616292Y-87903603D01*
X191741514Y-87836671D01*
X191813097Y-87592702D01*
X191000000Y-86779605D01*
X190186903Y-87592702D01*
X189905117Y-87592702D01*
X189925812Y-87524482D01*
X189938072Y-87400000D01*
X189938072Y-87392785D01*
X190007298Y-87413097D01*
X190820395Y-86600000D01*
X191179605Y-86600000D01*
X191992702Y-87413097D01*
X192236671Y-87341514D01*
X192357571Y-87086004D01*
X192426300Y-86811816D01*
X192440217Y-86529488D01*
X192403233Y-86279872D01*
X194265000Y-86279872D01*
X194265000Y-86720128D01*
X194350890Y-87151925D01*
X194519369Y-87558669D01*
X194763962Y-87924729D01*
X195075271Y-88236038D01*
X195441331Y-88480631D01*
X195848075Y-88649110D01*
X196279872Y-88735000D01*
X196720128Y-88735000D01*
X197151925Y-88649110D01*
X197558669Y-88480631D01*
X197924729Y-88236038D01*
X198236038Y-87924729D01*
X198480631Y-87558669D01*
X198649110Y-87151925D01*
X198735000Y-86720128D01*
X198735000Y-86279872D01*
X198649110Y-85848075D01*
X198480631Y-85441331D01*
X198236038Y-85075271D01*
X197924729Y-84763962D01*
X197558669Y-84519369D01*
X197151925Y-84350890D01*
X196720128Y-84265000D01*
X196279872Y-84265000D01*
X195848075Y-84350890D01*
X195441331Y-84519369D01*
X195075271Y-84763962D01*
X194763962Y-85075271D01*
X194519369Y-85441331D01*
X194350890Y-85848075D01*
X194265000Y-86279872D01*
X192403233Y-86279872D01*
X192398787Y-86249870D01*
X192303603Y-85983708D01*
X192236671Y-85858486D01*
X191992702Y-85786903D01*
X191179605Y-86600000D01*
X190820395Y-86600000D01*
X190007298Y-85786903D01*
X189938072Y-85807215D01*
X189938072Y-85800000D01*
X189925812Y-85675518D01*
X189905118Y-85607298D01*
X190186903Y-85607298D01*
X191000000Y-86420395D01*
X191813097Y-85607298D01*
X191741514Y-85363329D01*
X191486004Y-85242429D01*
X191211816Y-85173700D01*
X190929488Y-85159783D01*
X190649870Y-85201213D01*
X190383708Y-85296397D01*
X190258486Y-85363329D01*
X190186903Y-85607298D01*
X189905118Y-85607298D01*
X189889502Y-85555820D01*
X189830537Y-85445506D01*
X189762364Y-85362437D01*
X194293788Y-80831014D01*
X194224983Y-80959739D01*
X194137210Y-81249087D01*
X194107573Y-81550000D01*
X194137210Y-81850913D01*
X194224983Y-82140261D01*
X194367519Y-82406927D01*
X194559339Y-82640661D01*
X194793073Y-82832481D01*
X195059739Y-82975017D01*
X195349087Y-83062790D01*
X195574592Y-83085000D01*
X196925408Y-83085000D01*
X197150913Y-83062790D01*
X197440261Y-82975017D01*
X197706927Y-82832481D01*
X197940661Y-82640661D01*
X198132481Y-82406927D01*
X198275017Y-82140261D01*
X198362790Y-81850913D01*
X198392427Y-81550000D01*
X198362790Y-81249087D01*
X198275017Y-80959739D01*
X198132481Y-80693073D01*
X197940661Y-80459339D01*
X197706927Y-80267519D01*
X197440261Y-80124983D01*
X197150913Y-80037210D01*
X196925408Y-80015000D01*
X196885090Y-80015000D01*
X197003411Y-79965990D01*
X197246632Y-79803475D01*
X197453475Y-79596632D01*
X197615990Y-79353411D01*
X197727932Y-79083158D01*
X197785000Y-78796260D01*
X197785000Y-78503740D01*
X197727932Y-78216842D01*
X197615990Y-77946589D01*
X197453475Y-77703368D01*
X197246632Y-77496525D01*
X197003411Y-77334010D01*
X196733158Y-77222068D01*
X196446260Y-77165000D01*
X196153740Y-77165000D01*
X195866842Y-77222068D01*
X195596589Y-77334010D01*
X195353368Y-77496525D01*
X195146525Y-77703368D01*
X194984010Y-77946589D01*
X194945331Y-78039969D01*
X194859999Y-78109999D01*
X194836201Y-78138997D01*
X191036013Y-81939186D01*
X191062790Y-81850913D01*
X191092427Y-81550000D01*
X191062790Y-81249087D01*
X190975017Y-80959739D01*
X190832481Y-80693073D01*
X190640661Y-80459339D01*
X190406927Y-80267519D01*
X190140261Y-80124983D01*
X189850913Y-80037210D01*
X189625408Y-80015000D01*
X189585090Y-80015000D01*
X189703411Y-79965990D01*
X189946632Y-79803475D01*
X190153475Y-79596632D01*
X190315990Y-79353411D01*
X190427932Y-79083158D01*
X190485000Y-78796260D01*
X190485000Y-78503740D01*
X190427932Y-78216842D01*
X190315990Y-77946589D01*
X190153475Y-77703368D01*
X189946632Y-77496525D01*
X189703411Y-77334010D01*
X189433158Y-77222068D01*
X189146260Y-77165000D01*
X188853740Y-77165000D01*
X188566842Y-77222068D01*
X188296589Y-77334010D01*
X188053368Y-77496525D01*
X187846525Y-77703368D01*
X187684010Y-77946589D01*
X187572068Y-78216842D01*
X187515000Y-78503740D01*
X187515000Y-78796260D01*
X187558790Y-79016407D01*
X184788997Y-81786202D01*
X184759999Y-81810000D01*
X184736201Y-81838998D01*
X184736200Y-81838999D01*
X184665025Y-81925725D01*
X184594453Y-82057755D01*
X184590234Y-82071665D01*
X184550996Y-82201015D01*
X184539999Y-82312668D01*
X184539999Y-82312679D01*
X184536323Y-82350001D01*
X184539999Y-82387323D01*
X184539999Y-82465000D01*
X184358665Y-82465000D01*
X184081426Y-82520147D01*
X183820273Y-82628320D01*
X183585241Y-82785363D01*
X183385363Y-82985241D01*
X183228320Y-83220273D01*
X183120147Y-83481426D01*
X183065000Y-83758665D01*
X181335000Y-83758665D01*
X181335000Y-83658665D01*
X181279853Y-83381426D01*
X181171680Y-83120273D01*
X181067677Y-82964621D01*
X181274592Y-82985000D01*
X182625408Y-82985000D01*
X182850913Y-82962790D01*
X183140261Y-82875017D01*
X183406927Y-82732481D01*
X183640661Y-82540661D01*
X183832481Y-82306927D01*
X183975017Y-82040261D01*
X184062790Y-81750913D01*
X184092427Y-81450000D01*
X184062790Y-81149087D01*
X183975017Y-80859739D01*
X183832481Y-80593073D01*
X183640661Y-80359339D01*
X183406927Y-80167519D01*
X183140261Y-80024983D01*
X182850913Y-79937210D01*
X182625408Y-79915000D01*
X182585090Y-79915000D01*
X182703411Y-79865990D01*
X182946632Y-79703475D01*
X183153475Y-79496632D01*
X183315990Y-79253411D01*
X183427932Y-78983158D01*
X183485000Y-78696260D01*
X183485000Y-78403740D01*
X183427932Y-78116842D01*
X183315990Y-77846589D01*
X183153475Y-77603368D01*
X182946632Y-77396525D01*
X182703411Y-77234010D01*
X182433158Y-77122068D01*
X182146260Y-77065000D01*
X181853740Y-77065000D01*
X181584999Y-77118456D01*
X181584999Y-77039802D01*
X181633592Y-76991209D01*
X181853740Y-77035000D01*
X182146260Y-77035000D01*
X182433158Y-76977932D01*
X182703411Y-76865990D01*
X182946632Y-76703475D01*
X183153475Y-76496632D01*
X183278178Y-76310000D01*
X187666029Y-76310000D01*
X187684010Y-76353411D01*
X187846525Y-76596632D01*
X188053368Y-76803475D01*
X188296589Y-76965990D01*
X188566842Y-77077932D01*
X188853740Y-77135000D01*
X189146260Y-77135000D01*
X189433158Y-77077932D01*
X189703411Y-76965990D01*
X189946632Y-76803475D01*
X190153475Y-76596632D01*
X190315990Y-76353411D01*
X190333971Y-76310000D01*
X194966029Y-76310000D01*
X194984010Y-76353411D01*
X195146525Y-76596632D01*
X195353368Y-76803475D01*
X195596589Y-76965990D01*
X195866842Y-77077932D01*
X196153740Y-77135000D01*
X196446260Y-77135000D01*
X196733158Y-77077932D01*
X197003411Y-76965990D01*
X197246632Y-76803475D01*
X197453475Y-76596632D01*
X197615990Y-76353411D01*
X197727932Y-76083158D01*
X197785000Y-75796260D01*
X197785000Y-75503740D01*
X197727932Y-75216842D01*
X197615990Y-74946589D01*
X197453475Y-74703368D01*
X197246632Y-74496525D01*
X197003411Y-74334010D01*
X196733158Y-74222068D01*
X196446260Y-74165000D01*
X196153740Y-74165000D01*
X195866842Y-74222068D01*
X195596589Y-74334010D01*
X195353368Y-74496525D01*
X195146525Y-74703368D01*
X195088639Y-74790000D01*
X190211361Y-74790000D01*
X190153475Y-74703368D01*
X189946632Y-74496525D01*
X189703411Y-74334010D01*
X189433158Y-74222068D01*
X189146260Y-74165000D01*
X188853740Y-74165000D01*
X188566842Y-74222068D01*
X188296589Y-74334010D01*
X188053368Y-74496525D01*
X187846525Y-74703368D01*
X187788639Y-74790000D01*
X183278178Y-74790000D01*
X183153475Y-74603368D01*
X182946632Y-74396525D01*
X182703411Y-74234010D01*
X182433158Y-74122068D01*
X182146260Y-74065000D01*
X181853740Y-74065000D01*
X181566842Y-74122068D01*
X181296589Y-74234010D01*
X181053368Y-74396525D01*
X180846525Y-74603368D01*
X180684010Y-74846589D01*
X180572068Y-75116842D01*
X180515000Y-75403740D01*
X180515000Y-75696260D01*
X180558791Y-75916408D01*
X180313997Y-76161202D01*
X180284999Y-76185000D01*
X180261201Y-76213998D01*
X180261200Y-76213999D01*
X180190025Y-76300725D01*
X180119453Y-76432755D01*
X180075997Y-76576016D01*
X180061323Y-76725001D01*
X180065000Y-76762333D01*
X180064999Y-78799199D01*
X178274834Y-80589365D01*
X178183739Y-80131399D01*
X177985107Y-79651859D01*
X177696738Y-79220285D01*
X177329715Y-78853262D01*
X176898141Y-78564893D01*
X176418601Y-78366261D01*
X175909525Y-78265000D01*
X175390475Y-78265000D01*
X174881399Y-78366261D01*
X174401859Y-78564893D01*
X173970285Y-78853262D01*
X173603262Y-79220285D01*
X173314893Y-79651859D01*
X173160000Y-80025804D01*
X173160000Y-69650000D01*
X179807573Y-69650000D01*
X179837210Y-69950913D01*
X179924983Y-70240261D01*
X180067519Y-70506927D01*
X180259339Y-70740661D01*
X180493073Y-70932481D01*
X180759739Y-71075017D01*
X181049087Y-71162790D01*
X181274592Y-71185000D01*
X181414910Y-71185000D01*
X181296589Y-71234010D01*
X181053368Y-71396525D01*
X180846525Y-71603368D01*
X180684010Y-71846589D01*
X180572068Y-72116842D01*
X180515000Y-72403740D01*
X180515000Y-72696260D01*
X180572068Y-72983158D01*
X180684010Y-73253411D01*
X180846525Y-73496632D01*
X181053368Y-73703475D01*
X181296589Y-73865990D01*
X181566842Y-73977932D01*
X181853740Y-74035000D01*
X182146260Y-74035000D01*
X182433158Y-73977932D01*
X182703411Y-73865990D01*
X182946632Y-73703475D01*
X183153475Y-73496632D01*
X183315990Y-73253411D01*
X183427932Y-72983158D01*
X183485000Y-72696260D01*
X183485000Y-72403740D01*
X183427932Y-72116842D01*
X183315990Y-71846589D01*
X183153475Y-71603368D01*
X182946632Y-71396525D01*
X182703411Y-71234010D01*
X182585090Y-71185000D01*
X182625408Y-71185000D01*
X182850913Y-71162790D01*
X183140261Y-71075017D01*
X183406927Y-70932481D01*
X183640661Y-70740661D01*
X183832481Y-70506927D01*
X183975017Y-70240261D01*
X184062790Y-69950913D01*
X184082577Y-69750000D01*
X186807573Y-69750000D01*
X186837210Y-70050913D01*
X186924983Y-70340261D01*
X187067519Y-70606927D01*
X187259339Y-70840661D01*
X187493073Y-71032481D01*
X187759739Y-71175017D01*
X188049087Y-71262790D01*
X188274592Y-71285000D01*
X188414910Y-71285000D01*
X188296589Y-71334010D01*
X188053368Y-71496525D01*
X187846525Y-71703368D01*
X187684010Y-71946589D01*
X187572068Y-72216842D01*
X187515000Y-72503740D01*
X187515000Y-72796260D01*
X187572068Y-73083158D01*
X187684010Y-73353411D01*
X187846525Y-73596632D01*
X188053368Y-73803475D01*
X188296589Y-73965990D01*
X188566842Y-74077932D01*
X188853740Y-74135000D01*
X189146260Y-74135000D01*
X189433158Y-74077932D01*
X189703411Y-73965990D01*
X189946632Y-73803475D01*
X190153475Y-73596632D01*
X190315990Y-73353411D01*
X190427932Y-73083158D01*
X190485000Y-72796260D01*
X190485000Y-72503740D01*
X190427932Y-72216842D01*
X190315990Y-71946589D01*
X190153475Y-71703368D01*
X189946632Y-71496525D01*
X189703411Y-71334010D01*
X189585090Y-71285000D01*
X189625408Y-71285000D01*
X189850913Y-71262790D01*
X190140261Y-71175017D01*
X190406927Y-71032481D01*
X190640661Y-70840661D01*
X190832481Y-70606927D01*
X190975017Y-70340261D01*
X191062790Y-70050913D01*
X191092427Y-69750000D01*
X194107573Y-69750000D01*
X194137210Y-70050913D01*
X194224983Y-70340261D01*
X194367519Y-70606927D01*
X194559339Y-70840661D01*
X194793073Y-71032481D01*
X195059739Y-71175017D01*
X195349087Y-71262790D01*
X195574592Y-71285000D01*
X195714910Y-71285000D01*
X195596589Y-71334010D01*
X195353368Y-71496525D01*
X195146525Y-71703368D01*
X194984010Y-71946589D01*
X194872068Y-72216842D01*
X194815000Y-72503740D01*
X194815000Y-72796260D01*
X194872068Y-73083158D01*
X194984010Y-73353411D01*
X195146525Y-73596632D01*
X195353368Y-73803475D01*
X195596589Y-73965990D01*
X195866842Y-74077932D01*
X196153740Y-74135000D01*
X196446260Y-74135000D01*
X196733158Y-74077932D01*
X197003411Y-73965990D01*
X197246632Y-73803475D01*
X197453475Y-73596632D01*
X197615990Y-73353411D01*
X197727932Y-73083158D01*
X197785000Y-72796260D01*
X197785000Y-72503740D01*
X197727932Y-72216842D01*
X197615990Y-71946589D01*
X197453475Y-71703368D01*
X197246632Y-71496525D01*
X197003411Y-71334010D01*
X196885090Y-71285000D01*
X196925408Y-71285000D01*
X197150913Y-71262790D01*
X197440261Y-71175017D01*
X197706927Y-71032481D01*
X197940661Y-70840661D01*
X198132481Y-70606927D01*
X198275017Y-70340261D01*
X198362790Y-70050913D01*
X198392427Y-69750000D01*
X198362790Y-69449087D01*
X198275017Y-69159739D01*
X198132481Y-68893073D01*
X197940661Y-68659339D01*
X197706927Y-68467519D01*
X197440261Y-68324983D01*
X197150913Y-68237210D01*
X196925408Y-68215000D01*
X195574592Y-68215000D01*
X195349087Y-68237210D01*
X195059739Y-68324983D01*
X194793073Y-68467519D01*
X194559339Y-68659339D01*
X194367519Y-68893073D01*
X194224983Y-69159739D01*
X194137210Y-69449087D01*
X194107573Y-69750000D01*
X191092427Y-69750000D01*
X191062790Y-69449087D01*
X190975017Y-69159739D01*
X190832481Y-68893073D01*
X190640661Y-68659339D01*
X190406927Y-68467519D01*
X190140261Y-68324983D01*
X189850913Y-68237210D01*
X189625408Y-68215000D01*
X188274592Y-68215000D01*
X188049087Y-68237210D01*
X187759739Y-68324983D01*
X187493073Y-68467519D01*
X187259339Y-68659339D01*
X187067519Y-68893073D01*
X186924983Y-69159739D01*
X186837210Y-69449087D01*
X186807573Y-69750000D01*
X184082577Y-69750000D01*
X184092427Y-69650000D01*
X184062790Y-69349087D01*
X183975017Y-69059739D01*
X183832481Y-68793073D01*
X183640661Y-68559339D01*
X183406927Y-68367519D01*
X183140261Y-68224983D01*
X182850913Y-68137210D01*
X182625408Y-68115000D01*
X181274592Y-68115000D01*
X181049087Y-68137210D01*
X180759739Y-68224983D01*
X180493073Y-68367519D01*
X180259339Y-68559339D01*
X180067519Y-68793073D01*
X179924983Y-69059739D01*
X179837210Y-69349087D01*
X179807573Y-69650000D01*
X173160000Y-69650000D01*
X173160000Y-67614801D01*
X176683148Y-64091653D01*
X185737952Y-64091653D01*
X185893962Y-64407214D01*
X186268745Y-64598020D01*
X186673551Y-64712044D01*
X187092824Y-64744902D01*
X187510451Y-64695334D01*
X187910383Y-64565243D01*
X188206038Y-64407214D01*
X188362048Y-64091653D01*
X196037952Y-64091653D01*
X196193962Y-64407214D01*
X196568745Y-64598020D01*
X196973551Y-64712044D01*
X197392824Y-64744902D01*
X197810451Y-64695334D01*
X198210383Y-64565243D01*
X198506038Y-64407214D01*
X198662048Y-64091653D01*
X197350000Y-62779605D01*
X196037952Y-64091653D01*
X188362048Y-64091653D01*
X187050000Y-62779605D01*
X185737952Y-64091653D01*
X176683148Y-64091653D01*
X178131977Y-62642824D01*
X184905098Y-62642824D01*
X184954666Y-63060451D01*
X185084757Y-63460383D01*
X185242786Y-63756038D01*
X185558347Y-63912048D01*
X186870395Y-62600000D01*
X187229605Y-62600000D01*
X188541653Y-63912048D01*
X188857214Y-63756038D01*
X189048020Y-63381255D01*
X189162044Y-62976449D01*
X189194902Y-62557176D01*
X189145334Y-62139549D01*
X189015243Y-61739617D01*
X188857214Y-61443962D01*
X188541653Y-61287952D01*
X187229605Y-62600000D01*
X186870395Y-62600000D01*
X185558347Y-61287952D01*
X185242786Y-61443962D01*
X185051980Y-61818745D01*
X184937956Y-62223551D01*
X184905098Y-62642824D01*
X178131977Y-62642824D01*
X178676114Y-62098688D01*
X178858665Y-62135000D01*
X179141335Y-62135000D01*
X179418574Y-62079853D01*
X179679727Y-61971680D01*
X179914759Y-61814637D01*
X180114637Y-61614759D01*
X180271680Y-61379727D01*
X180379853Y-61118574D01*
X180381887Y-61108347D01*
X185737952Y-61108347D01*
X187050000Y-62420395D01*
X188362048Y-61108347D01*
X188206038Y-60792786D01*
X187831255Y-60601980D01*
X187426449Y-60487956D01*
X187007176Y-60455098D01*
X186589549Y-60504666D01*
X186189617Y-60634757D01*
X185893962Y-60792786D01*
X185737952Y-61108347D01*
X180381887Y-61108347D01*
X180435000Y-60841335D01*
X180435000Y-60558665D01*
X180379853Y-60281426D01*
X180271680Y-60020273D01*
X180114637Y-59785241D01*
X179948057Y-59618661D01*
X180044180Y-59589502D01*
X180154494Y-59530537D01*
X180251185Y-59451185D01*
X180330537Y-59354494D01*
X180389502Y-59244180D01*
X180425812Y-59124482D01*
X180438072Y-59000000D01*
X180438072Y-57400000D01*
X180425812Y-57275518D01*
X180389502Y-57155820D01*
X180330537Y-57045506D01*
X180251185Y-56948815D01*
X180154494Y-56869463D01*
X180044180Y-56810498D01*
X179924482Y-56774188D01*
X179800000Y-56761928D01*
X178200000Y-56761928D01*
X178075518Y-56774188D01*
X177955820Y-56810498D01*
X177845506Y-56869463D01*
X177748815Y-56948815D01*
X177669463Y-57045506D01*
X177610498Y-57155820D01*
X177574188Y-57275518D01*
X177561928Y-57400000D01*
X177561928Y-59000000D01*
X177574188Y-59124482D01*
X177610498Y-59244180D01*
X177669463Y-59354494D01*
X177748815Y-59451185D01*
X177845506Y-59530537D01*
X177955820Y-59589502D01*
X178051943Y-59618661D01*
X177885363Y-59785241D01*
X177728320Y-60020273D01*
X177620147Y-60281426D01*
X177565000Y-60558665D01*
X177565000Y-60841335D01*
X177601312Y-61023886D01*
X171888998Y-66736201D01*
X171860000Y-66759999D01*
X171836202Y-66788997D01*
X171836201Y-66788998D01*
X171765026Y-66875724D01*
X171694454Y-67007754D01*
X171674053Y-67075010D01*
X171653658Y-67142247D01*
X171650998Y-67151015D01*
X171636324Y-67300000D01*
X171640001Y-67337333D01*
X171640000Y-87048324D01*
X171627095Y-87039701D01*
X171347743Y-86923989D01*
X171051184Y-86865000D01*
X170748816Y-86865000D01*
X170491070Y-86916269D01*
X170238800Y-86663999D01*
X170215000Y-86634998D01*
X170099275Y-86540025D01*
X169967246Y-86469453D01*
X169823985Y-86425996D01*
X169712332Y-86414999D01*
X169712321Y-86414999D01*
X169674999Y-86411323D01*
X169637677Y-86414999D01*
X160462323Y-86414999D01*
X160425000Y-86411323D01*
X160387677Y-86414999D01*
X160387668Y-86414999D01*
X160276015Y-86425996D01*
X160132754Y-86469453D01*
X160000725Y-86540025D01*
X159885000Y-86634998D01*
X159861200Y-86663999D01*
X159608930Y-86916269D01*
X159351184Y-86865000D01*
X159048816Y-86865000D01*
X158752257Y-86923989D01*
X158472905Y-87039701D01*
X158221495Y-87207688D01*
X158007688Y-87421495D01*
X157950000Y-87507831D01*
X157892312Y-87421495D01*
X157678505Y-87207688D01*
X157427095Y-87039701D01*
X157147743Y-86923989D01*
X156851184Y-86865000D01*
X156548816Y-86865000D01*
X156252257Y-86923989D01*
X155972905Y-87039701D01*
X155721495Y-87207688D01*
X155507688Y-87421495D01*
X155450000Y-87507831D01*
X155392312Y-87421495D01*
X155178505Y-87207688D01*
X154927095Y-87039701D01*
X154647743Y-86923989D01*
X154351184Y-86865000D01*
X154048816Y-86865000D01*
X153752257Y-86923989D01*
X153472905Y-87039701D01*
X153221495Y-87207688D01*
X153007688Y-87421495D01*
X152839701Y-87672905D01*
X152723989Y-87952257D01*
X152665000Y-88248816D01*
X152665000Y-88551184D01*
X152723989Y-88847743D01*
X152731138Y-88865001D01*
X146531497Y-88865001D01*
X146549158Y-88828225D01*
X146624365Y-88535358D01*
X146640991Y-88233447D01*
X146598397Y-87934093D01*
X146498222Y-87648801D01*
X146418261Y-87499208D01*
X146164080Y-87415525D01*
X145279605Y-88300000D01*
X145293748Y-88314143D01*
X145114143Y-88493748D01*
X145100000Y-88479605D01*
X145085858Y-88493748D01*
X144906253Y-88314143D01*
X144920395Y-88300000D01*
X144035920Y-87415525D01*
X143887738Y-87464310D01*
X143792312Y-87321495D01*
X143706737Y-87235920D01*
X144215525Y-87235920D01*
X145100000Y-88120395D01*
X145984475Y-87235920D01*
X145900792Y-86981739D01*
X145628225Y-86850842D01*
X145335358Y-86775635D01*
X145033447Y-86759009D01*
X144734093Y-86801603D01*
X144448801Y-86901778D01*
X144299208Y-86981739D01*
X144215525Y-87235920D01*
X143706737Y-87235920D01*
X143578505Y-87107688D01*
X143360000Y-86961687D01*
X143360000Y-81427322D01*
X143363676Y-81389999D01*
X143360000Y-81352676D01*
X143360000Y-81352667D01*
X143349003Y-81241014D01*
X143305546Y-81097753D01*
X143234974Y-80965724D01*
X143190000Y-80910923D01*
X143190000Y-80540475D01*
X144715000Y-80540475D01*
X144715000Y-81059525D01*
X144816261Y-81568601D01*
X145014893Y-82048141D01*
X145303262Y-82479715D01*
X145670285Y-82846738D01*
X146101859Y-83135107D01*
X146581399Y-83333739D01*
X147090475Y-83435000D01*
X147609525Y-83435000D01*
X148118601Y-83333739D01*
X148598141Y-83135107D01*
X149029715Y-82846738D01*
X149396738Y-82479715D01*
X149616591Y-82150682D01*
X149903262Y-82579715D01*
X150270285Y-82946738D01*
X150701859Y-83235107D01*
X151181399Y-83433739D01*
X151690475Y-83535000D01*
X152209525Y-83535000D01*
X152718601Y-83433739D01*
X153198141Y-83235107D01*
X153629715Y-82946738D01*
X153996738Y-82579715D01*
X154285107Y-82148141D01*
X154483739Y-81668601D01*
X154585000Y-81159525D01*
X154585000Y-80640475D01*
X158815000Y-80640475D01*
X158815000Y-81159525D01*
X158916261Y-81668601D01*
X159114893Y-82148141D01*
X159403262Y-82579715D01*
X159770285Y-82946738D01*
X160201859Y-83235107D01*
X160681399Y-83433739D01*
X161190475Y-83535000D01*
X161709525Y-83535000D01*
X162218601Y-83433739D01*
X162698141Y-83235107D01*
X163129715Y-82946738D01*
X163496738Y-82579715D01*
X163785107Y-82148141D01*
X163800000Y-82112186D01*
X163814893Y-82148141D01*
X164103262Y-82579715D01*
X164470285Y-82946738D01*
X164901859Y-83235107D01*
X165381399Y-83433739D01*
X165890475Y-83535000D01*
X166409525Y-83535000D01*
X166918601Y-83433739D01*
X167398141Y-83235107D01*
X167829715Y-82946738D01*
X168196738Y-82579715D01*
X168485107Y-82148141D01*
X168683739Y-81668601D01*
X168785000Y-81159525D01*
X168785000Y-80640475D01*
X168683739Y-80131399D01*
X168485107Y-79651859D01*
X168196738Y-79220285D01*
X167829715Y-78853262D01*
X167398141Y-78564893D01*
X166918601Y-78366261D01*
X166409525Y-78265000D01*
X165890475Y-78265000D01*
X165381399Y-78366261D01*
X164901859Y-78564893D01*
X164470285Y-78853262D01*
X164103262Y-79220285D01*
X163814893Y-79651859D01*
X163800000Y-79687814D01*
X163785107Y-79651859D01*
X163496738Y-79220285D01*
X163129715Y-78853262D01*
X162698141Y-78564893D01*
X162218601Y-78366261D01*
X161709525Y-78265000D01*
X161190475Y-78265000D01*
X160681399Y-78366261D01*
X160201859Y-78564893D01*
X159770285Y-78853262D01*
X159403262Y-79220285D01*
X159114893Y-79651859D01*
X158916261Y-80131399D01*
X158815000Y-80640475D01*
X154585000Y-80640475D01*
X154483739Y-80131399D01*
X154285107Y-79651859D01*
X153996738Y-79220285D01*
X153629715Y-78853262D01*
X153198141Y-78564893D01*
X152718601Y-78366261D01*
X152209525Y-78265000D01*
X151690475Y-78265000D01*
X151181399Y-78366261D01*
X150701859Y-78564893D01*
X150270285Y-78853262D01*
X149903262Y-79220285D01*
X149683409Y-79549318D01*
X149396738Y-79120285D01*
X149029715Y-78753262D01*
X148598141Y-78464893D01*
X148118601Y-78266261D01*
X147609525Y-78165000D01*
X147090475Y-78165000D01*
X146581399Y-78266261D01*
X146101859Y-78464893D01*
X145670285Y-78753262D01*
X145303262Y-79120285D01*
X145014893Y-79551859D01*
X144816261Y-80031399D01*
X144715000Y-80540475D01*
X143190000Y-80540475D01*
X143190000Y-73740900D01*
X143231100Y-73718932D01*
X143242858Y-73709283D01*
X143304989Y-73784991D01*
X143333992Y-73808793D01*
X144131220Y-74606022D01*
X144155018Y-74635020D01*
X144184016Y-74658818D01*
X144270743Y-74729993D01*
X144402772Y-74800565D01*
X144546033Y-74844022D01*
X144695019Y-74858696D01*
X144732352Y-74855019D01*
X152852657Y-74855019D01*
X152889980Y-74858695D01*
X152927302Y-74855019D01*
X152927313Y-74855019D01*
X153038966Y-74844022D01*
X153182227Y-74800565D01*
X153314256Y-74729993D01*
X153429981Y-74635020D01*
X153453784Y-74606017D01*
X155696003Y-72363799D01*
X155725001Y-72340001D01*
X155751332Y-72307917D01*
X155810467Y-72235861D01*
X155910820Y-72289502D01*
X156030518Y-72325812D01*
X156155000Y-72338072D01*
X156169250Y-72335000D01*
X156328000Y-72176250D01*
X156328000Y-70852000D01*
X156582000Y-70852000D01*
X156582000Y-72176250D01*
X156740750Y-72335000D01*
X156755000Y-72338072D01*
X156879482Y-72325812D01*
X156999180Y-72289502D01*
X157109494Y-72230537D01*
X157206185Y-72151185D01*
X157285537Y-72054494D01*
X157344502Y-71944180D01*
X157380812Y-71824482D01*
X157393072Y-71700000D01*
X157390000Y-71010750D01*
X157231250Y-70852000D01*
X156582000Y-70852000D01*
X156328000Y-70852000D01*
X156308000Y-70852000D01*
X156308000Y-70598000D01*
X156328000Y-70598000D01*
X156328000Y-69273750D01*
X156582000Y-69273750D01*
X156582000Y-70598000D01*
X157231250Y-70598000D01*
X157390000Y-70439250D01*
X157393072Y-69750000D01*
X157380812Y-69625518D01*
X157344502Y-69505820D01*
X157285537Y-69395506D01*
X157206185Y-69298815D01*
X157109494Y-69219463D01*
X156999180Y-69160498D01*
X156879482Y-69124188D01*
X156755000Y-69111928D01*
X156740750Y-69115000D01*
X156582000Y-69273750D01*
X156328000Y-69273750D01*
X156169250Y-69115000D01*
X156155000Y-69111928D01*
X156030518Y-69124188D01*
X155910820Y-69160498D01*
X155800506Y-69219463D01*
X155770936Y-69243730D01*
X155636582Y-69171916D01*
X155488745Y-69127071D01*
X155335000Y-69111928D01*
X155267873Y-69111928D01*
X156966004Y-67413798D01*
X156995001Y-67390001D01*
X157089974Y-67274276D01*
X157144926Y-67171469D01*
X157162251Y-67157251D01*
X157260258Y-67037829D01*
X157333084Y-66901582D01*
X157377929Y-66753745D01*
X157393072Y-66600000D01*
X157393072Y-64950000D01*
X157377929Y-64796255D01*
X157333084Y-64648418D01*
X157260258Y-64512171D01*
X157162251Y-64392749D01*
X157144926Y-64378531D01*
X157141970Y-64373000D01*
X157089974Y-64275723D01*
X157018799Y-64188997D01*
X156995001Y-64159999D01*
X156966004Y-64136202D01*
X156343784Y-63513983D01*
X156319982Y-63484980D01*
X156204257Y-63390007D01*
X156072228Y-63319435D01*
X155928967Y-63275978D01*
X155817314Y-63264981D01*
X155817303Y-63264981D01*
X155779981Y-63261305D01*
X155742659Y-63264981D01*
X151612341Y-63264981D01*
X151575018Y-63261305D01*
X151537695Y-63264981D01*
X151537686Y-63264981D01*
X151485133Y-63270157D01*
X151475812Y-63175518D01*
X151439502Y-63055820D01*
X151380537Y-62945506D01*
X151301185Y-62848815D01*
X151204494Y-62769463D01*
X151094180Y-62710498D01*
X150974482Y-62674188D01*
X150850000Y-62661928D01*
X149250000Y-62661928D01*
X149125518Y-62674188D01*
X149005820Y-62710498D01*
X148895506Y-62769463D01*
X148798815Y-62848815D01*
X148719463Y-62945506D01*
X148660498Y-63055820D01*
X148624188Y-63175518D01*
X148622419Y-63193482D01*
X148529608Y-63080392D01*
X148311101Y-62901068D01*
X148061808Y-62767818D01*
X147791309Y-62685764D01*
X147510000Y-62658057D01*
X147228692Y-62685764D01*
X147184094Y-62699292D01*
X146948793Y-62463992D01*
X146924991Y-62434989D01*
X146809266Y-62340016D01*
X146677237Y-62269444D01*
X146533976Y-62225987D01*
X146422323Y-62214990D01*
X146422312Y-62214990D01*
X146384990Y-62211314D01*
X146347668Y-62214990D01*
X142001328Y-62214990D01*
X141964005Y-62211314D01*
X141926682Y-62214990D01*
X141926673Y-62214990D01*
X141815020Y-62225987D01*
X141671759Y-62269444D01*
X141539730Y-62340016D01*
X141424005Y-62434989D01*
X141400206Y-62463988D01*
X140793992Y-63070203D01*
X140764989Y-63094005D01*
X140740393Y-63123976D01*
X140670016Y-63209730D01*
X140611377Y-63319435D01*
X140599444Y-63341760D01*
X140555987Y-63485021D01*
X140544990Y-63596674D01*
X140544990Y-63596684D01*
X140541314Y-63634006D01*
X140544990Y-63671329D01*
X140544991Y-69507658D01*
X140541314Y-69544990D01*
X140555988Y-69693975D01*
X140599444Y-69837236D01*
X140670016Y-69969266D01*
X140737023Y-70050913D01*
X140764990Y-70084991D01*
X140793988Y-70108789D01*
X141399213Y-70714015D01*
X141231068Y-70918899D01*
X141097818Y-71168192D01*
X141015764Y-71438691D01*
X140995000Y-71649508D01*
X140995000Y-72590491D01*
X141015764Y-72801308D01*
X141097818Y-73071807D01*
X141231068Y-73321100D01*
X141410392Y-73539607D01*
X141628899Y-73718932D01*
X141670001Y-73740901D01*
X141670000Y-81182678D01*
X141666324Y-81220000D01*
X141670000Y-81257322D01*
X141670000Y-81257332D01*
X141680997Y-81368985D01*
X141712860Y-81474024D01*
X141724454Y-81512246D01*
X141795026Y-81644276D01*
X141826188Y-81682246D01*
X141840001Y-81699078D01*
X141840000Y-86961687D01*
X141621495Y-87107688D01*
X141407688Y-87321495D01*
X141350000Y-87407831D01*
X141292312Y-87321495D01*
X141078505Y-87107688D01*
X140827095Y-86939701D01*
X140547743Y-86823989D01*
X140251184Y-86765000D01*
X139948816Y-86765000D01*
X139652257Y-86823989D01*
X139372905Y-86939701D01*
X139121495Y-87107688D01*
X138907688Y-87321495D01*
X138739701Y-87572905D01*
X138623989Y-87852257D01*
X138565000Y-88148816D01*
X138565000Y-88451184D01*
X138623989Y-88747743D01*
X138631138Y-88765001D01*
X132468862Y-88765001D01*
X132476011Y-88747743D01*
X132535000Y-88451184D01*
X132535000Y-88148816D01*
X132476011Y-87852257D01*
X132360299Y-87572905D01*
X132192312Y-87321495D01*
X131978505Y-87107688D01*
X131727095Y-86939701D01*
X131447743Y-86823989D01*
X131151184Y-86765000D01*
X130848816Y-86765000D01*
X130552257Y-86823989D01*
X130272905Y-86939701D01*
X130021495Y-87107688D01*
X129807688Y-87321495D01*
X129750000Y-87407831D01*
X129692312Y-87321495D01*
X129478505Y-87107688D01*
X129260000Y-86961687D01*
X129260000Y-82146331D01*
X129263677Y-82108998D01*
X129249003Y-81960012D01*
X129205546Y-81816751D01*
X129134974Y-81684722D01*
X129101780Y-81644275D01*
X129040001Y-81568997D01*
X129011003Y-81545199D01*
X128006279Y-80540475D01*
X130615000Y-80540475D01*
X130615000Y-81059525D01*
X130716261Y-81568601D01*
X130914893Y-82048141D01*
X131203262Y-82479715D01*
X131570285Y-82846738D01*
X132001859Y-83135107D01*
X132481399Y-83333739D01*
X132990475Y-83435000D01*
X133509525Y-83435000D01*
X134018601Y-83333739D01*
X134498141Y-83135107D01*
X134929715Y-82846738D01*
X135296738Y-82479715D01*
X135550000Y-82100682D01*
X135803262Y-82479715D01*
X136170285Y-82846738D01*
X136601859Y-83135107D01*
X137081399Y-83333739D01*
X137590475Y-83435000D01*
X138109525Y-83435000D01*
X138618601Y-83333739D01*
X139098141Y-83135107D01*
X139529715Y-82846738D01*
X139896738Y-82479715D01*
X140185107Y-82048141D01*
X140383739Y-81568601D01*
X140485000Y-81059525D01*
X140485000Y-80540475D01*
X140383739Y-80031399D01*
X140185107Y-79551859D01*
X139896738Y-79120285D01*
X139529715Y-78753262D01*
X139098141Y-78464893D01*
X138618601Y-78266261D01*
X138109525Y-78165000D01*
X137590475Y-78165000D01*
X137081399Y-78266261D01*
X136601859Y-78464893D01*
X136170285Y-78753262D01*
X135803262Y-79120285D01*
X135550000Y-79499318D01*
X135296738Y-79120285D01*
X134929715Y-78753262D01*
X134498141Y-78464893D01*
X134018601Y-78266261D01*
X133509525Y-78165000D01*
X132990475Y-78165000D01*
X132481399Y-78266261D01*
X132001859Y-78464893D01*
X131570285Y-78753262D01*
X131203262Y-79120285D01*
X130914893Y-79551859D01*
X130716261Y-80031399D01*
X130615000Y-80540475D01*
X128006279Y-80540475D01*
X122604806Y-75139003D01*
X122581003Y-75109999D01*
X122465278Y-75015026D01*
X122333249Y-74944454D01*
X122189988Y-74900997D01*
X122078335Y-74890000D01*
X122078324Y-74890000D01*
X122041002Y-74886324D01*
X122003680Y-74890000D01*
X119078178Y-74890000D01*
X118953475Y-74703368D01*
X118746632Y-74496525D01*
X118503411Y-74334010D01*
X118233158Y-74222068D01*
X117946260Y-74165000D01*
X117653740Y-74165000D01*
X117366842Y-74222068D01*
X117096589Y-74334010D01*
X116853368Y-74496525D01*
X116646525Y-74703368D01*
X116521822Y-74890000D01*
X111833971Y-74890000D01*
X111815990Y-74846589D01*
X111653475Y-74603368D01*
X111446632Y-74396525D01*
X111203411Y-74234010D01*
X110933158Y-74122068D01*
X110646260Y-74065000D01*
X110353740Y-74065000D01*
X110066842Y-74122068D01*
X109796589Y-74234010D01*
X109553368Y-74396525D01*
X109346525Y-74603368D01*
X109184010Y-74846589D01*
X109166029Y-74890000D01*
X104578178Y-74890000D01*
X104453475Y-74703368D01*
X104246632Y-74496525D01*
X104003411Y-74334010D01*
X103733158Y-74222068D01*
X103446260Y-74165000D01*
X103153740Y-74165000D01*
X102866842Y-74222068D01*
X102596589Y-74334010D01*
X102353368Y-74496525D01*
X102146525Y-74703368D01*
X101984010Y-74946589D01*
X101872068Y-75216842D01*
X101815000Y-75503740D01*
X101815000Y-75796260D01*
X101872068Y-76083158D01*
X101984010Y-76353411D01*
X102146525Y-76596632D01*
X102353368Y-76803475D01*
X102596589Y-76965990D01*
X102866842Y-77077932D01*
X103153740Y-77135000D01*
X103446260Y-77135000D01*
X103733158Y-77077932D01*
X104003411Y-76965990D01*
X104246632Y-76803475D01*
X104453475Y-76596632D01*
X104578178Y-76410000D01*
X109288639Y-76410000D01*
X109346525Y-76496632D01*
X109553368Y-76703475D01*
X109796589Y-76865990D01*
X110066842Y-76977932D01*
X110353740Y-77035000D01*
X110646260Y-77035000D01*
X110933158Y-76977932D01*
X111203411Y-76865990D01*
X111446632Y-76703475D01*
X111653475Y-76496632D01*
X111711361Y-76410000D01*
X116521822Y-76410000D01*
X116646525Y-76596632D01*
X116853368Y-76803475D01*
X117096589Y-76965990D01*
X117366842Y-77077932D01*
X117653740Y-77135000D01*
X117946260Y-77135000D01*
X118233158Y-77077932D01*
X118503411Y-76965990D01*
X118746632Y-76803475D01*
X118953475Y-76596632D01*
X119078178Y-76410000D01*
X121726201Y-76410000D01*
X123482739Y-78166539D01*
X122981399Y-78266261D01*
X122501859Y-78464893D01*
X122070285Y-78753262D01*
X121703262Y-79120285D01*
X121414893Y-79551859D01*
X121216261Y-80031399D01*
X121115000Y-80540475D01*
X121115000Y-81059525D01*
X121216261Y-81568601D01*
X121414893Y-82048141D01*
X121703262Y-82479715D01*
X122070285Y-82846738D01*
X122501859Y-83135107D01*
X122981399Y-83333739D01*
X123490475Y-83435000D01*
X124009525Y-83435000D01*
X124518601Y-83333739D01*
X124998141Y-83135107D01*
X125429715Y-82846738D01*
X125796738Y-82479715D01*
X126085107Y-82048141D01*
X126283739Y-81568601D01*
X126383461Y-81067261D01*
X127740001Y-82423801D01*
X127740000Y-86961687D01*
X127521495Y-87107688D01*
X127307688Y-87321495D01*
X127250000Y-87407831D01*
X127192312Y-87321495D01*
X126978505Y-87107688D01*
X126727095Y-86939701D01*
X126447743Y-86823989D01*
X126151184Y-86765000D01*
X125848816Y-86765000D01*
X125552257Y-86823989D01*
X125272905Y-86939701D01*
X125021495Y-87107688D01*
X124807688Y-87321495D01*
X124639701Y-87572905D01*
X124523989Y-87852257D01*
X124465000Y-88148816D01*
X124465000Y-88451184D01*
X124523989Y-88747743D01*
X124639701Y-89027095D01*
X124807688Y-89278505D01*
X124869183Y-89340000D01*
X119969103Y-89340000D01*
X120026300Y-89111816D01*
X120040217Y-88829488D01*
X119998787Y-88549870D01*
X119903603Y-88283708D01*
X119836671Y-88158486D01*
X119592702Y-88086903D01*
X118779605Y-88900000D01*
X118793748Y-88914143D01*
X118614143Y-89093748D01*
X118600000Y-89079605D01*
X118585858Y-89093748D01*
X118406253Y-88914143D01*
X118420395Y-88900000D01*
X117607298Y-88086903D01*
X117363329Y-88158486D01*
X117242429Y-88413996D01*
X117173700Y-88688184D01*
X117159783Y-88970512D01*
X117201213Y-89250130D01*
X117233352Y-89340000D01*
X115169103Y-89340000D01*
X115226300Y-89111816D01*
X115240217Y-88829488D01*
X115198787Y-88549870D01*
X115103603Y-88283708D01*
X115036671Y-88158486D01*
X114792702Y-88086903D01*
X113979605Y-88900000D01*
X113993748Y-88914143D01*
X113814143Y-89093748D01*
X113800000Y-89079605D01*
X113785858Y-89093748D01*
X113606253Y-88914143D01*
X113620395Y-88900000D01*
X112807298Y-88086903D01*
X112563329Y-88158486D01*
X112442429Y-88413996D01*
X112373700Y-88688184D01*
X112359783Y-88970512D01*
X112401213Y-89250130D01*
X112433352Y-89340000D01*
X110469103Y-89340000D01*
X110526300Y-89111816D01*
X110540217Y-88829488D01*
X110498787Y-88549870D01*
X110403603Y-88283708D01*
X110336671Y-88158486D01*
X110092702Y-88086903D01*
X109279605Y-88900000D01*
X109293748Y-88914143D01*
X109114143Y-89093748D01*
X109100000Y-89079605D01*
X109085858Y-89093748D01*
X108906253Y-88914143D01*
X108920395Y-88900000D01*
X108107298Y-88086903D01*
X107863329Y-88158486D01*
X107742429Y-88413996D01*
X107673700Y-88688184D01*
X107659783Y-88970512D01*
X107701213Y-89250130D01*
X107733352Y-89340000D01*
X100660000Y-89340000D01*
X100660000Y-86279872D01*
X101265000Y-86279872D01*
X101265000Y-86720128D01*
X101350890Y-87151925D01*
X101519369Y-87558669D01*
X101763962Y-87924729D01*
X102075271Y-88236038D01*
X102441331Y-88480631D01*
X102848075Y-88649110D01*
X103279872Y-88735000D01*
X103720128Y-88735000D01*
X104151925Y-88649110D01*
X104558669Y-88480631D01*
X104924729Y-88236038D01*
X105236038Y-87924729D01*
X105247684Y-87907298D01*
X108286903Y-87907298D01*
X109100000Y-88720395D01*
X109913097Y-87907298D01*
X112986903Y-87907298D01*
X113800000Y-88720395D01*
X114613097Y-87907298D01*
X117786903Y-87907298D01*
X118600000Y-88720395D01*
X119413097Y-87907298D01*
X119341514Y-87663329D01*
X119086004Y-87542429D01*
X118811816Y-87473700D01*
X118529488Y-87459783D01*
X118249870Y-87501213D01*
X117983708Y-87596397D01*
X117858486Y-87663329D01*
X117786903Y-87907298D01*
X114613097Y-87907298D01*
X114541514Y-87663329D01*
X114286004Y-87542429D01*
X114011816Y-87473700D01*
X113729488Y-87459783D01*
X113449870Y-87501213D01*
X113183708Y-87596397D01*
X113058486Y-87663329D01*
X112986903Y-87907298D01*
X109913097Y-87907298D01*
X109841514Y-87663329D01*
X109586004Y-87542429D01*
X109311816Y-87473700D01*
X109029488Y-87459783D01*
X108749870Y-87501213D01*
X108483708Y-87596397D01*
X108358486Y-87663329D01*
X108286903Y-87907298D01*
X105247684Y-87907298D01*
X105480631Y-87558669D01*
X105649110Y-87151925D01*
X105735000Y-86720128D01*
X105735000Y-86279872D01*
X105649110Y-85848075D01*
X105480631Y-85441331D01*
X105236038Y-85075271D01*
X104924729Y-84763962D01*
X104558669Y-84519369D01*
X104151925Y-84350890D01*
X103720128Y-84265000D01*
X103279872Y-84265000D01*
X102848075Y-84350890D01*
X102441331Y-84519369D01*
X102075271Y-84763962D01*
X101763962Y-85075271D01*
X101519369Y-85441331D01*
X101350890Y-85848075D01*
X101265000Y-86279872D01*
X100660000Y-86279872D01*
X100660000Y-81550000D01*
X101107573Y-81550000D01*
X101137210Y-81850913D01*
X101224983Y-82140261D01*
X101367519Y-82406927D01*
X101559339Y-82640661D01*
X101793073Y-82832481D01*
X102059739Y-82975017D01*
X102349087Y-83062790D01*
X102574592Y-83085000D01*
X103925408Y-83085000D01*
X104150913Y-83062790D01*
X104440261Y-82975017D01*
X104706927Y-82832481D01*
X104940661Y-82640661D01*
X105132481Y-82406927D01*
X105275017Y-82140261D01*
X105362790Y-81850913D01*
X105368467Y-81793269D01*
X107677035Y-84101837D01*
X107720147Y-84318574D01*
X107828320Y-84579727D01*
X107985363Y-84814759D01*
X108185241Y-85014637D01*
X108420273Y-85171680D01*
X108681426Y-85279853D01*
X108958665Y-85335000D01*
X109241335Y-85335000D01*
X109518574Y-85279853D01*
X109779727Y-85171680D01*
X110014759Y-85014637D01*
X110214637Y-84814759D01*
X110371680Y-84579727D01*
X110479853Y-84318574D01*
X110535000Y-84041335D01*
X110535000Y-83758665D01*
X110479853Y-83481426D01*
X110371680Y-83220273D01*
X110214637Y-82985241D01*
X110214396Y-82985000D01*
X111125408Y-82985000D01*
X111350913Y-82962790D01*
X111640261Y-82875017D01*
X111906927Y-82732481D01*
X112140661Y-82540661D01*
X112332481Y-82306927D01*
X112475017Y-82040261D01*
X112562790Y-81750913D01*
X112568467Y-81693269D01*
X113040000Y-82164802D01*
X113040000Y-82681956D01*
X112885241Y-82785363D01*
X112685363Y-82985241D01*
X112528320Y-83220273D01*
X112420147Y-83481426D01*
X112365000Y-83758665D01*
X112365000Y-84041335D01*
X112420147Y-84318574D01*
X112528320Y-84579727D01*
X112685363Y-84814759D01*
X112885241Y-85014637D01*
X113120273Y-85171680D01*
X113381426Y-85279853D01*
X113658665Y-85335000D01*
X113941335Y-85335000D01*
X114218574Y-85279853D01*
X114479727Y-85171680D01*
X114714759Y-85014637D01*
X114914637Y-84814759D01*
X115071680Y-84579727D01*
X115179853Y-84318574D01*
X115235000Y-84041335D01*
X115235000Y-83758665D01*
X115179853Y-83481426D01*
X115071680Y-83220273D01*
X114914637Y-82985241D01*
X114714759Y-82785363D01*
X114560000Y-82681957D01*
X114560000Y-81887325D01*
X114563676Y-81850000D01*
X114560000Y-81812675D01*
X114560000Y-81812667D01*
X114549003Y-81701014D01*
X114505546Y-81557753D01*
X114501402Y-81550000D01*
X115607573Y-81550000D01*
X115637210Y-81850913D01*
X115724983Y-82140261D01*
X115867519Y-82406927D01*
X116059339Y-82640661D01*
X116293073Y-82832481D01*
X116559739Y-82975017D01*
X116849087Y-83062790D01*
X117074592Y-83085000D01*
X117418706Y-83085000D01*
X117328320Y-83220273D01*
X117220147Y-83481426D01*
X117165000Y-83758665D01*
X117165000Y-84041335D01*
X117220147Y-84318574D01*
X117328320Y-84579727D01*
X117485363Y-84814759D01*
X117685241Y-85014637D01*
X117920273Y-85171680D01*
X118181426Y-85279853D01*
X118458665Y-85335000D01*
X118741335Y-85335000D01*
X119018574Y-85279853D01*
X119279727Y-85171680D01*
X119514759Y-85014637D01*
X119714637Y-84814759D01*
X119871680Y-84579727D01*
X119979853Y-84318574D01*
X120035000Y-84041335D01*
X120035000Y-83758665D01*
X119998688Y-83576113D01*
X120086007Y-83488794D01*
X120115011Y-83464991D01*
X120209984Y-83349266D01*
X120280556Y-83217237D01*
X120324013Y-83073976D01*
X120335010Y-82962323D01*
X120335010Y-82962313D01*
X120338686Y-82924990D01*
X120335010Y-82887667D01*
X120335010Y-80462332D01*
X120338686Y-80425009D01*
X120335010Y-80387686D01*
X120335010Y-80387677D01*
X120324013Y-80276024D01*
X120280556Y-80132763D01*
X120209984Y-80000734D01*
X120115011Y-79885009D01*
X120086014Y-79861212D01*
X119241210Y-79016408D01*
X119285000Y-78796260D01*
X119285000Y-78503740D01*
X119227932Y-78216842D01*
X119115990Y-77946589D01*
X118953475Y-77703368D01*
X118746632Y-77496525D01*
X118503411Y-77334010D01*
X118233158Y-77222068D01*
X117946260Y-77165000D01*
X117653740Y-77165000D01*
X117366842Y-77222068D01*
X117096589Y-77334010D01*
X116853368Y-77496525D01*
X116646525Y-77703368D01*
X116484010Y-77946589D01*
X116372068Y-78216842D01*
X116315000Y-78503740D01*
X116315000Y-78796260D01*
X116372068Y-79083158D01*
X116484010Y-79353411D01*
X116646525Y-79596632D01*
X116853368Y-79803475D01*
X117096589Y-79965990D01*
X117214910Y-80015000D01*
X117074592Y-80015000D01*
X116849087Y-80037210D01*
X116559739Y-80124983D01*
X116293073Y-80267519D01*
X116059339Y-80459339D01*
X115867519Y-80693073D01*
X115724983Y-80959739D01*
X115637210Y-81249087D01*
X115607573Y-81550000D01*
X114501402Y-81550000D01*
X114434974Y-81425724D01*
X114340001Y-81309999D01*
X114311004Y-81286202D01*
X111941209Y-78916408D01*
X111985000Y-78696260D01*
X111985000Y-78403740D01*
X111927932Y-78116842D01*
X111815990Y-77846589D01*
X111653475Y-77603368D01*
X111446632Y-77396525D01*
X111203411Y-77234010D01*
X110933158Y-77122068D01*
X110646260Y-77065000D01*
X110353740Y-77065000D01*
X110066842Y-77122068D01*
X109796589Y-77234010D01*
X109553368Y-77396525D01*
X109346525Y-77603368D01*
X109184010Y-77846589D01*
X109072068Y-78116842D01*
X109015000Y-78403740D01*
X109015000Y-78696260D01*
X109072068Y-78983158D01*
X109184010Y-79253411D01*
X109346525Y-79496632D01*
X109553368Y-79703475D01*
X109796589Y-79865990D01*
X109914910Y-79915000D01*
X109774592Y-79915000D01*
X109549087Y-79937210D01*
X109259739Y-80024983D01*
X108993073Y-80167519D01*
X108759339Y-80359339D01*
X108567519Y-80593073D01*
X108424983Y-80859739D01*
X108337210Y-81149087D01*
X108307573Y-81450000D01*
X108337210Y-81750913D01*
X108424983Y-82040261D01*
X108567519Y-82306927D01*
X108733932Y-82509703D01*
X108681426Y-82520147D01*
X108420273Y-82628320D01*
X108380019Y-82655217D01*
X104741209Y-79016408D01*
X104785000Y-78796260D01*
X104785000Y-78503740D01*
X104727932Y-78216842D01*
X104615990Y-77946589D01*
X104453475Y-77703368D01*
X104246632Y-77496525D01*
X104003411Y-77334010D01*
X103733158Y-77222068D01*
X103446260Y-77165000D01*
X103153740Y-77165000D01*
X102866842Y-77222068D01*
X102596589Y-77334010D01*
X102353368Y-77496525D01*
X102146525Y-77703368D01*
X101984010Y-77946589D01*
X101872068Y-78216842D01*
X101815000Y-78503740D01*
X101815000Y-78796260D01*
X101872068Y-79083158D01*
X101984010Y-79353411D01*
X102146525Y-79596632D01*
X102353368Y-79803475D01*
X102596589Y-79965990D01*
X102714910Y-80015000D01*
X102574592Y-80015000D01*
X102349087Y-80037210D01*
X102059739Y-80124983D01*
X101793073Y-80267519D01*
X101559339Y-80459339D01*
X101367519Y-80693073D01*
X101224983Y-80959739D01*
X101137210Y-81249087D01*
X101107573Y-81550000D01*
X100660000Y-81550000D01*
X100660000Y-69750000D01*
X101107573Y-69750000D01*
X101137210Y-70050913D01*
X101224983Y-70340261D01*
X101367519Y-70606927D01*
X101559339Y-70840661D01*
X101793073Y-71032481D01*
X102059739Y-71175017D01*
X102349087Y-71262790D01*
X102574592Y-71285000D01*
X102714910Y-71285000D01*
X102596589Y-71334010D01*
X102353368Y-71496525D01*
X102146525Y-71703368D01*
X101984010Y-71946589D01*
X101872068Y-72216842D01*
X101815000Y-72503740D01*
X101815000Y-72796260D01*
X101872068Y-73083158D01*
X101984010Y-73353411D01*
X102146525Y-73596632D01*
X102353368Y-73803475D01*
X102596589Y-73965990D01*
X102866842Y-74077932D01*
X103153740Y-74135000D01*
X103446260Y-74135000D01*
X103733158Y-74077932D01*
X104003411Y-73965990D01*
X104246632Y-73803475D01*
X104453475Y-73596632D01*
X104615990Y-73353411D01*
X104727932Y-73083158D01*
X104785000Y-72796260D01*
X104785000Y-72503740D01*
X104727932Y-72216842D01*
X104615990Y-71946589D01*
X104453475Y-71703368D01*
X104246632Y-71496525D01*
X104003411Y-71334010D01*
X103885090Y-71285000D01*
X103925408Y-71285000D01*
X104150913Y-71262790D01*
X104440261Y-71175017D01*
X104706927Y-71032481D01*
X104940661Y-70840661D01*
X105132481Y-70606927D01*
X105275017Y-70340261D01*
X105362790Y-70050913D01*
X105392427Y-69750000D01*
X105382578Y-69650000D01*
X108307573Y-69650000D01*
X108337210Y-69950913D01*
X108424983Y-70240261D01*
X108567519Y-70506927D01*
X108759339Y-70740661D01*
X108993073Y-70932481D01*
X109259739Y-71075017D01*
X109549087Y-71162790D01*
X109774592Y-71185000D01*
X109914910Y-71185000D01*
X109796589Y-71234010D01*
X109553368Y-71396525D01*
X109346525Y-71603368D01*
X109184010Y-71846589D01*
X109072068Y-72116842D01*
X109015000Y-72403740D01*
X109015000Y-72696260D01*
X109072068Y-72983158D01*
X109184010Y-73253411D01*
X109346525Y-73496632D01*
X109553368Y-73703475D01*
X109796589Y-73865990D01*
X110066842Y-73977932D01*
X110353740Y-74035000D01*
X110646260Y-74035000D01*
X110933158Y-73977932D01*
X111203411Y-73865990D01*
X111446632Y-73703475D01*
X111653475Y-73496632D01*
X111815990Y-73253411D01*
X111927932Y-72983158D01*
X111985000Y-72696260D01*
X111985000Y-72403740D01*
X111927932Y-72116842D01*
X111815990Y-71846589D01*
X111653475Y-71603368D01*
X111446632Y-71396525D01*
X111203411Y-71234010D01*
X111085090Y-71185000D01*
X111125408Y-71185000D01*
X111350913Y-71162790D01*
X111640261Y-71075017D01*
X111906927Y-70932481D01*
X112140661Y-70740661D01*
X112332481Y-70506927D01*
X112475017Y-70240261D01*
X112562790Y-69950913D01*
X112582577Y-69750000D01*
X115607573Y-69750000D01*
X115637210Y-70050913D01*
X115724983Y-70340261D01*
X115867519Y-70606927D01*
X116059339Y-70840661D01*
X116293073Y-71032481D01*
X116559739Y-71175017D01*
X116849087Y-71262790D01*
X117074592Y-71285000D01*
X117214910Y-71285000D01*
X117096589Y-71334010D01*
X116853368Y-71496525D01*
X116646525Y-71703368D01*
X116484010Y-71946589D01*
X116372068Y-72216842D01*
X116315000Y-72503740D01*
X116315000Y-72796260D01*
X116372068Y-73083158D01*
X116484010Y-73353411D01*
X116646525Y-73596632D01*
X116853368Y-73803475D01*
X117096589Y-73965990D01*
X117366842Y-74077932D01*
X117653740Y-74135000D01*
X117946260Y-74135000D01*
X118233158Y-74077932D01*
X118503411Y-73965990D01*
X118746632Y-73803475D01*
X118953475Y-73596632D01*
X119115990Y-73353411D01*
X119227932Y-73083158D01*
X119285000Y-72796260D01*
X119285000Y-72503740D01*
X119227932Y-72216842D01*
X119115990Y-71946589D01*
X118953475Y-71703368D01*
X118746632Y-71496525D01*
X118503411Y-71334010D01*
X118385090Y-71285000D01*
X118425408Y-71285000D01*
X118650913Y-71262790D01*
X118940261Y-71175017D01*
X119206927Y-71032481D01*
X119440661Y-70840661D01*
X119632481Y-70606927D01*
X119775017Y-70340261D01*
X119862790Y-70050913D01*
X119892427Y-69750000D01*
X119862790Y-69449087D01*
X119775017Y-69159739D01*
X119632481Y-68893073D01*
X119440661Y-68659339D01*
X119206927Y-68467519D01*
X118940261Y-68324983D01*
X118650913Y-68237210D01*
X118425408Y-68215000D01*
X117074592Y-68215000D01*
X116849087Y-68237210D01*
X116559739Y-68324983D01*
X116293073Y-68467519D01*
X116059339Y-68659339D01*
X115867519Y-68893073D01*
X115724983Y-69159739D01*
X115637210Y-69449087D01*
X115607573Y-69750000D01*
X112582577Y-69750000D01*
X112592427Y-69650000D01*
X112562790Y-69349087D01*
X112475017Y-69059739D01*
X112332481Y-68793073D01*
X112140661Y-68559339D01*
X111906927Y-68367519D01*
X111640261Y-68224983D01*
X111350913Y-68137210D01*
X111125408Y-68115000D01*
X109774592Y-68115000D01*
X109549087Y-68137210D01*
X109259739Y-68224983D01*
X108993073Y-68367519D01*
X108759339Y-68559339D01*
X108567519Y-68793073D01*
X108424983Y-69059739D01*
X108337210Y-69349087D01*
X108307573Y-69650000D01*
X105382578Y-69650000D01*
X105362790Y-69449087D01*
X105275017Y-69159739D01*
X105132481Y-68893073D01*
X104940661Y-68659339D01*
X104706927Y-68467519D01*
X104440261Y-68324983D01*
X104150913Y-68237210D01*
X103925408Y-68215000D01*
X102574592Y-68215000D01*
X102349087Y-68237210D01*
X102059739Y-68324983D01*
X101793073Y-68467519D01*
X101559339Y-68659339D01*
X101367519Y-68893073D01*
X101224983Y-69159739D01*
X101137210Y-69449087D01*
X101107573Y-69750000D01*
X100660000Y-69750000D01*
X100660000Y-63691653D01*
X101937952Y-63691653D01*
X102093962Y-64007214D01*
X102468745Y-64198020D01*
X102873551Y-64312044D01*
X103292824Y-64344902D01*
X103710451Y-64295334D01*
X104110383Y-64165243D01*
X104406038Y-64007214D01*
X104562048Y-63691653D01*
X112237952Y-63691653D01*
X112393962Y-64007214D01*
X112768745Y-64198020D01*
X113173551Y-64312044D01*
X113592824Y-64344902D01*
X114010451Y-64295334D01*
X114149818Y-64250000D01*
X125707573Y-64250000D01*
X125737210Y-64550913D01*
X125824983Y-64840261D01*
X125967519Y-65106927D01*
X126159339Y-65340661D01*
X126393073Y-65532481D01*
X126659739Y-65675017D01*
X126949087Y-65762790D01*
X127174592Y-65785000D01*
X128525408Y-65785000D01*
X128750913Y-65762790D01*
X129040261Y-65675017D01*
X129306927Y-65532481D01*
X129540661Y-65340661D01*
X129732481Y-65106927D01*
X129875017Y-64840261D01*
X129962790Y-64550913D01*
X129992427Y-64250000D01*
X129962790Y-63949087D01*
X129875017Y-63659739D01*
X129732481Y-63393073D01*
X129540661Y-63159339D01*
X129306927Y-62967519D01*
X129040261Y-62824983D01*
X128750913Y-62737210D01*
X128525408Y-62715000D01*
X128485090Y-62715000D01*
X128603411Y-62665990D01*
X128846632Y-62503475D01*
X129053475Y-62296632D01*
X129178178Y-62110000D01*
X134721822Y-62110000D01*
X134846525Y-62296632D01*
X135053368Y-62503475D01*
X135296589Y-62665990D01*
X135414910Y-62715000D01*
X135274592Y-62715000D01*
X135049087Y-62737210D01*
X134759739Y-62824983D01*
X134493073Y-62967519D01*
X134259339Y-63159339D01*
X134067519Y-63393073D01*
X133924983Y-63659739D01*
X133837210Y-63949087D01*
X133807573Y-64250000D01*
X133837210Y-64550913D01*
X133924983Y-64840261D01*
X134067519Y-65106927D01*
X134259339Y-65340661D01*
X134493073Y-65532481D01*
X134759739Y-65675017D01*
X135049087Y-65762790D01*
X135274592Y-65785000D01*
X136625408Y-65785000D01*
X136850913Y-65762790D01*
X137140261Y-65675017D01*
X137406927Y-65532481D01*
X137640661Y-65340661D01*
X137832481Y-65106927D01*
X137975017Y-64840261D01*
X138062790Y-64550913D01*
X138092427Y-64250000D01*
X138062790Y-63949087D01*
X137975017Y-63659739D01*
X137832481Y-63393073D01*
X137640661Y-63159339D01*
X137406927Y-62967519D01*
X137140261Y-62824983D01*
X136850913Y-62737210D01*
X136625408Y-62715000D01*
X136585090Y-62715000D01*
X136703411Y-62665990D01*
X136946632Y-62503475D01*
X137153475Y-62296632D01*
X137315990Y-62053411D01*
X137427932Y-61783158D01*
X137485000Y-61496260D01*
X137485000Y-61203740D01*
X137427932Y-60916842D01*
X137315990Y-60646589D01*
X137153475Y-60403368D01*
X136946632Y-60196525D01*
X136703411Y-60034010D01*
X136433158Y-59922068D01*
X136146260Y-59865000D01*
X135853740Y-59865000D01*
X135566842Y-59922068D01*
X135296589Y-60034010D01*
X135053368Y-60196525D01*
X134846525Y-60403368D01*
X134721822Y-60590000D01*
X129178178Y-60590000D01*
X129053475Y-60403368D01*
X128846632Y-60196525D01*
X128603411Y-60034010D01*
X128333158Y-59922068D01*
X128046260Y-59865000D01*
X127753740Y-59865000D01*
X127466842Y-59922068D01*
X127196589Y-60034010D01*
X126953368Y-60196525D01*
X126746525Y-60403368D01*
X126584010Y-60646589D01*
X126472068Y-60916842D01*
X126415000Y-61203740D01*
X126415000Y-61496260D01*
X126472068Y-61783158D01*
X126584010Y-62053411D01*
X126746525Y-62296632D01*
X126953368Y-62503475D01*
X127196589Y-62665990D01*
X127314910Y-62715000D01*
X127174592Y-62715000D01*
X126949087Y-62737210D01*
X126659739Y-62824983D01*
X126393073Y-62967519D01*
X126159339Y-63159339D01*
X125967519Y-63393073D01*
X125824983Y-63659739D01*
X125737210Y-63949087D01*
X125707573Y-64250000D01*
X114149818Y-64250000D01*
X114410383Y-64165243D01*
X114706038Y-64007214D01*
X114862048Y-63691653D01*
X113550000Y-62379605D01*
X112237952Y-63691653D01*
X104562048Y-63691653D01*
X103250000Y-62379605D01*
X101937952Y-63691653D01*
X100660000Y-63691653D01*
X100660000Y-62242824D01*
X101105098Y-62242824D01*
X101154666Y-62660451D01*
X101284757Y-63060383D01*
X101442786Y-63356038D01*
X101758347Y-63512048D01*
X103070395Y-62200000D01*
X103429605Y-62200000D01*
X104741653Y-63512048D01*
X105057214Y-63356038D01*
X105248020Y-62981255D01*
X105362044Y-62576449D01*
X105394902Y-62157176D01*
X105345334Y-61739549D01*
X105215243Y-61339617D01*
X105057214Y-61043962D01*
X104741653Y-60887952D01*
X103429605Y-62200000D01*
X103070395Y-62200000D01*
X101758347Y-60887952D01*
X101442786Y-61043962D01*
X101251980Y-61418745D01*
X101137956Y-61823551D01*
X101105098Y-62242824D01*
X100660000Y-62242824D01*
X100660000Y-60708347D01*
X101937952Y-60708347D01*
X103250000Y-62020395D01*
X104562048Y-60708347D01*
X104415479Y-60411881D01*
X106490000Y-60411881D01*
X106490000Y-60788119D01*
X106563400Y-61157127D01*
X106707380Y-61504724D01*
X106916406Y-61817554D01*
X107182446Y-62083594D01*
X107495276Y-62292620D01*
X107842873Y-62436600D01*
X108211881Y-62510000D01*
X108588119Y-62510000D01*
X108957127Y-62436600D01*
X109304724Y-62292620D01*
X109379249Y-62242824D01*
X111405098Y-62242824D01*
X111454666Y-62660451D01*
X111584757Y-63060383D01*
X111742786Y-63356038D01*
X112058347Y-63512048D01*
X113370395Y-62200000D01*
X113729605Y-62200000D01*
X115041653Y-63512048D01*
X115357214Y-63356038D01*
X115548020Y-62981255D01*
X115662044Y-62576449D01*
X115694902Y-62157176D01*
X115645334Y-61739549D01*
X115515243Y-61339617D01*
X115357214Y-61043962D01*
X115041653Y-60887952D01*
X113729605Y-62200000D01*
X113370395Y-62200000D01*
X112058347Y-60887952D01*
X111742786Y-61043962D01*
X111551980Y-61418745D01*
X111437956Y-61823551D01*
X111405098Y-62242824D01*
X109379249Y-62242824D01*
X109617554Y-62083594D01*
X109883594Y-61817554D01*
X110092620Y-61504724D01*
X110236600Y-61157127D01*
X110310000Y-60788119D01*
X110310000Y-60708347D01*
X112237952Y-60708347D01*
X113550000Y-62020395D01*
X114862048Y-60708347D01*
X114706038Y-60392786D01*
X114331255Y-60201980D01*
X113926449Y-60087956D01*
X113507176Y-60055098D01*
X113089549Y-60104666D01*
X112689617Y-60234757D01*
X112393962Y-60392786D01*
X112237952Y-60708347D01*
X110310000Y-60708347D01*
X110310000Y-60411881D01*
X110236600Y-60042873D01*
X110176653Y-59898149D01*
X110964802Y-59110000D01*
X126621822Y-59110000D01*
X126746525Y-59296632D01*
X126953368Y-59503475D01*
X127196589Y-59665990D01*
X127466842Y-59777932D01*
X127753740Y-59835000D01*
X128046260Y-59835000D01*
X128333158Y-59777932D01*
X128603411Y-59665990D01*
X128846632Y-59503475D01*
X129053475Y-59296632D01*
X129215990Y-59053411D01*
X129327932Y-58783158D01*
X129385000Y-58496260D01*
X129385000Y-58203740D01*
X129327932Y-57916842D01*
X129215990Y-57646589D01*
X129053475Y-57403368D01*
X128846632Y-57196525D01*
X128603411Y-57034010D01*
X128333158Y-56922068D01*
X128046260Y-56865000D01*
X127753740Y-56865000D01*
X127466842Y-56922068D01*
X127196589Y-57034010D01*
X126953368Y-57196525D01*
X126746525Y-57403368D01*
X126621822Y-57590000D01*
X110687333Y-57590000D01*
X110650000Y-57586323D01*
X110612667Y-57590000D01*
X110501014Y-57600997D01*
X110357753Y-57644454D01*
X110225724Y-57715026D01*
X110109999Y-57809999D01*
X110086201Y-57838997D01*
X109101851Y-58823347D01*
X108957127Y-58763400D01*
X108588119Y-58690000D01*
X108211881Y-58690000D01*
X107842873Y-58763400D01*
X107495276Y-58907380D01*
X107182446Y-59116406D01*
X106916406Y-59382446D01*
X106707380Y-59695276D01*
X106563400Y-60042873D01*
X106490000Y-60411881D01*
X104415479Y-60411881D01*
X104406038Y-60392786D01*
X104031255Y-60201980D01*
X103626449Y-60087956D01*
X103207176Y-60055098D01*
X102789549Y-60104666D01*
X102389617Y-60234757D01*
X102093962Y-60392786D01*
X101937952Y-60708347D01*
X100660000Y-60708347D01*
X100660000Y-53379872D01*
X101265000Y-53379872D01*
X101265000Y-53820128D01*
X101350890Y-54251925D01*
X101519369Y-54658669D01*
X101763962Y-55024729D01*
X102075271Y-55336038D01*
X102441331Y-55580631D01*
X102848075Y-55749110D01*
X103279872Y-55835000D01*
X103720128Y-55835000D01*
X104151925Y-55749110D01*
X104558669Y-55580631D01*
X104924729Y-55336038D01*
X105236038Y-55024729D01*
X105480631Y-54658669D01*
X105649110Y-54251925D01*
X105735000Y-53820128D01*
X105735000Y-53379872D01*
X105649110Y-52948075D01*
X105480631Y-52541331D01*
X105236038Y-52175271D01*
X104924729Y-51863962D01*
X104558669Y-51619369D01*
X104151925Y-51450890D01*
X103720128Y-51365000D01*
X103279872Y-51365000D01*
X102848075Y-51450890D01*
X102441331Y-51619369D01*
X102075271Y-51863962D01*
X101763962Y-52175271D01*
X101519369Y-52541331D01*
X101350890Y-52948075D01*
X101265000Y-53379872D01*
X100660000Y-53379872D01*
X100660000Y-50660000D01*
X142615198Y-50660000D01*
X137382601Y-55892598D01*
G36*
X142557000Y-64373000D02*
G01*
X142577000Y-64373000D01*
X142577000Y-64627000D01*
X142557000Y-64627000D01*
X142557000Y-66169915D01*
X142779039Y-66291904D01*
X142861818Y-66274367D01*
X143121646Y-66163715D01*
X143354895Y-66004500D01*
X143552601Y-65802839D01*
X143702735Y-65573258D01*
X143771068Y-65701100D01*
X143939213Y-65905985D01*
X143333988Y-66511211D01*
X143304990Y-66535009D01*
X143281192Y-66564007D01*
X143281191Y-66564008D01*
X143210016Y-66650734D01*
X143139444Y-66782764D01*
X143095988Y-66926025D01*
X143081314Y-67075010D01*
X143084991Y-67112342D01*
X143084990Y-70283172D01*
X143064974Y-70245724D01*
X143031803Y-70205305D01*
X142993799Y-70158996D01*
X142993795Y-70158992D01*
X142970001Y-70129999D01*
X142941009Y-70106206D01*
X142064990Y-69230189D01*
X142064990Y-66288520D01*
X142080961Y-66291904D01*
X142303000Y-66169915D01*
X142303000Y-64627000D01*
X142283000Y-64627000D01*
X142283000Y-64373000D01*
X142303000Y-64373000D01*
X142303000Y-64353000D01*
X142557000Y-64353000D01*
X142557000Y-64373000D01*
X142557000Y-64373000D01*
G37*
X142557000Y-64373000D02*
X142577000Y-64373000D01*
X142577000Y-64627000D01*
X142557000Y-64627000D01*
X142557000Y-66169915D01*
X142779039Y-66291904D01*
X142861818Y-66274367D01*
X143121646Y-66163715D01*
X143354895Y-66004500D01*
X143552601Y-65802839D01*
X143702735Y-65573258D01*
X143771068Y-65701100D01*
X143939213Y-65905985D01*
X143333988Y-66511211D01*
X143304990Y-66535009D01*
X143281192Y-66564007D01*
X143281191Y-66564008D01*
X143210016Y-66650734D01*
X143139444Y-66782764D01*
X143095988Y-66926025D01*
X143081314Y-67075010D01*
X143084991Y-67112342D01*
X143084990Y-70283172D01*
X143064974Y-70245724D01*
X143031803Y-70205305D01*
X142993799Y-70158996D01*
X142993795Y-70158992D01*
X142970001Y-70129999D01*
X142941009Y-70106206D01*
X142064990Y-69230189D01*
X142064990Y-66288520D01*
X142080961Y-66291904D01*
X142303000Y-66169915D01*
X142303000Y-64627000D01*
X142283000Y-64627000D01*
X142283000Y-64373000D01*
X142303000Y-64373000D01*
X142303000Y-64353000D01*
X142557000Y-64353000D01*
X142557000Y-64373000D01*
M02*
