G04 #@! TF.GenerationSoftware,KiCad,Pcbnew,(5.1.4-0-10_14)*
G04 #@! TF.CreationDate,2021-06-29T11:43:56+12:00*
G04 #@! TF.ProjectId,rupter,72757074-6572-42e6-9b69-6361645f7063,rev?*
G04 #@! TF.SameCoordinates,Original*
G04 #@! TF.FileFunction,Paste,Top*
G04 #@! TF.FilePolarity,Positive*
%FSLAX46Y46*%
G04 Gerber Fmt 4.6, Leading zero omitted, Abs format (unit mm)*
G04 Created by KiCad (PCBNEW (5.1.4-0-10_14)) date 2021-06-29 11:43:56*
%MOMM*%
%LPD*%
G04 APERTURE LIST*
%ADD10C,0.100000*%
%ADD11C,0.600000*%
G04 APERTURE END LIST*
D10*
G36*
X152809703Y-69750722D02*
G01*
X152824264Y-69752882D01*
X152838543Y-69756459D01*
X152852403Y-69761418D01*
X152865710Y-69767712D01*
X152878336Y-69775280D01*
X152890159Y-69784048D01*
X152901066Y-69793934D01*
X152910952Y-69804841D01*
X152919720Y-69816664D01*
X152927288Y-69829290D01*
X152933582Y-69842597D01*
X152938541Y-69856457D01*
X152942118Y-69870736D01*
X152944278Y-69885297D01*
X152945000Y-69900000D01*
X152945000Y-71550000D01*
X152944278Y-71564703D01*
X152942118Y-71579264D01*
X152938541Y-71593543D01*
X152933582Y-71607403D01*
X152927288Y-71620710D01*
X152919720Y-71633336D01*
X152910952Y-71645159D01*
X152901066Y-71656066D01*
X152890159Y-71665952D01*
X152878336Y-71674720D01*
X152865710Y-71682288D01*
X152852403Y-71688582D01*
X152838543Y-71693541D01*
X152824264Y-71697118D01*
X152809703Y-71699278D01*
X152795000Y-71700000D01*
X152495000Y-71700000D01*
X152480297Y-71699278D01*
X152465736Y-71697118D01*
X152451457Y-71693541D01*
X152437597Y-71688582D01*
X152424290Y-71682288D01*
X152411664Y-71674720D01*
X152399841Y-71665952D01*
X152388934Y-71656066D01*
X152379048Y-71645159D01*
X152370280Y-71633336D01*
X152362712Y-71620710D01*
X152356418Y-71607403D01*
X152351459Y-71593543D01*
X152347882Y-71579264D01*
X152345722Y-71564703D01*
X152345000Y-71550000D01*
X152345000Y-69900000D01*
X152345722Y-69885297D01*
X152347882Y-69870736D01*
X152351459Y-69856457D01*
X152356418Y-69842597D01*
X152362712Y-69829290D01*
X152370280Y-69816664D01*
X152379048Y-69804841D01*
X152388934Y-69793934D01*
X152399841Y-69784048D01*
X152411664Y-69775280D01*
X152424290Y-69767712D01*
X152437597Y-69761418D01*
X152451457Y-69756459D01*
X152465736Y-69752882D01*
X152480297Y-69750722D01*
X152495000Y-69750000D01*
X152795000Y-69750000D01*
X152809703Y-69750722D01*
X152809703Y-69750722D01*
G37*
D11*
X152645000Y-70725000D03*
D10*
G36*
X154079703Y-69750722D02*
G01*
X154094264Y-69752882D01*
X154108543Y-69756459D01*
X154122403Y-69761418D01*
X154135710Y-69767712D01*
X154148336Y-69775280D01*
X154160159Y-69784048D01*
X154171066Y-69793934D01*
X154180952Y-69804841D01*
X154189720Y-69816664D01*
X154197288Y-69829290D01*
X154203582Y-69842597D01*
X154208541Y-69856457D01*
X154212118Y-69870736D01*
X154214278Y-69885297D01*
X154215000Y-69900000D01*
X154215000Y-71550000D01*
X154214278Y-71564703D01*
X154212118Y-71579264D01*
X154208541Y-71593543D01*
X154203582Y-71607403D01*
X154197288Y-71620710D01*
X154189720Y-71633336D01*
X154180952Y-71645159D01*
X154171066Y-71656066D01*
X154160159Y-71665952D01*
X154148336Y-71674720D01*
X154135710Y-71682288D01*
X154122403Y-71688582D01*
X154108543Y-71693541D01*
X154094264Y-71697118D01*
X154079703Y-71699278D01*
X154065000Y-71700000D01*
X153765000Y-71700000D01*
X153750297Y-71699278D01*
X153735736Y-71697118D01*
X153721457Y-71693541D01*
X153707597Y-71688582D01*
X153694290Y-71682288D01*
X153681664Y-71674720D01*
X153669841Y-71665952D01*
X153658934Y-71656066D01*
X153649048Y-71645159D01*
X153640280Y-71633336D01*
X153632712Y-71620710D01*
X153626418Y-71607403D01*
X153621459Y-71593543D01*
X153617882Y-71579264D01*
X153615722Y-71564703D01*
X153615000Y-71550000D01*
X153615000Y-69900000D01*
X153615722Y-69885297D01*
X153617882Y-69870736D01*
X153621459Y-69856457D01*
X153626418Y-69842597D01*
X153632712Y-69829290D01*
X153640280Y-69816664D01*
X153649048Y-69804841D01*
X153658934Y-69793934D01*
X153669841Y-69784048D01*
X153681664Y-69775280D01*
X153694290Y-69767712D01*
X153707597Y-69761418D01*
X153721457Y-69756459D01*
X153735736Y-69752882D01*
X153750297Y-69750722D01*
X153765000Y-69750000D01*
X154065000Y-69750000D01*
X154079703Y-69750722D01*
X154079703Y-69750722D01*
G37*
D11*
X153915000Y-70725000D03*
D10*
G36*
X155349703Y-69750722D02*
G01*
X155364264Y-69752882D01*
X155378543Y-69756459D01*
X155392403Y-69761418D01*
X155405710Y-69767712D01*
X155418336Y-69775280D01*
X155430159Y-69784048D01*
X155441066Y-69793934D01*
X155450952Y-69804841D01*
X155459720Y-69816664D01*
X155467288Y-69829290D01*
X155473582Y-69842597D01*
X155478541Y-69856457D01*
X155482118Y-69870736D01*
X155484278Y-69885297D01*
X155485000Y-69900000D01*
X155485000Y-71550000D01*
X155484278Y-71564703D01*
X155482118Y-71579264D01*
X155478541Y-71593543D01*
X155473582Y-71607403D01*
X155467288Y-71620710D01*
X155459720Y-71633336D01*
X155450952Y-71645159D01*
X155441066Y-71656066D01*
X155430159Y-71665952D01*
X155418336Y-71674720D01*
X155405710Y-71682288D01*
X155392403Y-71688582D01*
X155378543Y-71693541D01*
X155364264Y-71697118D01*
X155349703Y-71699278D01*
X155335000Y-71700000D01*
X155035000Y-71700000D01*
X155020297Y-71699278D01*
X155005736Y-71697118D01*
X154991457Y-71693541D01*
X154977597Y-71688582D01*
X154964290Y-71682288D01*
X154951664Y-71674720D01*
X154939841Y-71665952D01*
X154928934Y-71656066D01*
X154919048Y-71645159D01*
X154910280Y-71633336D01*
X154902712Y-71620710D01*
X154896418Y-71607403D01*
X154891459Y-71593543D01*
X154887882Y-71579264D01*
X154885722Y-71564703D01*
X154885000Y-71550000D01*
X154885000Y-69900000D01*
X154885722Y-69885297D01*
X154887882Y-69870736D01*
X154891459Y-69856457D01*
X154896418Y-69842597D01*
X154902712Y-69829290D01*
X154910280Y-69816664D01*
X154919048Y-69804841D01*
X154928934Y-69793934D01*
X154939841Y-69784048D01*
X154951664Y-69775280D01*
X154964290Y-69767712D01*
X154977597Y-69761418D01*
X154991457Y-69756459D01*
X155005736Y-69752882D01*
X155020297Y-69750722D01*
X155035000Y-69750000D01*
X155335000Y-69750000D01*
X155349703Y-69750722D01*
X155349703Y-69750722D01*
G37*
D11*
X155185000Y-70725000D03*
D10*
G36*
X156619703Y-69750722D02*
G01*
X156634264Y-69752882D01*
X156648543Y-69756459D01*
X156662403Y-69761418D01*
X156675710Y-69767712D01*
X156688336Y-69775280D01*
X156700159Y-69784048D01*
X156711066Y-69793934D01*
X156720952Y-69804841D01*
X156729720Y-69816664D01*
X156737288Y-69829290D01*
X156743582Y-69842597D01*
X156748541Y-69856457D01*
X156752118Y-69870736D01*
X156754278Y-69885297D01*
X156755000Y-69900000D01*
X156755000Y-71550000D01*
X156754278Y-71564703D01*
X156752118Y-71579264D01*
X156748541Y-71593543D01*
X156743582Y-71607403D01*
X156737288Y-71620710D01*
X156729720Y-71633336D01*
X156720952Y-71645159D01*
X156711066Y-71656066D01*
X156700159Y-71665952D01*
X156688336Y-71674720D01*
X156675710Y-71682288D01*
X156662403Y-71688582D01*
X156648543Y-71693541D01*
X156634264Y-71697118D01*
X156619703Y-71699278D01*
X156605000Y-71700000D01*
X156305000Y-71700000D01*
X156290297Y-71699278D01*
X156275736Y-71697118D01*
X156261457Y-71693541D01*
X156247597Y-71688582D01*
X156234290Y-71682288D01*
X156221664Y-71674720D01*
X156209841Y-71665952D01*
X156198934Y-71656066D01*
X156189048Y-71645159D01*
X156180280Y-71633336D01*
X156172712Y-71620710D01*
X156166418Y-71607403D01*
X156161459Y-71593543D01*
X156157882Y-71579264D01*
X156155722Y-71564703D01*
X156155000Y-71550000D01*
X156155000Y-69900000D01*
X156155722Y-69885297D01*
X156157882Y-69870736D01*
X156161459Y-69856457D01*
X156166418Y-69842597D01*
X156172712Y-69829290D01*
X156180280Y-69816664D01*
X156189048Y-69804841D01*
X156198934Y-69793934D01*
X156209841Y-69784048D01*
X156221664Y-69775280D01*
X156234290Y-69767712D01*
X156247597Y-69761418D01*
X156261457Y-69756459D01*
X156275736Y-69752882D01*
X156290297Y-69750722D01*
X156305000Y-69750000D01*
X156605000Y-69750000D01*
X156619703Y-69750722D01*
X156619703Y-69750722D01*
G37*
D11*
X156455000Y-70725000D03*
D10*
G36*
X156619703Y-64800722D02*
G01*
X156634264Y-64802882D01*
X156648543Y-64806459D01*
X156662403Y-64811418D01*
X156675710Y-64817712D01*
X156688336Y-64825280D01*
X156700159Y-64834048D01*
X156711066Y-64843934D01*
X156720952Y-64854841D01*
X156729720Y-64866664D01*
X156737288Y-64879290D01*
X156743582Y-64892597D01*
X156748541Y-64906457D01*
X156752118Y-64920736D01*
X156754278Y-64935297D01*
X156755000Y-64950000D01*
X156755000Y-66600000D01*
X156754278Y-66614703D01*
X156752118Y-66629264D01*
X156748541Y-66643543D01*
X156743582Y-66657403D01*
X156737288Y-66670710D01*
X156729720Y-66683336D01*
X156720952Y-66695159D01*
X156711066Y-66706066D01*
X156700159Y-66715952D01*
X156688336Y-66724720D01*
X156675710Y-66732288D01*
X156662403Y-66738582D01*
X156648543Y-66743541D01*
X156634264Y-66747118D01*
X156619703Y-66749278D01*
X156605000Y-66750000D01*
X156305000Y-66750000D01*
X156290297Y-66749278D01*
X156275736Y-66747118D01*
X156261457Y-66743541D01*
X156247597Y-66738582D01*
X156234290Y-66732288D01*
X156221664Y-66724720D01*
X156209841Y-66715952D01*
X156198934Y-66706066D01*
X156189048Y-66695159D01*
X156180280Y-66683336D01*
X156172712Y-66670710D01*
X156166418Y-66657403D01*
X156161459Y-66643543D01*
X156157882Y-66629264D01*
X156155722Y-66614703D01*
X156155000Y-66600000D01*
X156155000Y-64950000D01*
X156155722Y-64935297D01*
X156157882Y-64920736D01*
X156161459Y-64906457D01*
X156166418Y-64892597D01*
X156172712Y-64879290D01*
X156180280Y-64866664D01*
X156189048Y-64854841D01*
X156198934Y-64843934D01*
X156209841Y-64834048D01*
X156221664Y-64825280D01*
X156234290Y-64817712D01*
X156247597Y-64811418D01*
X156261457Y-64806459D01*
X156275736Y-64802882D01*
X156290297Y-64800722D01*
X156305000Y-64800000D01*
X156605000Y-64800000D01*
X156619703Y-64800722D01*
X156619703Y-64800722D01*
G37*
D11*
X156455000Y-65775000D03*
D10*
G36*
X155349703Y-64800722D02*
G01*
X155364264Y-64802882D01*
X155378543Y-64806459D01*
X155392403Y-64811418D01*
X155405710Y-64817712D01*
X155418336Y-64825280D01*
X155430159Y-64834048D01*
X155441066Y-64843934D01*
X155450952Y-64854841D01*
X155459720Y-64866664D01*
X155467288Y-64879290D01*
X155473582Y-64892597D01*
X155478541Y-64906457D01*
X155482118Y-64920736D01*
X155484278Y-64935297D01*
X155485000Y-64950000D01*
X155485000Y-66600000D01*
X155484278Y-66614703D01*
X155482118Y-66629264D01*
X155478541Y-66643543D01*
X155473582Y-66657403D01*
X155467288Y-66670710D01*
X155459720Y-66683336D01*
X155450952Y-66695159D01*
X155441066Y-66706066D01*
X155430159Y-66715952D01*
X155418336Y-66724720D01*
X155405710Y-66732288D01*
X155392403Y-66738582D01*
X155378543Y-66743541D01*
X155364264Y-66747118D01*
X155349703Y-66749278D01*
X155335000Y-66750000D01*
X155035000Y-66750000D01*
X155020297Y-66749278D01*
X155005736Y-66747118D01*
X154991457Y-66743541D01*
X154977597Y-66738582D01*
X154964290Y-66732288D01*
X154951664Y-66724720D01*
X154939841Y-66715952D01*
X154928934Y-66706066D01*
X154919048Y-66695159D01*
X154910280Y-66683336D01*
X154902712Y-66670710D01*
X154896418Y-66657403D01*
X154891459Y-66643543D01*
X154887882Y-66629264D01*
X154885722Y-66614703D01*
X154885000Y-66600000D01*
X154885000Y-64950000D01*
X154885722Y-64935297D01*
X154887882Y-64920736D01*
X154891459Y-64906457D01*
X154896418Y-64892597D01*
X154902712Y-64879290D01*
X154910280Y-64866664D01*
X154919048Y-64854841D01*
X154928934Y-64843934D01*
X154939841Y-64834048D01*
X154951664Y-64825280D01*
X154964290Y-64817712D01*
X154977597Y-64811418D01*
X154991457Y-64806459D01*
X155005736Y-64802882D01*
X155020297Y-64800722D01*
X155035000Y-64800000D01*
X155335000Y-64800000D01*
X155349703Y-64800722D01*
X155349703Y-64800722D01*
G37*
D11*
X155185000Y-65775000D03*
D10*
G36*
X154079703Y-64800722D02*
G01*
X154094264Y-64802882D01*
X154108543Y-64806459D01*
X154122403Y-64811418D01*
X154135710Y-64817712D01*
X154148336Y-64825280D01*
X154160159Y-64834048D01*
X154171066Y-64843934D01*
X154180952Y-64854841D01*
X154189720Y-64866664D01*
X154197288Y-64879290D01*
X154203582Y-64892597D01*
X154208541Y-64906457D01*
X154212118Y-64920736D01*
X154214278Y-64935297D01*
X154215000Y-64950000D01*
X154215000Y-66600000D01*
X154214278Y-66614703D01*
X154212118Y-66629264D01*
X154208541Y-66643543D01*
X154203582Y-66657403D01*
X154197288Y-66670710D01*
X154189720Y-66683336D01*
X154180952Y-66695159D01*
X154171066Y-66706066D01*
X154160159Y-66715952D01*
X154148336Y-66724720D01*
X154135710Y-66732288D01*
X154122403Y-66738582D01*
X154108543Y-66743541D01*
X154094264Y-66747118D01*
X154079703Y-66749278D01*
X154065000Y-66750000D01*
X153765000Y-66750000D01*
X153750297Y-66749278D01*
X153735736Y-66747118D01*
X153721457Y-66743541D01*
X153707597Y-66738582D01*
X153694290Y-66732288D01*
X153681664Y-66724720D01*
X153669841Y-66715952D01*
X153658934Y-66706066D01*
X153649048Y-66695159D01*
X153640280Y-66683336D01*
X153632712Y-66670710D01*
X153626418Y-66657403D01*
X153621459Y-66643543D01*
X153617882Y-66629264D01*
X153615722Y-66614703D01*
X153615000Y-66600000D01*
X153615000Y-64950000D01*
X153615722Y-64935297D01*
X153617882Y-64920736D01*
X153621459Y-64906457D01*
X153626418Y-64892597D01*
X153632712Y-64879290D01*
X153640280Y-64866664D01*
X153649048Y-64854841D01*
X153658934Y-64843934D01*
X153669841Y-64834048D01*
X153681664Y-64825280D01*
X153694290Y-64817712D01*
X153707597Y-64811418D01*
X153721457Y-64806459D01*
X153735736Y-64802882D01*
X153750297Y-64800722D01*
X153765000Y-64800000D01*
X154065000Y-64800000D01*
X154079703Y-64800722D01*
X154079703Y-64800722D01*
G37*
D11*
X153915000Y-65775000D03*
D10*
G36*
X152809703Y-64800722D02*
G01*
X152824264Y-64802882D01*
X152838543Y-64806459D01*
X152852403Y-64811418D01*
X152865710Y-64817712D01*
X152878336Y-64825280D01*
X152890159Y-64834048D01*
X152901066Y-64843934D01*
X152910952Y-64854841D01*
X152919720Y-64866664D01*
X152927288Y-64879290D01*
X152933582Y-64892597D01*
X152938541Y-64906457D01*
X152942118Y-64920736D01*
X152944278Y-64935297D01*
X152945000Y-64950000D01*
X152945000Y-66600000D01*
X152944278Y-66614703D01*
X152942118Y-66629264D01*
X152938541Y-66643543D01*
X152933582Y-66657403D01*
X152927288Y-66670710D01*
X152919720Y-66683336D01*
X152910952Y-66695159D01*
X152901066Y-66706066D01*
X152890159Y-66715952D01*
X152878336Y-66724720D01*
X152865710Y-66732288D01*
X152852403Y-66738582D01*
X152838543Y-66743541D01*
X152824264Y-66747118D01*
X152809703Y-66749278D01*
X152795000Y-66750000D01*
X152495000Y-66750000D01*
X152480297Y-66749278D01*
X152465736Y-66747118D01*
X152451457Y-66743541D01*
X152437597Y-66738582D01*
X152424290Y-66732288D01*
X152411664Y-66724720D01*
X152399841Y-66715952D01*
X152388934Y-66706066D01*
X152379048Y-66695159D01*
X152370280Y-66683336D01*
X152362712Y-66670710D01*
X152356418Y-66657403D01*
X152351459Y-66643543D01*
X152347882Y-66629264D01*
X152345722Y-66614703D01*
X152345000Y-66600000D01*
X152345000Y-64950000D01*
X152345722Y-64935297D01*
X152347882Y-64920736D01*
X152351459Y-64906457D01*
X152356418Y-64892597D01*
X152362712Y-64879290D01*
X152370280Y-64866664D01*
X152379048Y-64854841D01*
X152388934Y-64843934D01*
X152399841Y-64834048D01*
X152411664Y-64825280D01*
X152424290Y-64817712D01*
X152437597Y-64811418D01*
X152451457Y-64806459D01*
X152465736Y-64802882D01*
X152480297Y-64800722D01*
X152495000Y-64800000D01*
X152795000Y-64800000D01*
X152809703Y-64800722D01*
X152809703Y-64800722D01*
G37*
D11*
X152645000Y-65775000D03*
M02*
