G04 #@! TF.GenerationSoftware,KiCad,Pcbnew,(5.1.4-0-10_14)*
G04 #@! TF.CreationDate,2021-06-29T11:43:56+12:00*
G04 #@! TF.ProjectId,rupter,72757074-6572-42e6-9b69-6361645f7063,rev?*
G04 #@! TF.SameCoordinates,Original*
G04 #@! TF.FileFunction,Legend,Bot*
G04 #@! TF.FilePolarity,Positive*
%FSLAX46Y46*%
G04 Gerber Fmt 4.6, Leading zero omitted, Abs format (unit mm)*
G04 Created by KiCad (PCBNEW (5.1.4-0-10_14)) date 2021-06-29 11:43:56*
%MOMM*%
%LPD*%
G04 APERTURE LIST*
%ADD10C,0.500000*%
%ADD11C,0.200000*%
G04 APERTURE END LIST*
D10*
X176675000Y-71338095D02*
X172865476Y-71338095D01*
X172389285Y-66338095D02*
X171436904Y-65623809D01*
X170484523Y-66338095D01*
X164055952Y-65861904D02*
X163579761Y-65861904D01*
X163103571Y-66100000D01*
X162865476Y-66338095D01*
X162627380Y-66814285D01*
X162389285Y-67766666D01*
X162389285Y-68957142D01*
X162627380Y-69909523D01*
X162865476Y-70385714D01*
X163103571Y-70623809D01*
X163579761Y-70861904D01*
X164055952Y-70861904D01*
X164532142Y-70623809D01*
X164770238Y-70385714D01*
X165008333Y-69909523D01*
X165246428Y-68957142D01*
X165246428Y-67766666D01*
X165008333Y-66814285D01*
X164770238Y-66338095D01*
X164532142Y-66100000D01*
X164055952Y-65861904D01*
X158103571Y-65861904D02*
X159055952Y-65861904D01*
X159532142Y-66100000D01*
X159770238Y-66338095D01*
X160246428Y-67052380D01*
X160484523Y-68004761D01*
X160484523Y-69909523D01*
X160246428Y-70385714D01*
X160008333Y-70623809D01*
X159532142Y-70861904D01*
X158579761Y-70861904D01*
X158103571Y-70623809D01*
X157865476Y-70385714D01*
X157627380Y-69909523D01*
X157627380Y-68719047D01*
X157865476Y-68242857D01*
X158103571Y-68004761D01*
X158579761Y-67766666D01*
X159532142Y-67766666D01*
X160008333Y-68004761D01*
X160246428Y-68242857D01*
X160484523Y-68719047D01*
D11*
X176470000Y-73078571D02*
X176470000Y-74078571D01*
X177112857Y-73078571D02*
X177112857Y-73864285D01*
X177041428Y-74007142D01*
X176898571Y-74078571D01*
X176684285Y-74078571D01*
X176541428Y-74007142D01*
X176470000Y-73935714D01*
X175755714Y-73078571D02*
X175755714Y-74078571D01*
X175755714Y-73221428D02*
X175684285Y-73150000D01*
X175541428Y-73078571D01*
X175327142Y-73078571D01*
X175184285Y-73150000D01*
X175112857Y-73292857D01*
X175112857Y-74078571D01*
X173755714Y-74078571D02*
X173755714Y-72578571D01*
X173755714Y-74007142D02*
X173898571Y-74078571D01*
X174184285Y-74078571D01*
X174327142Y-74007142D01*
X174398571Y-73935714D01*
X174470000Y-73792857D01*
X174470000Y-73364285D01*
X174398571Y-73221428D01*
X174327142Y-73150000D01*
X174184285Y-73078571D01*
X173898571Y-73078571D01*
X173755714Y-73150000D01*
X172470000Y-74007142D02*
X172612857Y-74078571D01*
X172898571Y-74078571D01*
X173041428Y-74007142D01*
X173112857Y-73864285D01*
X173112857Y-73292857D01*
X173041428Y-73150000D01*
X172898571Y-73078571D01*
X172612857Y-73078571D01*
X172470000Y-73150000D01*
X172398571Y-73292857D01*
X172398571Y-73435714D01*
X173112857Y-73578571D01*
X171755714Y-74078571D02*
X171755714Y-73078571D01*
X171755714Y-73364285D02*
X171684285Y-73221428D01*
X171612857Y-73150000D01*
X171470000Y-73078571D01*
X171327142Y-73078571D01*
X170898571Y-74007142D02*
X170755714Y-74078571D01*
X170470000Y-74078571D01*
X170327142Y-74007142D01*
X170255714Y-73864285D01*
X170255714Y-73792857D01*
X170327142Y-73650000D01*
X170470000Y-73578571D01*
X170684285Y-73578571D01*
X170827142Y-73507142D01*
X170898571Y-73364285D01*
X170898571Y-73292857D01*
X170827142Y-73150000D01*
X170684285Y-73078571D01*
X170470000Y-73078571D01*
X170327142Y-73150000D01*
X168970000Y-74007142D02*
X169112857Y-74078571D01*
X169398571Y-74078571D01*
X169541428Y-74007142D01*
X169612857Y-73935714D01*
X169684285Y-73792857D01*
X169684285Y-73364285D01*
X169612857Y-73221428D01*
X169541428Y-73150000D01*
X169398571Y-73078571D01*
X169112857Y-73078571D01*
X168970000Y-73150000D01*
X168112857Y-74078571D02*
X168255714Y-74007142D01*
X168327142Y-73935714D01*
X168398571Y-73792857D01*
X168398571Y-73364285D01*
X168327142Y-73221428D01*
X168255714Y-73150000D01*
X168112857Y-73078571D01*
X167898571Y-73078571D01*
X167755714Y-73150000D01*
X167684285Y-73221428D01*
X167612857Y-73364285D01*
X167612857Y-73792857D01*
X167684285Y-73935714D01*
X167755714Y-74007142D01*
X167898571Y-74078571D01*
X168112857Y-74078571D01*
X166970000Y-74078571D02*
X166970000Y-73078571D01*
X166970000Y-73364285D02*
X166898571Y-73221428D01*
X166827142Y-73150000D01*
X166684285Y-73078571D01*
X166541428Y-73078571D01*
X165470000Y-74007142D02*
X165612857Y-74078571D01*
X165898571Y-74078571D01*
X166041428Y-74007142D01*
X166112857Y-73864285D01*
X166112857Y-73292857D01*
X166041428Y-73150000D01*
X165898571Y-73078571D01*
X165612857Y-73078571D01*
X165470000Y-73150000D01*
X165398571Y-73292857D01*
X165398571Y-73435714D01*
X166112857Y-73578571D01*
X164827142Y-74007142D02*
X164684285Y-74078571D01*
X164398571Y-74078571D01*
X164255714Y-74007142D01*
X164184285Y-73864285D01*
X164184285Y-73792857D01*
X164255714Y-73650000D01*
X164398571Y-73578571D01*
X164612857Y-73578571D01*
X164755714Y-73507142D01*
X164827142Y-73364285D01*
X164827142Y-73292857D01*
X164755714Y-73150000D01*
X164612857Y-73078571D01*
X164398571Y-73078571D01*
X164255714Y-73150000D01*
X163541428Y-73935714D02*
X163470000Y-74007142D01*
X163541428Y-74078571D01*
X163612857Y-74007142D01*
X163541428Y-73935714D01*
X163541428Y-74078571D01*
X162898571Y-74007142D02*
X162755714Y-74078571D01*
X162470000Y-74078571D01*
X162327142Y-74007142D01*
X162255714Y-73864285D01*
X162255714Y-73792857D01*
X162327142Y-73650000D01*
X162470000Y-73578571D01*
X162684285Y-73578571D01*
X162827142Y-73507142D01*
X162898571Y-73364285D01*
X162898571Y-73292857D01*
X162827142Y-73150000D01*
X162684285Y-73078571D01*
X162470000Y-73078571D01*
X162327142Y-73150000D01*
X161612857Y-74078571D02*
X161612857Y-72578571D01*
X160970000Y-74078571D02*
X160970000Y-73292857D01*
X161041428Y-73150000D01*
X161184285Y-73078571D01*
X161398571Y-73078571D01*
X161541428Y-73150000D01*
X161612857Y-73221428D01*
X160041428Y-74078571D02*
X160184285Y-74007142D01*
X160255714Y-73935714D01*
X160327142Y-73792857D01*
X160327142Y-73364285D01*
X160255714Y-73221428D01*
X160184285Y-73150000D01*
X160041428Y-73078571D01*
X159827142Y-73078571D01*
X159684285Y-73150000D01*
X159612857Y-73221428D01*
X159541428Y-73364285D01*
X159541428Y-73792857D01*
X159612857Y-73935714D01*
X159684285Y-74007142D01*
X159827142Y-74078571D01*
X160041428Y-74078571D01*
X158898571Y-73078571D02*
X158898571Y-74578571D01*
X158898571Y-73150000D02*
X158755714Y-73078571D01*
X158470000Y-73078571D01*
X158327142Y-73150000D01*
X158255714Y-73221428D01*
X158184285Y-73364285D01*
X158184285Y-73792857D01*
X158255714Y-73935714D01*
X158327142Y-74007142D01*
X158470000Y-74078571D01*
X158755714Y-74078571D01*
X158898571Y-74007142D01*
M02*
