G04 #@! TF.GenerationSoftware,KiCad,Pcbnew,(5.1.4-0-10_14)*
G04 #@! TF.CreationDate,2021-06-29T11:43:56+12:00*
G04 #@! TF.ProjectId,rupter,72757074-6572-42e6-9b69-6361645f7063,rev?*
G04 #@! TF.SameCoordinates,Original*
G04 #@! TF.FileFunction,Legend,Top*
G04 #@! TF.FilePolarity,Positive*
%FSLAX46Y46*%
G04 Gerber Fmt 4.6, Leading zero omitted, Abs format (unit mm)*
G04 Created by KiCad (PCBNEW (5.1.4-0-10_14)) date 2021-06-29 11:43:56*
%MOMM*%
%LPD*%
G04 APERTURE LIST*
%ADD10C,0.150000*%
%ADD11C,0.300000*%
%ADD12C,0.120000*%
%ADD13C,0.400000*%
%ADD14C,0.127000*%
G04 APERTURE END LIST*
D10*
X153261904Y-67985714D02*
X152500000Y-68271428D01*
X153261904Y-68557142D01*
X153738095Y-68271428D02*
X154500000Y-68271428D01*
X147300000Y-68371428D02*
X148061904Y-68371428D01*
X148538095Y-68085714D02*
X149300000Y-68371428D01*
X148538095Y-68657142D01*
D11*
X129200000Y-67778571D02*
X129200000Y-66778571D01*
X129200000Y-67064285D02*
X129271428Y-66921428D01*
X129342857Y-66850000D01*
X129485714Y-66778571D01*
X129628571Y-66778571D01*
X130342857Y-67778571D02*
X130200000Y-67707142D01*
X130128571Y-67635714D01*
X130057142Y-67492857D01*
X130057142Y-67064285D01*
X130128571Y-66921428D01*
X130200000Y-66850000D01*
X130342857Y-66778571D01*
X130557142Y-66778571D01*
X130700000Y-66850000D01*
X130771428Y-66921428D01*
X130842857Y-67064285D01*
X130842857Y-67492857D01*
X130771428Y-67635714D01*
X130700000Y-67707142D01*
X130557142Y-67778571D01*
X130342857Y-67778571D01*
X132128571Y-66778571D02*
X132128571Y-67778571D01*
X131485714Y-66778571D02*
X131485714Y-67564285D01*
X131557142Y-67707142D01*
X131700000Y-67778571D01*
X131914285Y-67778571D01*
X132057142Y-67707142D01*
X132128571Y-67635714D01*
X132628571Y-66778571D02*
X133200000Y-66778571D01*
X132842857Y-66278571D02*
X132842857Y-67564285D01*
X132914285Y-67707142D01*
X133057142Y-67778571D01*
X133200000Y-67778571D01*
X134271428Y-67707142D02*
X134128571Y-67778571D01*
X133842857Y-67778571D01*
X133700000Y-67707142D01*
X133628571Y-67564285D01*
X133628571Y-66992857D01*
X133700000Y-66850000D01*
X133842857Y-66778571D01*
X134128571Y-66778571D01*
X134271428Y-66850000D01*
X134342857Y-66992857D01*
X134342857Y-67135714D01*
X133628571Y-67278571D01*
X134985714Y-67778571D02*
X134985714Y-66778571D01*
X134985714Y-67064285D02*
X135057142Y-66921428D01*
X135128571Y-66850000D01*
X135271428Y-66778571D01*
X135414285Y-66778571D01*
X157650000Y-64278571D02*
X157650000Y-63278571D01*
X157650000Y-63564285D02*
X157721428Y-63421428D01*
X157792857Y-63350000D01*
X157935714Y-63278571D01*
X158078571Y-63278571D01*
X159150000Y-64207142D02*
X159007142Y-64278571D01*
X158721428Y-64278571D01*
X158578571Y-64207142D01*
X158507142Y-64064285D01*
X158507142Y-63492857D01*
X158578571Y-63350000D01*
X158721428Y-63278571D01*
X159007142Y-63278571D01*
X159150000Y-63350000D01*
X159221428Y-63492857D01*
X159221428Y-63635714D01*
X158507142Y-63778571D01*
X160507142Y-63278571D02*
X160507142Y-64492857D01*
X160435714Y-64635714D01*
X160364285Y-64707142D01*
X160221428Y-64778571D01*
X160007142Y-64778571D01*
X159864285Y-64707142D01*
X160507142Y-64207142D02*
X160364285Y-64278571D01*
X160078571Y-64278571D01*
X159935714Y-64207142D01*
X159864285Y-64135714D01*
X159792857Y-63992857D01*
X159792857Y-63564285D01*
X159864285Y-63421428D01*
X159935714Y-63350000D01*
X160078571Y-63278571D01*
X160364285Y-63278571D01*
X160507142Y-63350000D01*
X161864285Y-63278571D02*
X161864285Y-64278571D01*
X161221428Y-63278571D02*
X161221428Y-64064285D01*
X161292857Y-64207142D01*
X161435714Y-64278571D01*
X161650000Y-64278571D01*
X161792857Y-64207142D01*
X161864285Y-64135714D01*
X162792857Y-64278571D02*
X162650000Y-64207142D01*
X162578571Y-64064285D01*
X162578571Y-62778571D01*
X164007142Y-64278571D02*
X164007142Y-63492857D01*
X163935714Y-63350000D01*
X163792857Y-63278571D01*
X163507142Y-63278571D01*
X163364285Y-63350000D01*
X164007142Y-64207142D02*
X163864285Y-64278571D01*
X163507142Y-64278571D01*
X163364285Y-64207142D01*
X163292857Y-64064285D01*
X163292857Y-63921428D01*
X163364285Y-63778571D01*
X163507142Y-63707142D01*
X163864285Y-63707142D01*
X164007142Y-63635714D01*
X164507142Y-63278571D02*
X165078571Y-63278571D01*
X164721428Y-62778571D02*
X164721428Y-64064285D01*
X164792857Y-64207142D01*
X164935714Y-64278571D01*
X165078571Y-64278571D01*
X165792857Y-64278571D02*
X165650000Y-64207142D01*
X165578571Y-64135714D01*
X165507142Y-63992857D01*
X165507142Y-63564285D01*
X165578571Y-63421428D01*
X165650000Y-63350000D01*
X165792857Y-63278571D01*
X166007142Y-63278571D01*
X166150000Y-63350000D01*
X166221428Y-63421428D01*
X166292857Y-63564285D01*
X166292857Y-63992857D01*
X166221428Y-64135714D01*
X166150000Y-64207142D01*
X166007142Y-64278571D01*
X165792857Y-64278571D01*
X166935714Y-64278571D02*
X166935714Y-63278571D01*
X166935714Y-63564285D02*
X167007142Y-63421428D01*
X167078571Y-63350000D01*
X167221428Y-63278571D01*
X167364285Y-63278571D01*
X195900000Y-66478571D02*
X196185714Y-66478571D01*
X196328571Y-66550000D01*
X196471428Y-66692857D01*
X196542857Y-66978571D01*
X196542857Y-67478571D01*
X196471428Y-67764285D01*
X196328571Y-67907142D01*
X196185714Y-67978571D01*
X195900000Y-67978571D01*
X195757142Y-67907142D01*
X195614285Y-67764285D01*
X195542857Y-67478571D01*
X195542857Y-66978571D01*
X195614285Y-66692857D01*
X195757142Y-66550000D01*
X195900000Y-66478571D01*
X197185714Y-66478571D02*
X197185714Y-67692857D01*
X197257142Y-67835714D01*
X197328571Y-67907142D01*
X197471428Y-67978571D01*
X197757142Y-67978571D01*
X197900000Y-67907142D01*
X197971428Y-67835714D01*
X198042857Y-67692857D01*
X198042857Y-66478571D01*
X198542857Y-66478571D02*
X199400000Y-66478571D01*
X198971428Y-67978571D02*
X198971428Y-66478571D01*
X101214285Y-67278571D02*
X101214285Y-65778571D01*
X101928571Y-67278571D02*
X101928571Y-65778571D01*
X102785714Y-67278571D01*
X102785714Y-65778571D01*
X156071428Y-57178571D02*
X155357142Y-57178571D01*
X155285714Y-57892857D01*
X155357142Y-57821428D01*
X155500000Y-57750000D01*
X155857142Y-57750000D01*
X156000000Y-57821428D01*
X156071428Y-57892857D01*
X156142857Y-58035714D01*
X156142857Y-58392857D01*
X156071428Y-58535714D01*
X156000000Y-58607142D01*
X155857142Y-58678571D01*
X155500000Y-58678571D01*
X155357142Y-58607142D01*
X155285714Y-58535714D01*
X156642857Y-57678571D02*
X157000000Y-58678571D01*
X157357142Y-57678571D01*
X160214285Y-57678571D02*
X159071428Y-58107142D01*
X160214285Y-58535714D01*
X160928571Y-58107142D02*
X162071428Y-58107142D01*
X162785714Y-57678571D02*
X163928571Y-58107142D01*
X162785714Y-58535714D01*
X165857142Y-58678571D02*
X166142857Y-58678571D01*
X166285714Y-58607142D01*
X166357142Y-58535714D01*
X166500000Y-58321428D01*
X166571428Y-58035714D01*
X166571428Y-57464285D01*
X166500000Y-57321428D01*
X166428571Y-57250000D01*
X166285714Y-57178571D01*
X166000000Y-57178571D01*
X165857142Y-57250000D01*
X165785714Y-57321428D01*
X165714285Y-57464285D01*
X165714285Y-57821428D01*
X165785714Y-57964285D01*
X165857142Y-58035714D01*
X166000000Y-58107142D01*
X166285714Y-58107142D01*
X166428571Y-58035714D01*
X166500000Y-57964285D01*
X166571428Y-57821428D01*
X167071428Y-57678571D02*
X167428571Y-58678571D01*
X167785714Y-57678571D01*
D10*
X166845357Y-71697619D02*
X167607261Y-71697619D01*
X167845357Y-71602380D02*
X167845357Y-70935714D01*
X167845357Y-71126190D02*
X167892976Y-71030952D01*
X167940595Y-70983333D01*
X168035833Y-70935714D01*
X168131071Y-70935714D01*
X168892976Y-70935714D02*
X168892976Y-71602380D01*
X168464404Y-70935714D02*
X168464404Y-71459523D01*
X168512023Y-71554761D01*
X168607261Y-71602380D01*
X168750119Y-71602380D01*
X168845357Y-71554761D01*
X168892976Y-71507142D01*
X169369166Y-70935714D02*
X169369166Y-71935714D01*
X169369166Y-70983333D02*
X169464404Y-70935714D01*
X169654880Y-70935714D01*
X169750119Y-70983333D01*
X169797738Y-71030952D01*
X169845357Y-71126190D01*
X169845357Y-71411904D01*
X169797738Y-71507142D01*
X169750119Y-71554761D01*
X169654880Y-71602380D01*
X169464404Y-71602380D01*
X169369166Y-71554761D01*
X170131071Y-70935714D02*
X170512023Y-70935714D01*
X170273928Y-70602380D02*
X170273928Y-71459523D01*
X170321547Y-71554761D01*
X170416785Y-71602380D01*
X170512023Y-71602380D01*
X171273928Y-70935714D02*
X171273928Y-71602380D01*
X170845357Y-70935714D02*
X170845357Y-71459523D01*
X170892976Y-71554761D01*
X170988214Y-71602380D01*
X171131071Y-71602380D01*
X171226309Y-71554761D01*
X171273928Y-71507142D01*
X171750119Y-71602380D02*
X171750119Y-70935714D01*
X171750119Y-71126190D02*
X171797738Y-71030952D01*
X171845357Y-70983333D01*
X171940595Y-70935714D01*
X172035833Y-70935714D01*
X172750119Y-71554761D02*
X172654880Y-71602380D01*
X172464404Y-71602380D01*
X172369166Y-71554761D01*
X172321547Y-71459523D01*
X172321547Y-71078571D01*
X172369166Y-70983333D01*
X172464404Y-70935714D01*
X172654880Y-70935714D01*
X172750119Y-70983333D01*
X172797738Y-71078571D01*
X172797738Y-71173809D01*
X172321547Y-71269047D01*
X172988214Y-71697619D02*
X173750119Y-71697619D01*
X174654880Y-70935714D02*
X174892976Y-71602380D01*
X175131071Y-70935714D01*
X175702500Y-70602380D02*
X175797738Y-70602380D01*
X175892976Y-70650000D01*
X175940595Y-70697619D01*
X175988214Y-70792857D01*
X176035833Y-70983333D01*
X176035833Y-71221428D01*
X175988214Y-71411904D01*
X175940595Y-71507142D01*
X175892976Y-71554761D01*
X175797738Y-71602380D01*
X175702500Y-71602380D01*
X175607261Y-71554761D01*
X175559642Y-71507142D01*
X175512023Y-71411904D01*
X175464404Y-71221428D01*
X175464404Y-70983333D01*
X175512023Y-70792857D01*
X175559642Y-70697619D01*
X175607261Y-70650000D01*
X175702500Y-70602380D01*
X176226309Y-71697619D02*
X176988214Y-71697619D01*
X177178690Y-70697619D02*
X177226309Y-70650000D01*
X177321547Y-70602380D01*
X177559642Y-70602380D01*
X177654880Y-70650000D01*
X177702500Y-70697619D01*
X177750119Y-70792857D01*
X177750119Y-70888095D01*
X177702500Y-71030952D01*
X177131071Y-71602380D01*
X177750119Y-71602380D01*
X158273928Y-73252380D02*
X158273928Y-72252380D01*
X158273928Y-72633333D02*
X158369166Y-72585714D01*
X158559642Y-72585714D01*
X158654880Y-72633333D01*
X158702500Y-72680952D01*
X158750119Y-72776190D01*
X158750119Y-73061904D01*
X158702500Y-73157142D01*
X158654880Y-73204761D01*
X158559642Y-73252380D01*
X158369166Y-73252380D01*
X158273928Y-73204761D01*
X159607261Y-73252380D02*
X159607261Y-72728571D01*
X159559642Y-72633333D01*
X159464404Y-72585714D01*
X159273928Y-72585714D01*
X159178690Y-72633333D01*
X159607261Y-73204761D02*
X159512023Y-73252380D01*
X159273928Y-73252380D01*
X159178690Y-73204761D01*
X159131071Y-73109523D01*
X159131071Y-73014285D01*
X159178690Y-72919047D01*
X159273928Y-72871428D01*
X159512023Y-72871428D01*
X159607261Y-72823809D01*
X160035833Y-73204761D02*
X160131071Y-73252380D01*
X160321547Y-73252380D01*
X160416785Y-73204761D01*
X160464404Y-73109523D01*
X160464404Y-73061904D01*
X160416785Y-72966666D01*
X160321547Y-72919047D01*
X160178690Y-72919047D01*
X160083452Y-72871428D01*
X160035833Y-72776190D01*
X160035833Y-72728571D01*
X160083452Y-72633333D01*
X160178690Y-72585714D01*
X160321547Y-72585714D01*
X160416785Y-72633333D01*
X161273928Y-73204761D02*
X161178690Y-73252380D01*
X160988214Y-73252380D01*
X160892976Y-73204761D01*
X160845357Y-73109523D01*
X160845357Y-72728571D01*
X160892976Y-72633333D01*
X160988214Y-72585714D01*
X161178690Y-72585714D01*
X161273928Y-72633333D01*
X161321547Y-72728571D01*
X161321547Y-72823809D01*
X160845357Y-72919047D01*
X162178690Y-73252380D02*
X162178690Y-72252380D01*
X162178690Y-73204761D02*
X162083452Y-73252380D01*
X161892976Y-73252380D01*
X161797738Y-73204761D01*
X161750119Y-73157142D01*
X161702500Y-73061904D01*
X161702500Y-72776190D01*
X161750119Y-72680952D01*
X161797738Y-72633333D01*
X161892976Y-72585714D01*
X162083452Y-72585714D01*
X162178690Y-72633333D01*
X163559642Y-73252380D02*
X163464404Y-73204761D01*
X163416785Y-73157142D01*
X163369166Y-73061904D01*
X163369166Y-72776190D01*
X163416785Y-72680952D01*
X163464404Y-72633333D01*
X163559642Y-72585714D01*
X163702500Y-72585714D01*
X163797738Y-72633333D01*
X163845357Y-72680952D01*
X163892976Y-72776190D01*
X163892976Y-73061904D01*
X163845357Y-73157142D01*
X163797738Y-73204761D01*
X163702500Y-73252380D01*
X163559642Y-73252380D01*
X164321547Y-72585714D02*
X164321547Y-73252380D01*
X164321547Y-72680952D02*
X164369166Y-72633333D01*
X164464404Y-72585714D01*
X164607261Y-72585714D01*
X164702500Y-72633333D01*
X164750119Y-72728571D01*
X164750119Y-73252380D01*
X165988214Y-73252380D02*
X165988214Y-72252380D01*
X166083452Y-72871428D02*
X166369166Y-73252380D01*
X166369166Y-72585714D02*
X165988214Y-72966666D01*
X167226309Y-73252380D02*
X167226309Y-72728571D01*
X167178690Y-72633333D01*
X167083452Y-72585714D01*
X166892976Y-72585714D01*
X166797738Y-72633333D01*
X167226309Y-73204761D02*
X167131071Y-73252380D01*
X166892976Y-73252380D01*
X166797738Y-73204761D01*
X166750119Y-73109523D01*
X166750119Y-73014285D01*
X166797738Y-72919047D01*
X166892976Y-72871428D01*
X167131071Y-72871428D01*
X167226309Y-72823809D01*
X167702500Y-73252380D02*
X167702500Y-72585714D01*
X167702500Y-72776190D02*
X167750119Y-72680952D01*
X167797738Y-72633333D01*
X167892976Y-72585714D01*
X167988214Y-72585714D01*
X168464404Y-73252380D02*
X168369166Y-73204761D01*
X168321547Y-73109523D01*
X168321547Y-72252380D01*
X168845357Y-73252380D02*
X168845357Y-72252380D01*
X168940595Y-72871428D02*
X169226309Y-73252380D01*
X169226309Y-72585714D02*
X168845357Y-72966666D01*
X169797738Y-73252380D02*
X169702500Y-73204761D01*
X169654880Y-73109523D01*
X169654880Y-72252380D01*
X170321547Y-73252380D02*
X170226309Y-73204761D01*
X170178690Y-73157142D01*
X170131071Y-73061904D01*
X170131071Y-72776190D01*
X170178690Y-72680952D01*
X170226309Y-72633333D01*
X170321547Y-72585714D01*
X170464404Y-72585714D01*
X170559642Y-72633333D01*
X170607261Y-72680952D01*
X170654880Y-72776190D01*
X170654880Y-73061904D01*
X170607261Y-73157142D01*
X170559642Y-73204761D01*
X170464404Y-73252380D01*
X170321547Y-73252380D01*
X171083452Y-73252380D02*
X171083452Y-72585714D01*
X171083452Y-72680952D02*
X171131071Y-72633333D01*
X171226309Y-72585714D01*
X171369166Y-72585714D01*
X171464404Y-72633333D01*
X171512023Y-72728571D01*
X171512023Y-73252380D01*
X171512023Y-72728571D02*
X171559642Y-72633333D01*
X171654880Y-72585714D01*
X171797738Y-72585714D01*
X171892976Y-72633333D01*
X171940595Y-72728571D01*
X171940595Y-73252380D01*
X172416785Y-72585714D02*
X172416785Y-73585714D01*
X172416785Y-72633333D02*
X172512023Y-72585714D01*
X172702500Y-72585714D01*
X172797738Y-72633333D01*
X172845357Y-72680952D01*
X172892976Y-72776190D01*
X172892976Y-73061904D01*
X172845357Y-73157142D01*
X172797738Y-73204761D01*
X172702500Y-73252380D01*
X172512023Y-73252380D01*
X172416785Y-73204761D01*
X174512023Y-73252380D02*
X174512023Y-72252380D01*
X174512023Y-73204761D02*
X174416785Y-73252380D01*
X174226309Y-73252380D01*
X174131071Y-73204761D01*
X174083452Y-73157142D01*
X174035833Y-73061904D01*
X174035833Y-72776190D01*
X174083452Y-72680952D01*
X174131071Y-72633333D01*
X174226309Y-72585714D01*
X174416785Y-72585714D01*
X174512023Y-72633333D01*
X175369166Y-73204761D02*
X175273928Y-73252380D01*
X175083452Y-73252380D01*
X174988214Y-73204761D01*
X174940595Y-73109523D01*
X174940595Y-72728571D01*
X174988214Y-72633333D01*
X175083452Y-72585714D01*
X175273928Y-72585714D01*
X175369166Y-72633333D01*
X175416785Y-72728571D01*
X175416785Y-72823809D01*
X174940595Y-72919047D01*
X175797738Y-73204761D02*
X175892976Y-73252380D01*
X176083452Y-73252380D01*
X176178690Y-73204761D01*
X176226309Y-73109523D01*
X176226309Y-73061904D01*
X176178690Y-72966666D01*
X176083452Y-72919047D01*
X175940595Y-72919047D01*
X175845357Y-72871428D01*
X175797738Y-72776190D01*
X175797738Y-72728571D01*
X175845357Y-72633333D01*
X175940595Y-72585714D01*
X176083452Y-72585714D01*
X176178690Y-72633333D01*
X176654880Y-73252380D02*
X176654880Y-72585714D01*
X176654880Y-72252380D02*
X176607261Y-72300000D01*
X176654880Y-72347619D01*
X176702500Y-72300000D01*
X176654880Y-72252380D01*
X176654880Y-72347619D01*
X177559642Y-72585714D02*
X177559642Y-73395238D01*
X177512023Y-73490476D01*
X177464404Y-73538095D01*
X177369166Y-73585714D01*
X177226309Y-73585714D01*
X177131071Y-73538095D01*
X177559642Y-73204761D02*
X177464404Y-73252380D01*
X177273928Y-73252380D01*
X177178690Y-73204761D01*
X177131071Y-73157142D01*
X177083452Y-73061904D01*
X177083452Y-72776190D01*
X177131071Y-72680952D01*
X177178690Y-72633333D01*
X177273928Y-72585714D01*
X177464404Y-72585714D01*
X177559642Y-72633333D01*
X178035833Y-72585714D02*
X178035833Y-73252380D01*
X178035833Y-72680952D02*
X178083452Y-72633333D01*
X178178690Y-72585714D01*
X178321547Y-72585714D01*
X178416785Y-72633333D01*
X178464404Y-72728571D01*
X178464404Y-73252380D01*
X160797738Y-74235714D02*
X160797738Y-74902380D01*
X160369166Y-74235714D02*
X160369166Y-74759523D01*
X160416785Y-74854761D01*
X160512023Y-74902380D01*
X160654880Y-74902380D01*
X160750119Y-74854761D01*
X160797738Y-74807142D01*
X161273928Y-74235714D02*
X161273928Y-75235714D01*
X161273928Y-74283333D02*
X161369166Y-74235714D01*
X161559642Y-74235714D01*
X161654880Y-74283333D01*
X161702500Y-74330952D01*
X161750119Y-74426190D01*
X161750119Y-74711904D01*
X161702500Y-74807142D01*
X161654880Y-74854761D01*
X161559642Y-74902380D01*
X161369166Y-74902380D01*
X161273928Y-74854761D01*
X162607261Y-74902380D02*
X162607261Y-73902380D01*
X162607261Y-74854761D02*
X162512023Y-74902380D01*
X162321547Y-74902380D01*
X162226309Y-74854761D01*
X162178690Y-74807142D01*
X162131071Y-74711904D01*
X162131071Y-74426190D01*
X162178690Y-74330952D01*
X162226309Y-74283333D01*
X162321547Y-74235714D01*
X162512023Y-74235714D01*
X162607261Y-74283333D01*
X163512023Y-74902380D02*
X163512023Y-74378571D01*
X163464404Y-74283333D01*
X163369166Y-74235714D01*
X163178690Y-74235714D01*
X163083452Y-74283333D01*
X163512023Y-74854761D02*
X163416785Y-74902380D01*
X163178690Y-74902380D01*
X163083452Y-74854761D01*
X163035833Y-74759523D01*
X163035833Y-74664285D01*
X163083452Y-74569047D01*
X163178690Y-74521428D01*
X163416785Y-74521428D01*
X163512023Y-74473809D01*
X163845357Y-74235714D02*
X164226309Y-74235714D01*
X163988214Y-73902380D02*
X163988214Y-74759523D01*
X164035833Y-74854761D01*
X164131071Y-74902380D01*
X164226309Y-74902380D01*
X164940595Y-74854761D02*
X164845357Y-74902380D01*
X164654880Y-74902380D01*
X164559642Y-74854761D01*
X164512023Y-74759523D01*
X164512023Y-74378571D01*
X164559642Y-74283333D01*
X164654880Y-74235714D01*
X164845357Y-74235714D01*
X164940595Y-74283333D01*
X164988214Y-74378571D01*
X164988214Y-74473809D01*
X164512023Y-74569047D01*
X165845357Y-74902380D02*
X165845357Y-73902380D01*
X165845357Y-74854761D02*
X165750119Y-74902380D01*
X165559642Y-74902380D01*
X165464404Y-74854761D01*
X165416785Y-74807142D01*
X165369166Y-74711904D01*
X165369166Y-74426190D01*
X165416785Y-74330952D01*
X165464404Y-74283333D01*
X165559642Y-74235714D01*
X165750119Y-74235714D01*
X165845357Y-74283333D01*
X167083452Y-74902380D02*
X167083452Y-73902380D01*
X167083452Y-74283333D02*
X167178690Y-74235714D01*
X167369166Y-74235714D01*
X167464404Y-74283333D01*
X167512023Y-74330952D01*
X167559642Y-74426190D01*
X167559642Y-74711904D01*
X167512023Y-74807142D01*
X167464404Y-74854761D01*
X167369166Y-74902380D01*
X167178690Y-74902380D01*
X167083452Y-74854761D01*
X167892976Y-74235714D02*
X168131071Y-74902380D01*
X168369166Y-74235714D02*
X168131071Y-74902380D01*
X168035833Y-75140476D01*
X167988214Y-75188095D01*
X167892976Y-75235714D01*
X169940595Y-74854761D02*
X169845357Y-74902380D01*
X169654880Y-74902380D01*
X169559642Y-74854761D01*
X169512023Y-74807142D01*
X169464404Y-74711904D01*
X169464404Y-74426190D01*
X169512023Y-74330952D01*
X169559642Y-74283333D01*
X169654880Y-74235714D01*
X169845357Y-74235714D01*
X169940595Y-74283333D01*
X170273928Y-74235714D02*
X170512023Y-74902380D01*
X170750119Y-74235714D02*
X170512023Y-74902380D01*
X170416785Y-75140476D01*
X170369166Y-75188095D01*
X170273928Y-75235714D01*
X171131071Y-74902380D02*
X171131071Y-73902380D01*
X171131071Y-74283333D02*
X171226309Y-74235714D01*
X171416785Y-74235714D01*
X171512023Y-74283333D01*
X171559642Y-74330952D01*
X171607261Y-74426190D01*
X171607261Y-74711904D01*
X171559642Y-74807142D01*
X171512023Y-74854761D01*
X171416785Y-74902380D01*
X171226309Y-74902380D01*
X171131071Y-74854761D01*
X172416785Y-74854761D02*
X172321547Y-74902380D01*
X172131071Y-74902380D01*
X172035833Y-74854761D01*
X171988214Y-74759523D01*
X171988214Y-74378571D01*
X172035833Y-74283333D01*
X172131071Y-74235714D01*
X172321547Y-74235714D01*
X172416785Y-74283333D01*
X172464404Y-74378571D01*
X172464404Y-74473809D01*
X171988214Y-74569047D01*
X172892976Y-74902380D02*
X172892976Y-74235714D01*
X172892976Y-74426190D02*
X172940595Y-74330952D01*
X172988214Y-74283333D01*
X173083452Y-74235714D01*
X173178690Y-74235714D01*
X173512023Y-74902380D02*
X173512023Y-73902380D01*
X173512023Y-74283333D02*
X173607261Y-74235714D01*
X173797738Y-74235714D01*
X173892976Y-74283333D01*
X173940595Y-74330952D01*
X173988214Y-74426190D01*
X173988214Y-74711904D01*
X173940595Y-74807142D01*
X173892976Y-74854761D01*
X173797738Y-74902380D01*
X173607261Y-74902380D01*
X173512023Y-74854761D01*
X174559642Y-74902380D02*
X174464404Y-74854761D01*
X174416785Y-74807142D01*
X174369166Y-74711904D01*
X174369166Y-74426190D01*
X174416785Y-74330952D01*
X174464404Y-74283333D01*
X174559642Y-74235714D01*
X174702500Y-74235714D01*
X174797738Y-74283333D01*
X174845357Y-74330952D01*
X174892976Y-74426190D01*
X174892976Y-74711904D01*
X174845357Y-74807142D01*
X174797738Y-74854761D01*
X174702500Y-74902380D01*
X174559642Y-74902380D01*
X175226309Y-74235714D02*
X175464404Y-74902380D01*
X175702500Y-74235714D02*
X175464404Y-74902380D01*
X175369166Y-75140476D01*
X175321547Y-75188095D01*
X175226309Y-75235714D01*
X176512023Y-73902380D02*
X176321547Y-73902380D01*
X176226309Y-73950000D01*
X176178690Y-73997619D01*
X176083452Y-74140476D01*
X176035833Y-74330952D01*
X176035833Y-74711904D01*
X176083452Y-74807142D01*
X176131071Y-74854761D01*
X176226309Y-74902380D01*
X176416785Y-74902380D01*
X176512023Y-74854761D01*
X176559642Y-74807142D01*
X176607261Y-74711904D01*
X176607261Y-74473809D01*
X176559642Y-74378571D01*
X176512023Y-74330952D01*
X176416785Y-74283333D01*
X176226309Y-74283333D01*
X176131071Y-74330952D01*
X176083452Y-74378571D01*
X176035833Y-74473809D01*
X177464404Y-73902380D02*
X177273928Y-73902380D01*
X177178690Y-73950000D01*
X177131071Y-73997619D01*
X177035833Y-74140476D01*
X176988214Y-74330952D01*
X176988214Y-74711904D01*
X177035833Y-74807142D01*
X177083452Y-74854761D01*
X177178690Y-74902380D01*
X177369166Y-74902380D01*
X177464404Y-74854761D01*
X177512023Y-74807142D01*
X177559642Y-74711904D01*
X177559642Y-74473809D01*
X177512023Y-74378571D01*
X177464404Y-74330952D01*
X177369166Y-74283333D01*
X177178690Y-74283333D01*
X177083452Y-74330952D01*
X177035833Y-74378571D01*
X176988214Y-74473809D01*
X178416785Y-73902380D02*
X178226309Y-73902380D01*
X178131071Y-73950000D01*
X178083452Y-73997619D01*
X177988214Y-74140476D01*
X177940595Y-74330952D01*
X177940595Y-74711904D01*
X177988214Y-74807142D01*
X178035833Y-74854761D01*
X178131071Y-74902380D01*
X178321547Y-74902380D01*
X178416785Y-74854761D01*
X178464404Y-74807142D01*
X178512023Y-74711904D01*
X178512023Y-74473809D01*
X178464404Y-74378571D01*
X178416785Y-74330952D01*
X178321547Y-74283333D01*
X178131071Y-74283333D01*
X178035833Y-74330952D01*
X177988214Y-74378571D01*
X177940595Y-74473809D01*
D12*
X125150000Y-51550000D02*
X130750000Y-51550000D01*
X125150000Y-65150000D02*
X125150000Y-51550000D01*
X130750000Y-65150000D02*
X125150000Y-65150000D01*
X130750000Y-51550000D02*
X130750000Y-65150000D01*
X170940000Y-53730000D02*
X170940000Y-54060000D01*
X177480000Y-53730000D02*
X170940000Y-53730000D01*
X177480000Y-54060000D02*
X177480000Y-53730000D01*
X170940000Y-56470000D02*
X170940000Y-56140000D01*
X177480000Y-56470000D02*
X170940000Y-56470000D01*
X177480000Y-56140000D02*
X177480000Y-56470000D01*
X179250000Y-68750000D02*
X184850000Y-68750000D01*
X179250000Y-82350000D02*
X179250000Y-68750000D01*
X184850000Y-82350000D02*
X179250000Y-82350000D01*
X184850000Y-68750000D02*
X184850000Y-82350000D01*
X115050000Y-68850000D02*
X120650000Y-68850000D01*
X115050000Y-82450000D02*
X115050000Y-68850000D01*
X120650000Y-82450000D02*
X115050000Y-82450000D01*
X120650000Y-68850000D02*
X120650000Y-82450000D01*
X107750000Y-68750000D02*
X113350000Y-68750000D01*
X107750000Y-82350000D02*
X107750000Y-68750000D01*
X113350000Y-82350000D02*
X107750000Y-82350000D01*
X113350000Y-68750000D02*
X113350000Y-82350000D01*
X100550000Y-68850000D02*
X106150000Y-68850000D01*
X100550000Y-82450000D02*
X100550000Y-68850000D01*
X106150000Y-82450000D02*
X100550000Y-82450000D01*
X106150000Y-68850000D02*
X106150000Y-82450000D01*
X154650000Y-56450000D02*
X154650000Y-50850000D01*
X168250000Y-56450000D02*
X154650000Y-56450000D01*
X168250000Y-50850000D02*
X168250000Y-56450000D01*
X154650000Y-50850000D02*
X168250000Y-50850000D01*
X171878445Y-62227684D02*
G75*
G03X170850000Y-57950000I-1808445J1827684D01*
G01*
X168258547Y-62242156D02*
G75*
G02X169250000Y-57950000I1811453J1842156D01*
G01*
X168270000Y-62250000D02*
X171870000Y-62250000D01*
X150530000Y-75930000D02*
X162870000Y-75930000D01*
X160070000Y-87520000D02*
X162870000Y-87520000D01*
X157571000Y-87520000D02*
X158330000Y-87520000D01*
X155071000Y-87520000D02*
X155830000Y-87520000D01*
X150530000Y-87520000D02*
X153329000Y-87520000D01*
X162870000Y-78945000D02*
X162870000Y-75930000D01*
X162870000Y-87520000D02*
X162870000Y-82854000D01*
X150530000Y-78945000D02*
X150530000Y-75930000D01*
X150530000Y-87520000D02*
X150530000Y-82854000D01*
X164730000Y-75930000D02*
X177070000Y-75930000D01*
X174270000Y-87520000D02*
X177070000Y-87520000D01*
X171771000Y-87520000D02*
X172530000Y-87520000D01*
X169271000Y-87520000D02*
X170030000Y-87520000D01*
X164730000Y-87520000D02*
X167529000Y-87520000D01*
X177070000Y-78945000D02*
X177070000Y-75930000D01*
X177070000Y-87520000D02*
X177070000Y-82854000D01*
X164730000Y-78945000D02*
X164730000Y-75930000D01*
X164730000Y-87520000D02*
X164730000Y-82854000D01*
X122330000Y-75830000D02*
X134670000Y-75830000D01*
X131870000Y-87420000D02*
X134670000Y-87420000D01*
X129371000Y-87420000D02*
X130130000Y-87420000D01*
X126871000Y-87420000D02*
X127630000Y-87420000D01*
X122330000Y-87420000D02*
X125129000Y-87420000D01*
X134670000Y-78845000D02*
X134670000Y-75830000D01*
X134670000Y-87420000D02*
X134670000Y-82754000D01*
X122330000Y-78845000D02*
X122330000Y-75830000D01*
X122330000Y-87420000D02*
X122330000Y-82754000D01*
X136430000Y-75830000D02*
X148770000Y-75830000D01*
X145970000Y-87420000D02*
X148770000Y-87420000D01*
X143471000Y-87420000D02*
X144230000Y-87420000D01*
X140971000Y-87420000D02*
X141730000Y-87420000D01*
X136430000Y-87420000D02*
X139229000Y-87420000D01*
X148770000Y-78845000D02*
X148770000Y-75830000D01*
X148770000Y-87420000D02*
X148770000Y-82754000D01*
X136430000Y-78845000D02*
X136430000Y-75830000D01*
X136430000Y-87420000D02*
X136430000Y-82754000D01*
X180725000Y-56895225D02*
X180225000Y-56895225D01*
X180475000Y-56645225D02*
X180475000Y-57145225D01*
X179284000Y-62051000D02*
X178716000Y-62051000D01*
X179518000Y-62011000D02*
X178482000Y-62011000D01*
X179677000Y-61971000D02*
X178323000Y-61971000D01*
X179805000Y-61931000D02*
X178195000Y-61931000D01*
X179915000Y-61891000D02*
X178085000Y-61891000D01*
X180011000Y-61851000D02*
X177989000Y-61851000D01*
X180098000Y-61811000D02*
X177902000Y-61811000D01*
X180178000Y-61771000D02*
X177822000Y-61771000D01*
X177960000Y-61731000D02*
X177749000Y-61731000D01*
X180251000Y-61731000D02*
X180040000Y-61731000D01*
X177960000Y-61691000D02*
X177681000Y-61691000D01*
X180319000Y-61691000D02*
X180040000Y-61691000D01*
X177960000Y-61651000D02*
X177617000Y-61651000D01*
X180383000Y-61651000D02*
X180040000Y-61651000D01*
X177960000Y-61611000D02*
X177557000Y-61611000D01*
X180443000Y-61611000D02*
X180040000Y-61611000D01*
X177960000Y-61571000D02*
X177500000Y-61571000D01*
X180500000Y-61571000D02*
X180040000Y-61571000D01*
X177960000Y-61531000D02*
X177446000Y-61531000D01*
X180554000Y-61531000D02*
X180040000Y-61531000D01*
X177960000Y-61491000D02*
X177395000Y-61491000D01*
X180605000Y-61491000D02*
X180040000Y-61491000D01*
X177960000Y-61451000D02*
X177347000Y-61451000D01*
X180653000Y-61451000D02*
X180040000Y-61451000D01*
X177960000Y-61411000D02*
X177301000Y-61411000D01*
X180699000Y-61411000D02*
X180040000Y-61411000D01*
X177960000Y-61371000D02*
X177257000Y-61371000D01*
X180743000Y-61371000D02*
X180040000Y-61371000D01*
X177960000Y-61331000D02*
X177215000Y-61331000D01*
X180785000Y-61331000D02*
X180040000Y-61331000D01*
X177960000Y-61291000D02*
X177174000Y-61291000D01*
X180826000Y-61291000D02*
X180040000Y-61291000D01*
X177960000Y-61251000D02*
X177136000Y-61251000D01*
X180864000Y-61251000D02*
X180040000Y-61251000D01*
X177960000Y-61211000D02*
X177099000Y-61211000D01*
X180901000Y-61211000D02*
X180040000Y-61211000D01*
X177960000Y-61171000D02*
X177063000Y-61171000D01*
X180937000Y-61171000D02*
X180040000Y-61171000D01*
X177960000Y-61131000D02*
X177029000Y-61131000D01*
X180971000Y-61131000D02*
X180040000Y-61131000D01*
X177960000Y-61091000D02*
X176996000Y-61091000D01*
X181004000Y-61091000D02*
X180040000Y-61091000D01*
X177960000Y-61051000D02*
X176965000Y-61051000D01*
X181035000Y-61051000D02*
X180040000Y-61051000D01*
X177960000Y-61011000D02*
X176935000Y-61011000D01*
X181065000Y-61011000D02*
X180040000Y-61011000D01*
X177960000Y-60971000D02*
X176905000Y-60971000D01*
X181095000Y-60971000D02*
X180040000Y-60971000D01*
X177960000Y-60931000D02*
X176878000Y-60931000D01*
X181122000Y-60931000D02*
X180040000Y-60931000D01*
X177960000Y-60891000D02*
X176851000Y-60891000D01*
X181149000Y-60891000D02*
X180040000Y-60891000D01*
X177960000Y-60851000D02*
X176825000Y-60851000D01*
X181175000Y-60851000D02*
X180040000Y-60851000D01*
X177960000Y-60811000D02*
X176800000Y-60811000D01*
X181200000Y-60811000D02*
X180040000Y-60811000D01*
X177960000Y-60771000D02*
X176776000Y-60771000D01*
X181224000Y-60771000D02*
X180040000Y-60771000D01*
X177960000Y-60731000D02*
X176753000Y-60731000D01*
X181247000Y-60731000D02*
X180040000Y-60731000D01*
X177960000Y-60691000D02*
X176732000Y-60691000D01*
X181268000Y-60691000D02*
X180040000Y-60691000D01*
X177960000Y-60651000D02*
X176710000Y-60651000D01*
X181290000Y-60651000D02*
X180040000Y-60651000D01*
X177960000Y-60611000D02*
X176690000Y-60611000D01*
X181310000Y-60611000D02*
X180040000Y-60611000D01*
X177960000Y-60571000D02*
X176671000Y-60571000D01*
X181329000Y-60571000D02*
X180040000Y-60571000D01*
X177960000Y-60531000D02*
X176652000Y-60531000D01*
X181348000Y-60531000D02*
X180040000Y-60531000D01*
X177960000Y-60491000D02*
X176635000Y-60491000D01*
X181365000Y-60491000D02*
X180040000Y-60491000D01*
X177960000Y-60451000D02*
X176618000Y-60451000D01*
X181382000Y-60451000D02*
X180040000Y-60451000D01*
X177960000Y-60411000D02*
X176602000Y-60411000D01*
X181398000Y-60411000D02*
X180040000Y-60411000D01*
X177960000Y-60371000D02*
X176586000Y-60371000D01*
X181414000Y-60371000D02*
X180040000Y-60371000D01*
X177960000Y-60331000D02*
X176572000Y-60331000D01*
X181428000Y-60331000D02*
X180040000Y-60331000D01*
X177960000Y-60291000D02*
X176558000Y-60291000D01*
X181442000Y-60291000D02*
X180040000Y-60291000D01*
X177960000Y-60251000D02*
X176545000Y-60251000D01*
X181455000Y-60251000D02*
X180040000Y-60251000D01*
X177960000Y-60211000D02*
X176532000Y-60211000D01*
X181468000Y-60211000D02*
X180040000Y-60211000D01*
X177960000Y-60171000D02*
X176520000Y-60171000D01*
X181480000Y-60171000D02*
X180040000Y-60171000D01*
X177960000Y-60130000D02*
X176509000Y-60130000D01*
X181491000Y-60130000D02*
X180040000Y-60130000D01*
X177960000Y-60090000D02*
X176499000Y-60090000D01*
X181501000Y-60090000D02*
X180040000Y-60090000D01*
X177960000Y-60050000D02*
X176489000Y-60050000D01*
X181511000Y-60050000D02*
X180040000Y-60050000D01*
X177960000Y-60010000D02*
X176480000Y-60010000D01*
X181520000Y-60010000D02*
X180040000Y-60010000D01*
X177960000Y-59970000D02*
X176472000Y-59970000D01*
X181528000Y-59970000D02*
X180040000Y-59970000D01*
X177960000Y-59930000D02*
X176464000Y-59930000D01*
X181536000Y-59930000D02*
X180040000Y-59930000D01*
X177960000Y-59890000D02*
X176457000Y-59890000D01*
X181543000Y-59890000D02*
X180040000Y-59890000D01*
X177960000Y-59850000D02*
X176450000Y-59850000D01*
X181550000Y-59850000D02*
X180040000Y-59850000D01*
X177960000Y-59810000D02*
X176444000Y-59810000D01*
X181556000Y-59810000D02*
X180040000Y-59810000D01*
X177960000Y-59770000D02*
X176439000Y-59770000D01*
X181561000Y-59770000D02*
X180040000Y-59770000D01*
X177960000Y-59730000D02*
X176435000Y-59730000D01*
X181565000Y-59730000D02*
X180040000Y-59730000D01*
X177960000Y-59690000D02*
X176431000Y-59690000D01*
X181569000Y-59690000D02*
X180040000Y-59690000D01*
X181573000Y-59650000D02*
X176427000Y-59650000D01*
X181576000Y-59610000D02*
X176424000Y-59610000D01*
X181578000Y-59570000D02*
X176422000Y-59570000D01*
X181579000Y-59530000D02*
X176421000Y-59530000D01*
X181580000Y-59490000D02*
X176420000Y-59490000D01*
X181580000Y-59450000D02*
X176420000Y-59450000D01*
X181620000Y-59450000D02*
G75*
G03X181620000Y-59450000I-2620000J0D01*
G01*
X180955000Y-83830000D02*
X181270000Y-83830000D01*
X178530000Y-83830000D02*
X178845000Y-83830000D01*
X180955000Y-88770000D02*
X181270000Y-88770000D01*
X178530000Y-88770000D02*
X178845000Y-88770000D01*
X181270000Y-88770000D02*
X181270000Y-83830000D01*
X178530000Y-88770000D02*
X178530000Y-83830000D01*
X119970000Y-83930000D02*
X119970000Y-88870000D01*
X117230000Y-83930000D02*
X117230000Y-88870000D01*
X119970000Y-83930000D02*
X119655000Y-83930000D01*
X117545000Y-83930000D02*
X117230000Y-83930000D01*
X119970000Y-88870000D02*
X119655000Y-88870000D01*
X117545000Y-88870000D02*
X117230000Y-88870000D01*
D13*
X185000000Y-62600000D02*
G75*
G03X185000000Y-62600000I-200000J0D01*
G01*
D14*
X197550000Y-59465000D02*
X196084000Y-59465000D01*
X188316000Y-59465000D02*
X186850000Y-59465000D01*
X188316000Y-65735000D02*
X186850000Y-65735000D01*
X197550000Y-65735000D02*
X196084000Y-65735000D01*
X188317924Y-59462628D02*
G75*
G02X196084000Y-59465000I3882076J-3151223D01*
G01*
X196082076Y-65737372D02*
G75*
G02X188316000Y-65735000I-3882076J3151223D01*
G01*
X186850000Y-64365000D02*
X186850000Y-65735000D01*
X186850000Y-59465000D02*
X186850000Y-60835000D01*
X197550000Y-59465000D02*
X197550000Y-60835000D01*
X197550000Y-64365000D02*
X197550000Y-65735000D01*
D12*
X153150000Y-60500000D02*
X154200000Y-60500000D01*
X154200000Y-59450000D02*
X154200000Y-60500000D01*
X144800000Y-54400000D02*
X144800000Y-45600000D01*
X144800000Y-45600000D02*
X154000000Y-45600000D01*
X147500000Y-60300000D02*
X144800000Y-60300000D01*
X144800000Y-60300000D02*
X144800000Y-58400000D01*
X154000000Y-45600000D02*
X154000000Y-60300000D01*
X154000000Y-60300000D02*
X151400000Y-60300000D01*
D14*
X113750000Y-63965000D02*
X113750000Y-65335000D01*
X113750000Y-59065000D02*
X113750000Y-60435000D01*
X103050000Y-59065000D02*
X103050000Y-60435000D01*
X103050000Y-63965000D02*
X103050000Y-65335000D01*
X112282076Y-65337372D02*
G75*
G02X104516000Y-65335000I-3882076J3151223D01*
G01*
X104517924Y-59062628D02*
G75*
G02X112284000Y-59065000I3882076J-3151223D01*
G01*
X113750000Y-65335000D02*
X112284000Y-65335000D01*
X104516000Y-65335000D02*
X103050000Y-65335000D01*
X104516000Y-59065000D02*
X103050000Y-59065000D01*
X113750000Y-59065000D02*
X112284000Y-59065000D01*
D13*
X101200000Y-62200000D02*
G75*
G03X101200000Y-62200000I-200000J0D01*
G01*
D12*
X159430000Y-59230000D02*
X164370000Y-59230000D01*
X159430000Y-61970000D02*
X164370000Y-61970000D01*
X159430000Y-59230000D02*
X159430000Y-59545000D01*
X159430000Y-61655000D02*
X159430000Y-61970000D01*
X164370000Y-59230000D02*
X164370000Y-59545000D01*
X164370000Y-61655000D02*
X164370000Y-61970000D01*
X170940000Y-50760000D02*
X170940000Y-50430000D01*
X170940000Y-50430000D02*
X177480000Y-50430000D01*
X177480000Y-50430000D02*
X177480000Y-50760000D01*
X170940000Y-52840000D02*
X170940000Y-53170000D01*
X170940000Y-53170000D02*
X177480000Y-53170000D01*
X177480000Y-53170000D02*
X177480000Y-52840000D01*
X110470000Y-83930000D02*
X110470000Y-88870000D01*
X107730000Y-83930000D02*
X107730000Y-88870000D01*
X110470000Y-83930000D02*
X110155000Y-83930000D01*
X108045000Y-83930000D02*
X107730000Y-83930000D01*
X110470000Y-88870000D02*
X110155000Y-88870000D01*
X108045000Y-88870000D02*
X107730000Y-88870000D01*
X112745000Y-88870000D02*
X112430000Y-88870000D01*
X115170000Y-88870000D02*
X114855000Y-88870000D01*
X112745000Y-83930000D02*
X112430000Y-83930000D01*
X115170000Y-83930000D02*
X114855000Y-83930000D01*
X112430000Y-83930000D02*
X112430000Y-88870000D01*
X115170000Y-83930000D02*
X115170000Y-88870000D01*
X138850000Y-51550000D02*
X138850000Y-65150000D01*
X138850000Y-65150000D02*
X133250000Y-65150000D01*
X133250000Y-65150000D02*
X133250000Y-51550000D01*
X133250000Y-51550000D02*
X138850000Y-51550000D01*
X185870000Y-83930000D02*
X185870000Y-88870000D01*
X183130000Y-83930000D02*
X183130000Y-88870000D01*
X185870000Y-83930000D02*
X185555000Y-83930000D01*
X183445000Y-83930000D02*
X183130000Y-83930000D01*
X185870000Y-88870000D02*
X185555000Y-88870000D01*
X183445000Y-88870000D02*
X183130000Y-88870000D01*
X192370000Y-86600000D02*
G75*
G03X192370000Y-86600000I-2620000J0D01*
G01*
X189750000Y-84020000D02*
X189750000Y-89180000D01*
X189790000Y-84020000D02*
X189790000Y-89180000D01*
X189830000Y-84021000D02*
X189830000Y-89179000D01*
X189870000Y-84022000D02*
X189870000Y-89178000D01*
X189910000Y-84024000D02*
X189910000Y-89176000D01*
X189950000Y-84027000D02*
X189950000Y-89173000D01*
X189990000Y-84031000D02*
X189990000Y-85560000D01*
X189990000Y-87640000D02*
X189990000Y-89169000D01*
X190030000Y-84035000D02*
X190030000Y-85560000D01*
X190030000Y-87640000D02*
X190030000Y-89165000D01*
X190070000Y-84039000D02*
X190070000Y-85560000D01*
X190070000Y-87640000D02*
X190070000Y-89161000D01*
X190110000Y-84044000D02*
X190110000Y-85560000D01*
X190110000Y-87640000D02*
X190110000Y-89156000D01*
X190150000Y-84050000D02*
X190150000Y-85560000D01*
X190150000Y-87640000D02*
X190150000Y-89150000D01*
X190190000Y-84057000D02*
X190190000Y-85560000D01*
X190190000Y-87640000D02*
X190190000Y-89143000D01*
X190230000Y-84064000D02*
X190230000Y-85560000D01*
X190230000Y-87640000D02*
X190230000Y-89136000D01*
X190270000Y-84072000D02*
X190270000Y-85560000D01*
X190270000Y-87640000D02*
X190270000Y-89128000D01*
X190310000Y-84080000D02*
X190310000Y-85560000D01*
X190310000Y-87640000D02*
X190310000Y-89120000D01*
X190350000Y-84089000D02*
X190350000Y-85560000D01*
X190350000Y-87640000D02*
X190350000Y-89111000D01*
X190390000Y-84099000D02*
X190390000Y-85560000D01*
X190390000Y-87640000D02*
X190390000Y-89101000D01*
X190430000Y-84109000D02*
X190430000Y-85560000D01*
X190430000Y-87640000D02*
X190430000Y-89091000D01*
X190471000Y-84120000D02*
X190471000Y-85560000D01*
X190471000Y-87640000D02*
X190471000Y-89080000D01*
X190511000Y-84132000D02*
X190511000Y-85560000D01*
X190511000Y-87640000D02*
X190511000Y-89068000D01*
X190551000Y-84145000D02*
X190551000Y-85560000D01*
X190551000Y-87640000D02*
X190551000Y-89055000D01*
X190591000Y-84158000D02*
X190591000Y-85560000D01*
X190591000Y-87640000D02*
X190591000Y-89042000D01*
X190631000Y-84172000D02*
X190631000Y-85560000D01*
X190631000Y-87640000D02*
X190631000Y-89028000D01*
X190671000Y-84186000D02*
X190671000Y-85560000D01*
X190671000Y-87640000D02*
X190671000Y-89014000D01*
X190711000Y-84202000D02*
X190711000Y-85560000D01*
X190711000Y-87640000D02*
X190711000Y-88998000D01*
X190751000Y-84218000D02*
X190751000Y-85560000D01*
X190751000Y-87640000D02*
X190751000Y-88982000D01*
X190791000Y-84235000D02*
X190791000Y-85560000D01*
X190791000Y-87640000D02*
X190791000Y-88965000D01*
X190831000Y-84252000D02*
X190831000Y-85560000D01*
X190831000Y-87640000D02*
X190831000Y-88948000D01*
X190871000Y-84271000D02*
X190871000Y-85560000D01*
X190871000Y-87640000D02*
X190871000Y-88929000D01*
X190911000Y-84290000D02*
X190911000Y-85560000D01*
X190911000Y-87640000D02*
X190911000Y-88910000D01*
X190951000Y-84310000D02*
X190951000Y-85560000D01*
X190951000Y-87640000D02*
X190951000Y-88890000D01*
X190991000Y-84332000D02*
X190991000Y-85560000D01*
X190991000Y-87640000D02*
X190991000Y-88868000D01*
X191031000Y-84353000D02*
X191031000Y-85560000D01*
X191031000Y-87640000D02*
X191031000Y-88847000D01*
X191071000Y-84376000D02*
X191071000Y-85560000D01*
X191071000Y-87640000D02*
X191071000Y-88824000D01*
X191111000Y-84400000D02*
X191111000Y-85560000D01*
X191111000Y-87640000D02*
X191111000Y-88800000D01*
X191151000Y-84425000D02*
X191151000Y-85560000D01*
X191151000Y-87640000D02*
X191151000Y-88775000D01*
X191191000Y-84451000D02*
X191191000Y-85560000D01*
X191191000Y-87640000D02*
X191191000Y-88749000D01*
X191231000Y-84478000D02*
X191231000Y-85560000D01*
X191231000Y-87640000D02*
X191231000Y-88722000D01*
X191271000Y-84505000D02*
X191271000Y-85560000D01*
X191271000Y-87640000D02*
X191271000Y-88695000D01*
X191311000Y-84535000D02*
X191311000Y-85560000D01*
X191311000Y-87640000D02*
X191311000Y-88665000D01*
X191351000Y-84565000D02*
X191351000Y-85560000D01*
X191351000Y-87640000D02*
X191351000Y-88635000D01*
X191391000Y-84596000D02*
X191391000Y-85560000D01*
X191391000Y-87640000D02*
X191391000Y-88604000D01*
X191431000Y-84629000D02*
X191431000Y-85560000D01*
X191431000Y-87640000D02*
X191431000Y-88571000D01*
X191471000Y-84663000D02*
X191471000Y-85560000D01*
X191471000Y-87640000D02*
X191471000Y-88537000D01*
X191511000Y-84699000D02*
X191511000Y-85560000D01*
X191511000Y-87640000D02*
X191511000Y-88501000D01*
X191551000Y-84736000D02*
X191551000Y-85560000D01*
X191551000Y-87640000D02*
X191551000Y-88464000D01*
X191591000Y-84774000D02*
X191591000Y-85560000D01*
X191591000Y-87640000D02*
X191591000Y-88426000D01*
X191631000Y-84815000D02*
X191631000Y-85560000D01*
X191631000Y-87640000D02*
X191631000Y-88385000D01*
X191671000Y-84857000D02*
X191671000Y-85560000D01*
X191671000Y-87640000D02*
X191671000Y-88343000D01*
X191711000Y-84901000D02*
X191711000Y-85560000D01*
X191711000Y-87640000D02*
X191711000Y-88299000D01*
X191751000Y-84947000D02*
X191751000Y-85560000D01*
X191751000Y-87640000D02*
X191751000Y-88253000D01*
X191791000Y-84995000D02*
X191791000Y-85560000D01*
X191791000Y-87640000D02*
X191791000Y-88205000D01*
X191831000Y-85046000D02*
X191831000Y-85560000D01*
X191831000Y-87640000D02*
X191831000Y-88154000D01*
X191871000Y-85100000D02*
X191871000Y-85560000D01*
X191871000Y-87640000D02*
X191871000Y-88100000D01*
X191911000Y-85157000D02*
X191911000Y-85560000D01*
X191911000Y-87640000D02*
X191911000Y-88043000D01*
X191951000Y-85217000D02*
X191951000Y-85560000D01*
X191951000Y-87640000D02*
X191951000Y-87983000D01*
X191991000Y-85281000D02*
X191991000Y-85560000D01*
X191991000Y-87640000D02*
X191991000Y-87919000D01*
X192031000Y-85349000D02*
X192031000Y-85560000D01*
X192031000Y-87640000D02*
X192031000Y-87851000D01*
X192071000Y-85422000D02*
X192071000Y-87778000D01*
X192111000Y-85502000D02*
X192111000Y-87698000D01*
X192151000Y-85589000D02*
X192151000Y-87611000D01*
X192191000Y-85685000D02*
X192191000Y-87515000D01*
X192231000Y-85795000D02*
X192231000Y-87405000D01*
X192271000Y-85923000D02*
X192271000Y-87277000D01*
X192311000Y-86082000D02*
X192311000Y-87118000D01*
X192351000Y-86316000D02*
X192351000Y-86884000D01*
X186945225Y-85125000D02*
X187445225Y-85125000D01*
X187195225Y-84875000D02*
X187195225Y-85375000D01*
X191850000Y-68850000D02*
X191850000Y-82450000D01*
X191850000Y-82450000D02*
X186250000Y-82450000D01*
X186250000Y-82450000D02*
X186250000Y-68850000D01*
X186250000Y-68850000D02*
X191850000Y-68850000D01*
X193550000Y-68850000D02*
X199150000Y-68850000D01*
X193550000Y-82450000D02*
X193550000Y-68850000D01*
X199150000Y-82450000D02*
X193550000Y-82450000D01*
X199150000Y-68850000D02*
X199150000Y-82450000D01*
X151380000Y-69310000D02*
G75*
G02X151380000Y-67310000I0J1000000D01*
G01*
X151380000Y-67310000D02*
X151380000Y-66060000D01*
X151380000Y-66060000D02*
X141100000Y-66060000D01*
X141100000Y-66060000D02*
X141100000Y-70560000D01*
X141100000Y-70560000D02*
X151380000Y-70560000D01*
X151380000Y-70560000D02*
X151380000Y-69310000D01*
X157110000Y-68250000D02*
X157110000Y-66300000D01*
X157110000Y-68250000D02*
X157110000Y-70200000D01*
X151990000Y-68250000D02*
X151990000Y-66300000D01*
X151990000Y-68250000D02*
X151990000Y-71700000D01*
D10*
X130254761Y-59683333D02*
X130302380Y-59540476D01*
X130302380Y-59302380D01*
X130254761Y-59207142D01*
X130207142Y-59159523D01*
X130111904Y-59111904D01*
X130016666Y-59111904D01*
X129921428Y-59159523D01*
X129873809Y-59207142D01*
X129826190Y-59302380D01*
X129778571Y-59492857D01*
X129730952Y-59588095D01*
X129683333Y-59635714D01*
X129588095Y-59683333D01*
X129492857Y-59683333D01*
X129397619Y-59635714D01*
X129350000Y-59588095D01*
X129302380Y-59492857D01*
X129302380Y-59254761D01*
X129350000Y-59111904D01*
X129302380Y-58778571D02*
X130302380Y-58540476D01*
X129588095Y-58350000D01*
X130302380Y-58159523D01*
X129302380Y-57921428D01*
X129302380Y-57635714D02*
X129302380Y-56969047D01*
X130302380Y-57397619D01*
X174133333Y-55552380D02*
X173800000Y-55076190D01*
X173561904Y-55552380D02*
X173561904Y-54552380D01*
X173942857Y-54552380D01*
X174038095Y-54600000D01*
X174085714Y-54647619D01*
X174133333Y-54742857D01*
X174133333Y-54885714D01*
X174085714Y-54980952D01*
X174038095Y-55028571D01*
X173942857Y-55076190D01*
X173561904Y-55076190D01*
X174514285Y-54647619D02*
X174561904Y-54600000D01*
X174657142Y-54552380D01*
X174895238Y-54552380D01*
X174990476Y-54600000D01*
X175038095Y-54647619D01*
X175085714Y-54742857D01*
X175085714Y-54838095D01*
X175038095Y-54980952D01*
X174466666Y-55552380D01*
X175085714Y-55552380D01*
X180504761Y-75833333D02*
X180552380Y-75690476D01*
X180552380Y-75452380D01*
X180504761Y-75357142D01*
X180457142Y-75309523D01*
X180361904Y-75261904D01*
X180266666Y-75261904D01*
X180171428Y-75309523D01*
X180123809Y-75357142D01*
X180076190Y-75452380D01*
X180028571Y-75642857D01*
X179980952Y-75738095D01*
X179933333Y-75785714D01*
X179838095Y-75833333D01*
X179742857Y-75833333D01*
X179647619Y-75785714D01*
X179600000Y-75738095D01*
X179552380Y-75642857D01*
X179552380Y-75404761D01*
X179600000Y-75261904D01*
X179552380Y-74928571D02*
X180552380Y-74690476D01*
X179838095Y-74500000D01*
X180552380Y-74309523D01*
X179552380Y-74071428D01*
X179885714Y-73261904D02*
X180552380Y-73261904D01*
X179504761Y-73500000D02*
X180219047Y-73738095D01*
X180219047Y-73119047D01*
X116404761Y-76733333D02*
X116452380Y-76590476D01*
X116452380Y-76352380D01*
X116404761Y-76257142D01*
X116357142Y-76209523D01*
X116261904Y-76161904D01*
X116166666Y-76161904D01*
X116071428Y-76209523D01*
X116023809Y-76257142D01*
X115976190Y-76352380D01*
X115928571Y-76542857D01*
X115880952Y-76638095D01*
X115833333Y-76685714D01*
X115738095Y-76733333D01*
X115642857Y-76733333D01*
X115547619Y-76685714D01*
X115500000Y-76638095D01*
X115452380Y-76542857D01*
X115452380Y-76304761D01*
X115500000Y-76161904D01*
X115452380Y-75828571D02*
X116452380Y-75590476D01*
X115738095Y-75400000D01*
X116452380Y-75209523D01*
X115452380Y-74971428D01*
X115452380Y-74685714D02*
X115452380Y-74066666D01*
X115833333Y-74400000D01*
X115833333Y-74257142D01*
X115880952Y-74161904D01*
X115928571Y-74114285D01*
X116023809Y-74066666D01*
X116261904Y-74066666D01*
X116357142Y-74114285D01*
X116404761Y-74161904D01*
X116452380Y-74257142D01*
X116452380Y-74542857D01*
X116404761Y-74638095D01*
X116357142Y-74685714D01*
X109204761Y-77033333D02*
X109252380Y-76890476D01*
X109252380Y-76652380D01*
X109204761Y-76557142D01*
X109157142Y-76509523D01*
X109061904Y-76461904D01*
X108966666Y-76461904D01*
X108871428Y-76509523D01*
X108823809Y-76557142D01*
X108776190Y-76652380D01*
X108728571Y-76842857D01*
X108680952Y-76938095D01*
X108633333Y-76985714D01*
X108538095Y-77033333D01*
X108442857Y-77033333D01*
X108347619Y-76985714D01*
X108300000Y-76938095D01*
X108252380Y-76842857D01*
X108252380Y-76604761D01*
X108300000Y-76461904D01*
X108252380Y-76128571D02*
X109252380Y-75890476D01*
X108538095Y-75700000D01*
X109252380Y-75509523D01*
X108252380Y-75271428D01*
X108347619Y-74938095D02*
X108300000Y-74890476D01*
X108252380Y-74795238D01*
X108252380Y-74557142D01*
X108300000Y-74461904D01*
X108347619Y-74414285D01*
X108442857Y-74366666D01*
X108538095Y-74366666D01*
X108680952Y-74414285D01*
X109252380Y-74985714D01*
X109252380Y-74366666D01*
X101804761Y-76733333D02*
X101852380Y-76590476D01*
X101852380Y-76352380D01*
X101804761Y-76257142D01*
X101757142Y-76209523D01*
X101661904Y-76161904D01*
X101566666Y-76161904D01*
X101471428Y-76209523D01*
X101423809Y-76257142D01*
X101376190Y-76352380D01*
X101328571Y-76542857D01*
X101280952Y-76638095D01*
X101233333Y-76685714D01*
X101138095Y-76733333D01*
X101042857Y-76733333D01*
X100947619Y-76685714D01*
X100900000Y-76638095D01*
X100852380Y-76542857D01*
X100852380Y-76304761D01*
X100900000Y-76161904D01*
X100852380Y-75828571D02*
X101852380Y-75590476D01*
X101138095Y-75400000D01*
X101852380Y-75209523D01*
X100852380Y-74971428D01*
X101852380Y-74066666D02*
X101852380Y-74638095D01*
X101852380Y-74352380D02*
X100852380Y-74352380D01*
X100995238Y-74447619D01*
X101090476Y-74542857D01*
X101138095Y-74638095D01*
X160116666Y-52154761D02*
X160259523Y-52202380D01*
X160497619Y-52202380D01*
X160592857Y-52154761D01*
X160640476Y-52107142D01*
X160688095Y-52011904D01*
X160688095Y-51916666D01*
X160640476Y-51821428D01*
X160592857Y-51773809D01*
X160497619Y-51726190D01*
X160307142Y-51678571D01*
X160211904Y-51630952D01*
X160164285Y-51583333D01*
X160116666Y-51488095D01*
X160116666Y-51392857D01*
X160164285Y-51297619D01*
X160211904Y-51250000D01*
X160307142Y-51202380D01*
X160545238Y-51202380D01*
X160688095Y-51250000D01*
X161021428Y-51202380D02*
X161259523Y-52202380D01*
X161450000Y-51488095D01*
X161640476Y-52202380D01*
X161878571Y-51202380D01*
X162307142Y-52202380D02*
X162497619Y-52202380D01*
X162592857Y-52154761D01*
X162640476Y-52107142D01*
X162735714Y-51964285D01*
X162783333Y-51773809D01*
X162783333Y-51392857D01*
X162735714Y-51297619D01*
X162688095Y-51250000D01*
X162592857Y-51202380D01*
X162402380Y-51202380D01*
X162307142Y-51250000D01*
X162259523Y-51297619D01*
X162211904Y-51392857D01*
X162211904Y-51630952D01*
X162259523Y-51726190D01*
X162307142Y-51773809D01*
X162402380Y-51821428D01*
X162592857Y-51821428D01*
X162688095Y-51773809D01*
X162735714Y-51726190D01*
X162783333Y-51630952D01*
X169138095Y-62952380D02*
X169138095Y-63761904D01*
X169185714Y-63857142D01*
X169233333Y-63904761D01*
X169328571Y-63952380D01*
X169519047Y-63952380D01*
X169614285Y-63904761D01*
X169661904Y-63857142D01*
X169709523Y-63761904D01*
X169709523Y-62952380D01*
X170709523Y-63952380D02*
X170138095Y-63952380D01*
X170423809Y-63952380D02*
X170423809Y-62952380D01*
X170328571Y-63095238D01*
X170233333Y-63190476D01*
X170138095Y-63238095D01*
X151604761Y-77652380D02*
X151271428Y-77176190D01*
X151033333Y-77652380D02*
X151033333Y-76652380D01*
X151414285Y-76652380D01*
X151509523Y-76700000D01*
X151557142Y-76747619D01*
X151604761Y-76842857D01*
X151604761Y-76985714D01*
X151557142Y-77080952D01*
X151509523Y-77128571D01*
X151414285Y-77176190D01*
X151033333Y-77176190D01*
X151890476Y-76652380D02*
X152223809Y-77652380D01*
X152557142Y-76652380D01*
X152795238Y-76652380D02*
X153414285Y-76652380D01*
X153080952Y-77033333D01*
X153223809Y-77033333D01*
X153319047Y-77080952D01*
X153366666Y-77128571D01*
X153414285Y-77223809D01*
X153414285Y-77461904D01*
X153366666Y-77557142D01*
X153319047Y-77604761D01*
X153223809Y-77652380D01*
X152938095Y-77652380D01*
X152842857Y-77604761D01*
X152795238Y-77557142D01*
X166004761Y-77452380D02*
X165671428Y-76976190D01*
X165433333Y-77452380D02*
X165433333Y-76452380D01*
X165814285Y-76452380D01*
X165909523Y-76500000D01*
X165957142Y-76547619D01*
X166004761Y-76642857D01*
X166004761Y-76785714D01*
X165957142Y-76880952D01*
X165909523Y-76928571D01*
X165814285Y-76976190D01*
X165433333Y-76976190D01*
X166290476Y-76452380D02*
X166623809Y-77452380D01*
X166957142Y-76452380D01*
X167719047Y-76785714D02*
X167719047Y-77452380D01*
X167480952Y-76404761D02*
X167242857Y-77119047D01*
X167861904Y-77119047D01*
X123504761Y-77452380D02*
X123171428Y-76976190D01*
X122933333Y-77452380D02*
X122933333Y-76452380D01*
X123314285Y-76452380D01*
X123409523Y-76500000D01*
X123457142Y-76547619D01*
X123504761Y-76642857D01*
X123504761Y-76785714D01*
X123457142Y-76880952D01*
X123409523Y-76928571D01*
X123314285Y-76976190D01*
X122933333Y-76976190D01*
X123790476Y-76452380D02*
X124123809Y-77452380D01*
X124457142Y-76452380D01*
X125314285Y-77452380D02*
X124742857Y-77452380D01*
X125028571Y-77452380D02*
X125028571Y-76452380D01*
X124933333Y-76595238D01*
X124838095Y-76690476D01*
X124742857Y-76738095D01*
X137604761Y-77452380D02*
X137271428Y-76976190D01*
X137033333Y-77452380D02*
X137033333Y-76452380D01*
X137414285Y-76452380D01*
X137509523Y-76500000D01*
X137557142Y-76547619D01*
X137604761Y-76642857D01*
X137604761Y-76785714D01*
X137557142Y-76880952D01*
X137509523Y-76928571D01*
X137414285Y-76976190D01*
X137033333Y-76976190D01*
X137890476Y-76452380D02*
X138223809Y-77452380D01*
X138557142Y-76452380D01*
X138842857Y-76547619D02*
X138890476Y-76500000D01*
X138985714Y-76452380D01*
X139223809Y-76452380D01*
X139319047Y-76500000D01*
X139366666Y-76547619D01*
X139414285Y-76642857D01*
X139414285Y-76738095D01*
X139366666Y-76880952D01*
X138795238Y-77452380D01*
X139414285Y-77452380D01*
X183107142Y-59616666D02*
X183154761Y-59664285D01*
X183202380Y-59807142D01*
X183202380Y-59902380D01*
X183154761Y-60045238D01*
X183059523Y-60140476D01*
X182964285Y-60188095D01*
X182773809Y-60235714D01*
X182630952Y-60235714D01*
X182440476Y-60188095D01*
X182345238Y-60140476D01*
X182250000Y-60045238D01*
X182202380Y-59902380D01*
X182202380Y-59807142D01*
X182250000Y-59664285D01*
X182297619Y-59616666D01*
X182630952Y-59045238D02*
X182583333Y-59140476D01*
X182535714Y-59188095D01*
X182440476Y-59235714D01*
X182392857Y-59235714D01*
X182297619Y-59188095D01*
X182250000Y-59140476D01*
X182202380Y-59045238D01*
X182202380Y-58854761D01*
X182250000Y-58759523D01*
X182297619Y-58711904D01*
X182392857Y-58664285D01*
X182440476Y-58664285D01*
X182535714Y-58711904D01*
X182583333Y-58759523D01*
X182630952Y-58854761D01*
X182630952Y-59045238D01*
X182678571Y-59140476D01*
X182726190Y-59188095D01*
X182821428Y-59235714D01*
X183011904Y-59235714D01*
X183107142Y-59188095D01*
X183154761Y-59140476D01*
X183202380Y-59045238D01*
X183202380Y-58854761D01*
X183154761Y-58759523D01*
X183107142Y-58711904D01*
X183011904Y-58664285D01*
X182821428Y-58664285D01*
X182726190Y-58711904D01*
X182678571Y-58759523D01*
X182630952Y-58854761D01*
X180257142Y-86366666D02*
X180304761Y-86414285D01*
X180352380Y-86557142D01*
X180352380Y-86652380D01*
X180304761Y-86795238D01*
X180209523Y-86890476D01*
X180114285Y-86938095D01*
X179923809Y-86985714D01*
X179780952Y-86985714D01*
X179590476Y-86938095D01*
X179495238Y-86890476D01*
X179400000Y-86795238D01*
X179352380Y-86652380D01*
X179352380Y-86557142D01*
X179400000Y-86414285D01*
X179447619Y-86366666D01*
X179685714Y-85509523D02*
X180352380Y-85509523D01*
X179304761Y-85747619D02*
X180019047Y-85985714D01*
X180019047Y-85366666D01*
X118957142Y-86466666D02*
X119004761Y-86514285D01*
X119052380Y-86657142D01*
X119052380Y-86752380D01*
X119004761Y-86895238D01*
X118909523Y-86990476D01*
X118814285Y-87038095D01*
X118623809Y-87085714D01*
X118480952Y-87085714D01*
X118290476Y-87038095D01*
X118195238Y-86990476D01*
X118100000Y-86895238D01*
X118052380Y-86752380D01*
X118052380Y-86657142D01*
X118100000Y-86514285D01*
X118147619Y-86466666D01*
X118052380Y-86133333D02*
X118052380Y-85514285D01*
X118433333Y-85847619D01*
X118433333Y-85704761D01*
X118480952Y-85609523D01*
X118528571Y-85561904D01*
X118623809Y-85514285D01*
X118861904Y-85514285D01*
X118957142Y-85561904D01*
X119004761Y-85609523D01*
X119052380Y-85704761D01*
X119052380Y-85990476D01*
X119004761Y-86085714D01*
X118957142Y-86133333D01*
X187066190Y-57551597D02*
X187066190Y-58266905D01*
X187018502Y-58409966D01*
X186923128Y-58505340D01*
X186780067Y-58553027D01*
X186684692Y-58553027D01*
X187495374Y-57646972D02*
X187543061Y-57599285D01*
X187638435Y-57551597D01*
X187876871Y-57551597D01*
X187972245Y-57599285D01*
X188019932Y-57646972D01*
X188067620Y-57742346D01*
X188067620Y-57837720D01*
X188019932Y-57980782D01*
X187447687Y-58553027D01*
X188067620Y-58553027D01*
X143052380Y-52333333D02*
X143766666Y-52333333D01*
X143909523Y-52380952D01*
X144004761Y-52476190D01*
X144052380Y-52619047D01*
X144052380Y-52714285D01*
X143052380Y-51952380D02*
X143052380Y-51333333D01*
X143433333Y-51666666D01*
X143433333Y-51523809D01*
X143480952Y-51428571D01*
X143528571Y-51380952D01*
X143623809Y-51333333D01*
X143861904Y-51333333D01*
X143957142Y-51380952D01*
X144004761Y-51428571D01*
X144052380Y-51523809D01*
X144052380Y-51809523D01*
X144004761Y-51904761D01*
X143957142Y-51952380D01*
X112766190Y-56551597D02*
X112766190Y-57266905D01*
X112718502Y-57409966D01*
X112623128Y-57505340D01*
X112480067Y-57553027D01*
X112384692Y-57553027D01*
X113767620Y-57553027D02*
X113195374Y-57553027D01*
X113481497Y-57553027D02*
X113481497Y-56551597D01*
X113386122Y-56694659D01*
X113290748Y-56790033D01*
X113195374Y-56837720D01*
X161733333Y-60757142D02*
X161685714Y-60804761D01*
X161542857Y-60852380D01*
X161447619Y-60852380D01*
X161304761Y-60804761D01*
X161209523Y-60709523D01*
X161161904Y-60614285D01*
X161114285Y-60423809D01*
X161114285Y-60280952D01*
X161161904Y-60090476D01*
X161209523Y-59995238D01*
X161304761Y-59900000D01*
X161447619Y-59852380D01*
X161542857Y-59852380D01*
X161685714Y-59900000D01*
X161733333Y-59947619D01*
X162066666Y-59852380D02*
X162733333Y-59852380D01*
X162304761Y-60852380D01*
X174133333Y-52452380D02*
X173800000Y-51976190D01*
X173561904Y-52452380D02*
X173561904Y-51452380D01*
X173942857Y-51452380D01*
X174038095Y-51500000D01*
X174085714Y-51547619D01*
X174133333Y-51642857D01*
X174133333Y-51785714D01*
X174085714Y-51880952D01*
X174038095Y-51928571D01*
X173942857Y-51976190D01*
X173561904Y-51976190D01*
X175085714Y-52452380D02*
X174514285Y-52452380D01*
X174800000Y-52452380D02*
X174800000Y-51452380D01*
X174704761Y-51595238D01*
X174609523Y-51690476D01*
X174514285Y-51738095D01*
X109457142Y-86666666D02*
X109504761Y-86714285D01*
X109552380Y-86857142D01*
X109552380Y-86952380D01*
X109504761Y-87095238D01*
X109409523Y-87190476D01*
X109314285Y-87238095D01*
X109123809Y-87285714D01*
X108980952Y-87285714D01*
X108790476Y-87238095D01*
X108695238Y-87190476D01*
X108600000Y-87095238D01*
X108552380Y-86952380D01*
X108552380Y-86857142D01*
X108600000Y-86714285D01*
X108647619Y-86666666D01*
X109552380Y-85714285D02*
X109552380Y-86285714D01*
X109552380Y-86000000D02*
X108552380Y-86000000D01*
X108695238Y-86095238D01*
X108790476Y-86190476D01*
X108838095Y-86285714D01*
X114157142Y-86466666D02*
X114204761Y-86514285D01*
X114252380Y-86657142D01*
X114252380Y-86752380D01*
X114204761Y-86895238D01*
X114109523Y-86990476D01*
X114014285Y-87038095D01*
X113823809Y-87085714D01*
X113680952Y-87085714D01*
X113490476Y-87038095D01*
X113395238Y-86990476D01*
X113300000Y-86895238D01*
X113252380Y-86752380D01*
X113252380Y-86657142D01*
X113300000Y-86514285D01*
X113347619Y-86466666D01*
X113347619Y-86085714D02*
X113300000Y-86038095D01*
X113252380Y-85942857D01*
X113252380Y-85704761D01*
X113300000Y-85609523D01*
X113347619Y-85561904D01*
X113442857Y-85514285D01*
X113538095Y-85514285D01*
X113680952Y-85561904D01*
X114252380Y-86133333D01*
X114252380Y-85514285D01*
X138354761Y-59683333D02*
X138402380Y-59540476D01*
X138402380Y-59302380D01*
X138354761Y-59207142D01*
X138307142Y-59159523D01*
X138211904Y-59111904D01*
X138116666Y-59111904D01*
X138021428Y-59159523D01*
X137973809Y-59207142D01*
X137926190Y-59302380D01*
X137878571Y-59492857D01*
X137830952Y-59588095D01*
X137783333Y-59635714D01*
X137688095Y-59683333D01*
X137592857Y-59683333D01*
X137497619Y-59635714D01*
X137450000Y-59588095D01*
X137402380Y-59492857D01*
X137402380Y-59254761D01*
X137450000Y-59111904D01*
X137402380Y-58778571D02*
X138402380Y-58540476D01*
X137688095Y-58350000D01*
X138402380Y-58159523D01*
X137402380Y-57921428D01*
X137830952Y-57397619D02*
X137783333Y-57492857D01*
X137735714Y-57540476D01*
X137640476Y-57588095D01*
X137592857Y-57588095D01*
X137497619Y-57540476D01*
X137450000Y-57492857D01*
X137402380Y-57397619D01*
X137402380Y-57207142D01*
X137450000Y-57111904D01*
X137497619Y-57064285D01*
X137592857Y-57016666D01*
X137640476Y-57016666D01*
X137735714Y-57064285D01*
X137783333Y-57111904D01*
X137830952Y-57207142D01*
X137830952Y-57397619D01*
X137878571Y-57492857D01*
X137926190Y-57540476D01*
X138021428Y-57588095D01*
X138211904Y-57588095D01*
X138307142Y-57540476D01*
X138354761Y-57492857D01*
X138402380Y-57397619D01*
X138402380Y-57207142D01*
X138354761Y-57111904D01*
X138307142Y-57064285D01*
X138211904Y-57016666D01*
X138021428Y-57016666D01*
X137926190Y-57064285D01*
X137878571Y-57111904D01*
X137830952Y-57207142D01*
X184957142Y-86566666D02*
X185004761Y-86614285D01*
X185052380Y-86757142D01*
X185052380Y-86852380D01*
X185004761Y-86995238D01*
X184909523Y-87090476D01*
X184814285Y-87138095D01*
X184623809Y-87185714D01*
X184480952Y-87185714D01*
X184290476Y-87138095D01*
X184195238Y-87090476D01*
X184100000Y-86995238D01*
X184052380Y-86852380D01*
X184052380Y-86757142D01*
X184100000Y-86614285D01*
X184147619Y-86566666D01*
X184052380Y-85661904D02*
X184052380Y-86138095D01*
X184528571Y-86185714D01*
X184480952Y-86138095D01*
X184433333Y-86042857D01*
X184433333Y-85804761D01*
X184480952Y-85709523D01*
X184528571Y-85661904D01*
X184623809Y-85614285D01*
X184861904Y-85614285D01*
X184957142Y-85661904D01*
X185004761Y-85709523D01*
X185052380Y-85804761D01*
X185052380Y-86042857D01*
X185004761Y-86138095D01*
X184957142Y-86185714D01*
X192033333Y-84157142D02*
X191985714Y-84204761D01*
X191842857Y-84252380D01*
X191747619Y-84252380D01*
X191604761Y-84204761D01*
X191509523Y-84109523D01*
X191461904Y-84014285D01*
X191414285Y-83823809D01*
X191414285Y-83680952D01*
X191461904Y-83490476D01*
X191509523Y-83395238D01*
X191604761Y-83300000D01*
X191747619Y-83252380D01*
X191842857Y-83252380D01*
X191985714Y-83300000D01*
X192033333Y-83347619D01*
X192890476Y-83252380D02*
X192700000Y-83252380D01*
X192604761Y-83300000D01*
X192557142Y-83347619D01*
X192461904Y-83490476D01*
X192414285Y-83680952D01*
X192414285Y-84061904D01*
X192461904Y-84157142D01*
X192509523Y-84204761D01*
X192604761Y-84252380D01*
X192795238Y-84252380D01*
X192890476Y-84204761D01*
X192938095Y-84157142D01*
X192985714Y-84061904D01*
X192985714Y-83823809D01*
X192938095Y-83728571D01*
X192890476Y-83680952D01*
X192795238Y-83633333D01*
X192604761Y-83633333D01*
X192509523Y-83680952D01*
X192461904Y-83728571D01*
X192414285Y-83823809D01*
X187704761Y-75933333D02*
X187752380Y-75790476D01*
X187752380Y-75552380D01*
X187704761Y-75457142D01*
X187657142Y-75409523D01*
X187561904Y-75361904D01*
X187466666Y-75361904D01*
X187371428Y-75409523D01*
X187323809Y-75457142D01*
X187276190Y-75552380D01*
X187228571Y-75742857D01*
X187180952Y-75838095D01*
X187133333Y-75885714D01*
X187038095Y-75933333D01*
X186942857Y-75933333D01*
X186847619Y-75885714D01*
X186800000Y-75838095D01*
X186752380Y-75742857D01*
X186752380Y-75504761D01*
X186800000Y-75361904D01*
X186752380Y-75028571D02*
X187752380Y-74790476D01*
X187038095Y-74600000D01*
X187752380Y-74409523D01*
X186752380Y-74171428D01*
X186752380Y-73314285D02*
X186752380Y-73790476D01*
X187228571Y-73838095D01*
X187180952Y-73790476D01*
X187133333Y-73695238D01*
X187133333Y-73457142D01*
X187180952Y-73361904D01*
X187228571Y-73314285D01*
X187323809Y-73266666D01*
X187561904Y-73266666D01*
X187657142Y-73314285D01*
X187704761Y-73361904D01*
X187752380Y-73457142D01*
X187752380Y-73695238D01*
X187704761Y-73790476D01*
X187657142Y-73838095D01*
X194904761Y-75833333D02*
X194952380Y-75690476D01*
X194952380Y-75452380D01*
X194904761Y-75357142D01*
X194857142Y-75309523D01*
X194761904Y-75261904D01*
X194666666Y-75261904D01*
X194571428Y-75309523D01*
X194523809Y-75357142D01*
X194476190Y-75452380D01*
X194428571Y-75642857D01*
X194380952Y-75738095D01*
X194333333Y-75785714D01*
X194238095Y-75833333D01*
X194142857Y-75833333D01*
X194047619Y-75785714D01*
X194000000Y-75738095D01*
X193952380Y-75642857D01*
X193952380Y-75404761D01*
X194000000Y-75261904D01*
X193952380Y-74928571D02*
X194952380Y-74690476D01*
X194238095Y-74500000D01*
X194952380Y-74309523D01*
X193952380Y-74071428D01*
X193952380Y-73261904D02*
X193952380Y-73452380D01*
X194000000Y-73547619D01*
X194047619Y-73595238D01*
X194190476Y-73690476D01*
X194380952Y-73738095D01*
X194761904Y-73738095D01*
X194857142Y-73690476D01*
X194904761Y-73642857D01*
X194952380Y-73547619D01*
X194952380Y-73357142D01*
X194904761Y-73261904D01*
X194857142Y-73214285D01*
X194761904Y-73166666D01*
X194523809Y-73166666D01*
X194428571Y-73214285D01*
X194380952Y-73261904D01*
X194333333Y-73357142D01*
X194333333Y-73547619D01*
X194380952Y-73642857D01*
X194428571Y-73690476D01*
X194523809Y-73738095D01*
X157602380Y-69011904D02*
X158411904Y-69011904D01*
X158507142Y-68964285D01*
X158554761Y-68916666D01*
X158602380Y-68821428D01*
X158602380Y-68630952D01*
X158554761Y-68535714D01*
X158507142Y-68488095D01*
X158411904Y-68440476D01*
X157602380Y-68440476D01*
X157697619Y-68011904D02*
X157650000Y-67964285D01*
X157602380Y-67869047D01*
X157602380Y-67630952D01*
X157650000Y-67535714D01*
X157697619Y-67488095D01*
X157792857Y-67440476D01*
X157888095Y-67440476D01*
X158030952Y-67488095D01*
X158602380Y-68059523D01*
X158602380Y-67440476D01*
M02*
