M48
; DRILL file {KiCad (5.1.4-0-10_14)} date 2021 June 29, Tuesday 11:43:59
; FORMAT={-:-/ absolute / metric / decimal}
; #@! TF.CreationDate,2021-06-29T11:43:59+12:00
; #@! TF.GenerationSoftware,Kicad,Pcbnew,(5.1.4-0-10_14)
; #@! TF.FileFunction,Plated,1,2,PTH
FMAT,2
METRIC
T1C0.750
T2C0.800
T3C0.900
T4C1.000
T5C1.700
T6C2.000
%
G90
G05
T1
X168.8Y-60.4
X170.07Y-59.13
X171.34Y-60.4
T2
X170.4Y-55.1
X178.02Y-55.1
X118.6Y-83.9
X118.6Y-88.9
X170.4Y-51.8
X178.02Y-51.8
X159.4Y-60.6
X164.4Y-60.6
X142.43Y-64.5
X142.43Y-72.12
X144.97Y-64.5
X144.97Y-72.12
X147.51Y-64.5
X147.51Y-72.12
X150.05Y-64.5
X150.05Y-72.12
X179.0Y-58.2
X179.0Y-60.7
X113.8Y-83.9
X113.8Y-88.9
X109.1Y-83.9
X109.1Y-88.9
X188.5Y-86.6
X191.0Y-86.6
X184.5Y-83.9
X184.5Y-88.9
X179.9Y-83.8
X179.9Y-88.8
T3
X158.45Y-53.7
X161.45Y-53.7
X164.45Y-53.7
X103.3Y-72.65
X103.3Y-75.65
X103.3Y-78.65
X117.8Y-72.65
X117.8Y-75.65
X117.8Y-78.65
X189.0Y-72.65
X189.0Y-75.65
X189.0Y-78.65
X110.5Y-72.55
X110.5Y-75.55
X110.5Y-78.55
X127.9Y-55.35
X127.9Y-58.35
X127.9Y-61.35
X196.3Y-72.65
X196.3Y-75.65
X196.3Y-78.65
X136.0Y-58.35
X136.0Y-61.35
X182.0Y-72.55
X182.0Y-75.55
X182.0Y-78.55
X136.0Y-55.35
T4
X126.0Y-88.3
X128.5Y-88.3
X131.0Y-88.3
X142.6Y-88.3
X145.1Y-88.3
X168.4Y-88.4
X170.9Y-88.4
X173.4Y-88.4
X140.1Y-88.3
X154.2Y-88.4
X156.7Y-88.4
X159.2Y-88.4
T5
X192.2Y-61.0
X108.4Y-60.6
T6
X187.05Y-62.6
X197.35Y-62.6
X103.25Y-62.2
X113.55Y-62.2
T4
G00X111.0Y-69.65
M15
G01X109.9Y-69.65
M16
G05
G00X103.8Y-69.75
M15
G01X102.7Y-69.75
M16
G05
G00X103.8Y-81.55
M15
G01X102.7Y-81.55
M16
G05
G00X118.3Y-69.75
M15
G01X117.2Y-69.75
M16
G05
G00X118.3Y-81.55
M15
G01X117.2Y-81.55
M16
G05
G00X111.0Y-81.45
M15
G01X109.9Y-81.45
M16
G05
G00X182.5Y-69.65
M15
G01X181.4Y-69.65
M16
G05
G00X136.5Y-52.45
M15
G01X135.4Y-52.45
M16
G05
G00X136.5Y-64.25
M15
G01X135.4Y-64.25
M16
G05
G00X182.5Y-81.45
M15
G01X181.4Y-81.45
M16
G05
G00X144.7Y-55.4
M15
G01X144.7Y-57.4
M16
G05
G00X150.4Y-53.4
M15
G01X148.4Y-53.4
M16
G05
G00X150.4Y-59.4
M15
G01X148.4Y-59.4
M16
G05
G00X189.5Y-69.75
M15
G01X188.4Y-69.75
M16
G05
G00X189.5Y-81.55
M15
G01X188.4Y-81.55
M16
G05
G00X155.55Y-53.2
M15
G01X155.55Y-54.3
M16
G05
G00X167.35Y-53.2
M15
G01X167.35Y-54.3
M16
G05
G00X128.4Y-52.45
M15
G01X127.3Y-52.45
M16
G05
G00X128.4Y-64.25
M15
G01X127.3Y-64.25
M16
G05
G00X196.8Y-69.75
M15
G01X195.7Y-69.75
M16
G05
G00X196.8Y-81.55
M15
G01X195.7Y-81.55
M16
G05
T0
M30
