G04 #@! TF.GenerationSoftware,KiCad,Pcbnew,(5.1.4-0-10_14)*
G04 #@! TF.CreationDate,2021-06-29T11:43:56+12:00*
G04 #@! TF.ProjectId,rupter,72757074-6572-42e6-9b69-6361645f7063,rev?*
G04 #@! TF.SameCoordinates,Original*
G04 #@! TF.FileFunction,Soldermask,Bot*
G04 #@! TF.FilePolarity,Negative*
%FSLAX46Y46*%
G04 Gerber Fmt 4.6, Leading zero omitted, Abs format (unit mm)*
G04 Created by KiCad (PCBNEW (5.1.4-0-10_14)) date 2021-06-29 11:43:56*
%MOMM*%
%LPD*%
G04 APERTURE LIST*
%ADD10C,0.100000*%
G04 APERTURE END LIST*
D10*
G36*
X184748228Y-88081703D02*
G01*
X184903100Y-88145853D01*
X185042481Y-88238985D01*
X185161015Y-88357519D01*
X185254147Y-88496900D01*
X185318297Y-88651772D01*
X185351000Y-88816184D01*
X185351000Y-88983816D01*
X185318297Y-89148228D01*
X185254147Y-89303100D01*
X185161015Y-89442481D01*
X185042481Y-89561015D01*
X184903100Y-89654147D01*
X184748228Y-89718297D01*
X184583816Y-89751000D01*
X184416184Y-89751000D01*
X184251772Y-89718297D01*
X184096900Y-89654147D01*
X183957519Y-89561015D01*
X183838985Y-89442481D01*
X183745853Y-89303100D01*
X183681703Y-89148228D01*
X183649000Y-88983816D01*
X183649000Y-88816184D01*
X183681703Y-88651772D01*
X183745853Y-88496900D01*
X183838985Y-88357519D01*
X183957519Y-88238985D01*
X184096900Y-88145853D01*
X184251772Y-88081703D01*
X184416184Y-88049000D01*
X184583816Y-88049000D01*
X184748228Y-88081703D01*
X184748228Y-88081703D01*
G37*
G36*
X118848228Y-88081703D02*
G01*
X119003100Y-88145853D01*
X119142481Y-88238985D01*
X119261015Y-88357519D01*
X119354147Y-88496900D01*
X119418297Y-88651772D01*
X119451000Y-88816184D01*
X119451000Y-88983816D01*
X119418297Y-89148228D01*
X119354147Y-89303100D01*
X119261015Y-89442481D01*
X119142481Y-89561015D01*
X119003100Y-89654147D01*
X118848228Y-89718297D01*
X118683816Y-89751000D01*
X118516184Y-89751000D01*
X118351772Y-89718297D01*
X118196900Y-89654147D01*
X118057519Y-89561015D01*
X117938985Y-89442481D01*
X117845853Y-89303100D01*
X117781703Y-89148228D01*
X117749000Y-88983816D01*
X117749000Y-88816184D01*
X117781703Y-88651772D01*
X117845853Y-88496900D01*
X117938985Y-88357519D01*
X118057519Y-88238985D01*
X118196900Y-88145853D01*
X118351772Y-88081703D01*
X118516184Y-88049000D01*
X118683816Y-88049000D01*
X118848228Y-88081703D01*
X118848228Y-88081703D01*
G37*
G36*
X114048228Y-88081703D02*
G01*
X114203100Y-88145853D01*
X114342481Y-88238985D01*
X114461015Y-88357519D01*
X114554147Y-88496900D01*
X114618297Y-88651772D01*
X114651000Y-88816184D01*
X114651000Y-88983816D01*
X114618297Y-89148228D01*
X114554147Y-89303100D01*
X114461015Y-89442481D01*
X114342481Y-89561015D01*
X114203100Y-89654147D01*
X114048228Y-89718297D01*
X113883816Y-89751000D01*
X113716184Y-89751000D01*
X113551772Y-89718297D01*
X113396900Y-89654147D01*
X113257519Y-89561015D01*
X113138985Y-89442481D01*
X113045853Y-89303100D01*
X112981703Y-89148228D01*
X112949000Y-88983816D01*
X112949000Y-88816184D01*
X112981703Y-88651772D01*
X113045853Y-88496900D01*
X113138985Y-88357519D01*
X113257519Y-88238985D01*
X113396900Y-88145853D01*
X113551772Y-88081703D01*
X113716184Y-88049000D01*
X113883816Y-88049000D01*
X114048228Y-88081703D01*
X114048228Y-88081703D01*
G37*
G36*
X109348228Y-88081703D02*
G01*
X109503100Y-88145853D01*
X109642481Y-88238985D01*
X109761015Y-88357519D01*
X109854147Y-88496900D01*
X109918297Y-88651772D01*
X109951000Y-88816184D01*
X109951000Y-88983816D01*
X109918297Y-89148228D01*
X109854147Y-89303100D01*
X109761015Y-89442481D01*
X109642481Y-89561015D01*
X109503100Y-89654147D01*
X109348228Y-89718297D01*
X109183816Y-89751000D01*
X109016184Y-89751000D01*
X108851772Y-89718297D01*
X108696900Y-89654147D01*
X108557519Y-89561015D01*
X108438985Y-89442481D01*
X108345853Y-89303100D01*
X108281703Y-89148228D01*
X108249000Y-88983816D01*
X108249000Y-88816184D01*
X108281703Y-88651772D01*
X108345853Y-88496900D01*
X108438985Y-88357519D01*
X108557519Y-88238985D01*
X108696900Y-88145853D01*
X108851772Y-88081703D01*
X109016184Y-88049000D01*
X109183816Y-88049000D01*
X109348228Y-88081703D01*
X109348228Y-88081703D01*
G37*
G36*
X180148228Y-87981703D02*
G01*
X180303100Y-88045853D01*
X180442481Y-88138985D01*
X180561015Y-88257519D01*
X180654147Y-88396900D01*
X180718297Y-88551772D01*
X180751000Y-88716184D01*
X180751000Y-88883816D01*
X180718297Y-89048228D01*
X180654147Y-89203100D01*
X180561015Y-89342481D01*
X180442481Y-89461015D01*
X180303100Y-89554147D01*
X180148228Y-89618297D01*
X179983816Y-89651000D01*
X179816184Y-89651000D01*
X179651772Y-89618297D01*
X179496900Y-89554147D01*
X179357519Y-89461015D01*
X179238985Y-89342481D01*
X179145853Y-89203100D01*
X179081703Y-89048228D01*
X179049000Y-88883816D01*
X179049000Y-88716184D01*
X179081703Y-88551772D01*
X179145853Y-88396900D01*
X179238985Y-88257519D01*
X179357519Y-88138985D01*
X179496900Y-88045853D01*
X179651772Y-87981703D01*
X179816184Y-87949000D01*
X179983816Y-87949000D01*
X180148228Y-87981703D01*
X180148228Y-87981703D01*
G37*
G36*
X159477395Y-87485546D02*
G01*
X159650466Y-87557234D01*
X159656566Y-87561310D01*
X159806227Y-87661310D01*
X159938690Y-87793773D01*
X159938691Y-87793775D01*
X160042766Y-87949534D01*
X160114454Y-88122605D01*
X160151000Y-88306333D01*
X160151000Y-88493667D01*
X160114454Y-88677395D01*
X160042766Y-88850466D01*
X160042765Y-88850467D01*
X159938690Y-89006227D01*
X159806227Y-89138690D01*
X159727818Y-89191081D01*
X159650466Y-89242766D01*
X159477395Y-89314454D01*
X159293667Y-89351000D01*
X159106333Y-89351000D01*
X158922605Y-89314454D01*
X158749534Y-89242766D01*
X158672182Y-89191081D01*
X158593773Y-89138690D01*
X158461310Y-89006227D01*
X158357235Y-88850467D01*
X158357234Y-88850466D01*
X158285546Y-88677395D01*
X158249000Y-88493667D01*
X158249000Y-88306333D01*
X158285546Y-88122605D01*
X158357234Y-87949534D01*
X158461309Y-87793775D01*
X158461310Y-87793773D01*
X158593773Y-87661310D01*
X158743434Y-87561310D01*
X158749534Y-87557234D01*
X158922605Y-87485546D01*
X159106333Y-87449000D01*
X159293667Y-87449000D01*
X159477395Y-87485546D01*
X159477395Y-87485546D01*
G37*
G36*
X156977395Y-87485546D02*
G01*
X157150466Y-87557234D01*
X157156566Y-87561310D01*
X157306227Y-87661310D01*
X157438690Y-87793773D01*
X157438691Y-87793775D01*
X157542766Y-87949534D01*
X157614454Y-88122605D01*
X157651000Y-88306333D01*
X157651000Y-88493667D01*
X157614454Y-88677395D01*
X157542766Y-88850466D01*
X157542765Y-88850467D01*
X157438690Y-89006227D01*
X157306227Y-89138690D01*
X157227818Y-89191081D01*
X157150466Y-89242766D01*
X156977395Y-89314454D01*
X156793667Y-89351000D01*
X156606333Y-89351000D01*
X156422605Y-89314454D01*
X156249534Y-89242766D01*
X156172182Y-89191081D01*
X156093773Y-89138690D01*
X155961310Y-89006227D01*
X155857235Y-88850467D01*
X155857234Y-88850466D01*
X155785546Y-88677395D01*
X155749000Y-88493667D01*
X155749000Y-88306333D01*
X155785546Y-88122605D01*
X155857234Y-87949534D01*
X155961309Y-87793775D01*
X155961310Y-87793773D01*
X156093773Y-87661310D01*
X156243434Y-87561310D01*
X156249534Y-87557234D01*
X156422605Y-87485546D01*
X156606333Y-87449000D01*
X156793667Y-87449000D01*
X156977395Y-87485546D01*
X156977395Y-87485546D01*
G37*
G36*
X154477395Y-87485546D02*
G01*
X154650466Y-87557234D01*
X154656566Y-87561310D01*
X154806227Y-87661310D01*
X154938690Y-87793773D01*
X154938691Y-87793775D01*
X155042766Y-87949534D01*
X155114454Y-88122605D01*
X155151000Y-88306333D01*
X155151000Y-88493667D01*
X155114454Y-88677395D01*
X155042766Y-88850466D01*
X155042765Y-88850467D01*
X154938690Y-89006227D01*
X154806227Y-89138690D01*
X154727818Y-89191081D01*
X154650466Y-89242766D01*
X154477395Y-89314454D01*
X154293667Y-89351000D01*
X154106333Y-89351000D01*
X153922605Y-89314454D01*
X153749534Y-89242766D01*
X153672182Y-89191081D01*
X153593773Y-89138690D01*
X153461310Y-89006227D01*
X153357235Y-88850467D01*
X153357234Y-88850466D01*
X153285546Y-88677395D01*
X153249000Y-88493667D01*
X153249000Y-88306333D01*
X153285546Y-88122605D01*
X153357234Y-87949534D01*
X153461309Y-87793775D01*
X153461310Y-87793773D01*
X153593773Y-87661310D01*
X153743434Y-87561310D01*
X153749534Y-87557234D01*
X153922605Y-87485546D01*
X154106333Y-87449000D01*
X154293667Y-87449000D01*
X154477395Y-87485546D01*
X154477395Y-87485546D01*
G37*
G36*
X168677395Y-87485546D02*
G01*
X168850466Y-87557234D01*
X168856566Y-87561310D01*
X169006227Y-87661310D01*
X169138690Y-87793773D01*
X169138691Y-87793775D01*
X169242766Y-87949534D01*
X169314454Y-88122605D01*
X169351000Y-88306333D01*
X169351000Y-88493667D01*
X169314454Y-88677395D01*
X169242766Y-88850466D01*
X169242765Y-88850467D01*
X169138690Y-89006227D01*
X169006227Y-89138690D01*
X168927818Y-89191081D01*
X168850466Y-89242766D01*
X168677395Y-89314454D01*
X168493667Y-89351000D01*
X168306333Y-89351000D01*
X168122605Y-89314454D01*
X167949534Y-89242766D01*
X167872182Y-89191081D01*
X167793773Y-89138690D01*
X167661310Y-89006227D01*
X167557235Y-88850467D01*
X167557234Y-88850466D01*
X167485546Y-88677395D01*
X167449000Y-88493667D01*
X167449000Y-88306333D01*
X167485546Y-88122605D01*
X167557234Y-87949534D01*
X167661309Y-87793775D01*
X167661310Y-87793773D01*
X167793773Y-87661310D01*
X167943434Y-87561310D01*
X167949534Y-87557234D01*
X168122605Y-87485546D01*
X168306333Y-87449000D01*
X168493667Y-87449000D01*
X168677395Y-87485546D01*
X168677395Y-87485546D01*
G37*
G36*
X173677395Y-87485546D02*
G01*
X173850466Y-87557234D01*
X173856566Y-87561310D01*
X174006227Y-87661310D01*
X174138690Y-87793773D01*
X174138691Y-87793775D01*
X174242766Y-87949534D01*
X174314454Y-88122605D01*
X174351000Y-88306333D01*
X174351000Y-88493667D01*
X174314454Y-88677395D01*
X174242766Y-88850466D01*
X174242765Y-88850467D01*
X174138690Y-89006227D01*
X174006227Y-89138690D01*
X173927818Y-89191081D01*
X173850466Y-89242766D01*
X173677395Y-89314454D01*
X173493667Y-89351000D01*
X173306333Y-89351000D01*
X173122605Y-89314454D01*
X172949534Y-89242766D01*
X172872182Y-89191081D01*
X172793773Y-89138690D01*
X172661310Y-89006227D01*
X172557235Y-88850467D01*
X172557234Y-88850466D01*
X172485546Y-88677395D01*
X172449000Y-88493667D01*
X172449000Y-88306333D01*
X172485546Y-88122605D01*
X172557234Y-87949534D01*
X172661309Y-87793775D01*
X172661310Y-87793773D01*
X172793773Y-87661310D01*
X172943434Y-87561310D01*
X172949534Y-87557234D01*
X173122605Y-87485546D01*
X173306333Y-87449000D01*
X173493667Y-87449000D01*
X173677395Y-87485546D01*
X173677395Y-87485546D01*
G37*
G36*
X171177395Y-87485546D02*
G01*
X171350466Y-87557234D01*
X171356566Y-87561310D01*
X171506227Y-87661310D01*
X171638690Y-87793773D01*
X171638691Y-87793775D01*
X171742766Y-87949534D01*
X171814454Y-88122605D01*
X171851000Y-88306333D01*
X171851000Y-88493667D01*
X171814454Y-88677395D01*
X171742766Y-88850466D01*
X171742765Y-88850467D01*
X171638690Y-89006227D01*
X171506227Y-89138690D01*
X171427818Y-89191081D01*
X171350466Y-89242766D01*
X171177395Y-89314454D01*
X170993667Y-89351000D01*
X170806333Y-89351000D01*
X170622605Y-89314454D01*
X170449534Y-89242766D01*
X170372182Y-89191081D01*
X170293773Y-89138690D01*
X170161310Y-89006227D01*
X170057235Y-88850467D01*
X170057234Y-88850466D01*
X169985546Y-88677395D01*
X169949000Y-88493667D01*
X169949000Y-88306333D01*
X169985546Y-88122605D01*
X170057234Y-87949534D01*
X170161309Y-87793775D01*
X170161310Y-87793773D01*
X170293773Y-87661310D01*
X170443434Y-87561310D01*
X170449534Y-87557234D01*
X170622605Y-87485546D01*
X170806333Y-87449000D01*
X170993667Y-87449000D01*
X171177395Y-87485546D01*
X171177395Y-87485546D01*
G37*
G36*
X145377395Y-87385546D02*
G01*
X145550466Y-87457234D01*
X145550467Y-87457235D01*
X145706227Y-87561310D01*
X145838690Y-87693773D01*
X145838691Y-87693775D01*
X145942766Y-87849534D01*
X146014454Y-88022605D01*
X146051000Y-88206333D01*
X146051000Y-88393667D01*
X146014454Y-88577395D01*
X145942766Y-88750466D01*
X145942765Y-88750467D01*
X145838690Y-88906227D01*
X145706227Y-89038690D01*
X145627818Y-89091081D01*
X145550466Y-89142766D01*
X145377395Y-89214454D01*
X145193667Y-89251000D01*
X145006333Y-89251000D01*
X144822605Y-89214454D01*
X144649534Y-89142766D01*
X144572182Y-89091081D01*
X144493773Y-89038690D01*
X144361310Y-88906227D01*
X144257235Y-88750467D01*
X144257234Y-88750466D01*
X144185546Y-88577395D01*
X144149000Y-88393667D01*
X144149000Y-88206333D01*
X144185546Y-88022605D01*
X144257234Y-87849534D01*
X144361309Y-87693775D01*
X144361310Y-87693773D01*
X144493773Y-87561310D01*
X144649533Y-87457235D01*
X144649534Y-87457234D01*
X144822605Y-87385546D01*
X145006333Y-87349000D01*
X145193667Y-87349000D01*
X145377395Y-87385546D01*
X145377395Y-87385546D01*
G37*
G36*
X142877395Y-87385546D02*
G01*
X143050466Y-87457234D01*
X143050467Y-87457235D01*
X143206227Y-87561310D01*
X143338690Y-87693773D01*
X143338691Y-87693775D01*
X143442766Y-87849534D01*
X143514454Y-88022605D01*
X143551000Y-88206333D01*
X143551000Y-88393667D01*
X143514454Y-88577395D01*
X143442766Y-88750466D01*
X143442765Y-88750467D01*
X143338690Y-88906227D01*
X143206227Y-89038690D01*
X143127818Y-89091081D01*
X143050466Y-89142766D01*
X142877395Y-89214454D01*
X142693667Y-89251000D01*
X142506333Y-89251000D01*
X142322605Y-89214454D01*
X142149534Y-89142766D01*
X142072182Y-89091081D01*
X141993773Y-89038690D01*
X141861310Y-88906227D01*
X141757235Y-88750467D01*
X141757234Y-88750466D01*
X141685546Y-88577395D01*
X141649000Y-88393667D01*
X141649000Y-88206333D01*
X141685546Y-88022605D01*
X141757234Y-87849534D01*
X141861309Y-87693775D01*
X141861310Y-87693773D01*
X141993773Y-87561310D01*
X142149533Y-87457235D01*
X142149534Y-87457234D01*
X142322605Y-87385546D01*
X142506333Y-87349000D01*
X142693667Y-87349000D01*
X142877395Y-87385546D01*
X142877395Y-87385546D01*
G37*
G36*
X140377395Y-87385546D02*
G01*
X140550466Y-87457234D01*
X140550467Y-87457235D01*
X140706227Y-87561310D01*
X140838690Y-87693773D01*
X140838691Y-87693775D01*
X140942766Y-87849534D01*
X141014454Y-88022605D01*
X141051000Y-88206333D01*
X141051000Y-88393667D01*
X141014454Y-88577395D01*
X140942766Y-88750466D01*
X140942765Y-88750467D01*
X140838690Y-88906227D01*
X140706227Y-89038690D01*
X140627818Y-89091081D01*
X140550466Y-89142766D01*
X140377395Y-89214454D01*
X140193667Y-89251000D01*
X140006333Y-89251000D01*
X139822605Y-89214454D01*
X139649534Y-89142766D01*
X139572182Y-89091081D01*
X139493773Y-89038690D01*
X139361310Y-88906227D01*
X139257235Y-88750467D01*
X139257234Y-88750466D01*
X139185546Y-88577395D01*
X139149000Y-88393667D01*
X139149000Y-88206333D01*
X139185546Y-88022605D01*
X139257234Y-87849534D01*
X139361309Y-87693775D01*
X139361310Y-87693773D01*
X139493773Y-87561310D01*
X139649533Y-87457235D01*
X139649534Y-87457234D01*
X139822605Y-87385546D01*
X140006333Y-87349000D01*
X140193667Y-87349000D01*
X140377395Y-87385546D01*
X140377395Y-87385546D01*
G37*
G36*
X131277395Y-87385546D02*
G01*
X131450466Y-87457234D01*
X131450467Y-87457235D01*
X131606227Y-87561310D01*
X131738690Y-87693773D01*
X131738691Y-87693775D01*
X131842766Y-87849534D01*
X131914454Y-88022605D01*
X131951000Y-88206333D01*
X131951000Y-88393667D01*
X131914454Y-88577395D01*
X131842766Y-88750466D01*
X131842765Y-88750467D01*
X131738690Y-88906227D01*
X131606227Y-89038690D01*
X131527818Y-89091081D01*
X131450466Y-89142766D01*
X131277395Y-89214454D01*
X131093667Y-89251000D01*
X130906333Y-89251000D01*
X130722605Y-89214454D01*
X130549534Y-89142766D01*
X130472182Y-89091081D01*
X130393773Y-89038690D01*
X130261310Y-88906227D01*
X130157235Y-88750467D01*
X130157234Y-88750466D01*
X130085546Y-88577395D01*
X130049000Y-88393667D01*
X130049000Y-88206333D01*
X130085546Y-88022605D01*
X130157234Y-87849534D01*
X130261309Y-87693775D01*
X130261310Y-87693773D01*
X130393773Y-87561310D01*
X130549533Y-87457235D01*
X130549534Y-87457234D01*
X130722605Y-87385546D01*
X130906333Y-87349000D01*
X131093667Y-87349000D01*
X131277395Y-87385546D01*
X131277395Y-87385546D01*
G37*
G36*
X128777395Y-87385546D02*
G01*
X128950466Y-87457234D01*
X128950467Y-87457235D01*
X129106227Y-87561310D01*
X129238690Y-87693773D01*
X129238691Y-87693775D01*
X129342766Y-87849534D01*
X129414454Y-88022605D01*
X129451000Y-88206333D01*
X129451000Y-88393667D01*
X129414454Y-88577395D01*
X129342766Y-88750466D01*
X129342765Y-88750467D01*
X129238690Y-88906227D01*
X129106227Y-89038690D01*
X129027818Y-89091081D01*
X128950466Y-89142766D01*
X128777395Y-89214454D01*
X128593667Y-89251000D01*
X128406333Y-89251000D01*
X128222605Y-89214454D01*
X128049534Y-89142766D01*
X127972182Y-89091081D01*
X127893773Y-89038690D01*
X127761310Y-88906227D01*
X127657235Y-88750467D01*
X127657234Y-88750466D01*
X127585546Y-88577395D01*
X127549000Y-88393667D01*
X127549000Y-88206333D01*
X127585546Y-88022605D01*
X127657234Y-87849534D01*
X127761309Y-87693775D01*
X127761310Y-87693773D01*
X127893773Y-87561310D01*
X128049533Y-87457235D01*
X128049534Y-87457234D01*
X128222605Y-87385546D01*
X128406333Y-87349000D01*
X128593667Y-87349000D01*
X128777395Y-87385546D01*
X128777395Y-87385546D01*
G37*
G36*
X126277395Y-87385546D02*
G01*
X126450466Y-87457234D01*
X126450467Y-87457235D01*
X126606227Y-87561310D01*
X126738690Y-87693773D01*
X126738691Y-87693775D01*
X126842766Y-87849534D01*
X126914454Y-88022605D01*
X126951000Y-88206333D01*
X126951000Y-88393667D01*
X126914454Y-88577395D01*
X126842766Y-88750466D01*
X126842765Y-88750467D01*
X126738690Y-88906227D01*
X126606227Y-89038690D01*
X126527818Y-89091081D01*
X126450466Y-89142766D01*
X126277395Y-89214454D01*
X126093667Y-89251000D01*
X125906333Y-89251000D01*
X125722605Y-89214454D01*
X125549534Y-89142766D01*
X125472182Y-89091081D01*
X125393773Y-89038690D01*
X125261310Y-88906227D01*
X125157235Y-88750467D01*
X125157234Y-88750466D01*
X125085546Y-88577395D01*
X125049000Y-88393667D01*
X125049000Y-88206333D01*
X125085546Y-88022605D01*
X125157234Y-87849534D01*
X125261309Y-87693775D01*
X125261310Y-87693773D01*
X125393773Y-87561310D01*
X125549533Y-87457235D01*
X125549534Y-87457234D01*
X125722605Y-87385546D01*
X125906333Y-87349000D01*
X126093667Y-87349000D01*
X126277395Y-87385546D01*
X126277395Y-87385546D01*
G37*
G36*
X196875256Y-84891298D02*
G01*
X196981579Y-84912447D01*
X197282042Y-85036903D01*
X197552451Y-85217585D01*
X197782415Y-85447549D01*
X197963097Y-85717958D01*
X198087553Y-86018421D01*
X198151000Y-86337391D01*
X198151000Y-86662609D01*
X198087553Y-86981579D01*
X197963097Y-87282042D01*
X197782415Y-87552451D01*
X197552451Y-87782415D01*
X197282042Y-87963097D01*
X197282041Y-87963098D01*
X197282040Y-87963098D01*
X197194037Y-87999550D01*
X196981579Y-88087553D01*
X196875256Y-88108702D01*
X196662611Y-88151000D01*
X196337389Y-88151000D01*
X196124744Y-88108702D01*
X196018421Y-88087553D01*
X195805963Y-87999550D01*
X195717960Y-87963098D01*
X195717959Y-87963098D01*
X195717958Y-87963097D01*
X195447549Y-87782415D01*
X195217585Y-87552451D01*
X195036903Y-87282042D01*
X194912447Y-86981579D01*
X194849000Y-86662609D01*
X194849000Y-86337391D01*
X194912447Y-86018421D01*
X195036903Y-85717958D01*
X195217585Y-85447549D01*
X195447549Y-85217585D01*
X195717958Y-85036903D01*
X196018421Y-84912447D01*
X196124744Y-84891298D01*
X196337389Y-84849000D01*
X196662611Y-84849000D01*
X196875256Y-84891298D01*
X196875256Y-84891298D01*
G37*
G36*
X103875256Y-84891298D02*
G01*
X103981579Y-84912447D01*
X104282042Y-85036903D01*
X104552451Y-85217585D01*
X104782415Y-85447549D01*
X104963097Y-85717958D01*
X105087553Y-86018421D01*
X105151000Y-86337391D01*
X105151000Y-86662609D01*
X105087553Y-86981579D01*
X104963097Y-87282042D01*
X104782415Y-87552451D01*
X104552451Y-87782415D01*
X104282042Y-87963097D01*
X104282041Y-87963098D01*
X104282040Y-87963098D01*
X104194037Y-87999550D01*
X103981579Y-88087553D01*
X103875256Y-88108702D01*
X103662611Y-88151000D01*
X103337389Y-88151000D01*
X103124744Y-88108702D01*
X103018421Y-88087553D01*
X102805963Y-87999550D01*
X102717960Y-87963098D01*
X102717959Y-87963098D01*
X102717958Y-87963097D01*
X102447549Y-87782415D01*
X102217585Y-87552451D01*
X102036903Y-87282042D01*
X101912447Y-86981579D01*
X101849000Y-86662609D01*
X101849000Y-86337391D01*
X101912447Y-86018421D01*
X102036903Y-85717958D01*
X102217585Y-85447549D01*
X102447549Y-85217585D01*
X102717958Y-85036903D01*
X103018421Y-84912447D01*
X103124744Y-84891298D01*
X103337389Y-84849000D01*
X103662611Y-84849000D01*
X103875256Y-84891298D01*
X103875256Y-84891298D01*
G37*
G36*
X189351000Y-87451000D02*
G01*
X187649000Y-87451000D01*
X187649000Y-85749000D01*
X189351000Y-85749000D01*
X189351000Y-87451000D01*
X189351000Y-87451000D01*
G37*
G36*
X191248228Y-85781703D02*
G01*
X191403100Y-85845853D01*
X191542481Y-85938985D01*
X191661015Y-86057519D01*
X191754147Y-86196900D01*
X191818297Y-86351772D01*
X191851000Y-86516184D01*
X191851000Y-86683816D01*
X191818297Y-86848228D01*
X191754147Y-87003100D01*
X191661015Y-87142481D01*
X191542481Y-87261015D01*
X191403100Y-87354147D01*
X191248228Y-87418297D01*
X191083816Y-87451000D01*
X190916184Y-87451000D01*
X190751772Y-87418297D01*
X190596900Y-87354147D01*
X190457519Y-87261015D01*
X190338985Y-87142481D01*
X190245853Y-87003100D01*
X190181703Y-86848228D01*
X190149000Y-86683816D01*
X190149000Y-86516184D01*
X190181703Y-86351772D01*
X190245853Y-86196900D01*
X190338985Y-86057519D01*
X190457519Y-85938985D01*
X190596900Y-85845853D01*
X190751772Y-85781703D01*
X190916184Y-85749000D01*
X191083816Y-85749000D01*
X191248228Y-85781703D01*
X191248228Y-85781703D01*
G37*
G36*
X118848228Y-83081703D02*
G01*
X119003100Y-83145853D01*
X119142481Y-83238985D01*
X119261015Y-83357519D01*
X119354147Y-83496900D01*
X119418297Y-83651772D01*
X119451000Y-83816184D01*
X119451000Y-83983816D01*
X119418297Y-84148228D01*
X119354147Y-84303100D01*
X119261015Y-84442481D01*
X119142481Y-84561015D01*
X119003100Y-84654147D01*
X118848228Y-84718297D01*
X118683816Y-84751000D01*
X118516184Y-84751000D01*
X118351772Y-84718297D01*
X118196900Y-84654147D01*
X118057519Y-84561015D01*
X117938985Y-84442481D01*
X117845853Y-84303100D01*
X117781703Y-84148228D01*
X117749000Y-83983816D01*
X117749000Y-83816184D01*
X117781703Y-83651772D01*
X117845853Y-83496900D01*
X117938985Y-83357519D01*
X118057519Y-83238985D01*
X118196900Y-83145853D01*
X118351772Y-83081703D01*
X118516184Y-83049000D01*
X118683816Y-83049000D01*
X118848228Y-83081703D01*
X118848228Y-83081703D01*
G37*
G36*
X184748228Y-83081703D02*
G01*
X184903100Y-83145853D01*
X185042481Y-83238985D01*
X185161015Y-83357519D01*
X185254147Y-83496900D01*
X185318297Y-83651772D01*
X185351000Y-83816184D01*
X185351000Y-83983816D01*
X185318297Y-84148228D01*
X185254147Y-84303100D01*
X185161015Y-84442481D01*
X185042481Y-84561015D01*
X184903100Y-84654147D01*
X184748228Y-84718297D01*
X184583816Y-84751000D01*
X184416184Y-84751000D01*
X184251772Y-84718297D01*
X184096900Y-84654147D01*
X183957519Y-84561015D01*
X183838985Y-84442481D01*
X183745853Y-84303100D01*
X183681703Y-84148228D01*
X183649000Y-83983816D01*
X183649000Y-83816184D01*
X183681703Y-83651772D01*
X183745853Y-83496900D01*
X183838985Y-83357519D01*
X183957519Y-83238985D01*
X184096900Y-83145853D01*
X184251772Y-83081703D01*
X184416184Y-83049000D01*
X184583816Y-83049000D01*
X184748228Y-83081703D01*
X184748228Y-83081703D01*
G37*
G36*
X114048228Y-83081703D02*
G01*
X114203100Y-83145853D01*
X114342481Y-83238985D01*
X114461015Y-83357519D01*
X114554147Y-83496900D01*
X114618297Y-83651772D01*
X114651000Y-83816184D01*
X114651000Y-83983816D01*
X114618297Y-84148228D01*
X114554147Y-84303100D01*
X114461015Y-84442481D01*
X114342481Y-84561015D01*
X114203100Y-84654147D01*
X114048228Y-84718297D01*
X113883816Y-84751000D01*
X113716184Y-84751000D01*
X113551772Y-84718297D01*
X113396900Y-84654147D01*
X113257519Y-84561015D01*
X113138985Y-84442481D01*
X113045853Y-84303100D01*
X112981703Y-84148228D01*
X112949000Y-83983816D01*
X112949000Y-83816184D01*
X112981703Y-83651772D01*
X113045853Y-83496900D01*
X113138985Y-83357519D01*
X113257519Y-83238985D01*
X113396900Y-83145853D01*
X113551772Y-83081703D01*
X113716184Y-83049000D01*
X113883816Y-83049000D01*
X114048228Y-83081703D01*
X114048228Y-83081703D01*
G37*
G36*
X109348228Y-83081703D02*
G01*
X109503100Y-83145853D01*
X109642481Y-83238985D01*
X109761015Y-83357519D01*
X109854147Y-83496900D01*
X109918297Y-83651772D01*
X109951000Y-83816184D01*
X109951000Y-83983816D01*
X109918297Y-84148228D01*
X109854147Y-84303100D01*
X109761015Y-84442481D01*
X109642481Y-84561015D01*
X109503100Y-84654147D01*
X109348228Y-84718297D01*
X109183816Y-84751000D01*
X109016184Y-84751000D01*
X108851772Y-84718297D01*
X108696900Y-84654147D01*
X108557519Y-84561015D01*
X108438985Y-84442481D01*
X108345853Y-84303100D01*
X108281703Y-84148228D01*
X108249000Y-83983816D01*
X108249000Y-83816184D01*
X108281703Y-83651772D01*
X108345853Y-83496900D01*
X108438985Y-83357519D01*
X108557519Y-83238985D01*
X108696900Y-83145853D01*
X108851772Y-83081703D01*
X109016184Y-83049000D01*
X109183816Y-83049000D01*
X109348228Y-83081703D01*
X109348228Y-83081703D01*
G37*
G36*
X180148228Y-82981703D02*
G01*
X180303100Y-83045853D01*
X180442481Y-83138985D01*
X180561015Y-83257519D01*
X180654147Y-83396900D01*
X180718297Y-83551772D01*
X180751000Y-83716184D01*
X180751000Y-83883816D01*
X180718297Y-84048228D01*
X180654147Y-84203100D01*
X180561015Y-84342481D01*
X180442481Y-84461015D01*
X180303100Y-84554147D01*
X180148228Y-84618297D01*
X179983816Y-84651000D01*
X179816184Y-84651000D01*
X179651772Y-84618297D01*
X179496900Y-84554147D01*
X179357519Y-84461015D01*
X179238985Y-84342481D01*
X179145853Y-84203100D01*
X179081703Y-84048228D01*
X179049000Y-83883816D01*
X179049000Y-83716184D01*
X179081703Y-83551772D01*
X179145853Y-83396900D01*
X179238985Y-83257519D01*
X179357519Y-83138985D01*
X179496900Y-83045853D01*
X179651772Y-82981703D01*
X179816184Y-82949000D01*
X179983816Y-82949000D01*
X180148228Y-82981703D01*
X180148228Y-82981703D01*
G37*
G36*
X166748254Y-78927818D02*
G01*
X167107885Y-79076782D01*
X167121513Y-79082427D01*
X167333920Y-79224353D01*
X167457436Y-79306884D01*
X167743116Y-79592564D01*
X167967574Y-79928489D01*
X168122182Y-80301746D01*
X168201000Y-80697993D01*
X168201000Y-81102007D01*
X168122182Y-81498254D01*
X167990693Y-81815697D01*
X167967573Y-81871513D01*
X167743116Y-82207436D01*
X167457436Y-82493116D01*
X167121513Y-82717573D01*
X167121512Y-82717574D01*
X167121511Y-82717574D01*
X166748254Y-82872182D01*
X166352007Y-82951000D01*
X165947993Y-82951000D01*
X165551746Y-82872182D01*
X165178489Y-82717574D01*
X165178488Y-82717574D01*
X165178487Y-82717573D01*
X164842564Y-82493116D01*
X164556884Y-82207436D01*
X164332427Y-81871513D01*
X164309307Y-81815697D01*
X164177818Y-81498254D01*
X164099000Y-81102007D01*
X164099000Y-80697993D01*
X164177818Y-80301746D01*
X164332426Y-79928489D01*
X164556884Y-79592564D01*
X164842564Y-79306884D01*
X164966080Y-79224353D01*
X165178487Y-79082427D01*
X165192115Y-79076782D01*
X165551746Y-78927818D01*
X165947993Y-78849000D01*
X166352007Y-78849000D01*
X166748254Y-78927818D01*
X166748254Y-78927818D01*
G37*
G36*
X152548254Y-78927818D02*
G01*
X152907885Y-79076782D01*
X152921513Y-79082427D01*
X153133920Y-79224353D01*
X153257436Y-79306884D01*
X153543116Y-79592564D01*
X153767574Y-79928489D01*
X153922182Y-80301746D01*
X154001000Y-80697993D01*
X154001000Y-81102007D01*
X153922182Y-81498254D01*
X153790693Y-81815697D01*
X153767573Y-81871513D01*
X153543116Y-82207436D01*
X153257436Y-82493116D01*
X152921513Y-82717573D01*
X152921512Y-82717574D01*
X152921511Y-82717574D01*
X152548254Y-82872182D01*
X152152007Y-82951000D01*
X151747993Y-82951000D01*
X151351746Y-82872182D01*
X150978489Y-82717574D01*
X150978488Y-82717574D01*
X150978487Y-82717573D01*
X150642564Y-82493116D01*
X150356884Y-82207436D01*
X150132427Y-81871513D01*
X150109307Y-81815697D01*
X149977818Y-81498254D01*
X149899000Y-81102007D01*
X149899000Y-80697993D01*
X149977818Y-80301746D01*
X150132426Y-79928489D01*
X150356884Y-79592564D01*
X150642564Y-79306884D01*
X150766080Y-79224353D01*
X150978487Y-79082427D01*
X150992115Y-79076782D01*
X151351746Y-78927818D01*
X151747993Y-78849000D01*
X152152007Y-78849000D01*
X152548254Y-78927818D01*
X152548254Y-78927818D01*
G37*
G36*
X176248254Y-78927818D02*
G01*
X176607885Y-79076782D01*
X176621513Y-79082427D01*
X176833920Y-79224353D01*
X176957436Y-79306884D01*
X177243116Y-79592564D01*
X177467574Y-79928489D01*
X177622182Y-80301746D01*
X177701000Y-80697993D01*
X177701000Y-81102007D01*
X177622182Y-81498254D01*
X177490693Y-81815697D01*
X177467573Y-81871513D01*
X177243116Y-82207436D01*
X176957436Y-82493116D01*
X176621513Y-82717573D01*
X176621512Y-82717574D01*
X176621511Y-82717574D01*
X176248254Y-82872182D01*
X175852007Y-82951000D01*
X175447993Y-82951000D01*
X175051746Y-82872182D01*
X174678489Y-82717574D01*
X174678488Y-82717574D01*
X174678487Y-82717573D01*
X174342564Y-82493116D01*
X174056884Y-82207436D01*
X173832427Y-81871513D01*
X173809307Y-81815697D01*
X173677818Y-81498254D01*
X173599000Y-81102007D01*
X173599000Y-80697993D01*
X173677818Y-80301746D01*
X173832426Y-79928489D01*
X174056884Y-79592564D01*
X174342564Y-79306884D01*
X174466080Y-79224353D01*
X174678487Y-79082427D01*
X174692115Y-79076782D01*
X175051746Y-78927818D01*
X175447993Y-78849000D01*
X175852007Y-78849000D01*
X176248254Y-78927818D01*
X176248254Y-78927818D01*
G37*
G36*
X162048254Y-78927818D02*
G01*
X162407885Y-79076782D01*
X162421513Y-79082427D01*
X162633920Y-79224353D01*
X162757436Y-79306884D01*
X163043116Y-79592564D01*
X163267574Y-79928489D01*
X163422182Y-80301746D01*
X163501000Y-80697993D01*
X163501000Y-81102007D01*
X163422182Y-81498254D01*
X163290693Y-81815697D01*
X163267573Y-81871513D01*
X163043116Y-82207436D01*
X162757436Y-82493116D01*
X162421513Y-82717573D01*
X162421512Y-82717574D01*
X162421511Y-82717574D01*
X162048254Y-82872182D01*
X161652007Y-82951000D01*
X161247993Y-82951000D01*
X160851746Y-82872182D01*
X160478489Y-82717574D01*
X160478488Y-82717574D01*
X160478487Y-82717573D01*
X160142564Y-82493116D01*
X159856884Y-82207436D01*
X159632427Y-81871513D01*
X159609307Y-81815697D01*
X159477818Y-81498254D01*
X159399000Y-81102007D01*
X159399000Y-80697993D01*
X159477818Y-80301746D01*
X159632426Y-79928489D01*
X159856884Y-79592564D01*
X160142564Y-79306884D01*
X160266080Y-79224353D01*
X160478487Y-79082427D01*
X160492115Y-79076782D01*
X160851746Y-78927818D01*
X161247993Y-78849000D01*
X161652007Y-78849000D01*
X162048254Y-78927818D01*
X162048254Y-78927818D01*
G37*
G36*
X133848254Y-78827818D02*
G01*
X134207885Y-78976782D01*
X134221513Y-78982427D01*
X134362725Y-79076782D01*
X134557436Y-79206884D01*
X134843116Y-79492564D01*
X135067574Y-79828489D01*
X135222182Y-80201746D01*
X135301000Y-80597993D01*
X135301000Y-81002007D01*
X135222182Y-81398254D01*
X135082107Y-81736425D01*
X135067573Y-81771513D01*
X134843116Y-82107436D01*
X134557436Y-82393116D01*
X134221513Y-82617573D01*
X134221512Y-82617574D01*
X134221511Y-82617574D01*
X133848254Y-82772182D01*
X133452007Y-82851000D01*
X133047993Y-82851000D01*
X132651746Y-82772182D01*
X132278489Y-82617574D01*
X132278488Y-82617574D01*
X132278487Y-82617573D01*
X131942564Y-82393116D01*
X131656884Y-82107436D01*
X131432427Y-81771513D01*
X131417893Y-81736425D01*
X131277818Y-81398254D01*
X131199000Y-81002007D01*
X131199000Y-80597993D01*
X131277818Y-80201746D01*
X131432426Y-79828489D01*
X131656884Y-79492564D01*
X131942564Y-79206884D01*
X132137275Y-79076782D01*
X132278487Y-78982427D01*
X132292115Y-78976782D01*
X132651746Y-78827818D01*
X133047993Y-78749000D01*
X133452007Y-78749000D01*
X133848254Y-78827818D01*
X133848254Y-78827818D01*
G37*
G36*
X124348254Y-78827818D02*
G01*
X124707885Y-78976782D01*
X124721513Y-78982427D01*
X124862725Y-79076782D01*
X125057436Y-79206884D01*
X125343116Y-79492564D01*
X125567574Y-79828489D01*
X125722182Y-80201746D01*
X125801000Y-80597993D01*
X125801000Y-81002007D01*
X125722182Y-81398254D01*
X125582107Y-81736425D01*
X125567573Y-81771513D01*
X125343116Y-82107436D01*
X125057436Y-82393116D01*
X124721513Y-82617573D01*
X124721512Y-82617574D01*
X124721511Y-82617574D01*
X124348254Y-82772182D01*
X123952007Y-82851000D01*
X123547993Y-82851000D01*
X123151746Y-82772182D01*
X122778489Y-82617574D01*
X122778488Y-82617574D01*
X122778487Y-82617573D01*
X122442564Y-82393116D01*
X122156884Y-82107436D01*
X121932427Y-81771513D01*
X121917893Y-81736425D01*
X121777818Y-81398254D01*
X121699000Y-81002007D01*
X121699000Y-80597993D01*
X121777818Y-80201746D01*
X121932426Y-79828489D01*
X122156884Y-79492564D01*
X122442564Y-79206884D01*
X122637275Y-79076782D01*
X122778487Y-78982427D01*
X122792115Y-78976782D01*
X123151746Y-78827818D01*
X123547993Y-78749000D01*
X123952007Y-78749000D01*
X124348254Y-78827818D01*
X124348254Y-78827818D01*
G37*
G36*
X147948254Y-78827818D02*
G01*
X148307885Y-78976782D01*
X148321513Y-78982427D01*
X148462725Y-79076782D01*
X148657436Y-79206884D01*
X148943116Y-79492564D01*
X149167574Y-79828489D01*
X149322182Y-80201746D01*
X149401000Y-80597993D01*
X149401000Y-81002007D01*
X149322182Y-81398254D01*
X149182107Y-81736425D01*
X149167573Y-81771513D01*
X148943116Y-82107436D01*
X148657436Y-82393116D01*
X148321513Y-82617573D01*
X148321512Y-82617574D01*
X148321511Y-82617574D01*
X147948254Y-82772182D01*
X147552007Y-82851000D01*
X147147993Y-82851000D01*
X146751746Y-82772182D01*
X146378489Y-82617574D01*
X146378488Y-82617574D01*
X146378487Y-82617573D01*
X146042564Y-82393116D01*
X145756884Y-82107436D01*
X145532427Y-81771513D01*
X145517893Y-81736425D01*
X145377818Y-81398254D01*
X145299000Y-81002007D01*
X145299000Y-80597993D01*
X145377818Y-80201746D01*
X145532426Y-79828489D01*
X145756884Y-79492564D01*
X146042564Y-79206884D01*
X146237275Y-79076782D01*
X146378487Y-78982427D01*
X146392115Y-78976782D01*
X146751746Y-78827818D01*
X147147993Y-78749000D01*
X147552007Y-78749000D01*
X147948254Y-78827818D01*
X147948254Y-78827818D01*
G37*
G36*
X138448254Y-78827818D02*
G01*
X138807885Y-78976782D01*
X138821513Y-78982427D01*
X138962725Y-79076782D01*
X139157436Y-79206884D01*
X139443116Y-79492564D01*
X139667574Y-79828489D01*
X139822182Y-80201746D01*
X139901000Y-80597993D01*
X139901000Y-81002007D01*
X139822182Y-81398254D01*
X139682107Y-81736425D01*
X139667573Y-81771513D01*
X139443116Y-82107436D01*
X139157436Y-82393116D01*
X138821513Y-82617573D01*
X138821512Y-82617574D01*
X138821511Y-82617574D01*
X138448254Y-82772182D01*
X138052007Y-82851000D01*
X137647993Y-82851000D01*
X137251746Y-82772182D01*
X136878489Y-82617574D01*
X136878488Y-82617574D01*
X136878487Y-82617573D01*
X136542564Y-82393116D01*
X136256884Y-82107436D01*
X136032427Y-81771513D01*
X136017893Y-81736425D01*
X135877818Y-81398254D01*
X135799000Y-81002007D01*
X135799000Y-80597993D01*
X135877818Y-80201746D01*
X136032426Y-79828489D01*
X136256884Y-79492564D01*
X136542564Y-79206884D01*
X136737275Y-79076782D01*
X136878487Y-78982427D01*
X136892115Y-78976782D01*
X137251746Y-78827818D01*
X137647993Y-78749000D01*
X138052007Y-78749000D01*
X138448254Y-78827818D01*
X138448254Y-78827818D01*
G37*
G36*
X189736425Y-80612760D02*
G01*
X189736428Y-80612761D01*
X189736429Y-80612761D01*
X189915693Y-80667140D01*
X189915696Y-80667142D01*
X189915697Y-80667142D01*
X190080903Y-80755446D01*
X190225712Y-80874288D01*
X190344554Y-81019097D01*
X190388870Y-81102007D01*
X190432860Y-81184307D01*
X190487239Y-81363571D01*
X190487240Y-81363575D01*
X190505601Y-81550000D01*
X190487240Y-81736425D01*
X190487239Y-81736428D01*
X190487239Y-81736429D01*
X190432860Y-81915693D01*
X190432858Y-81915696D01*
X190432858Y-81915697D01*
X190344554Y-82080903D01*
X190225712Y-82225712D01*
X190080903Y-82344554D01*
X189975299Y-82401000D01*
X189915693Y-82432860D01*
X189736429Y-82487239D01*
X189736428Y-82487239D01*
X189736425Y-82487240D01*
X189596718Y-82501000D01*
X188303282Y-82501000D01*
X188163575Y-82487240D01*
X188163572Y-82487239D01*
X188163571Y-82487239D01*
X187984307Y-82432860D01*
X187924701Y-82401000D01*
X187819097Y-82344554D01*
X187674288Y-82225712D01*
X187555446Y-82080903D01*
X187467142Y-81915697D01*
X187467142Y-81915696D01*
X187467140Y-81915693D01*
X187412761Y-81736429D01*
X187412761Y-81736428D01*
X187412760Y-81736425D01*
X187394399Y-81550000D01*
X187412760Y-81363575D01*
X187412761Y-81363571D01*
X187467140Y-81184307D01*
X187511130Y-81102007D01*
X187555446Y-81019097D01*
X187674288Y-80874288D01*
X187819097Y-80755446D01*
X187984303Y-80667142D01*
X187984304Y-80667142D01*
X187984307Y-80667140D01*
X188163571Y-80612761D01*
X188163572Y-80612761D01*
X188163575Y-80612760D01*
X188303282Y-80599000D01*
X189596718Y-80599000D01*
X189736425Y-80612760D01*
X189736425Y-80612760D01*
G37*
G36*
X197036425Y-80612760D02*
G01*
X197036428Y-80612761D01*
X197036429Y-80612761D01*
X197215693Y-80667140D01*
X197215696Y-80667142D01*
X197215697Y-80667142D01*
X197380903Y-80755446D01*
X197525712Y-80874288D01*
X197644554Y-81019097D01*
X197688870Y-81102007D01*
X197732860Y-81184307D01*
X197787239Y-81363571D01*
X197787240Y-81363575D01*
X197805601Y-81550000D01*
X197787240Y-81736425D01*
X197787239Y-81736428D01*
X197787239Y-81736429D01*
X197732860Y-81915693D01*
X197732858Y-81915696D01*
X197732858Y-81915697D01*
X197644554Y-82080903D01*
X197525712Y-82225712D01*
X197380903Y-82344554D01*
X197275299Y-82401000D01*
X197215693Y-82432860D01*
X197036429Y-82487239D01*
X197036428Y-82487239D01*
X197036425Y-82487240D01*
X196896718Y-82501000D01*
X195603282Y-82501000D01*
X195463575Y-82487240D01*
X195463572Y-82487239D01*
X195463571Y-82487239D01*
X195284307Y-82432860D01*
X195224701Y-82401000D01*
X195119097Y-82344554D01*
X194974288Y-82225712D01*
X194855446Y-82080903D01*
X194767142Y-81915697D01*
X194767142Y-81915696D01*
X194767140Y-81915693D01*
X194712761Y-81736429D01*
X194712761Y-81736428D01*
X194712760Y-81736425D01*
X194694399Y-81550000D01*
X194712760Y-81363575D01*
X194712761Y-81363571D01*
X194767140Y-81184307D01*
X194811130Y-81102007D01*
X194855446Y-81019097D01*
X194974288Y-80874288D01*
X195119097Y-80755446D01*
X195284303Y-80667142D01*
X195284304Y-80667142D01*
X195284307Y-80667140D01*
X195463571Y-80612761D01*
X195463572Y-80612761D01*
X195463575Y-80612760D01*
X195603282Y-80599000D01*
X196896718Y-80599000D01*
X197036425Y-80612760D01*
X197036425Y-80612760D01*
G37*
G36*
X118536425Y-80612760D02*
G01*
X118536428Y-80612761D01*
X118536429Y-80612761D01*
X118715693Y-80667140D01*
X118715696Y-80667142D01*
X118715697Y-80667142D01*
X118880903Y-80755446D01*
X119025712Y-80874288D01*
X119144554Y-81019097D01*
X119188870Y-81102007D01*
X119232860Y-81184307D01*
X119287239Y-81363571D01*
X119287240Y-81363575D01*
X119305601Y-81550000D01*
X119287240Y-81736425D01*
X119287239Y-81736428D01*
X119287239Y-81736429D01*
X119232860Y-81915693D01*
X119232858Y-81915696D01*
X119232858Y-81915697D01*
X119144554Y-82080903D01*
X119025712Y-82225712D01*
X118880903Y-82344554D01*
X118775299Y-82401000D01*
X118715693Y-82432860D01*
X118536429Y-82487239D01*
X118536428Y-82487239D01*
X118536425Y-82487240D01*
X118396718Y-82501000D01*
X117103282Y-82501000D01*
X116963575Y-82487240D01*
X116963572Y-82487239D01*
X116963571Y-82487239D01*
X116784307Y-82432860D01*
X116724701Y-82401000D01*
X116619097Y-82344554D01*
X116474288Y-82225712D01*
X116355446Y-82080903D01*
X116267142Y-81915697D01*
X116267142Y-81915696D01*
X116267140Y-81915693D01*
X116212761Y-81736429D01*
X116212761Y-81736428D01*
X116212760Y-81736425D01*
X116194399Y-81550000D01*
X116212760Y-81363575D01*
X116212761Y-81363571D01*
X116267140Y-81184307D01*
X116311130Y-81102007D01*
X116355446Y-81019097D01*
X116474288Y-80874288D01*
X116619097Y-80755446D01*
X116784303Y-80667142D01*
X116784304Y-80667142D01*
X116784307Y-80667140D01*
X116963571Y-80612761D01*
X116963572Y-80612761D01*
X116963575Y-80612760D01*
X117103282Y-80599000D01*
X118396718Y-80599000D01*
X118536425Y-80612760D01*
X118536425Y-80612760D01*
G37*
G36*
X104036425Y-80612760D02*
G01*
X104036428Y-80612761D01*
X104036429Y-80612761D01*
X104215693Y-80667140D01*
X104215696Y-80667142D01*
X104215697Y-80667142D01*
X104380903Y-80755446D01*
X104525712Y-80874288D01*
X104644554Y-81019097D01*
X104688870Y-81102007D01*
X104732860Y-81184307D01*
X104787239Y-81363571D01*
X104787240Y-81363575D01*
X104805601Y-81550000D01*
X104787240Y-81736425D01*
X104787239Y-81736428D01*
X104787239Y-81736429D01*
X104732860Y-81915693D01*
X104732858Y-81915696D01*
X104732858Y-81915697D01*
X104644554Y-82080903D01*
X104525712Y-82225712D01*
X104380903Y-82344554D01*
X104275299Y-82401000D01*
X104215693Y-82432860D01*
X104036429Y-82487239D01*
X104036428Y-82487239D01*
X104036425Y-82487240D01*
X103896718Y-82501000D01*
X102603282Y-82501000D01*
X102463575Y-82487240D01*
X102463572Y-82487239D01*
X102463571Y-82487239D01*
X102284307Y-82432860D01*
X102224701Y-82401000D01*
X102119097Y-82344554D01*
X101974288Y-82225712D01*
X101855446Y-82080903D01*
X101767142Y-81915697D01*
X101767142Y-81915696D01*
X101767140Y-81915693D01*
X101712761Y-81736429D01*
X101712761Y-81736428D01*
X101712760Y-81736425D01*
X101694399Y-81550000D01*
X101712760Y-81363575D01*
X101712761Y-81363571D01*
X101767140Y-81184307D01*
X101811130Y-81102007D01*
X101855446Y-81019097D01*
X101974288Y-80874288D01*
X102119097Y-80755446D01*
X102284303Y-80667142D01*
X102284304Y-80667142D01*
X102284307Y-80667140D01*
X102463571Y-80612761D01*
X102463572Y-80612761D01*
X102463575Y-80612760D01*
X102603282Y-80599000D01*
X103896718Y-80599000D01*
X104036425Y-80612760D01*
X104036425Y-80612760D01*
G37*
G36*
X182736425Y-80512760D02*
G01*
X182736428Y-80512761D01*
X182736429Y-80512761D01*
X182915693Y-80567140D01*
X182915696Y-80567142D01*
X182915697Y-80567142D01*
X183080903Y-80655446D01*
X183225712Y-80774288D01*
X183344554Y-80919097D01*
X183432858Y-81084303D01*
X183432860Y-81084307D01*
X183487239Y-81263571D01*
X183487240Y-81263575D01*
X183505601Y-81450000D01*
X183487240Y-81636425D01*
X183487239Y-81636428D01*
X183487239Y-81636429D01*
X183432860Y-81815693D01*
X183432858Y-81815696D01*
X183432858Y-81815697D01*
X183344554Y-81980903D01*
X183225712Y-82125712D01*
X183080903Y-82244554D01*
X182915697Y-82332858D01*
X182915693Y-82332860D01*
X182736429Y-82387239D01*
X182736428Y-82387239D01*
X182736425Y-82387240D01*
X182596718Y-82401000D01*
X181303282Y-82401000D01*
X181163575Y-82387240D01*
X181163572Y-82387239D01*
X181163571Y-82387239D01*
X180984307Y-82332860D01*
X180984303Y-82332858D01*
X180819097Y-82244554D01*
X180674288Y-82125712D01*
X180555446Y-81980903D01*
X180467142Y-81815697D01*
X180467142Y-81815696D01*
X180467140Y-81815693D01*
X180412761Y-81636429D01*
X180412761Y-81636428D01*
X180412760Y-81636425D01*
X180394399Y-81450000D01*
X180412760Y-81263575D01*
X180412761Y-81263571D01*
X180467140Y-81084307D01*
X180467142Y-81084303D01*
X180555446Y-80919097D01*
X180674288Y-80774288D01*
X180819097Y-80655446D01*
X180984303Y-80567142D01*
X180984304Y-80567142D01*
X180984307Y-80567140D01*
X181163571Y-80512761D01*
X181163572Y-80512761D01*
X181163575Y-80512760D01*
X181303282Y-80499000D01*
X182596718Y-80499000D01*
X182736425Y-80512760D01*
X182736425Y-80512760D01*
G37*
G36*
X111236425Y-80512760D02*
G01*
X111236428Y-80512761D01*
X111236429Y-80512761D01*
X111415693Y-80567140D01*
X111415696Y-80567142D01*
X111415697Y-80567142D01*
X111580903Y-80655446D01*
X111725712Y-80774288D01*
X111844554Y-80919097D01*
X111932858Y-81084303D01*
X111932860Y-81084307D01*
X111987239Y-81263571D01*
X111987240Y-81263575D01*
X112005601Y-81450000D01*
X111987240Y-81636425D01*
X111987239Y-81636428D01*
X111987239Y-81636429D01*
X111932860Y-81815693D01*
X111932858Y-81815696D01*
X111932858Y-81815697D01*
X111844554Y-81980903D01*
X111725712Y-82125712D01*
X111580903Y-82244554D01*
X111415697Y-82332858D01*
X111415693Y-82332860D01*
X111236429Y-82387239D01*
X111236428Y-82387239D01*
X111236425Y-82387240D01*
X111096718Y-82401000D01*
X109803282Y-82401000D01*
X109663575Y-82387240D01*
X109663572Y-82387239D01*
X109663571Y-82387239D01*
X109484307Y-82332860D01*
X109484303Y-82332858D01*
X109319097Y-82244554D01*
X109174288Y-82125712D01*
X109055446Y-81980903D01*
X108967142Y-81815697D01*
X108967142Y-81815696D01*
X108967140Y-81815693D01*
X108912761Y-81636429D01*
X108912761Y-81636428D01*
X108912760Y-81636425D01*
X108894399Y-81450000D01*
X108912760Y-81263575D01*
X108912761Y-81263571D01*
X108967140Y-81084307D01*
X108967142Y-81084303D01*
X109055446Y-80919097D01*
X109174288Y-80774288D01*
X109319097Y-80655446D01*
X109484303Y-80567142D01*
X109484304Y-80567142D01*
X109484307Y-80567140D01*
X109663571Y-80512761D01*
X109663572Y-80512761D01*
X109663575Y-80512760D01*
X109803282Y-80499000D01*
X111096718Y-80499000D01*
X111236425Y-80512760D01*
X111236425Y-80512760D01*
G37*
G36*
X117901531Y-77751544D02*
G01*
X118062812Y-77783624D01*
X118226784Y-77851544D01*
X118374354Y-77950147D01*
X118499853Y-78075646D01*
X118598456Y-78223216D01*
X118666376Y-78387188D01*
X118681109Y-78461259D01*
X118701000Y-78561258D01*
X118701000Y-78738742D01*
X118696073Y-78763512D01*
X118666376Y-78912812D01*
X118598456Y-79076784D01*
X118499853Y-79224354D01*
X118374354Y-79349853D01*
X118226784Y-79448456D01*
X118062812Y-79516376D01*
X117913512Y-79546073D01*
X117888742Y-79551000D01*
X117711258Y-79551000D01*
X117686488Y-79546073D01*
X117537188Y-79516376D01*
X117373216Y-79448456D01*
X117225646Y-79349853D01*
X117100147Y-79224354D01*
X117001544Y-79076784D01*
X116933624Y-78912812D01*
X116903927Y-78763512D01*
X116899000Y-78738742D01*
X116899000Y-78561258D01*
X116918891Y-78461259D01*
X116933624Y-78387188D01*
X117001544Y-78223216D01*
X117100147Y-78075646D01*
X117225646Y-77950147D01*
X117373216Y-77851544D01*
X117537188Y-77783624D01*
X117698469Y-77751544D01*
X117711258Y-77749000D01*
X117888742Y-77749000D01*
X117901531Y-77751544D01*
X117901531Y-77751544D01*
G37*
G36*
X189101531Y-77751544D02*
G01*
X189262812Y-77783624D01*
X189426784Y-77851544D01*
X189574354Y-77950147D01*
X189699853Y-78075646D01*
X189798456Y-78223216D01*
X189866376Y-78387188D01*
X189881109Y-78461259D01*
X189901000Y-78561258D01*
X189901000Y-78738742D01*
X189896073Y-78763512D01*
X189866376Y-78912812D01*
X189798456Y-79076784D01*
X189699853Y-79224354D01*
X189574354Y-79349853D01*
X189426784Y-79448456D01*
X189262812Y-79516376D01*
X189113512Y-79546073D01*
X189088742Y-79551000D01*
X188911258Y-79551000D01*
X188886488Y-79546073D01*
X188737188Y-79516376D01*
X188573216Y-79448456D01*
X188425646Y-79349853D01*
X188300147Y-79224354D01*
X188201544Y-79076784D01*
X188133624Y-78912812D01*
X188103927Y-78763512D01*
X188099000Y-78738742D01*
X188099000Y-78561258D01*
X188118891Y-78461259D01*
X188133624Y-78387188D01*
X188201544Y-78223216D01*
X188300147Y-78075646D01*
X188425646Y-77950147D01*
X188573216Y-77851544D01*
X188737188Y-77783624D01*
X188898469Y-77751544D01*
X188911258Y-77749000D01*
X189088742Y-77749000D01*
X189101531Y-77751544D01*
X189101531Y-77751544D01*
G37*
G36*
X196401531Y-77751544D02*
G01*
X196562812Y-77783624D01*
X196726784Y-77851544D01*
X196874354Y-77950147D01*
X196999853Y-78075646D01*
X197098456Y-78223216D01*
X197166376Y-78387188D01*
X197181109Y-78461259D01*
X197201000Y-78561258D01*
X197201000Y-78738742D01*
X197196073Y-78763512D01*
X197166376Y-78912812D01*
X197098456Y-79076784D01*
X196999853Y-79224354D01*
X196874354Y-79349853D01*
X196726784Y-79448456D01*
X196562812Y-79516376D01*
X196413512Y-79546073D01*
X196388742Y-79551000D01*
X196211258Y-79551000D01*
X196186488Y-79546073D01*
X196037188Y-79516376D01*
X195873216Y-79448456D01*
X195725646Y-79349853D01*
X195600147Y-79224354D01*
X195501544Y-79076784D01*
X195433624Y-78912812D01*
X195403927Y-78763512D01*
X195399000Y-78738742D01*
X195399000Y-78561258D01*
X195418891Y-78461259D01*
X195433624Y-78387188D01*
X195501544Y-78223216D01*
X195600147Y-78075646D01*
X195725646Y-77950147D01*
X195873216Y-77851544D01*
X196037188Y-77783624D01*
X196198469Y-77751544D01*
X196211258Y-77749000D01*
X196388742Y-77749000D01*
X196401531Y-77751544D01*
X196401531Y-77751544D01*
G37*
G36*
X103401531Y-77751544D02*
G01*
X103562812Y-77783624D01*
X103726784Y-77851544D01*
X103874354Y-77950147D01*
X103999853Y-78075646D01*
X104098456Y-78223216D01*
X104166376Y-78387188D01*
X104181109Y-78461259D01*
X104201000Y-78561258D01*
X104201000Y-78738742D01*
X104196073Y-78763512D01*
X104166376Y-78912812D01*
X104098456Y-79076784D01*
X103999853Y-79224354D01*
X103874354Y-79349853D01*
X103726784Y-79448456D01*
X103562812Y-79516376D01*
X103413512Y-79546073D01*
X103388742Y-79551000D01*
X103211258Y-79551000D01*
X103186488Y-79546073D01*
X103037188Y-79516376D01*
X102873216Y-79448456D01*
X102725646Y-79349853D01*
X102600147Y-79224354D01*
X102501544Y-79076784D01*
X102433624Y-78912812D01*
X102403927Y-78763512D01*
X102399000Y-78738742D01*
X102399000Y-78561258D01*
X102418891Y-78461259D01*
X102433624Y-78387188D01*
X102501544Y-78223216D01*
X102600147Y-78075646D01*
X102725646Y-77950147D01*
X102873216Y-77851544D01*
X103037188Y-77783624D01*
X103198469Y-77751544D01*
X103211258Y-77749000D01*
X103388742Y-77749000D01*
X103401531Y-77751544D01*
X103401531Y-77751544D01*
G37*
G36*
X182113512Y-77653927D02*
G01*
X182262812Y-77683624D01*
X182426784Y-77751544D01*
X182574354Y-77850147D01*
X182699853Y-77975646D01*
X182798456Y-78123216D01*
X182866376Y-78287188D01*
X182901000Y-78461259D01*
X182901000Y-78638741D01*
X182866376Y-78812812D01*
X182798456Y-78976784D01*
X182699853Y-79124354D01*
X182574354Y-79249853D01*
X182426784Y-79348456D01*
X182262812Y-79416376D01*
X182113512Y-79446073D01*
X182088742Y-79451000D01*
X181911258Y-79451000D01*
X181886488Y-79446073D01*
X181737188Y-79416376D01*
X181573216Y-79348456D01*
X181425646Y-79249853D01*
X181300147Y-79124354D01*
X181201544Y-78976784D01*
X181133624Y-78812812D01*
X181099000Y-78638741D01*
X181099000Y-78461259D01*
X181133624Y-78287188D01*
X181201544Y-78123216D01*
X181300147Y-77975646D01*
X181425646Y-77850147D01*
X181573216Y-77751544D01*
X181737188Y-77683624D01*
X181886488Y-77653927D01*
X181911258Y-77649000D01*
X182088742Y-77649000D01*
X182113512Y-77653927D01*
X182113512Y-77653927D01*
G37*
G36*
X110613512Y-77653927D02*
G01*
X110762812Y-77683624D01*
X110926784Y-77751544D01*
X111074354Y-77850147D01*
X111199853Y-77975646D01*
X111298456Y-78123216D01*
X111366376Y-78287188D01*
X111401000Y-78461259D01*
X111401000Y-78638741D01*
X111366376Y-78812812D01*
X111298456Y-78976784D01*
X111199853Y-79124354D01*
X111074354Y-79249853D01*
X110926784Y-79348456D01*
X110762812Y-79416376D01*
X110613512Y-79446073D01*
X110588742Y-79451000D01*
X110411258Y-79451000D01*
X110386488Y-79446073D01*
X110237188Y-79416376D01*
X110073216Y-79348456D01*
X109925646Y-79249853D01*
X109800147Y-79124354D01*
X109701544Y-78976784D01*
X109633624Y-78812812D01*
X109599000Y-78638741D01*
X109599000Y-78461259D01*
X109633624Y-78287188D01*
X109701544Y-78123216D01*
X109800147Y-77975646D01*
X109925646Y-77850147D01*
X110073216Y-77751544D01*
X110237188Y-77683624D01*
X110386488Y-77653927D01*
X110411258Y-77649000D01*
X110588742Y-77649000D01*
X110613512Y-77653927D01*
X110613512Y-77653927D01*
G37*
G36*
X189101531Y-74751544D02*
G01*
X189262812Y-74783624D01*
X189426784Y-74851544D01*
X189574354Y-74950147D01*
X189699853Y-75075646D01*
X189798456Y-75223216D01*
X189866376Y-75387188D01*
X189901000Y-75561259D01*
X189901000Y-75738741D01*
X189866376Y-75912812D01*
X189798456Y-76076784D01*
X189699853Y-76224354D01*
X189574354Y-76349853D01*
X189426784Y-76448456D01*
X189262812Y-76516376D01*
X189113512Y-76546073D01*
X189088742Y-76551000D01*
X188911258Y-76551000D01*
X188886488Y-76546073D01*
X188737188Y-76516376D01*
X188573216Y-76448456D01*
X188425646Y-76349853D01*
X188300147Y-76224354D01*
X188201544Y-76076784D01*
X188133624Y-75912812D01*
X188099000Y-75738741D01*
X188099000Y-75561259D01*
X188133624Y-75387188D01*
X188201544Y-75223216D01*
X188300147Y-75075646D01*
X188425646Y-74950147D01*
X188573216Y-74851544D01*
X188737188Y-74783624D01*
X188898469Y-74751544D01*
X188911258Y-74749000D01*
X189088742Y-74749000D01*
X189101531Y-74751544D01*
X189101531Y-74751544D01*
G37*
G36*
X196401531Y-74751544D02*
G01*
X196562812Y-74783624D01*
X196726784Y-74851544D01*
X196874354Y-74950147D01*
X196999853Y-75075646D01*
X197098456Y-75223216D01*
X197166376Y-75387188D01*
X197201000Y-75561259D01*
X197201000Y-75738741D01*
X197166376Y-75912812D01*
X197098456Y-76076784D01*
X196999853Y-76224354D01*
X196874354Y-76349853D01*
X196726784Y-76448456D01*
X196562812Y-76516376D01*
X196413512Y-76546073D01*
X196388742Y-76551000D01*
X196211258Y-76551000D01*
X196186488Y-76546073D01*
X196037188Y-76516376D01*
X195873216Y-76448456D01*
X195725646Y-76349853D01*
X195600147Y-76224354D01*
X195501544Y-76076784D01*
X195433624Y-75912812D01*
X195399000Y-75738741D01*
X195399000Y-75561259D01*
X195433624Y-75387188D01*
X195501544Y-75223216D01*
X195600147Y-75075646D01*
X195725646Y-74950147D01*
X195873216Y-74851544D01*
X196037188Y-74783624D01*
X196198469Y-74751544D01*
X196211258Y-74749000D01*
X196388742Y-74749000D01*
X196401531Y-74751544D01*
X196401531Y-74751544D01*
G37*
G36*
X117901531Y-74751544D02*
G01*
X118062812Y-74783624D01*
X118226784Y-74851544D01*
X118374354Y-74950147D01*
X118499853Y-75075646D01*
X118598456Y-75223216D01*
X118666376Y-75387188D01*
X118701000Y-75561259D01*
X118701000Y-75738741D01*
X118666376Y-75912812D01*
X118598456Y-76076784D01*
X118499853Y-76224354D01*
X118374354Y-76349853D01*
X118226784Y-76448456D01*
X118062812Y-76516376D01*
X117913512Y-76546073D01*
X117888742Y-76551000D01*
X117711258Y-76551000D01*
X117686488Y-76546073D01*
X117537188Y-76516376D01*
X117373216Y-76448456D01*
X117225646Y-76349853D01*
X117100147Y-76224354D01*
X117001544Y-76076784D01*
X116933624Y-75912812D01*
X116899000Y-75738741D01*
X116899000Y-75561259D01*
X116933624Y-75387188D01*
X117001544Y-75223216D01*
X117100147Y-75075646D01*
X117225646Y-74950147D01*
X117373216Y-74851544D01*
X117537188Y-74783624D01*
X117698469Y-74751544D01*
X117711258Y-74749000D01*
X117888742Y-74749000D01*
X117901531Y-74751544D01*
X117901531Y-74751544D01*
G37*
G36*
X103401531Y-74751544D02*
G01*
X103562812Y-74783624D01*
X103726784Y-74851544D01*
X103874354Y-74950147D01*
X103999853Y-75075646D01*
X104098456Y-75223216D01*
X104166376Y-75387188D01*
X104201000Y-75561259D01*
X104201000Y-75738741D01*
X104166376Y-75912812D01*
X104098456Y-76076784D01*
X103999853Y-76224354D01*
X103874354Y-76349853D01*
X103726784Y-76448456D01*
X103562812Y-76516376D01*
X103413512Y-76546073D01*
X103388742Y-76551000D01*
X103211258Y-76551000D01*
X103186488Y-76546073D01*
X103037188Y-76516376D01*
X102873216Y-76448456D01*
X102725646Y-76349853D01*
X102600147Y-76224354D01*
X102501544Y-76076784D01*
X102433624Y-75912812D01*
X102399000Y-75738741D01*
X102399000Y-75561259D01*
X102433624Y-75387188D01*
X102501544Y-75223216D01*
X102600147Y-75075646D01*
X102725646Y-74950147D01*
X102873216Y-74851544D01*
X103037188Y-74783624D01*
X103198469Y-74751544D01*
X103211258Y-74749000D01*
X103388742Y-74749000D01*
X103401531Y-74751544D01*
X103401531Y-74751544D01*
G37*
G36*
X182113512Y-74653927D02*
G01*
X182262812Y-74683624D01*
X182426784Y-74751544D01*
X182574354Y-74850147D01*
X182699853Y-74975646D01*
X182798456Y-75123216D01*
X182866376Y-75287188D01*
X182901000Y-75461259D01*
X182901000Y-75638741D01*
X182866376Y-75812812D01*
X182798456Y-75976784D01*
X182699853Y-76124354D01*
X182574354Y-76249853D01*
X182426784Y-76348456D01*
X182262812Y-76416376D01*
X182113512Y-76446073D01*
X182088742Y-76451000D01*
X181911258Y-76451000D01*
X181886488Y-76446073D01*
X181737188Y-76416376D01*
X181573216Y-76348456D01*
X181425646Y-76249853D01*
X181300147Y-76124354D01*
X181201544Y-75976784D01*
X181133624Y-75812812D01*
X181099000Y-75638741D01*
X181099000Y-75461259D01*
X181133624Y-75287188D01*
X181201544Y-75123216D01*
X181300147Y-74975646D01*
X181425646Y-74850147D01*
X181573216Y-74751544D01*
X181737188Y-74683624D01*
X181886488Y-74653927D01*
X181911258Y-74649000D01*
X182088742Y-74649000D01*
X182113512Y-74653927D01*
X182113512Y-74653927D01*
G37*
G36*
X110613512Y-74653927D02*
G01*
X110762812Y-74683624D01*
X110926784Y-74751544D01*
X111074354Y-74850147D01*
X111199853Y-74975646D01*
X111298456Y-75123216D01*
X111366376Y-75287188D01*
X111401000Y-75461259D01*
X111401000Y-75638741D01*
X111366376Y-75812812D01*
X111298456Y-75976784D01*
X111199853Y-76124354D01*
X111074354Y-76249853D01*
X110926784Y-76348456D01*
X110762812Y-76416376D01*
X110613512Y-76446073D01*
X110588742Y-76451000D01*
X110411258Y-76451000D01*
X110386488Y-76446073D01*
X110237188Y-76416376D01*
X110073216Y-76348456D01*
X109925646Y-76249853D01*
X109800147Y-76124354D01*
X109701544Y-75976784D01*
X109633624Y-75812812D01*
X109599000Y-75638741D01*
X109599000Y-75461259D01*
X109633624Y-75287188D01*
X109701544Y-75123216D01*
X109800147Y-74975646D01*
X109925646Y-74850147D01*
X110073216Y-74751544D01*
X110237188Y-74683624D01*
X110386488Y-74653927D01*
X110411258Y-74649000D01*
X110588742Y-74649000D01*
X110613512Y-74653927D01*
X110613512Y-74653927D01*
G37*
G36*
X103401531Y-71751544D02*
G01*
X103562812Y-71783624D01*
X103726784Y-71851544D01*
X103874354Y-71950147D01*
X103999853Y-72075646D01*
X104098456Y-72223216D01*
X104166376Y-72387188D01*
X104201000Y-72561259D01*
X104201000Y-72738741D01*
X104166376Y-72912812D01*
X104098456Y-73076784D01*
X103999853Y-73224354D01*
X103874354Y-73349853D01*
X103726784Y-73448456D01*
X103562812Y-73516376D01*
X103413512Y-73546073D01*
X103388742Y-73551000D01*
X103211258Y-73551000D01*
X103186488Y-73546073D01*
X103037188Y-73516376D01*
X102873216Y-73448456D01*
X102725646Y-73349853D01*
X102600147Y-73224354D01*
X102501544Y-73076784D01*
X102433624Y-72912812D01*
X102399000Y-72738741D01*
X102399000Y-72561259D01*
X102433624Y-72387188D01*
X102501544Y-72223216D01*
X102600147Y-72075646D01*
X102725646Y-71950147D01*
X102873216Y-71851544D01*
X103037188Y-71783624D01*
X103198469Y-71751544D01*
X103211258Y-71749000D01*
X103388742Y-71749000D01*
X103401531Y-71751544D01*
X103401531Y-71751544D01*
G37*
G36*
X196401531Y-71751544D02*
G01*
X196562812Y-71783624D01*
X196726784Y-71851544D01*
X196874354Y-71950147D01*
X196999853Y-72075646D01*
X197098456Y-72223216D01*
X197166376Y-72387188D01*
X197201000Y-72561259D01*
X197201000Y-72738741D01*
X197166376Y-72912812D01*
X197098456Y-73076784D01*
X196999853Y-73224354D01*
X196874354Y-73349853D01*
X196726784Y-73448456D01*
X196562812Y-73516376D01*
X196413512Y-73546073D01*
X196388742Y-73551000D01*
X196211258Y-73551000D01*
X196186488Y-73546073D01*
X196037188Y-73516376D01*
X195873216Y-73448456D01*
X195725646Y-73349853D01*
X195600147Y-73224354D01*
X195501544Y-73076784D01*
X195433624Y-72912812D01*
X195399000Y-72738741D01*
X195399000Y-72561259D01*
X195433624Y-72387188D01*
X195501544Y-72223216D01*
X195600147Y-72075646D01*
X195725646Y-71950147D01*
X195873216Y-71851544D01*
X196037188Y-71783624D01*
X196198469Y-71751544D01*
X196211258Y-71749000D01*
X196388742Y-71749000D01*
X196401531Y-71751544D01*
X196401531Y-71751544D01*
G37*
G36*
X189101531Y-71751544D02*
G01*
X189262812Y-71783624D01*
X189426784Y-71851544D01*
X189574354Y-71950147D01*
X189699853Y-72075646D01*
X189798456Y-72223216D01*
X189866376Y-72387188D01*
X189901000Y-72561259D01*
X189901000Y-72738741D01*
X189866376Y-72912812D01*
X189798456Y-73076784D01*
X189699853Y-73224354D01*
X189574354Y-73349853D01*
X189426784Y-73448456D01*
X189262812Y-73516376D01*
X189113512Y-73546073D01*
X189088742Y-73551000D01*
X188911258Y-73551000D01*
X188886488Y-73546073D01*
X188737188Y-73516376D01*
X188573216Y-73448456D01*
X188425646Y-73349853D01*
X188300147Y-73224354D01*
X188201544Y-73076784D01*
X188133624Y-72912812D01*
X188099000Y-72738741D01*
X188099000Y-72561259D01*
X188133624Y-72387188D01*
X188201544Y-72223216D01*
X188300147Y-72075646D01*
X188425646Y-71950147D01*
X188573216Y-71851544D01*
X188737188Y-71783624D01*
X188898469Y-71751544D01*
X188911258Y-71749000D01*
X189088742Y-71749000D01*
X189101531Y-71751544D01*
X189101531Y-71751544D01*
G37*
G36*
X117901531Y-71751544D02*
G01*
X118062812Y-71783624D01*
X118226784Y-71851544D01*
X118374354Y-71950147D01*
X118499853Y-72075646D01*
X118598456Y-72223216D01*
X118666376Y-72387188D01*
X118701000Y-72561259D01*
X118701000Y-72738741D01*
X118666376Y-72912812D01*
X118598456Y-73076784D01*
X118499853Y-73224354D01*
X118374354Y-73349853D01*
X118226784Y-73448456D01*
X118062812Y-73516376D01*
X117913512Y-73546073D01*
X117888742Y-73551000D01*
X117711258Y-73551000D01*
X117686488Y-73546073D01*
X117537188Y-73516376D01*
X117373216Y-73448456D01*
X117225646Y-73349853D01*
X117100147Y-73224354D01*
X117001544Y-73076784D01*
X116933624Y-72912812D01*
X116899000Y-72738741D01*
X116899000Y-72561259D01*
X116933624Y-72387188D01*
X117001544Y-72223216D01*
X117100147Y-72075646D01*
X117225646Y-71950147D01*
X117373216Y-71851544D01*
X117537188Y-71783624D01*
X117698469Y-71751544D01*
X117711258Y-71749000D01*
X117888742Y-71749000D01*
X117901531Y-71751544D01*
X117901531Y-71751544D01*
G37*
G36*
X110613512Y-71653927D02*
G01*
X110762812Y-71683624D01*
X110926784Y-71751544D01*
X111074354Y-71850147D01*
X111199853Y-71975646D01*
X111298456Y-72123216D01*
X111366376Y-72287188D01*
X111401000Y-72461259D01*
X111401000Y-72638741D01*
X111366376Y-72812812D01*
X111298456Y-72976784D01*
X111199853Y-73124354D01*
X111074354Y-73249853D01*
X110926784Y-73348456D01*
X110762812Y-73416376D01*
X110613512Y-73446073D01*
X110588742Y-73451000D01*
X110411258Y-73451000D01*
X110386488Y-73446073D01*
X110237188Y-73416376D01*
X110073216Y-73348456D01*
X109925646Y-73249853D01*
X109800147Y-73124354D01*
X109701544Y-72976784D01*
X109633624Y-72812812D01*
X109599000Y-72638741D01*
X109599000Y-72461259D01*
X109633624Y-72287188D01*
X109701544Y-72123216D01*
X109800147Y-71975646D01*
X109925646Y-71850147D01*
X110073216Y-71751544D01*
X110237188Y-71683624D01*
X110386488Y-71653927D01*
X110411258Y-71649000D01*
X110588742Y-71649000D01*
X110613512Y-71653927D01*
X110613512Y-71653927D01*
G37*
G36*
X182113512Y-71653927D02*
G01*
X182262812Y-71683624D01*
X182426784Y-71751544D01*
X182574354Y-71850147D01*
X182699853Y-71975646D01*
X182798456Y-72123216D01*
X182866376Y-72287188D01*
X182901000Y-72461259D01*
X182901000Y-72638741D01*
X182866376Y-72812812D01*
X182798456Y-72976784D01*
X182699853Y-73124354D01*
X182574354Y-73249853D01*
X182426784Y-73348456D01*
X182262812Y-73416376D01*
X182113512Y-73446073D01*
X182088742Y-73451000D01*
X181911258Y-73451000D01*
X181886488Y-73446073D01*
X181737188Y-73416376D01*
X181573216Y-73348456D01*
X181425646Y-73249853D01*
X181300147Y-73124354D01*
X181201544Y-72976784D01*
X181133624Y-72812812D01*
X181099000Y-72638741D01*
X181099000Y-72461259D01*
X181133624Y-72287188D01*
X181201544Y-72123216D01*
X181300147Y-71975646D01*
X181425646Y-71850147D01*
X181573216Y-71751544D01*
X181737188Y-71683624D01*
X181886488Y-71653927D01*
X181911258Y-71649000D01*
X182088742Y-71649000D01*
X182113512Y-71653927D01*
X182113512Y-71653927D01*
G37*
G36*
X150216823Y-70881313D02*
G01*
X150377242Y-70929976D01*
X150509906Y-71000886D01*
X150525078Y-71008996D01*
X150654659Y-71115341D01*
X150761004Y-71244922D01*
X150761005Y-71244924D01*
X150840024Y-71392758D01*
X150888687Y-71553178D01*
X150901000Y-71678197D01*
X150901000Y-72561804D01*
X150888687Y-72686823D01*
X150840024Y-72847242D01*
X150804976Y-72912812D01*
X150761004Y-72995078D01*
X150693951Y-73076782D01*
X150654659Y-73124659D01*
X150525077Y-73231005D01*
X150377241Y-73310024D01*
X150216822Y-73358687D01*
X150050000Y-73375117D01*
X149883177Y-73358687D01*
X149722758Y-73310024D01*
X149574924Y-73231005D01*
X149574922Y-73231004D01*
X149445341Y-73124659D01*
X149406049Y-73076782D01*
X149338995Y-72995077D01*
X149259976Y-72847241D01*
X149211313Y-72686822D01*
X149199000Y-72561803D01*
X149199000Y-71678197D01*
X149211314Y-71553177D01*
X149259977Y-71392758D01*
X149338996Y-71244924D01*
X149338997Y-71244922D01*
X149445342Y-71115341D01*
X149574923Y-71008996D01*
X149590095Y-71000886D01*
X149722759Y-70929976D01*
X149883178Y-70881313D01*
X150050000Y-70864883D01*
X150216823Y-70881313D01*
X150216823Y-70881313D01*
G37*
G36*
X145136823Y-70881313D02*
G01*
X145297242Y-70929976D01*
X145429906Y-71000886D01*
X145445078Y-71008996D01*
X145574659Y-71115341D01*
X145681004Y-71244922D01*
X145681005Y-71244924D01*
X145760024Y-71392758D01*
X145808687Y-71553178D01*
X145821000Y-71678197D01*
X145821000Y-72561804D01*
X145808687Y-72686823D01*
X145760024Y-72847242D01*
X145724976Y-72912812D01*
X145681004Y-72995078D01*
X145613951Y-73076782D01*
X145574659Y-73124659D01*
X145445077Y-73231005D01*
X145297241Y-73310024D01*
X145136822Y-73358687D01*
X144970000Y-73375117D01*
X144803177Y-73358687D01*
X144642758Y-73310024D01*
X144494924Y-73231005D01*
X144494922Y-73231004D01*
X144365341Y-73124659D01*
X144326049Y-73076782D01*
X144258995Y-72995077D01*
X144179976Y-72847241D01*
X144131313Y-72686822D01*
X144119000Y-72561803D01*
X144119000Y-71678197D01*
X144131314Y-71553177D01*
X144179977Y-71392758D01*
X144258996Y-71244924D01*
X144258997Y-71244922D01*
X144365342Y-71115341D01*
X144494923Y-71008996D01*
X144510095Y-71000886D01*
X144642759Y-70929976D01*
X144803178Y-70881313D01*
X144970000Y-70864883D01*
X145136823Y-70881313D01*
X145136823Y-70881313D01*
G37*
G36*
X147676823Y-70881313D02*
G01*
X147837242Y-70929976D01*
X147969906Y-71000886D01*
X147985078Y-71008996D01*
X148114659Y-71115341D01*
X148221004Y-71244922D01*
X148221005Y-71244924D01*
X148300024Y-71392758D01*
X148348687Y-71553178D01*
X148361000Y-71678197D01*
X148361000Y-72561804D01*
X148348687Y-72686823D01*
X148300024Y-72847242D01*
X148264976Y-72912812D01*
X148221004Y-72995078D01*
X148153951Y-73076782D01*
X148114659Y-73124659D01*
X147985077Y-73231005D01*
X147837241Y-73310024D01*
X147676822Y-73358687D01*
X147510000Y-73375117D01*
X147343177Y-73358687D01*
X147182758Y-73310024D01*
X147034924Y-73231005D01*
X147034922Y-73231004D01*
X146905341Y-73124659D01*
X146866049Y-73076782D01*
X146798995Y-72995077D01*
X146719976Y-72847241D01*
X146671313Y-72686822D01*
X146659000Y-72561803D01*
X146659000Y-71678197D01*
X146671314Y-71553177D01*
X146719977Y-71392758D01*
X146798996Y-71244924D01*
X146798997Y-71244922D01*
X146905342Y-71115341D01*
X147034923Y-71008996D01*
X147050095Y-71000886D01*
X147182759Y-70929976D01*
X147343178Y-70881313D01*
X147510000Y-70864883D01*
X147676823Y-70881313D01*
X147676823Y-70881313D01*
G37*
G36*
X142596823Y-70881313D02*
G01*
X142757242Y-70929976D01*
X142889906Y-71000886D01*
X142905078Y-71008996D01*
X143034659Y-71115341D01*
X143141004Y-71244922D01*
X143141005Y-71244924D01*
X143220024Y-71392758D01*
X143268687Y-71553178D01*
X143281000Y-71678197D01*
X143281000Y-72561804D01*
X143268687Y-72686823D01*
X143220024Y-72847242D01*
X143184976Y-72912812D01*
X143141004Y-72995078D01*
X143073951Y-73076782D01*
X143034659Y-73124659D01*
X142905077Y-73231005D01*
X142757241Y-73310024D01*
X142596822Y-73358687D01*
X142430000Y-73375117D01*
X142263177Y-73358687D01*
X142102758Y-73310024D01*
X141954924Y-73231005D01*
X141954922Y-73231004D01*
X141825341Y-73124659D01*
X141786049Y-73076782D01*
X141718995Y-72995077D01*
X141639976Y-72847241D01*
X141591313Y-72686822D01*
X141579000Y-72561803D01*
X141579000Y-71678197D01*
X141591314Y-71553177D01*
X141639977Y-71392758D01*
X141718996Y-71244924D01*
X141718997Y-71244922D01*
X141825342Y-71115341D01*
X141954923Y-71008996D01*
X141970095Y-71000886D01*
X142102759Y-70929976D01*
X142263178Y-70881313D01*
X142430000Y-70864883D01*
X142596823Y-70881313D01*
X142596823Y-70881313D01*
G37*
G36*
X189736425Y-68812760D02*
G01*
X189736428Y-68812761D01*
X189736429Y-68812761D01*
X189915693Y-68867140D01*
X189915696Y-68867142D01*
X189915697Y-68867142D01*
X190080903Y-68955446D01*
X190225712Y-69074288D01*
X190344554Y-69219097D01*
X190379409Y-69284307D01*
X190432860Y-69384307D01*
X190487239Y-69563571D01*
X190487240Y-69563575D01*
X190505601Y-69750000D01*
X190487240Y-69936425D01*
X190487239Y-69936428D01*
X190487239Y-69936429D01*
X190432860Y-70115693D01*
X190432858Y-70115696D01*
X190432858Y-70115697D01*
X190344554Y-70280903D01*
X190225712Y-70425712D01*
X190080903Y-70544554D01*
X189975299Y-70601000D01*
X189915693Y-70632860D01*
X189736429Y-70687239D01*
X189736428Y-70687239D01*
X189736425Y-70687240D01*
X189596718Y-70701000D01*
X188303282Y-70701000D01*
X188163575Y-70687240D01*
X188163572Y-70687239D01*
X188163571Y-70687239D01*
X187984307Y-70632860D01*
X187924701Y-70601000D01*
X187819097Y-70544554D01*
X187674288Y-70425712D01*
X187555446Y-70280903D01*
X187467142Y-70115697D01*
X187467142Y-70115696D01*
X187467140Y-70115693D01*
X187412761Y-69936429D01*
X187412761Y-69936428D01*
X187412760Y-69936425D01*
X187394399Y-69750000D01*
X187412760Y-69563575D01*
X187412761Y-69563571D01*
X187467140Y-69384307D01*
X187520591Y-69284307D01*
X187555446Y-69219097D01*
X187674288Y-69074288D01*
X187819097Y-68955446D01*
X187984303Y-68867142D01*
X187984304Y-68867142D01*
X187984307Y-68867140D01*
X188163571Y-68812761D01*
X188163572Y-68812761D01*
X188163575Y-68812760D01*
X188303282Y-68799000D01*
X189596718Y-68799000D01*
X189736425Y-68812760D01*
X189736425Y-68812760D01*
G37*
G36*
X118536425Y-68812760D02*
G01*
X118536428Y-68812761D01*
X118536429Y-68812761D01*
X118715693Y-68867140D01*
X118715696Y-68867142D01*
X118715697Y-68867142D01*
X118880903Y-68955446D01*
X119025712Y-69074288D01*
X119144554Y-69219097D01*
X119179409Y-69284307D01*
X119232860Y-69384307D01*
X119287239Y-69563571D01*
X119287240Y-69563575D01*
X119305601Y-69750000D01*
X119287240Y-69936425D01*
X119287239Y-69936428D01*
X119287239Y-69936429D01*
X119232860Y-70115693D01*
X119232858Y-70115696D01*
X119232858Y-70115697D01*
X119144554Y-70280903D01*
X119025712Y-70425712D01*
X118880903Y-70544554D01*
X118775299Y-70601000D01*
X118715693Y-70632860D01*
X118536429Y-70687239D01*
X118536428Y-70687239D01*
X118536425Y-70687240D01*
X118396718Y-70701000D01*
X117103282Y-70701000D01*
X116963575Y-70687240D01*
X116963572Y-70687239D01*
X116963571Y-70687239D01*
X116784307Y-70632860D01*
X116724701Y-70601000D01*
X116619097Y-70544554D01*
X116474288Y-70425712D01*
X116355446Y-70280903D01*
X116267142Y-70115697D01*
X116267142Y-70115696D01*
X116267140Y-70115693D01*
X116212761Y-69936429D01*
X116212761Y-69936428D01*
X116212760Y-69936425D01*
X116194399Y-69750000D01*
X116212760Y-69563575D01*
X116212761Y-69563571D01*
X116267140Y-69384307D01*
X116320591Y-69284307D01*
X116355446Y-69219097D01*
X116474288Y-69074288D01*
X116619097Y-68955446D01*
X116784303Y-68867142D01*
X116784304Y-68867142D01*
X116784307Y-68867140D01*
X116963571Y-68812761D01*
X116963572Y-68812761D01*
X116963575Y-68812760D01*
X117103282Y-68799000D01*
X118396718Y-68799000D01*
X118536425Y-68812760D01*
X118536425Y-68812760D01*
G37*
G36*
X104036425Y-68812760D02*
G01*
X104036428Y-68812761D01*
X104036429Y-68812761D01*
X104215693Y-68867140D01*
X104215696Y-68867142D01*
X104215697Y-68867142D01*
X104380903Y-68955446D01*
X104525712Y-69074288D01*
X104644554Y-69219097D01*
X104679409Y-69284307D01*
X104732860Y-69384307D01*
X104787239Y-69563571D01*
X104787240Y-69563575D01*
X104805601Y-69750000D01*
X104787240Y-69936425D01*
X104787239Y-69936428D01*
X104787239Y-69936429D01*
X104732860Y-70115693D01*
X104732858Y-70115696D01*
X104732858Y-70115697D01*
X104644554Y-70280903D01*
X104525712Y-70425712D01*
X104380903Y-70544554D01*
X104275299Y-70601000D01*
X104215693Y-70632860D01*
X104036429Y-70687239D01*
X104036428Y-70687239D01*
X104036425Y-70687240D01*
X103896718Y-70701000D01*
X102603282Y-70701000D01*
X102463575Y-70687240D01*
X102463572Y-70687239D01*
X102463571Y-70687239D01*
X102284307Y-70632860D01*
X102224701Y-70601000D01*
X102119097Y-70544554D01*
X101974288Y-70425712D01*
X101855446Y-70280903D01*
X101767142Y-70115697D01*
X101767142Y-70115696D01*
X101767140Y-70115693D01*
X101712761Y-69936429D01*
X101712761Y-69936428D01*
X101712760Y-69936425D01*
X101694399Y-69750000D01*
X101712760Y-69563575D01*
X101712761Y-69563571D01*
X101767140Y-69384307D01*
X101820591Y-69284307D01*
X101855446Y-69219097D01*
X101974288Y-69074288D01*
X102119097Y-68955446D01*
X102284303Y-68867142D01*
X102284304Y-68867142D01*
X102284307Y-68867140D01*
X102463571Y-68812761D01*
X102463572Y-68812761D01*
X102463575Y-68812760D01*
X102603282Y-68799000D01*
X103896718Y-68799000D01*
X104036425Y-68812760D01*
X104036425Y-68812760D01*
G37*
G36*
X197036425Y-68812760D02*
G01*
X197036428Y-68812761D01*
X197036429Y-68812761D01*
X197215693Y-68867140D01*
X197215696Y-68867142D01*
X197215697Y-68867142D01*
X197380903Y-68955446D01*
X197525712Y-69074288D01*
X197644554Y-69219097D01*
X197679409Y-69284307D01*
X197732860Y-69384307D01*
X197787239Y-69563571D01*
X197787240Y-69563575D01*
X197805601Y-69750000D01*
X197787240Y-69936425D01*
X197787239Y-69936428D01*
X197787239Y-69936429D01*
X197732860Y-70115693D01*
X197732858Y-70115696D01*
X197732858Y-70115697D01*
X197644554Y-70280903D01*
X197525712Y-70425712D01*
X197380903Y-70544554D01*
X197275299Y-70601000D01*
X197215693Y-70632860D01*
X197036429Y-70687239D01*
X197036428Y-70687239D01*
X197036425Y-70687240D01*
X196896718Y-70701000D01*
X195603282Y-70701000D01*
X195463575Y-70687240D01*
X195463572Y-70687239D01*
X195463571Y-70687239D01*
X195284307Y-70632860D01*
X195224701Y-70601000D01*
X195119097Y-70544554D01*
X194974288Y-70425712D01*
X194855446Y-70280903D01*
X194767142Y-70115697D01*
X194767142Y-70115696D01*
X194767140Y-70115693D01*
X194712761Y-69936429D01*
X194712761Y-69936428D01*
X194712760Y-69936425D01*
X194694399Y-69750000D01*
X194712760Y-69563575D01*
X194712761Y-69563571D01*
X194767140Y-69384307D01*
X194820591Y-69284307D01*
X194855446Y-69219097D01*
X194974288Y-69074288D01*
X195119097Y-68955446D01*
X195284303Y-68867142D01*
X195284304Y-68867142D01*
X195284307Y-68867140D01*
X195463571Y-68812761D01*
X195463572Y-68812761D01*
X195463575Y-68812760D01*
X195603282Y-68799000D01*
X196896718Y-68799000D01*
X197036425Y-68812760D01*
X197036425Y-68812760D01*
G37*
G36*
X111236425Y-68712760D02*
G01*
X111236428Y-68712761D01*
X111236429Y-68712761D01*
X111415693Y-68767140D01*
X111415696Y-68767142D01*
X111415697Y-68767142D01*
X111580903Y-68855446D01*
X111725712Y-68974288D01*
X111844554Y-69119097D01*
X111932858Y-69284303D01*
X111932860Y-69284307D01*
X111987239Y-69463571D01*
X111987240Y-69463575D01*
X112005601Y-69650000D01*
X111987240Y-69836425D01*
X111987239Y-69836428D01*
X111987239Y-69836429D01*
X111932860Y-70015693D01*
X111932858Y-70015696D01*
X111932858Y-70015697D01*
X111844554Y-70180903D01*
X111725712Y-70325712D01*
X111580903Y-70444554D01*
X111415697Y-70532858D01*
X111415693Y-70532860D01*
X111236429Y-70587239D01*
X111236428Y-70587239D01*
X111236425Y-70587240D01*
X111096718Y-70601000D01*
X109803282Y-70601000D01*
X109663575Y-70587240D01*
X109663572Y-70587239D01*
X109663571Y-70587239D01*
X109484307Y-70532860D01*
X109484303Y-70532858D01*
X109319097Y-70444554D01*
X109174288Y-70325712D01*
X109055446Y-70180903D01*
X108967142Y-70015697D01*
X108967142Y-70015696D01*
X108967140Y-70015693D01*
X108912761Y-69836429D01*
X108912761Y-69836428D01*
X108912760Y-69836425D01*
X108894399Y-69650000D01*
X108912760Y-69463575D01*
X108912761Y-69463571D01*
X108967140Y-69284307D01*
X108967142Y-69284303D01*
X109055446Y-69119097D01*
X109174288Y-68974288D01*
X109319097Y-68855446D01*
X109484303Y-68767142D01*
X109484304Y-68767142D01*
X109484307Y-68767140D01*
X109663571Y-68712761D01*
X109663572Y-68712761D01*
X109663575Y-68712760D01*
X109803282Y-68699000D01*
X111096718Y-68699000D01*
X111236425Y-68712760D01*
X111236425Y-68712760D01*
G37*
G36*
X182736425Y-68712760D02*
G01*
X182736428Y-68712761D01*
X182736429Y-68712761D01*
X182915693Y-68767140D01*
X182915696Y-68767142D01*
X182915697Y-68767142D01*
X183080903Y-68855446D01*
X183225712Y-68974288D01*
X183344554Y-69119097D01*
X183432858Y-69284303D01*
X183432860Y-69284307D01*
X183487239Y-69463571D01*
X183487240Y-69463575D01*
X183505601Y-69650000D01*
X183487240Y-69836425D01*
X183487239Y-69836428D01*
X183487239Y-69836429D01*
X183432860Y-70015693D01*
X183432858Y-70015696D01*
X183432858Y-70015697D01*
X183344554Y-70180903D01*
X183225712Y-70325712D01*
X183080903Y-70444554D01*
X182915697Y-70532858D01*
X182915693Y-70532860D01*
X182736429Y-70587239D01*
X182736428Y-70587239D01*
X182736425Y-70587240D01*
X182596718Y-70601000D01*
X181303282Y-70601000D01*
X181163575Y-70587240D01*
X181163572Y-70587239D01*
X181163571Y-70587239D01*
X180984307Y-70532860D01*
X180984303Y-70532858D01*
X180819097Y-70444554D01*
X180674288Y-70325712D01*
X180555446Y-70180903D01*
X180467142Y-70015697D01*
X180467142Y-70015696D01*
X180467140Y-70015693D01*
X180412761Y-69836429D01*
X180412761Y-69836428D01*
X180412760Y-69836425D01*
X180394399Y-69650000D01*
X180412760Y-69463575D01*
X180412761Y-69463571D01*
X180467140Y-69284307D01*
X180467142Y-69284303D01*
X180555446Y-69119097D01*
X180674288Y-68974288D01*
X180819097Y-68855446D01*
X180984303Y-68767142D01*
X180984304Y-68767142D01*
X180984307Y-68767140D01*
X181163571Y-68712761D01*
X181163572Y-68712761D01*
X181163575Y-68712760D01*
X181303282Y-68699000D01*
X182596718Y-68699000D01*
X182736425Y-68712760D01*
X182736425Y-68712760D01*
G37*
G36*
X142596823Y-63261313D02*
G01*
X142757242Y-63309976D01*
X142864188Y-63367140D01*
X142905078Y-63388996D01*
X143034659Y-63495341D01*
X143141004Y-63624922D01*
X143141005Y-63624924D01*
X143220024Y-63772758D01*
X143268687Y-63933178D01*
X143281000Y-64058197D01*
X143281000Y-64941804D01*
X143268687Y-65066823D01*
X143268686Y-65066825D01*
X143227985Y-65201000D01*
X143220024Y-65227242D01*
X143149114Y-65359906D01*
X143141004Y-65375078D01*
X143034659Y-65504659D01*
X142905077Y-65611005D01*
X142757241Y-65690024D01*
X142596822Y-65738687D01*
X142430000Y-65755117D01*
X142263177Y-65738687D01*
X142102758Y-65690024D01*
X141954924Y-65611005D01*
X141954922Y-65611004D01*
X141825341Y-65504659D01*
X141718995Y-65375077D01*
X141639976Y-65227241D01*
X141591313Y-65066822D01*
X141579000Y-64941803D01*
X141579000Y-64058197D01*
X141591314Y-63933177D01*
X141639977Y-63772758D01*
X141718996Y-63624924D01*
X141718997Y-63624922D01*
X141825342Y-63495341D01*
X141954923Y-63388996D01*
X141995813Y-63367140D01*
X142102759Y-63309976D01*
X142263178Y-63261313D01*
X142430000Y-63244883D01*
X142596823Y-63261313D01*
X142596823Y-63261313D01*
G37*
G36*
X145136823Y-63261313D02*
G01*
X145297242Y-63309976D01*
X145404188Y-63367140D01*
X145445078Y-63388996D01*
X145574659Y-63495341D01*
X145681004Y-63624922D01*
X145681005Y-63624924D01*
X145760024Y-63772758D01*
X145808687Y-63933178D01*
X145821000Y-64058197D01*
X145821000Y-64941804D01*
X145808687Y-65066823D01*
X145808686Y-65066825D01*
X145767985Y-65201000D01*
X145760024Y-65227242D01*
X145689114Y-65359906D01*
X145681004Y-65375078D01*
X145574659Y-65504659D01*
X145445077Y-65611005D01*
X145297241Y-65690024D01*
X145136822Y-65738687D01*
X144970000Y-65755117D01*
X144803177Y-65738687D01*
X144642758Y-65690024D01*
X144494924Y-65611005D01*
X144494922Y-65611004D01*
X144365341Y-65504659D01*
X144258995Y-65375077D01*
X144179976Y-65227241D01*
X144131313Y-65066822D01*
X144119000Y-64941803D01*
X144119000Y-64058197D01*
X144131314Y-63933177D01*
X144179977Y-63772758D01*
X144258996Y-63624924D01*
X144258997Y-63624922D01*
X144365342Y-63495341D01*
X144494923Y-63388996D01*
X144535813Y-63367140D01*
X144642759Y-63309976D01*
X144803178Y-63261313D01*
X144970000Y-63244883D01*
X145136823Y-63261313D01*
X145136823Y-63261313D01*
G37*
G36*
X147676823Y-63261313D02*
G01*
X147837242Y-63309976D01*
X147944188Y-63367140D01*
X147985078Y-63388996D01*
X148114659Y-63495341D01*
X148221004Y-63624922D01*
X148221005Y-63624924D01*
X148300024Y-63772758D01*
X148348687Y-63933178D01*
X148361000Y-64058197D01*
X148361000Y-64941804D01*
X148348687Y-65066823D01*
X148348686Y-65066825D01*
X148307985Y-65201000D01*
X148300024Y-65227242D01*
X148229114Y-65359906D01*
X148221004Y-65375078D01*
X148114659Y-65504659D01*
X147985077Y-65611005D01*
X147837241Y-65690024D01*
X147676822Y-65738687D01*
X147510000Y-65755117D01*
X147343177Y-65738687D01*
X147182758Y-65690024D01*
X147034924Y-65611005D01*
X147034922Y-65611004D01*
X146905341Y-65504659D01*
X146798995Y-65375077D01*
X146719976Y-65227241D01*
X146671313Y-65066822D01*
X146659000Y-64941803D01*
X146659000Y-64058197D01*
X146671314Y-63933177D01*
X146719977Y-63772758D01*
X146798996Y-63624924D01*
X146798997Y-63624922D01*
X146905342Y-63495341D01*
X147034923Y-63388996D01*
X147075813Y-63367140D01*
X147182759Y-63309976D01*
X147343178Y-63261313D01*
X147510000Y-63244883D01*
X147676823Y-63261313D01*
X147676823Y-63261313D01*
G37*
G36*
X150901000Y-65751000D02*
G01*
X149199000Y-65751000D01*
X149199000Y-63249000D01*
X150901000Y-63249000D01*
X150901000Y-65751000D01*
X150901000Y-65751000D01*
G37*
G36*
X136736425Y-63312760D02*
G01*
X136736428Y-63312761D01*
X136736429Y-63312761D01*
X136915693Y-63367140D01*
X136915696Y-63367142D01*
X136915697Y-63367142D01*
X137080903Y-63455446D01*
X137225712Y-63574288D01*
X137344554Y-63719097D01*
X137390331Y-63804741D01*
X137432860Y-63884307D01*
X137487239Y-64063571D01*
X137487240Y-64063575D01*
X137505601Y-64250000D01*
X137487240Y-64436425D01*
X137487239Y-64436428D01*
X137487239Y-64436429D01*
X137432860Y-64615693D01*
X137432858Y-64615696D01*
X137432858Y-64615697D01*
X137344554Y-64780903D01*
X137225712Y-64925712D01*
X137080903Y-65044554D01*
X136915697Y-65132858D01*
X136915693Y-65132860D01*
X136736429Y-65187239D01*
X136736428Y-65187239D01*
X136736425Y-65187240D01*
X136596718Y-65201000D01*
X135303282Y-65201000D01*
X135163575Y-65187240D01*
X135163572Y-65187239D01*
X135163571Y-65187239D01*
X134984307Y-65132860D01*
X134984303Y-65132858D01*
X134819097Y-65044554D01*
X134674288Y-64925712D01*
X134555446Y-64780903D01*
X134467142Y-64615697D01*
X134467142Y-64615696D01*
X134467140Y-64615693D01*
X134412761Y-64436429D01*
X134412761Y-64436428D01*
X134412760Y-64436425D01*
X134394399Y-64250000D01*
X134412760Y-64063575D01*
X134412761Y-64063571D01*
X134467140Y-63884307D01*
X134509669Y-63804741D01*
X134555446Y-63719097D01*
X134674288Y-63574288D01*
X134819097Y-63455446D01*
X134984303Y-63367142D01*
X134984304Y-63367142D01*
X134984307Y-63367140D01*
X135163571Y-63312761D01*
X135163572Y-63312761D01*
X135163575Y-63312760D01*
X135303282Y-63299000D01*
X136596718Y-63299000D01*
X136736425Y-63312760D01*
X136736425Y-63312760D01*
G37*
G36*
X128636425Y-63312760D02*
G01*
X128636428Y-63312761D01*
X128636429Y-63312761D01*
X128815693Y-63367140D01*
X128815696Y-63367142D01*
X128815697Y-63367142D01*
X128980903Y-63455446D01*
X129125712Y-63574288D01*
X129244554Y-63719097D01*
X129290331Y-63804741D01*
X129332860Y-63884307D01*
X129387239Y-64063571D01*
X129387240Y-64063575D01*
X129405601Y-64250000D01*
X129387240Y-64436425D01*
X129387239Y-64436428D01*
X129387239Y-64436429D01*
X129332860Y-64615693D01*
X129332858Y-64615696D01*
X129332858Y-64615697D01*
X129244554Y-64780903D01*
X129125712Y-64925712D01*
X128980903Y-65044554D01*
X128815697Y-65132858D01*
X128815693Y-65132860D01*
X128636429Y-65187239D01*
X128636428Y-65187239D01*
X128636425Y-65187240D01*
X128496718Y-65201000D01*
X127203282Y-65201000D01*
X127063575Y-65187240D01*
X127063572Y-65187239D01*
X127063571Y-65187239D01*
X126884307Y-65132860D01*
X126884303Y-65132858D01*
X126719097Y-65044554D01*
X126574288Y-64925712D01*
X126455446Y-64780903D01*
X126367142Y-64615697D01*
X126367142Y-64615696D01*
X126367140Y-64615693D01*
X126312761Y-64436429D01*
X126312761Y-64436428D01*
X126312760Y-64436425D01*
X126294399Y-64250000D01*
X126312760Y-64063575D01*
X126312761Y-64063571D01*
X126367140Y-63884307D01*
X126409669Y-63804741D01*
X126455446Y-63719097D01*
X126574288Y-63574288D01*
X126719097Y-63455446D01*
X126884303Y-63367142D01*
X126884304Y-63367142D01*
X126884307Y-63367140D01*
X127063571Y-63312761D01*
X127063572Y-63312761D01*
X127063575Y-63312760D01*
X127203282Y-63299000D01*
X128496718Y-63299000D01*
X128636425Y-63312760D01*
X128636425Y-63312760D01*
G37*
G36*
X197652585Y-61078802D02*
G01*
X197802410Y-61108604D01*
X198084674Y-61225521D01*
X198338705Y-61395259D01*
X198554741Y-61611295D01*
X198724479Y-61865326D01*
X198841396Y-62147590D01*
X198901000Y-62447240D01*
X198901000Y-62752760D01*
X198841396Y-63052410D01*
X198724479Y-63334674D01*
X198554741Y-63588705D01*
X198338705Y-63804741D01*
X198084674Y-63974479D01*
X197802410Y-64091396D01*
X197652585Y-64121198D01*
X197502761Y-64151000D01*
X197197239Y-64151000D01*
X197047415Y-64121198D01*
X196897590Y-64091396D01*
X196615326Y-63974479D01*
X196361295Y-63804741D01*
X196145259Y-63588705D01*
X195975521Y-63334674D01*
X195858604Y-63052410D01*
X195799000Y-62752760D01*
X195799000Y-62447240D01*
X195858604Y-62147590D01*
X195975521Y-61865326D01*
X196145259Y-61611295D01*
X196361295Y-61395259D01*
X196615326Y-61225521D01*
X196897590Y-61108604D01*
X197047415Y-61078802D01*
X197197239Y-61049000D01*
X197502761Y-61049000D01*
X197652585Y-61078802D01*
X197652585Y-61078802D01*
G37*
G36*
X187352585Y-61078802D02*
G01*
X187502410Y-61108604D01*
X187784674Y-61225521D01*
X188038705Y-61395259D01*
X188254741Y-61611295D01*
X188424479Y-61865326D01*
X188541396Y-62147590D01*
X188601000Y-62447240D01*
X188601000Y-62752760D01*
X188541396Y-63052410D01*
X188424479Y-63334674D01*
X188254741Y-63588705D01*
X188038705Y-63804741D01*
X187784674Y-63974479D01*
X187502410Y-64091396D01*
X187352585Y-64121198D01*
X187202761Y-64151000D01*
X186897239Y-64151000D01*
X186747415Y-64121198D01*
X186597590Y-64091396D01*
X186315326Y-63974479D01*
X186061295Y-63804741D01*
X185845259Y-63588705D01*
X185675521Y-63334674D01*
X185558604Y-63052410D01*
X185499000Y-62752760D01*
X185499000Y-62447240D01*
X185558604Y-62147590D01*
X185675521Y-61865326D01*
X185845259Y-61611295D01*
X186061295Y-61395259D01*
X186315326Y-61225521D01*
X186597590Y-61108604D01*
X186747415Y-61078802D01*
X186897239Y-61049000D01*
X187202761Y-61049000D01*
X187352585Y-61078802D01*
X187352585Y-61078802D01*
G37*
G36*
X103552585Y-60678802D02*
G01*
X103702410Y-60708604D01*
X103984674Y-60825521D01*
X104238705Y-60995259D01*
X104454741Y-61211295D01*
X104624479Y-61465326D01*
X104741396Y-61747590D01*
X104766748Y-61875043D01*
X104776557Y-61924354D01*
X104801000Y-62047240D01*
X104801000Y-62352760D01*
X104741396Y-62652410D01*
X104624479Y-62934674D01*
X104454741Y-63188705D01*
X104238705Y-63404741D01*
X103984674Y-63574479D01*
X103702410Y-63691396D01*
X103563147Y-63719097D01*
X103402761Y-63751000D01*
X103097239Y-63751000D01*
X102936853Y-63719097D01*
X102797590Y-63691396D01*
X102515326Y-63574479D01*
X102261295Y-63404741D01*
X102045259Y-63188705D01*
X101875521Y-62934674D01*
X101758604Y-62652410D01*
X101699000Y-62352760D01*
X101699000Y-62047240D01*
X101723444Y-61924354D01*
X101733252Y-61875043D01*
X101758604Y-61747590D01*
X101875521Y-61465326D01*
X102045259Y-61211295D01*
X102261295Y-60995259D01*
X102515326Y-60825521D01*
X102797590Y-60708604D01*
X102947415Y-60678802D01*
X103097239Y-60649000D01*
X103402761Y-60649000D01*
X103552585Y-60678802D01*
X103552585Y-60678802D01*
G37*
G36*
X113852585Y-60678802D02*
G01*
X114002410Y-60708604D01*
X114284674Y-60825521D01*
X114538705Y-60995259D01*
X114754741Y-61211295D01*
X114924479Y-61465326D01*
X115041396Y-61747590D01*
X115066748Y-61875043D01*
X115076557Y-61924354D01*
X115101000Y-62047240D01*
X115101000Y-62352760D01*
X115041396Y-62652410D01*
X114924479Y-62934674D01*
X114754741Y-63188705D01*
X114538705Y-63404741D01*
X114284674Y-63574479D01*
X114002410Y-63691396D01*
X113863147Y-63719097D01*
X113702761Y-63751000D01*
X113397239Y-63751000D01*
X113236853Y-63719097D01*
X113097590Y-63691396D01*
X112815326Y-63574479D01*
X112561295Y-63404741D01*
X112345259Y-63188705D01*
X112175521Y-62934674D01*
X112058604Y-62652410D01*
X111999000Y-62352760D01*
X111999000Y-62047240D01*
X112023444Y-61924354D01*
X112033252Y-61875043D01*
X112058604Y-61747590D01*
X112175521Y-61465326D01*
X112345259Y-61211295D01*
X112561295Y-60995259D01*
X112815326Y-60825521D01*
X113097590Y-60708604D01*
X113247415Y-60678802D01*
X113397239Y-60649000D01*
X113702761Y-60649000D01*
X113852585Y-60678802D01*
X113852585Y-60678802D01*
G37*
G36*
X192365792Y-59681000D02*
G01*
X192586780Y-59724957D01*
X192828097Y-59824914D01*
X192898377Y-59871874D01*
X193045275Y-59970028D01*
X193229972Y-60154725D01*
X193258152Y-60196900D01*
X193375086Y-60371903D01*
X193475043Y-60613220D01*
X193526000Y-60869400D01*
X193526000Y-61130600D01*
X193475043Y-61386780D01*
X193375086Y-61628097D01*
X193373833Y-61629972D01*
X193229972Y-61845275D01*
X193045275Y-62029972D01*
X193015522Y-62049852D01*
X192828097Y-62175086D01*
X192586780Y-62275043D01*
X192458690Y-62300522D01*
X192330601Y-62326000D01*
X192069399Y-62326000D01*
X191941310Y-62300522D01*
X191813220Y-62275043D01*
X191571903Y-62175086D01*
X191384478Y-62049852D01*
X191354725Y-62029972D01*
X191170028Y-61845275D01*
X191026167Y-61629972D01*
X191024914Y-61628097D01*
X190924957Y-61386780D01*
X190874000Y-61130600D01*
X190874000Y-60869400D01*
X190924957Y-60613220D01*
X191024914Y-60371903D01*
X191141848Y-60196900D01*
X191170028Y-60154725D01*
X191354725Y-59970028D01*
X191501623Y-59871874D01*
X191571903Y-59824914D01*
X191813220Y-59724957D01*
X192034208Y-59681000D01*
X192069399Y-59674000D01*
X192330601Y-59674000D01*
X192365792Y-59681000D01*
X192365792Y-59681000D01*
G37*
G36*
X128013512Y-60453927D02*
G01*
X128162812Y-60483624D01*
X128326784Y-60551544D01*
X128474354Y-60650147D01*
X128599853Y-60775646D01*
X128698456Y-60923216D01*
X128766376Y-61087188D01*
X128789014Y-61201000D01*
X128801000Y-61261258D01*
X128801000Y-61438742D01*
X128796073Y-61463512D01*
X128766376Y-61612812D01*
X128698456Y-61776784D01*
X128599853Y-61924354D01*
X128474354Y-62049853D01*
X128326784Y-62148456D01*
X128162812Y-62216376D01*
X128013512Y-62246073D01*
X127988742Y-62251000D01*
X127811258Y-62251000D01*
X127786488Y-62246073D01*
X127637188Y-62216376D01*
X127473216Y-62148456D01*
X127325646Y-62049853D01*
X127200147Y-61924354D01*
X127101544Y-61776784D01*
X127033624Y-61612812D01*
X127003927Y-61463512D01*
X126999000Y-61438742D01*
X126999000Y-61261258D01*
X127010986Y-61201000D01*
X127033624Y-61087188D01*
X127101544Y-60923216D01*
X127200147Y-60775646D01*
X127325646Y-60650147D01*
X127473216Y-60551544D01*
X127637188Y-60483624D01*
X127786488Y-60453927D01*
X127811258Y-60449000D01*
X127988742Y-60449000D01*
X128013512Y-60453927D01*
X128013512Y-60453927D01*
G37*
G36*
X136113512Y-60453927D02*
G01*
X136262812Y-60483624D01*
X136426784Y-60551544D01*
X136574354Y-60650147D01*
X136699853Y-60775646D01*
X136798456Y-60923216D01*
X136866376Y-61087188D01*
X136889014Y-61201000D01*
X136901000Y-61261258D01*
X136901000Y-61438742D01*
X136896073Y-61463512D01*
X136866376Y-61612812D01*
X136798456Y-61776784D01*
X136699853Y-61924354D01*
X136574354Y-62049853D01*
X136426784Y-62148456D01*
X136262812Y-62216376D01*
X136113512Y-62246073D01*
X136088742Y-62251000D01*
X135911258Y-62251000D01*
X135886488Y-62246073D01*
X135737188Y-62216376D01*
X135573216Y-62148456D01*
X135425646Y-62049853D01*
X135300147Y-61924354D01*
X135201544Y-61776784D01*
X135133624Y-61612812D01*
X135103927Y-61463512D01*
X135099000Y-61438742D01*
X135099000Y-61261258D01*
X135110986Y-61201000D01*
X135133624Y-61087188D01*
X135201544Y-60923216D01*
X135300147Y-60775646D01*
X135425646Y-60650147D01*
X135573216Y-60551544D01*
X135737188Y-60483624D01*
X135886488Y-60453927D01*
X135911258Y-60449000D01*
X136088742Y-60449000D01*
X136113512Y-60453927D01*
X136113512Y-60453927D01*
G37*
G36*
X108658690Y-59299478D02*
G01*
X108786780Y-59324957D01*
X109028097Y-59424914D01*
X109045975Y-59436860D01*
X109245275Y-59570028D01*
X109429972Y-59754725D01*
X109496416Y-59854166D01*
X109575086Y-59971903D01*
X109650814Y-60154725D01*
X109675043Y-60213221D01*
X109722494Y-60451771D01*
X109726000Y-60469400D01*
X109726000Y-60730600D01*
X109675043Y-60986780D01*
X109575086Y-61228097D01*
X109565475Y-61242481D01*
X109429972Y-61445275D01*
X109245275Y-61629972D01*
X109195866Y-61662986D01*
X109028097Y-61775086D01*
X108786780Y-61875043D01*
X108658690Y-61900521D01*
X108530601Y-61926000D01*
X108269399Y-61926000D01*
X108141310Y-61900521D01*
X108013220Y-61875043D01*
X107771903Y-61775086D01*
X107604134Y-61662986D01*
X107554725Y-61629972D01*
X107370028Y-61445275D01*
X107234525Y-61242481D01*
X107224914Y-61228097D01*
X107124957Y-60986780D01*
X107074000Y-60730600D01*
X107074000Y-60469400D01*
X107077507Y-60451771D01*
X107124957Y-60213221D01*
X107149187Y-60154725D01*
X107224914Y-59971903D01*
X107303584Y-59854166D01*
X107370028Y-59754725D01*
X107554725Y-59570028D01*
X107754025Y-59436860D01*
X107771903Y-59424914D01*
X108013220Y-59324957D01*
X108141310Y-59299478D01*
X108269399Y-59274000D01*
X108530601Y-59274000D01*
X108658690Y-59299478D01*
X108658690Y-59299478D01*
G37*
G36*
X169401000Y-61751000D02*
G01*
X168199000Y-61751000D01*
X168199000Y-59849000D01*
X169401000Y-59849000D01*
X169401000Y-61751000D01*
X169401000Y-61751000D01*
G37*
G36*
X171749315Y-59854166D02*
G01*
X171793843Y-59867674D01*
X171834892Y-59889615D01*
X171870864Y-59919136D01*
X171900385Y-59955108D01*
X171922326Y-59996157D01*
X171935834Y-60040685D01*
X171941000Y-60093140D01*
X171941000Y-61506860D01*
X171935834Y-61559315D01*
X171922326Y-61603843D01*
X171900385Y-61644892D01*
X171870864Y-61680864D01*
X171834892Y-61710385D01*
X171793843Y-61732326D01*
X171749315Y-61745834D01*
X171696860Y-61751000D01*
X170983140Y-61751000D01*
X170930685Y-61745834D01*
X170886157Y-61732326D01*
X170845108Y-61710385D01*
X170809136Y-61680864D01*
X170779615Y-61644892D01*
X170757674Y-61603843D01*
X170744166Y-61559315D01*
X170739000Y-61506860D01*
X170739000Y-60093140D01*
X170744166Y-60040685D01*
X170757674Y-59996157D01*
X170779615Y-59955108D01*
X170809136Y-59919136D01*
X170845108Y-59889615D01*
X170886157Y-59867674D01*
X170930685Y-59854166D01*
X170983140Y-59849000D01*
X171696860Y-59849000D01*
X171749315Y-59854166D01*
X171749315Y-59854166D01*
G37*
G36*
X179248228Y-59881703D02*
G01*
X179403100Y-59945853D01*
X179542481Y-60038985D01*
X179661015Y-60157519D01*
X179754147Y-60296900D01*
X179818297Y-60451772D01*
X179851000Y-60616184D01*
X179851000Y-60783816D01*
X179818297Y-60948228D01*
X179754147Y-61103100D01*
X179661015Y-61242481D01*
X179542481Y-61361015D01*
X179403100Y-61454147D01*
X179248228Y-61518297D01*
X179083816Y-61551000D01*
X178916184Y-61551000D01*
X178751772Y-61518297D01*
X178596900Y-61454147D01*
X178457519Y-61361015D01*
X178338985Y-61242481D01*
X178245853Y-61103100D01*
X178181703Y-60948228D01*
X178149000Y-60783816D01*
X178149000Y-60616184D01*
X178181703Y-60451772D01*
X178245853Y-60296900D01*
X178338985Y-60157519D01*
X178457519Y-60038985D01*
X178596900Y-59945853D01*
X178751772Y-59881703D01*
X178916184Y-59849000D01*
X179083816Y-59849000D01*
X179248228Y-59881703D01*
X179248228Y-59881703D01*
G37*
G36*
X159648228Y-59781703D02*
G01*
X159803100Y-59845853D01*
X159942481Y-59938985D01*
X160061015Y-60057519D01*
X160154147Y-60196900D01*
X160218297Y-60351772D01*
X160251000Y-60516184D01*
X160251000Y-60683816D01*
X160218297Y-60848228D01*
X160154147Y-61003100D01*
X160061015Y-61142481D01*
X159942481Y-61261015D01*
X159803100Y-61354147D01*
X159648228Y-61418297D01*
X159483816Y-61451000D01*
X159316184Y-61451000D01*
X159151772Y-61418297D01*
X158996900Y-61354147D01*
X158857519Y-61261015D01*
X158738985Y-61142481D01*
X158645853Y-61003100D01*
X158581703Y-60848228D01*
X158549000Y-60683816D01*
X158549000Y-60516184D01*
X158581703Y-60351772D01*
X158645853Y-60196900D01*
X158738985Y-60057519D01*
X158857519Y-59938985D01*
X158996900Y-59845853D01*
X159151772Y-59781703D01*
X159316184Y-59749000D01*
X159483816Y-59749000D01*
X159648228Y-59781703D01*
X159648228Y-59781703D01*
G37*
G36*
X164648228Y-59781703D02*
G01*
X164803100Y-59845853D01*
X164942481Y-59938985D01*
X165061015Y-60057519D01*
X165154147Y-60196900D01*
X165218297Y-60351772D01*
X165251000Y-60516184D01*
X165251000Y-60683816D01*
X165218297Y-60848228D01*
X165154147Y-61003100D01*
X165061015Y-61142481D01*
X164942481Y-61261015D01*
X164803100Y-61354147D01*
X164648228Y-61418297D01*
X164483816Y-61451000D01*
X164316184Y-61451000D01*
X164151772Y-61418297D01*
X163996900Y-61354147D01*
X163857519Y-61261015D01*
X163738985Y-61142481D01*
X163645853Y-61003100D01*
X163581703Y-60848228D01*
X163549000Y-60683816D01*
X163549000Y-60516184D01*
X163581703Y-60351772D01*
X163645853Y-60196900D01*
X163738985Y-60057519D01*
X163857519Y-59938985D01*
X163996900Y-59845853D01*
X164151772Y-59781703D01*
X164316184Y-59749000D01*
X164483816Y-59749000D01*
X164648228Y-59781703D01*
X164648228Y-59781703D01*
G37*
G36*
X151201000Y-61201000D02*
G01*
X147599000Y-61201000D01*
X147599000Y-57599000D01*
X151201000Y-57599000D01*
X151201000Y-61201000D01*
X151201000Y-61201000D01*
G37*
G36*
X170479315Y-57784166D02*
G01*
X170523843Y-57797674D01*
X170564892Y-57819615D01*
X170600864Y-57849136D01*
X170630385Y-57885108D01*
X170652326Y-57926157D01*
X170665834Y-57970685D01*
X170671000Y-58023140D01*
X170671000Y-59436860D01*
X170665834Y-59489315D01*
X170652326Y-59533843D01*
X170630385Y-59574892D01*
X170600864Y-59610864D01*
X170564892Y-59640385D01*
X170523843Y-59662326D01*
X170479315Y-59675834D01*
X170426860Y-59681000D01*
X169713140Y-59681000D01*
X169660685Y-59675834D01*
X169616153Y-59662325D01*
X169584923Y-59645632D01*
X169570320Y-59639583D01*
X169559256Y-59627376D01*
X169539136Y-59610864D01*
X169509615Y-59574892D01*
X169487674Y-59533843D01*
X169474166Y-59489315D01*
X169469000Y-59436860D01*
X169469000Y-58023140D01*
X169474166Y-57970685D01*
X169487674Y-57926157D01*
X169509615Y-57885108D01*
X169539136Y-57849136D01*
X169575108Y-57819615D01*
X169616157Y-57797674D01*
X169660685Y-57784166D01*
X169713140Y-57779000D01*
X170426860Y-57779000D01*
X170479315Y-57784166D01*
X170479315Y-57784166D01*
G37*
G36*
X128013512Y-57453927D02*
G01*
X128162812Y-57483624D01*
X128326784Y-57551544D01*
X128474354Y-57650147D01*
X128599853Y-57775646D01*
X128698456Y-57923216D01*
X128766376Y-58087188D01*
X128801000Y-58261259D01*
X128801000Y-58438741D01*
X128766376Y-58612812D01*
X128698456Y-58776784D01*
X128599853Y-58924354D01*
X128474354Y-59049853D01*
X128326784Y-59148456D01*
X128162812Y-59216376D01*
X128013512Y-59246073D01*
X127988742Y-59251000D01*
X127811258Y-59251000D01*
X127786488Y-59246073D01*
X127637188Y-59216376D01*
X127473216Y-59148456D01*
X127325646Y-59049853D01*
X127200147Y-58924354D01*
X127101544Y-58776784D01*
X127033624Y-58612812D01*
X126999000Y-58438741D01*
X126999000Y-58261259D01*
X127033624Y-58087188D01*
X127101544Y-57923216D01*
X127200147Y-57775646D01*
X127325646Y-57650147D01*
X127473216Y-57551544D01*
X127637188Y-57483624D01*
X127786488Y-57453927D01*
X127811258Y-57449000D01*
X127988742Y-57449000D01*
X128013512Y-57453927D01*
X128013512Y-57453927D01*
G37*
G36*
X136113512Y-57453927D02*
G01*
X136262812Y-57483624D01*
X136426784Y-57551544D01*
X136574354Y-57650147D01*
X136699853Y-57775646D01*
X136798456Y-57923216D01*
X136866376Y-58087188D01*
X136901000Y-58261259D01*
X136901000Y-58438741D01*
X136866376Y-58612812D01*
X136798456Y-58776784D01*
X136699853Y-58924354D01*
X136574354Y-59049853D01*
X136426784Y-59148456D01*
X136262812Y-59216376D01*
X136113512Y-59246073D01*
X136088742Y-59251000D01*
X135911258Y-59251000D01*
X135886488Y-59246073D01*
X135737188Y-59216376D01*
X135573216Y-59148456D01*
X135425646Y-59049853D01*
X135300147Y-58924354D01*
X135201544Y-58776784D01*
X135133624Y-58612812D01*
X135099000Y-58438741D01*
X135099000Y-58261259D01*
X135133624Y-58087188D01*
X135201544Y-57923216D01*
X135300147Y-57775646D01*
X135425646Y-57650147D01*
X135573216Y-57551544D01*
X135737188Y-57483624D01*
X135886488Y-57453927D01*
X135911258Y-57449000D01*
X136088742Y-57449000D01*
X136113512Y-57453927D01*
X136113512Y-57453927D01*
G37*
G36*
X179851000Y-59051000D02*
G01*
X178149000Y-59051000D01*
X178149000Y-57349000D01*
X179851000Y-57349000D01*
X179851000Y-59051000D01*
X179851000Y-59051000D01*
G37*
G36*
X145826366Y-54615695D02*
G01*
X145983460Y-54663349D01*
X146128231Y-54740731D01*
X146255128Y-54844872D01*
X146359269Y-54971769D01*
X146436651Y-55116540D01*
X146484305Y-55273634D01*
X146501000Y-55443140D01*
X146501000Y-57356860D01*
X146484305Y-57526366D01*
X146436651Y-57683460D01*
X146359269Y-57828231D01*
X146255128Y-57955128D01*
X146128231Y-58059269D01*
X145983460Y-58136651D01*
X145826366Y-58184305D01*
X145656860Y-58201000D01*
X143743140Y-58201000D01*
X143573634Y-58184305D01*
X143416540Y-58136651D01*
X143271769Y-58059269D01*
X143144872Y-57955128D01*
X143040731Y-57828231D01*
X142963349Y-57683460D01*
X142915695Y-57526366D01*
X142899000Y-57356860D01*
X142899000Y-55443140D01*
X142915695Y-55273634D01*
X142963349Y-55116540D01*
X143040731Y-54971769D01*
X143144872Y-54844872D01*
X143271769Y-54740731D01*
X143416540Y-54663349D01*
X143573634Y-54615695D01*
X143743140Y-54599000D01*
X145656860Y-54599000D01*
X145826366Y-54615695D01*
X145826366Y-54615695D01*
G37*
G36*
X128013512Y-54453927D02*
G01*
X128162812Y-54483624D01*
X128326784Y-54551544D01*
X128474354Y-54650147D01*
X128599853Y-54775646D01*
X128698456Y-54923216D01*
X128766376Y-55087188D01*
X128785596Y-55183816D01*
X128798960Y-55251000D01*
X128801000Y-55261259D01*
X128801000Y-55438741D01*
X128766376Y-55612812D01*
X128698456Y-55776784D01*
X128599853Y-55924354D01*
X128474354Y-56049853D01*
X128326784Y-56148456D01*
X128162812Y-56216376D01*
X128013512Y-56246073D01*
X127988742Y-56251000D01*
X127811258Y-56251000D01*
X127786488Y-56246073D01*
X127637188Y-56216376D01*
X127473216Y-56148456D01*
X127325646Y-56049853D01*
X127200147Y-55924354D01*
X127101544Y-55776784D01*
X127033624Y-55612812D01*
X126999000Y-55438741D01*
X126999000Y-55261259D01*
X127001041Y-55251000D01*
X127014404Y-55183816D01*
X127033624Y-55087188D01*
X127101544Y-54923216D01*
X127200147Y-54775646D01*
X127325646Y-54650147D01*
X127473216Y-54551544D01*
X127637188Y-54483624D01*
X127786488Y-54453927D01*
X127811258Y-54449000D01*
X127988742Y-54449000D01*
X128013512Y-54453927D01*
X128013512Y-54453927D01*
G37*
G36*
X136113512Y-54453927D02*
G01*
X136262812Y-54483624D01*
X136426784Y-54551544D01*
X136574354Y-54650147D01*
X136699853Y-54775646D01*
X136798456Y-54923216D01*
X136866376Y-55087188D01*
X136885596Y-55183816D01*
X136898960Y-55251000D01*
X136901000Y-55261259D01*
X136901000Y-55438741D01*
X136866376Y-55612812D01*
X136798456Y-55776784D01*
X136699853Y-55924354D01*
X136574354Y-56049853D01*
X136426784Y-56148456D01*
X136262812Y-56216376D01*
X136113512Y-56246073D01*
X136088742Y-56251000D01*
X135911258Y-56251000D01*
X135886488Y-56246073D01*
X135737188Y-56216376D01*
X135573216Y-56148456D01*
X135425646Y-56049853D01*
X135300147Y-55924354D01*
X135201544Y-55776784D01*
X135133624Y-55612812D01*
X135099000Y-55438741D01*
X135099000Y-55261259D01*
X135101041Y-55251000D01*
X135114404Y-55183816D01*
X135133624Y-55087188D01*
X135201544Y-54923216D01*
X135300147Y-54775646D01*
X135425646Y-54650147D01*
X135573216Y-54551544D01*
X135737188Y-54483624D01*
X135886488Y-54453927D01*
X135911258Y-54449000D01*
X136088742Y-54449000D01*
X136113512Y-54453927D01*
X136113512Y-54453927D01*
G37*
G36*
X170566823Y-54261313D02*
G01*
X170727242Y-54309976D01*
X170758704Y-54326793D01*
X170875078Y-54388996D01*
X171004659Y-54495341D01*
X171111004Y-54624922D01*
X171111005Y-54624924D01*
X171190024Y-54772758D01*
X171190025Y-54772761D01*
X171192954Y-54782416D01*
X171238687Y-54933177D01*
X171255117Y-55100000D01*
X171238687Y-55266823D01*
X171190024Y-55427242D01*
X171149477Y-55503100D01*
X171111004Y-55575078D01*
X171004659Y-55704659D01*
X170875078Y-55811004D01*
X170875076Y-55811005D01*
X170727242Y-55890024D01*
X170566823Y-55938687D01*
X170441804Y-55951000D01*
X170358196Y-55951000D01*
X170233177Y-55938687D01*
X170072758Y-55890024D01*
X169924924Y-55811005D01*
X169924922Y-55811004D01*
X169795341Y-55704659D01*
X169688996Y-55575078D01*
X169650523Y-55503100D01*
X169609976Y-55427242D01*
X169561313Y-55266823D01*
X169544883Y-55100000D01*
X169561313Y-54933177D01*
X169607046Y-54782416D01*
X169609975Y-54772761D01*
X169609976Y-54772758D01*
X169688995Y-54624924D01*
X169688996Y-54624922D01*
X169795341Y-54495341D01*
X169924922Y-54388996D01*
X170041296Y-54326793D01*
X170072758Y-54309976D01*
X170233177Y-54261313D01*
X170358196Y-54249000D01*
X170441804Y-54249000D01*
X170566823Y-54261313D01*
X170566823Y-54261313D01*
G37*
G36*
X178268228Y-54281703D02*
G01*
X178423100Y-54345853D01*
X178562481Y-54438985D01*
X178681015Y-54557519D01*
X178774147Y-54696900D01*
X178838297Y-54851772D01*
X178871000Y-55016184D01*
X178871000Y-55183816D01*
X178838297Y-55348228D01*
X178774147Y-55503100D01*
X178681015Y-55642481D01*
X178562481Y-55761015D01*
X178423100Y-55854147D01*
X178268228Y-55918297D01*
X178103816Y-55951000D01*
X177936184Y-55951000D01*
X177771772Y-55918297D01*
X177616900Y-55854147D01*
X177477519Y-55761015D01*
X177358985Y-55642481D01*
X177265853Y-55503100D01*
X177201703Y-55348228D01*
X177169000Y-55183816D01*
X177169000Y-55016184D01*
X177201703Y-54851772D01*
X177265853Y-54696900D01*
X177358985Y-54557519D01*
X177477519Y-54438985D01*
X177616900Y-54345853D01*
X177771772Y-54281703D01*
X177936184Y-54249000D01*
X178103816Y-54249000D01*
X178268228Y-54281703D01*
X178268228Y-54281703D01*
G37*
G36*
X155736424Y-52212760D02*
G01*
X155736427Y-52212761D01*
X155736428Y-52212761D01*
X155915692Y-52267140D01*
X155915695Y-52267142D01*
X155915696Y-52267142D01*
X156080903Y-52355446D01*
X156225712Y-52474288D01*
X156344554Y-52619097D01*
X156361606Y-52651000D01*
X156432860Y-52784307D01*
X156447820Y-52833625D01*
X156487240Y-52963575D01*
X156501000Y-53103282D01*
X156501000Y-54396718D01*
X156487240Y-54536425D01*
X156487239Y-54536428D01*
X156487239Y-54536429D01*
X156432860Y-54715693D01*
X156432858Y-54715696D01*
X156432858Y-54715697D01*
X156344554Y-54880903D01*
X156225712Y-55025712D01*
X156080903Y-55144554D01*
X155915697Y-55232858D01*
X155915693Y-55232860D01*
X155736429Y-55287239D01*
X155736428Y-55287239D01*
X155736425Y-55287240D01*
X155550000Y-55305601D01*
X155363576Y-55287240D01*
X155363573Y-55287239D01*
X155363572Y-55287239D01*
X155184308Y-55232860D01*
X155184304Y-55232858D01*
X155019098Y-55144554D01*
X154874289Y-55025712D01*
X154755447Y-54880903D01*
X154667140Y-54715692D01*
X154612760Y-54536430D01*
X154599000Y-54396718D01*
X154599000Y-53103283D01*
X154612760Y-52963576D01*
X154612761Y-52963572D01*
X154667140Y-52784308D01*
X154667143Y-52784303D01*
X154755446Y-52619097D01*
X154874288Y-52474288D01*
X155019097Y-52355446D01*
X155184303Y-52267142D01*
X155184304Y-52267142D01*
X155184307Y-52267140D01*
X155363571Y-52212761D01*
X155363572Y-52212761D01*
X155363575Y-52212760D01*
X155550000Y-52194399D01*
X155736424Y-52212760D01*
X155736424Y-52212760D01*
G37*
G36*
X167536424Y-52212760D02*
G01*
X167536427Y-52212761D01*
X167536428Y-52212761D01*
X167715692Y-52267140D01*
X167715695Y-52267142D01*
X167715696Y-52267142D01*
X167880903Y-52355446D01*
X168025712Y-52474288D01*
X168144554Y-52619097D01*
X168161606Y-52651000D01*
X168232860Y-52784307D01*
X168247820Y-52833625D01*
X168287240Y-52963575D01*
X168301000Y-53103282D01*
X168301000Y-54396718D01*
X168287240Y-54536425D01*
X168287239Y-54536428D01*
X168287239Y-54536429D01*
X168232860Y-54715693D01*
X168232858Y-54715696D01*
X168232858Y-54715697D01*
X168144554Y-54880903D01*
X168025712Y-55025712D01*
X167880903Y-55144554D01*
X167715697Y-55232858D01*
X167715693Y-55232860D01*
X167536429Y-55287239D01*
X167536428Y-55287239D01*
X167536425Y-55287240D01*
X167350000Y-55305601D01*
X167163576Y-55287240D01*
X167163573Y-55287239D01*
X167163572Y-55287239D01*
X166984308Y-55232860D01*
X166984304Y-55232858D01*
X166819098Y-55144554D01*
X166674289Y-55025712D01*
X166555447Y-54880903D01*
X166467140Y-54715692D01*
X166412760Y-54536430D01*
X166399000Y-54396718D01*
X166399000Y-53103283D01*
X166412760Y-52963576D01*
X166412761Y-52963572D01*
X166467140Y-52784308D01*
X166467143Y-52784303D01*
X166555446Y-52619097D01*
X166674288Y-52474288D01*
X166819097Y-52355446D01*
X166984303Y-52267142D01*
X166984304Y-52267142D01*
X166984307Y-52267140D01*
X167163571Y-52212761D01*
X167163572Y-52212761D01*
X167163575Y-52212760D01*
X167350000Y-52194399D01*
X167536424Y-52212760D01*
X167536424Y-52212760D01*
G37*
G36*
X103875256Y-51991298D02*
G01*
X103981579Y-52012447D01*
X104155064Y-52084307D01*
X104258719Y-52127242D01*
X104282042Y-52136903D01*
X104552451Y-52317585D01*
X104782415Y-52547549D01*
X104961586Y-52815697D01*
X104963098Y-52817960D01*
X104999550Y-52905963D01*
X105081284Y-53103286D01*
X105087553Y-53118422D01*
X105143762Y-53401000D01*
X105151000Y-53437391D01*
X105151000Y-53762609D01*
X105087553Y-54081579D01*
X105025304Y-54231860D01*
X104978088Y-54345852D01*
X104963097Y-54382042D01*
X104782415Y-54652451D01*
X104552451Y-54882415D01*
X104282042Y-55063097D01*
X103981579Y-55187553D01*
X103875256Y-55208702D01*
X103662611Y-55251000D01*
X103337389Y-55251000D01*
X103124744Y-55208702D01*
X103018421Y-55187553D01*
X102717958Y-55063097D01*
X102447549Y-54882415D01*
X102217585Y-54652451D01*
X102036903Y-54382042D01*
X102021913Y-54345852D01*
X101974696Y-54231860D01*
X101912447Y-54081579D01*
X101849000Y-53762609D01*
X101849000Y-53437391D01*
X101856239Y-53401000D01*
X101912447Y-53118422D01*
X101918717Y-53103286D01*
X102000450Y-52905963D01*
X102036902Y-52817960D01*
X102038414Y-52815697D01*
X102217585Y-52547549D01*
X102447549Y-52317585D01*
X102717958Y-52136903D01*
X102741282Y-52127242D01*
X102844936Y-52084307D01*
X103018421Y-52012447D01*
X103124744Y-51991298D01*
X103337389Y-51949000D01*
X103662611Y-51949000D01*
X103875256Y-51991298D01*
X103875256Y-51991298D01*
G37*
G36*
X196937636Y-51883815D02*
G01*
X197081579Y-51912447D01*
X197382042Y-52036903D01*
X197652451Y-52217585D01*
X197882415Y-52447549D01*
X198063097Y-52717958D01*
X198179984Y-53000147D01*
X198187553Y-53018422D01*
X198251000Y-53337389D01*
X198251000Y-53662611D01*
X198225911Y-53788741D01*
X198187553Y-53981579D01*
X198127408Y-54126782D01*
X198063238Y-54281703D01*
X198063097Y-54282042D01*
X197882415Y-54552451D01*
X197652451Y-54782415D01*
X197382042Y-54963097D01*
X197081579Y-55087553D01*
X196975256Y-55108702D01*
X196762611Y-55151000D01*
X196437389Y-55151000D01*
X196224744Y-55108702D01*
X196118421Y-55087553D01*
X195817958Y-54963097D01*
X195547549Y-54782415D01*
X195317585Y-54552451D01*
X195136903Y-54282042D01*
X195136763Y-54281703D01*
X195072592Y-54126782D01*
X195012447Y-53981579D01*
X194974089Y-53788741D01*
X194949000Y-53662611D01*
X194949000Y-53337389D01*
X195012447Y-53018422D01*
X195020017Y-53000147D01*
X195136903Y-52717958D01*
X195317585Y-52447549D01*
X195547549Y-52217585D01*
X195817958Y-52036903D01*
X196118421Y-51912447D01*
X196262364Y-51883815D01*
X196437389Y-51849000D01*
X196762611Y-51849000D01*
X196937636Y-51883815D01*
X196937636Y-51883815D01*
G37*
G36*
X150626979Y-51863293D02*
G01*
X150760625Y-51903834D01*
X150883784Y-51969664D01*
X150991740Y-52058260D01*
X151080336Y-52166216D01*
X151146166Y-52289375D01*
X151186707Y-52423021D01*
X151201000Y-52568140D01*
X151201000Y-54231860D01*
X151186707Y-54376979D01*
X151146166Y-54510625D01*
X151080336Y-54633784D01*
X150991740Y-54741740D01*
X150883784Y-54830336D01*
X150760625Y-54896166D01*
X150626979Y-54936707D01*
X150481860Y-54951000D01*
X148318140Y-54951000D01*
X148173021Y-54936707D01*
X148039375Y-54896166D01*
X147916216Y-54830336D01*
X147808260Y-54741740D01*
X147719664Y-54633784D01*
X147653834Y-54510625D01*
X147613293Y-54376979D01*
X147599000Y-54231860D01*
X147599000Y-52568140D01*
X147613293Y-52423021D01*
X147653834Y-52289375D01*
X147719664Y-52166216D01*
X147808260Y-52058260D01*
X147916216Y-51969664D01*
X148039375Y-51903834D01*
X148173021Y-51863293D01*
X148318140Y-51849000D01*
X150481860Y-51849000D01*
X150626979Y-51863293D01*
X150626979Y-51863293D01*
G37*
G36*
X158563512Y-52803927D02*
G01*
X158712812Y-52833624D01*
X158876784Y-52901544D01*
X159024354Y-53000147D01*
X159149853Y-53125646D01*
X159248456Y-53273216D01*
X159316376Y-53437188D01*
X159351000Y-53611259D01*
X159351000Y-53788741D01*
X159316376Y-53962812D01*
X159248456Y-54126784D01*
X159149853Y-54274354D01*
X159024354Y-54399853D01*
X158876784Y-54498456D01*
X158712812Y-54566376D01*
X158563512Y-54596073D01*
X158538742Y-54601000D01*
X158361258Y-54601000D01*
X158336488Y-54596073D01*
X158187188Y-54566376D01*
X158023216Y-54498456D01*
X157875646Y-54399853D01*
X157750147Y-54274354D01*
X157651544Y-54126784D01*
X157583624Y-53962812D01*
X157549000Y-53788741D01*
X157549000Y-53611259D01*
X157583624Y-53437188D01*
X157651544Y-53273216D01*
X157750147Y-53125646D01*
X157875646Y-53000147D01*
X158023216Y-52901544D01*
X158187188Y-52833624D01*
X158336488Y-52803927D01*
X158361258Y-52799000D01*
X158538742Y-52799000D01*
X158563512Y-52803927D01*
X158563512Y-52803927D01*
G37*
G36*
X161563512Y-52803927D02*
G01*
X161712812Y-52833624D01*
X161876784Y-52901544D01*
X162024354Y-53000147D01*
X162149853Y-53125646D01*
X162248456Y-53273216D01*
X162316376Y-53437188D01*
X162351000Y-53611259D01*
X162351000Y-53788741D01*
X162316376Y-53962812D01*
X162248456Y-54126784D01*
X162149853Y-54274354D01*
X162024354Y-54399853D01*
X161876784Y-54498456D01*
X161712812Y-54566376D01*
X161563512Y-54596073D01*
X161538742Y-54601000D01*
X161361258Y-54601000D01*
X161336488Y-54596073D01*
X161187188Y-54566376D01*
X161023216Y-54498456D01*
X160875646Y-54399853D01*
X160750147Y-54274354D01*
X160651544Y-54126784D01*
X160583624Y-53962812D01*
X160549000Y-53788741D01*
X160549000Y-53611259D01*
X160583624Y-53437188D01*
X160651544Y-53273216D01*
X160750147Y-53125646D01*
X160875646Y-53000147D01*
X161023216Y-52901544D01*
X161187188Y-52833624D01*
X161336488Y-52803927D01*
X161361258Y-52799000D01*
X161538742Y-52799000D01*
X161563512Y-52803927D01*
X161563512Y-52803927D01*
G37*
G36*
X164563512Y-52803927D02*
G01*
X164712812Y-52833624D01*
X164876784Y-52901544D01*
X165024354Y-53000147D01*
X165149853Y-53125646D01*
X165248456Y-53273216D01*
X165316376Y-53437188D01*
X165351000Y-53611259D01*
X165351000Y-53788741D01*
X165316376Y-53962812D01*
X165248456Y-54126784D01*
X165149853Y-54274354D01*
X165024354Y-54399853D01*
X164876784Y-54498456D01*
X164712812Y-54566376D01*
X164563512Y-54596073D01*
X164538742Y-54601000D01*
X164361258Y-54601000D01*
X164336488Y-54596073D01*
X164187188Y-54566376D01*
X164023216Y-54498456D01*
X163875646Y-54399853D01*
X163750147Y-54274354D01*
X163651544Y-54126784D01*
X163583624Y-53962812D01*
X163549000Y-53788741D01*
X163549000Y-53611259D01*
X163583624Y-53437188D01*
X163651544Y-53273216D01*
X163750147Y-53125646D01*
X163875646Y-53000147D01*
X164023216Y-52901544D01*
X164187188Y-52833624D01*
X164336488Y-52803927D01*
X164361258Y-52799000D01*
X164538742Y-52799000D01*
X164563512Y-52803927D01*
X164563512Y-52803927D01*
G37*
G36*
X136736425Y-51512760D02*
G01*
X136736428Y-51512761D01*
X136736429Y-51512761D01*
X136915693Y-51567140D01*
X136915696Y-51567142D01*
X136915697Y-51567142D01*
X137080903Y-51655446D01*
X137225712Y-51774288D01*
X137344554Y-51919097D01*
X137413576Y-52048229D01*
X137432860Y-52084307D01*
X137471826Y-52212761D01*
X137487240Y-52263575D01*
X137505601Y-52450000D01*
X137487240Y-52636425D01*
X137487239Y-52636428D01*
X137487239Y-52636429D01*
X137432860Y-52815693D01*
X137432858Y-52815696D01*
X137432858Y-52815697D01*
X137344554Y-52980903D01*
X137225712Y-53125712D01*
X137080903Y-53244554D01*
X136915697Y-53332858D01*
X136915693Y-53332860D01*
X136736429Y-53387239D01*
X136736428Y-53387239D01*
X136736425Y-53387240D01*
X136596718Y-53401000D01*
X135303282Y-53401000D01*
X135163575Y-53387240D01*
X135163572Y-53387239D01*
X135163571Y-53387239D01*
X134984307Y-53332860D01*
X134984303Y-53332858D01*
X134819097Y-53244554D01*
X134674288Y-53125712D01*
X134555446Y-52980903D01*
X134467142Y-52815697D01*
X134467142Y-52815696D01*
X134467140Y-52815693D01*
X134412761Y-52636429D01*
X134412761Y-52636428D01*
X134412760Y-52636425D01*
X134394399Y-52450000D01*
X134412760Y-52263575D01*
X134428174Y-52212761D01*
X134467140Y-52084307D01*
X134486424Y-52048229D01*
X134555446Y-51919097D01*
X134674288Y-51774288D01*
X134819097Y-51655446D01*
X134984303Y-51567142D01*
X134984304Y-51567142D01*
X134984307Y-51567140D01*
X135163571Y-51512761D01*
X135163572Y-51512761D01*
X135163575Y-51512760D01*
X135303282Y-51499000D01*
X136596718Y-51499000D01*
X136736425Y-51512760D01*
X136736425Y-51512760D01*
G37*
G36*
X128636425Y-51512760D02*
G01*
X128636428Y-51512761D01*
X128636429Y-51512761D01*
X128815693Y-51567140D01*
X128815696Y-51567142D01*
X128815697Y-51567142D01*
X128980903Y-51655446D01*
X129125712Y-51774288D01*
X129244554Y-51919097D01*
X129313576Y-52048229D01*
X129332860Y-52084307D01*
X129371826Y-52212761D01*
X129387240Y-52263575D01*
X129405601Y-52450000D01*
X129387240Y-52636425D01*
X129387239Y-52636428D01*
X129387239Y-52636429D01*
X129332860Y-52815693D01*
X129332858Y-52815696D01*
X129332858Y-52815697D01*
X129244554Y-52980903D01*
X129125712Y-53125712D01*
X128980903Y-53244554D01*
X128815697Y-53332858D01*
X128815693Y-53332860D01*
X128636429Y-53387239D01*
X128636428Y-53387239D01*
X128636425Y-53387240D01*
X128496718Y-53401000D01*
X127203282Y-53401000D01*
X127063575Y-53387240D01*
X127063572Y-53387239D01*
X127063571Y-53387239D01*
X126884307Y-53332860D01*
X126884303Y-53332858D01*
X126719097Y-53244554D01*
X126574288Y-53125712D01*
X126455446Y-52980903D01*
X126367142Y-52815697D01*
X126367142Y-52815696D01*
X126367140Y-52815693D01*
X126312761Y-52636429D01*
X126312761Y-52636428D01*
X126312760Y-52636425D01*
X126294399Y-52450000D01*
X126312760Y-52263575D01*
X126328174Y-52212761D01*
X126367140Y-52084307D01*
X126386424Y-52048229D01*
X126455446Y-51919097D01*
X126574288Y-51774288D01*
X126719097Y-51655446D01*
X126884303Y-51567142D01*
X126884304Y-51567142D01*
X126884307Y-51567140D01*
X127063571Y-51512761D01*
X127063572Y-51512761D01*
X127063575Y-51512760D01*
X127203282Y-51499000D01*
X128496718Y-51499000D01*
X128636425Y-51512760D01*
X128636425Y-51512760D01*
G37*
G36*
X178186823Y-50961313D02*
G01*
X178347242Y-51009976D01*
X178414361Y-51045852D01*
X178495078Y-51088996D01*
X178624659Y-51195341D01*
X178731004Y-51324922D01*
X178731005Y-51324924D01*
X178810024Y-51472758D01*
X178810025Y-51472761D01*
X178819083Y-51502620D01*
X178858687Y-51633177D01*
X178875117Y-51800000D01*
X178858687Y-51966823D01*
X178810024Y-52127242D01*
X178739114Y-52259906D01*
X178731004Y-52275078D01*
X178624659Y-52404659D01*
X178495078Y-52511004D01*
X178495076Y-52511005D01*
X178347242Y-52590024D01*
X178186823Y-52638687D01*
X178061804Y-52651000D01*
X177978196Y-52651000D01*
X177853177Y-52638687D01*
X177692758Y-52590024D01*
X177544924Y-52511005D01*
X177544922Y-52511004D01*
X177415341Y-52404659D01*
X177308996Y-52275078D01*
X177300886Y-52259906D01*
X177229976Y-52127242D01*
X177181313Y-51966823D01*
X177164883Y-51800000D01*
X177181313Y-51633177D01*
X177220917Y-51502620D01*
X177229975Y-51472761D01*
X177229976Y-51472758D01*
X177308995Y-51324924D01*
X177308996Y-51324922D01*
X177415341Y-51195341D01*
X177544922Y-51088996D01*
X177625639Y-51045852D01*
X177692758Y-51009976D01*
X177853177Y-50961313D01*
X177978196Y-50949000D01*
X178061804Y-50949000D01*
X178186823Y-50961313D01*
X178186823Y-50961313D01*
G37*
G36*
X170648228Y-50981703D02*
G01*
X170803100Y-51045853D01*
X170942481Y-51138985D01*
X171061015Y-51257519D01*
X171154147Y-51396900D01*
X171218297Y-51551772D01*
X171251000Y-51716184D01*
X171251000Y-51883816D01*
X171218297Y-52048228D01*
X171154147Y-52203100D01*
X171061015Y-52342481D01*
X170942481Y-52461015D01*
X170803100Y-52554147D01*
X170648228Y-52618297D01*
X170483816Y-52651000D01*
X170316184Y-52651000D01*
X170151772Y-52618297D01*
X169996900Y-52554147D01*
X169857519Y-52461015D01*
X169738985Y-52342481D01*
X169645853Y-52203100D01*
X169581703Y-52048228D01*
X169549000Y-51883816D01*
X169549000Y-51716184D01*
X169581703Y-51551772D01*
X169645853Y-51396900D01*
X169738985Y-51257519D01*
X169857519Y-51138985D01*
X169996900Y-51045853D01*
X170151772Y-50981703D01*
X170316184Y-50949000D01*
X170483816Y-50949000D01*
X170648228Y-50981703D01*
X170648228Y-50981703D01*
G37*
M02*
