<?xml version="1.0" standalone="no"?>
 <!DOCTYPE svg PUBLIC "-//W3C//DTD SVG 1.1//EN" 
 "http://www.w3.org/Graphics/SVG/1.1/DTD/svg11.dtd"> 
<svg
  xmlns:svg="http://www.w3.org/2000/svg"
  xmlns="http://www.w3.org/2000/svg"
  xmlns:xlink="http://www.w3.org/1999/xlink"
  version="1.1"
  width="10.007600cm" height="4.003040cm" viewBox="0 0 100076000 40030400">
<title>SVG Picture created as _rupture_panel-F_Silkscreen.svg date 2023/07/12 19:53:40 </title>
  <desc>Picture generated by PCBNEW </desc>
<g style="fill:#000000; fill-opacity:1.000000;stroke:#000000; stroke-opacity:1.000000;
stroke-linecap:round; stroke-linejoin:round;"
 transform="translate(0 0) scale(1 1)">
</g>
<g style="fill:#000000; fill-opacity:0.0; 
stroke:#000000; stroke-width:0.000000; stroke-opacity:1; 
stroke-linecap:round; stroke-linejoin:round;">
</g>
<g style="fill:#000000; fill-opacity:0.0; 
stroke:#000000; stroke-width:200000.000000; stroke-opacity:1; 
stroke-linecap:round; stroke-linejoin:round;">
<path d="M26450000 22425000
L37750000 22425000
" />
<path d="M60750000 22425000
L72050000 22425000
" />
</g>
<g style="fill:#000000; fill-opacity:0.0; 
stroke:#000000; stroke-width:300000.000000; stroke-opacity:1; 
stroke-linecap:round; stroke-linejoin:round;">
<text x="49100000.000000" y="23175000.000000"
textLength="20861905.000000" font-size="2266666.000000" lengthAdjust="spacingAndGlyphs"
text-anchor="middle" opacity="0">GLITCH EFFECTS</text>
<g class="stroked-text"><desc>GLITCH EFFECTS</desc>
<path d="M40114285 21475000
L39952380 21394047
L39709523 21394047
L39466666 21475000
L39304761 21636904
L39223809 21798809
L39142857 22122619
L39142857 22365476
L39223809 22689285
L39304761 22851190
L39466666 23013095
L39709523 23094047
L39871428 23094047
L40114285 23013095
L40195238 22932142
L40195238 22365476
L39871428 22365476
" />
<path d="M41733333 23094047
L40923809 23094047
L40923809 21394047
" />
<path d="M42300000 23094047
L42300000 21394047
" />
<path d="M42866666 21394047
L43838095 21394047
" />
<path d="M43352380 23094047
L43352380 21394047
" />
<path d="M45376190 22932142
L45295238 23013095
L45052380 23094047
L44890476 23094047
L44647619 23013095
L44485714 22851190
L44404761 22689285
L44323809 22365476
L44323809 22122619
L44404761 21798809
L44485714 21636904
L44647619 21475000
L44890476 21394047
L45052380 21394047
L45295238 21475000
L45376190 21555952
" />
<path d="M46104761 23094047
L46104761 21394047
" />
<path d="M46104761 22203571
L47076190 22203571
" />
<path d="M47076190 23094047
L47076190 21394047
" />
<path d="M49180952 22203571
L49747619 22203571
" />
<path d="M49990476 23094047
L49180952 23094047
L49180952 21394047
L49990476 21394047
" />
<path d="M51285714 22203571
L50719047 22203571
" />
<path d="M50719047 23094047
L50719047 21394047
L51528571 21394047
" />
<path d="M52742857 22203571
L52176190 22203571
" />
<path d="M52176190 23094047
L52176190 21394047
L52985714 21394047
" />
<path d="M53633333 22203571
L54200000 22203571
" />
<path d="M54442857 23094047
L53633333 23094047
L53633333 21394047
L54442857 21394047
" />
<path d="M56142857 22932142
L56061904 23013095
L55819047 23094047
L55657142 23094047
L55414285 23013095
L55252380 22851190
L55171428 22689285
L55090476 22365476
L55090476 22122619
L55171428 21798809
L55252380 21636904
L55414285 21475000
L55657142 21394047
L55819047 21394047
L56061904 21475000
L56142857 21555952
" />
<path d="M56628571 21394047
L57600000 21394047
" />
<path d="M57114285 23094047
L57114285 21394047
" />
<path d="M58085714 23013095
L58328571 23094047
L58733333 23094047
L58895238 23013095
L58976190 22932142
L59057142 22770238
L59057142 22608333
L58976190 22446428
L58895238 22365476
L58733333 22284523
L58409523 22203571
L58247619 22122619
L58166666 22041666
L58085714 21879761
L58085714 21717857
L58166666 21555952
L58247619 21475000
L58409523 21394047
L58814285 21394047
L59057142 21475000
" />
</g></g>
<g style="fill:#000000; fill-opacity:0.0; 
stroke:#000000; stroke-width:400000.000000; stroke-opacity:1; 
stroke-linecap:round; stroke-linejoin:round;">
<text x="10280000.000000" y="4805000.000000"
textLength="4961429.000000" font-size="4000000.000000" lengthAdjust="spacingAndGlyphs"
text-anchor="middle" opacity="0">IN</text>
<g class="stroked-text"><desc>IN</desc>
<path d="M8708571 4662142
L8708571 1662142
" />
<path d="M10137142 4662142
L10137142 1662142
L11851428 4662142
L11851428 1662142
" />
</g></g>
<g style="fill:#000000; fill-opacity:0.0; 
stroke:#000000; stroke-width:300000.000000; stroke-opacity:1; 
stroke-linecap:round; stroke-linejoin:round;">
<text x="61600000.000000" y="11255000.000000"
textLength="10734286.000000" font-size="2000000.000000" lengthAdjust="spacingAndGlyphs"
text-anchor="middle" opacity="0">regulator</text>
<g class="stroked-text"><desc>regulator</desc>
<path d="M56850000 11183571
L56850000 10183571
" />
<path d="M56850000 10469285
L56921428 10326428
L56992857 10255000
L57135714 10183571
L57278571 10183571
" />
<path d="M58350000 11112142
L58207142 11183571
L57921428 11183571
L57778571 11112142
L57707142 10969285
L57707142 10397857
L57778571 10255000
L57921428 10183571
L58207142 10183571
L58350000 10255000
L58421428 10397857
L58421428 10540714
L57707142 10683571
" />
<path d="M59707142 10183571
L59707142 11397857
L59635714 11540714
L59564285 11612142
L59421428 11683571
L59207142 11683571
L59064285 11612142
" />
<path d="M59707142 11112142
L59564285 11183571
L59278571 11183571
L59135714 11112142
L59064285 11040714
L58992857 10897857
L58992857 10469285
L59064285 10326428
L59135714 10255000
L59278571 10183571
L59564285 10183571
L59707142 10255000
" />
<path d="M61064285 10183571
L61064285 11183571
" />
<path d="M60421428 10183571
L60421428 10969285
L60492857 11112142
L60635714 11183571
L60850000 11183571
L60992857 11112142
L61064285 11040714
" />
<path d="M61992857 11183571
L61850000 11112142
L61778571 10969285
L61778571 9683571
" />
<path d="M63207142 11183571
L63207142 10397857
L63135714 10255000
L62992857 10183571
L62707142 10183571
L62564285 10255000
" />
<path d="M63207142 11112142
L63064285 11183571
L62707142 11183571
L62564285 11112142
L62492857 10969285
L62492857 10826428
L62564285 10683571
L62707142 10612142
L63064285 10612142
L63207142 10540714
" />
<path d="M63707142 10183571
L64278571 10183571
" />
<path d="M63921428 9683571
L63921428 10969285
L63992857 11112142
L64135714 11183571
L64278571 11183571
" />
<path d="M64992857 11183571
L64850000 11112142
L64778571 11040714
L64707142 10897857
L64707142 10469285
L64778571 10326428
L64850000 10255000
L64992857 10183571
L65207142 10183571
L65350000 10255000
L65421428 10326428
L65492857 10469285
L65492857 10897857
L65421428 11040714
L65350000 11112142
L65207142 11183571
L64992857 11183571
" />
<path d="M66135714 11183571
L66135714 10183571
" />
<path d="M66135714 10469285
L66207142 10326428
L66278571 10255000
L66421428 10183571
L66564285 10183571
" />
</g><text x="31850000.000000" y="16565000.000000"
textLength="7104286.000000" font-size="2000000.000000" lengthAdjust="spacingAndGlyphs"
text-anchor="middle" opacity="0">router</text>
<g class="stroked-text"><desc>router</desc>
<path d="M28850000 16493571
L28850000 15493571
" />
<path d="M28850000 15779285
L28921428 15636428
L28992857 15565000
L29135714 15493571
L29278571 15493571
" />
<path d="M29992857 16493571
L29850000 16422142
L29778571 16350714
L29707142 16207857
L29707142 15779285
L29778571 15636428
L29850000 15565000
L29992857 15493571
L30207142 15493571
L30350000 15565000
L30421428 15636428
L30492857 15779285
L30492857 16207857
L30421428 16350714
L30350000 16422142
L30207142 16493571
L29992857 16493571
" />
<path d="M31778571 15493571
L31778571 16493571
" />
<path d="M31135714 15493571
L31135714 16279285
L31207142 16422142
L31350000 16493571
L31564285 16493571
L31707142 16422142
L31778571 16350714
" />
<path d="M32278571 15493571
L32850000 15493571
" />
<path d="M32492857 14993571
L32492857 16279285
L32564285 16422142
L32707142 16493571
L32850000 16493571
" />
<path d="M33921428 16422142
L33778571 16493571
L33492857 16493571
L33350000 16422142
L33278571 16279285
L33278571 15707857
L33350000 15565000
L33492857 15493571
L33778571 15493571
L33921428 15565000
L33992857 15707857
L33992857 15850714
L33278571 15993571
" />
<path d="M34635714 16493571
L34635714 15493571
" />
<path d="M34635714 15779285
L34707142 15636428
L34778571 15565000
L34921428 15493571
L35064285 15493571
" />
</g></g>
<g style="fill:#000000; fill-opacity:0.0; 
stroke:#000000; stroke-width:400000.000000; stroke-opacity:1; 
stroke-linecap:round; stroke-linejoin:round;">
<text x="88240000.000000" y="4885000.000000"
textLength="8961429.000000" font-size="4000000.000000" lengthAdjust="spacingAndGlyphs"
text-anchor="middle" opacity="0">OUT</text>
<g class="stroked-text"><desc>OUT</desc>
<path d="M85240000 1742142
L85811428 1742142
L86097142 1885000
L86382857 2170714
L86525714 2742142
L86525714 3742142
L86382857 4313571
L86097142 4599285
L85811428 4742142
L85240000 4742142
L84954285 4599285
L84668571 4313571
L84525714 3742142
L84525714 2742142
L84668571 2170714
L84954285 1885000
L85240000 1742142
" />
<path d="M87811428 1742142
L87811428 4170714
L87954285 4456428
L88097142 4599285
L88382857 4742142
L88954285 4742142
L89240000 4599285
L89382857 4456428
L89525714 4170714
L89525714 1742142
" />
<path d="M90525714 1742142
L92240000 1742142
" />
<path d="M91382857 4742142
L91382857 1742142
" />
</g></g>
<g style="fill:#000000; fill-opacity:0.0; 
stroke:#000000; stroke-width:300000.000000; stroke-opacity:1; 
stroke-linecap:round; stroke-linejoin:round;">
<text x="61550000.000000" y="8775000.000000"
textLength="13520000.000000" font-size="2000000.000000" lengthAdjust="spacingAndGlyphs"
text-anchor="middle" opacity="0">5v &lt;-&gt; 9v</text>
<g class="stroked-text"><desc>5v &lt;-&gt; 9v</desc>
<path d="M56121428 7203571
L55407142 7203571
L55335714 7917857
L55407142 7846428
L55550000 7775000
L55907142 7775000
L56050000 7846428
L56121428 7917857
L56192857 8060714
L56192857 8417857
L56121428 8560714
L56050000 8632142
L55907142 8703571
L55550000 8703571
L55407142 8632142
L55335714 8560714
" />
<path d="M56692857 7703571
L57050000 8703571
L57407142 7703571
" />
<path d="M60264285 7703571
L59121428 8132142
L60264285 8560714
" />
<path d="M60978571 8132142
L62121428 8132142
" />
<path d="M62835714 7703571
L63978571 8132142
L62835714 8560714
" />
<path d="M65907142 8703571
L66192857 8703571
L66335714 8632142
L66407142 8560714
L66550000 8346428
L66621428 8060714
L66621428 7489285
L66550000 7346428
L66478571 7275000
L66335714 7203571
L66050000 7203571
L65907142 7275000
L65835714 7346428
L65764285 7489285
L65764285 7846428
L65835714 7989285
L65907142 8060714
L66050000 8132142
L66335714 8132142
L66478571 8060714
L66550000 7989285
L66621428 7846428
" />
<path d="M67121428 7703571
L67478571 8703571
L67835714 7703571
" />
</g><g >
</g>
<g >
</g>
<g >
</g>
</g> 
</svg>
