  0
SECTION
  2
HEADER
  9
$ACADVER
  1
AC1014
  9
$HANDSEED
  5
FFFF
  9
$INSUNITS
 70
     5
  9
$MEASUREMENT
 70
     1
  0
ENDSEC
  0
SECTION
  2
TABLES
  0
TABLE
  2
VPORT
  5
8
330
0
100
AcDbSymbolTable
 70
     4
  0
VPORT
  5
2E
330
8
100
AcDbSymbolTableRecord
100
AcDbViewportTableRecord
  2
*ACTIVE
 70
     0
 10
0.0
 20
0.0
 11
1.0
 21
1.0
 12
210.0
 22
148.5
 13
0.0
 23
0.0
 14
10.0
 24
10.0
 15
10.0
 25
10.0
 16
0.0
 26
0.0
 36
1.0
 17
0.0
 27
0.0
 37
0.0
 40
341.0
 41
1.24
 42
50.0
 43
0.0
 44
0.0
 50
0.0
 51
0.0
 71
     0
 72
   100
 73
     1
 74
     3
 75
     0
 76
     0
 77
     0
 78
     0
  0
ENDTAB
  0
TABLE
  2
LTYPE
  5
5
330
0
100
AcDbSymbolTable
 70
     1
  0
LTYPE
  5
14
330
5
100
AcDbSymbolTableRecord
100
AcDbLinetypeTableRecord
  2
BYBLOCK
 70
     0
  3

 72
    65
 73
     0
 40
0.0
  0
LTYPE
  5
15
330
5
100
AcDbSymbolTableRecord
100
AcDbLinetypeTableRecord
  2
BYLAYER
 70
     0
  3

 72
    65
 73
     0
 40
0.0
  0
LTYPE
  5
16
330
5
100
AcDbSymbolTableRecord
100
AcDbLinetypeTableRecord
  2
CONTINUOUS
 70
     0
  3
Solid line
 72
    65
 73
     0
 40
0.0
  0
ENDTAB
  0
TABLE
  2
LAYER
  5
2
100
AcDbSymbolTable
 70
1
  0
LAYER
  5
50
100
AcDbSymbolTableRecord
100
AcDbLayerTableRecord
  2
0
 70
0
  6
CONTINUOUS
  0
ENDTAB
  0
TABLE
  2
STYLE
  5
3
330
0
100
AcDbSymbolTable
 70
     1
  0
STYLE
  5
11
330
3
100
AcDbSymbolTableRecord
100
AcDbTextStyleTableRecord
  2
STANDARD
 70
     0
 40
0.0
 41
1.0
 50
0.0
 71
     0
 42
2.5
  3
txt
  4

  0
ENDTAB
  0
TABLE
  2
VIEW
  5
6
330
0
100
AcDbSymbolTable
 70
     0
  0
ENDTAB
  0
TABLE
  2
UCS
  5
7
330
0
100
AcDbSymbolTable
 70
     0
  0
ENDTAB
  0
TABLE
  2
APPID
  5
9
330
0
100
AcDbSymbolTable
 70
     2
  0
APPID
  5
12
330
9
100
AcDbSymbolTableRecord
100
AcDbRegAppTableRecord
  2
ACAD
 70
     0
  0
ENDTAB
  0
TABLE
  2
DIMSTYLE
  5
A
330
0
100
AcDbSymbolTable
 70
     1
  0
DIMSTYLE
105
27
330
A
100
AcDbSymbolTableRecord
100
AcDbDimStyleTableRecord
  2
ISO-25
 70
     0
  3

  4

  5

  6

  7

 40
1.0
 41
2.5
 42
0.625
 43
3.75
 44
1.25
 45
0.0
 46
0.0
 47
0.0
 48
0.0
140
2.5
141
2.5
142
0.0
143
0.03937007874016
144
1.0
145
0.0
146
1.0
147
0.625
 71
     0
 72
     0
 73
     0
 74
     0
 75
     0
 76
     0
 77
     1
 78
     8
170
     0
171
     3
172
     1
173
     0
174
     0
175
     0
176
     0
177
     0
178
     0
270
     2
271
     2
272
     2
273
     2
274
     3
340
11
275
     0
280
     0
281
     0
282
     0
283
     0
284
     8
285
     0
286
     0
287
     3
288
     0
  0
ENDTAB
  0
TABLE
  2
BLOCK_RECORD
  5
1
330
0
100
AcDbSymbolTable
 70
     1
  0
BLOCK_RECORD
  5
1F
330
1
100
AcDbSymbolTableRecord
100
AcDbBlockTableRecord
  2
*MODEL_SPACE
  0
BLOCK_RECORD
  5
1B
330
1
100
AcDbSymbolTableRecord
100
AcDbBlockTableRecord
  2
*PAPER_SPACE
  0
ENDTAB
  0
ENDSEC
  0
SECTION
  2
BLOCKS
  0
BLOCK
  5
20
330
1F
100
AcDbEntity
  8
0
100
AcDbBlockBegin
  2
*MODEL_SPACE
 70
     0
 10
0.0
 20
0.0
 30
0.0
  3
*MODEL_SPACE
  1

  0
ENDBLK
  5
21
330
1F
100
AcDbEntity
  8
0
100
AcDbBlockEnd
  0
BLOCK
  5
1C
330
1B
100
AcDbEntity
 67
     1
  8
0
100
AcDbBlockBegin
  2
*PAPER_SPACE
  1

  0
ENDBLK
  5
1D
330
1B
100
AcDbEntity
 67
     1
  8
0
100
AcDbBlockEnd
  0
ENDSEC
  0
SECTION
  2
ENTITIES
  0
LWPOLYLINE
  5
100
100
AcDbEntity
  8
0
 62
7
100
AcDbPolyline
 90
2
 70
0
 10
2.645000
 20
1.760540
 30
0.0
 10
3.775000
 20
1.760540
 30
0.0
  0
LWPOLYLINE
  5
101
100
AcDbEntity
  8
0
 62
7
100
AcDbPolyline
 90
2
 70
0
 10
6.075000
 20
1.760540
 30
0.0
 10
7.205000
 20
1.760540
 30
0.0
  0
LWPOLYLINE
  5
102
100
AcDbEntity
  8
0
 62
7
100
AcDbPolyline
 90
17
 70
0
 10
4.011429
 20
1.855540
 30
0.0
 10
3.995238
 20
1.863635
 30
0.0
 10
3.970952
 20
1.863635
 30
0.0
 10
3.946667
 20
1.855540
 30
0.0
 10
3.930476
 20
1.839350
 30
0.0
 10
3.922381
 20
1.823159
 30
0.0
 10
3.914286
 20
1.790778
 30
0.0
 10
3.914286
 20
1.766492
 30
0.0
 10
3.922381
 20
1.734112
 30
0.0
 10
3.930476
 20
1.717921
 30
0.0
 10
3.946667
 20
1.701731
 30
0.0
 10
3.970952
 20
1.693635
 30
0.0
 10
3.987143
 20
1.693635
 30
0.0
 10
4.011429
 20
1.701731
 30
0.0
 10
4.019524
 20
1.709826
 30
0.0
 10
4.019524
 20
1.766492
 30
0.0
 10
3.987143
 20
1.766492
 30
0.0
  0
LWPOLYLINE
  5
103
100
AcDbEntity
  8
0
 62
7
100
AcDbPolyline
 90
3
 70
0
 10
4.173333
 20
1.693635
 30
0.0
 10
4.092381
 20
1.693635
 30
0.0
 10
4.092381
 20
1.863635
 30
0.0
  0
LWPOLYLINE
  5
104
100
AcDbEntity
  8
0
 62
7
100
AcDbPolyline
 90
2
 70
0
 10
4.230000
 20
1.693635
 30
0.0
 10
4.230000
 20
1.863635
 30
0.0
  0
LWPOLYLINE
  5
105
100
AcDbEntity
  8
0
 62
7
100
AcDbPolyline
 90
2
 70
0
 10
4.286667
 20
1.863635
 30
0.0
 10
4.383810
 20
1.863635
 30
0.0
  0
LWPOLYLINE
  5
106
100
AcDbEntity
  8
0
 62
7
100
AcDbPolyline
 90
2
 70
0
 10
4.335238
 20
1.693635
 30
0.0
 10
4.335238
 20
1.863635
 30
0.0
  0
LWPOLYLINE
  5
107
100
AcDbEntity
  8
0
 62
7
100
AcDbPolyline
 90
16
 70
0
 10
4.537619
 20
1.709826
 30
0.0
 10
4.529524
 20
1.701731
 30
0.0
 10
4.505238
 20
1.693635
 30
0.0
 10
4.489048
 20
1.693635
 30
0.0
 10
4.464762
 20
1.701731
 30
0.0
 10
4.448571
 20
1.717921
 30
0.0
 10
4.440476
 20
1.734112
 30
0.0
 10
4.432381
 20
1.766492
 30
0.0
 10
4.432381
 20
1.790778
 30
0.0
 10
4.440476
 20
1.823159
 30
0.0
 10
4.448571
 20
1.839350
 30
0.0
 10
4.464762
 20
1.855540
 30
0.0
 10
4.489048
 20
1.863635
 30
0.0
 10
4.505238
 20
1.863635
 30
0.0
 10
4.529524
 20
1.855540
 30
0.0
 10
4.537619
 20
1.847445
 30
0.0
  0
LWPOLYLINE
  5
108
100
AcDbEntity
  8
0
 62
7
100
AcDbPolyline
 90
2
 70
0
 10
4.610476
 20
1.693635
 30
0.0
 10
4.610476
 20
1.863635
 30
0.0
  0
LWPOLYLINE
  5
109
100
AcDbEntity
  8
0
 62
7
100
AcDbPolyline
 90
2
 70
0
 10
4.610476
 20
1.782683
 30
0.0
 10
4.707619
 20
1.782683
 30
0.0
  0
LWPOLYLINE
  5
10a
100
AcDbEntity
  8
0
 62
7
100
AcDbPolyline
 90
2
 70
0
 10
4.707619
 20
1.693635
 30
0.0
 10
4.707619
 20
1.863635
 30
0.0
  0
LWPOLYLINE
  5
10b
100
AcDbEntity
  8
0
 62
7
100
AcDbPolyline
 90
2
 70
0
 10
4.918095
 20
1.782683
 30
0.0
 10
4.974762
 20
1.782683
 30
0.0
  0
LWPOLYLINE
  5
10c
100
AcDbEntity
  8
0
 62
7
100
AcDbPolyline
 90
4
 70
0
 10
4.999048
 20
1.693635
 30
0.0
 10
4.918095
 20
1.693635
 30
0.0
 10
4.918095
 20
1.863635
 30
0.0
 10
4.999048
 20
1.863635
 30
0.0
  0
LWPOLYLINE
  5
10d
100
AcDbEntity
  8
0
 62
7
100
AcDbPolyline
 90
2
 70
0
 10
5.128571
 20
1.782683
 30
0.0
 10
5.071905
 20
1.782683
 30
0.0
  0
LWPOLYLINE
  5
10e
100
AcDbEntity
  8
0
 62
7
100
AcDbPolyline
 90
3
 70
0
 10
5.071905
 20
1.693635
 30
0.0
 10
5.071905
 20
1.863635
 30
0.0
 10
5.152857
 20
1.863635
 30
0.0
  0
LWPOLYLINE
  5
10f
100
AcDbEntity
  8
0
 62
7
100
AcDbPolyline
 90
2
 70
0
 10
5.274286
 20
1.782683
 30
0.0
 10
5.217619
 20
1.782683
 30
0.0
  0
LWPOLYLINE
  5
110
100
AcDbEntity
  8
0
 62
7
100
AcDbPolyline
 90
3
 70
0
 10
5.217619
 20
1.693635
 30
0.0
 10
5.217619
 20
1.863635
 30
0.0
 10
5.298571
 20
1.863635
 30
0.0
  0
LWPOLYLINE
  5
111
100
AcDbEntity
  8
0
 62
7
100
AcDbPolyline
 90
2
 70
0
 10
5.363333
 20
1.782683
 30
0.0
 10
5.420000
 20
1.782683
 30
0.0
  0
LWPOLYLINE
  5
112
100
AcDbEntity
  8
0
 62
7
100
AcDbPolyline
 90
4
 70
0
 10
5.444286
 20
1.693635
 30
0.0
 10
5.363333
 20
1.693635
 30
0.0
 10
5.363333
 20
1.863635
 30
0.0
 10
5.444286
 20
1.863635
 30
0.0
  0
LWPOLYLINE
  5
113
100
AcDbEntity
  8
0
 62
7
100
AcDbPolyline
 90
16
 70
0
 10
5.614286
 20
1.709826
 30
0.0
 10
5.606190
 20
1.701731
 30
0.0
 10
5.581905
 20
1.693635
 30
0.0
 10
5.565714
 20
1.693635
 30
0.0
 10
5.541429
 20
1.701731
 30
0.0
 10
5.525238
 20
1.717921
 30
0.0
 10
5.517143
 20
1.734112
 30
0.0
 10
5.509048
 20
1.766492
 30
0.0
 10
5.509048
 20
1.790778
 30
0.0
 10
5.517143
 20
1.823159
 30
0.0
 10
5.525238
 20
1.839350
 30
0.0
 10
5.541429
 20
1.855540
 30
0.0
 10
5.565714
 20
1.863635
 30
0.0
 10
5.581905
 20
1.863635
 30
0.0
 10
5.606190
 20
1.855540
 30
0.0
 10
5.614286
 20
1.847445
 30
0.0
  0
LWPOLYLINE
  5
114
100
AcDbEntity
  8
0
 62
7
100
AcDbPolyline
 90
2
 70
0
 10
5.662857
 20
1.863635
 30
0.0
 10
5.760000
 20
1.863635
 30
0.0
  0
LWPOLYLINE
  5
115
100
AcDbEntity
  8
0
 62
7
100
AcDbPolyline
 90
2
 70
0
 10
5.711429
 20
1.693635
 30
0.0
 10
5.711429
 20
1.863635
 30
0.0
  0
LWPOLYLINE
  5
116
100
AcDbEntity
  8
0
 62
7
100
AcDbPolyline
 90
20
 70
0
 10
5.808571
 20
1.701731
 30
0.0
 10
5.832857
 20
1.693635
 30
0.0
 10
5.873333
 20
1.693635
 30
0.0
 10
5.889524
 20
1.701731
 30
0.0
 10
5.897619
 20
1.709826
 30
0.0
 10
5.905714
 20
1.726016
 30
0.0
 10
5.905714
 20
1.742207
 30
0.0
 10
5.897619
 20
1.758397
 30
0.0
 10
5.889524
 20
1.766492
 30
0.0
 10
5.873333
 20
1.774588
 30
0.0
 10
5.840952
 20
1.782683
 30
0.0
 10
5.824762
 20
1.790778
 30
0.0
 10
5.816667
 20
1.798873
 30
0.0
 10
5.808571
 20
1.815064
 30
0.0
 10
5.808571
 20
1.831254
 30
0.0
 10
5.816667
 20
1.847445
 30
0.0
 10
5.824762
 20
1.855540
 30
0.0
 10
5.840952
 20
1.863635
 30
0.0
 10
5.881429
 20
1.863635
 30
0.0
 10
5.905714
 20
1.855540
 30
0.0
  0
LWPOLYLINE
  5
117
100
AcDbEntity
  8
0
 62
7
100
AcDbPolyline
 90
2
 70
0
 10
0.870857
 20
3.536826
 30
0.0
 10
0.870857
 20
3.836826
 30
0.0
  0
LWPOLYLINE
  5
118
100
AcDbEntity
  8
0
 62
7
100
AcDbPolyline
 90
4
 70
0
 10
1.013714
 20
3.536826
 30
0.0
 10
1.013714
 20
3.836826
 30
0.0
 10
1.185143
 20
3.536826
 30
0.0
 10
1.185143
 20
3.836826
 30
0.0
  0
LWPOLYLINE
  5
119
100
AcDbEntity
  8
0
 62
7
100
AcDbPolyline
 90
2
 70
0
 10
5.685000
 20
2.884683
 30
0.0
 10
5.685000
 20
2.984683
 30
0.0
  0
LWPOLYLINE
  5
11a
100
AcDbEntity
  8
0
 62
7
100
AcDbPolyline
 90
5
 70
0
 10
5.685000
 20
2.956112
 30
0.0
 10
5.692143
 20
2.970397
 30
0.0
 10
5.699286
 20
2.977540
 30
0.0
 10
5.713571
 20
2.984683
 30
0.0
 10
5.727857
 20
2.984683
 30
0.0
  0
LWPOLYLINE
  5
11b
100
AcDbEntity
  8
0
 62
7
100
AcDbPolyline
 90
13
 70
0
 10
5.835000
 20
2.891826
 30
0.0
 10
5.820714
 20
2.884683
 30
0.0
 10
5.792143
 20
2.884683
 30
0.0
 10
5.777857
 20
2.891826
 30
0.0
 10
5.770714
 20
2.906112
 30
0.0
 10
5.770714
 20
2.963254
 30
0.0
 10
5.777857
 20
2.977540
 30
0.0
 10
5.792143
 20
2.984683
 30
0.0
 10
5.820714
 20
2.984683
 30
0.0
 10
5.835000
 20
2.977540
 30
0.0
 10
5.842143
 20
2.963254
 30
0.0
 10
5.842143
 20
2.948969
 30
0.0
 10
5.770714
 20
2.934683
 30
0.0
  0
LWPOLYLINE
  5
11c
100
AcDbEntity
  8
0
 62
7
100
AcDbPolyline
 90
7
 70
0
 10
5.970714
 20
2.984683
 30
0.0
 10
5.970714
 20
2.863254
 30
0.0
 10
5.963571
 20
2.848969
 30
0.0
 10
5.956429
 20
2.841826
 30
0.0
 10
5.942143
 20
2.834683
 30
0.0
 10
5.920714
 20
2.834683
 30
0.0
 10
5.906429
 20
2.841826
 30
0.0
  0
LWPOLYLINE
  5
11d
100
AcDbEntity
  8
0
 62
7
100
AcDbPolyline
 90
12
 70
0
 10
5.970714
 20
2.891826
 30
0.0
 10
5.956429
 20
2.884683
 30
0.0
 10
5.927857
 20
2.884683
 30
0.0
 10
5.913571
 20
2.891826
 30
0.0
 10
5.906429
 20
2.898969
 30
0.0
 10
5.899286
 20
2.913254
 30
0.0
 10
5.899286
 20
2.956112
 30
0.0
 10
5.906429
 20
2.970397
 30
0.0
 10
5.913571
 20
2.977540
 30
0.0
 10
5.927857
 20
2.984683
 30
0.0
 10
5.956429
 20
2.984683
 30
0.0
 10
5.970714
 20
2.977540
 30
0.0
  0
LWPOLYLINE
  5
11e
100
AcDbEntity
  8
0
 62
7
100
AcDbPolyline
 90
2
 70
0
 10
6.106429
 20
2.984683
 30
0.0
 10
6.106429
 20
2.884683
 30
0.0
  0
LWPOLYLINE
  5
11f
100
AcDbEntity
  8
0
 62
7
100
AcDbPolyline
 90
7
 70
0
 10
6.042143
 20
2.984683
 30
0.0
 10
6.042143
 20
2.906112
 30
0.0
 10
6.049286
 20
2.891826
 30
0.0
 10
6.063571
 20
2.884683
 30
0.0
 10
6.085000
 20
2.884683
 30
0.0
 10
6.099286
 20
2.891826
 30
0.0
 10
6.106429
 20
2.898969
 30
0.0
  0
LWPOLYLINE
  5
120
100
AcDbEntity
  8
0
 62
7
100
AcDbPolyline
 90
4
 70
0
 10
6.199286
 20
2.884683
 30
0.0
 10
6.185000
 20
2.891826
 30
0.0
 10
6.177857
 20
2.906112
 30
0.0
 10
6.177857
 20
3.034683
 30
0.0
  0
LWPOLYLINE
  5
121
100
AcDbEntity
  8
0
 62
7
100
AcDbPolyline
 90
6
 70
0
 10
6.320714
 20
2.884683
 30
0.0
 10
6.320714
 20
2.963254
 30
0.0
 10
6.313571
 20
2.977540
 30
0.0
 10
6.299286
 20
2.984683
 30
0.0
 10
6.270714
 20
2.984683
 30
0.0
 10
6.256429
 20
2.977540
 30
0.0
  0
LWPOLYLINE
  5
122
100
AcDbEntity
  8
0
 62
7
100
AcDbPolyline
 90
10
 70
0
 10
6.320714
 20
2.891826
 30
0.0
 10
6.306429
 20
2.884683
 30
0.0
 10
6.270714
 20
2.884683
 30
0.0
 10
6.256429
 20
2.891826
 30
0.0
 10
6.249286
 20
2.906112
 30
0.0
 10
6.249286
 20
2.920397
 30
0.0
 10
6.256429
 20
2.934683
 30
0.0
 10
6.270714
 20
2.941826
 30
0.0
 10
6.306429
 20
2.941826
 30
0.0
 10
6.320714
 20
2.948969
 30
0.0
  0
LWPOLYLINE
  5
123
100
AcDbEntity
  8
0
 62
7
100
AcDbPolyline
 90
2
 70
0
 10
6.370714
 20
2.984683
 30
0.0
 10
6.427857
 20
2.984683
 30
0.0
  0
LWPOLYLINE
  5
124
100
AcDbEntity
  8
0
 62
7
100
AcDbPolyline
 90
5
 70
0
 10
6.392143
 20
3.034683
 30
0.0
 10
6.392143
 20
2.906112
 30
0.0
 10
6.399286
 20
2.891826
 30
0.0
 10
6.413571
 20
2.884683
 30
0.0
 10
6.427857
 20
2.884683
 30
0.0
  0
LWPOLYLINE
  5
125
100
AcDbEntity
  8
0
 62
7
100
AcDbPolyline
 90
16
 70
1
 10
6.499286
 20
2.884683
 30
0.0
 10
6.485000
 20
2.891826
 30
0.0
 10
6.477857
 20
2.898969
 30
0.0
 10
6.470714
 20
2.913254
 30
0.0
 10
6.470714
 20
2.956112
 30
0.0
 10
6.477857
 20
2.970397
 30
0.0
 10
6.485000
 20
2.977540
 30
0.0
 10
6.499286
 20
2.984683
 30
0.0
 10
6.520714
 20
2.984683
 30
0.0
 10
6.535000
 20
2.977540
 30
0.0
 10
6.542143
 20
2.970397
 30
0.0
 10
6.549286
 20
2.956112
 30
0.0
 10
6.549286
 20
2.913254
 30
0.0
 10
6.542143
 20
2.898969
 30
0.0
 10
6.535000
 20
2.891826
 30
0.0
 10
6.520714
 20
2.884683
 30
0.0
  0
LWPOLYLINE
  5
126
100
AcDbEntity
  8
0
 62
7
100
AcDbPolyline
 90
2
 70
0
 10
6.613571
 20
2.884683
 30
0.0
 10
6.613571
 20
2.984683
 30
0.0
  0
LWPOLYLINE
  5
127
100
AcDbEntity
  8
0
 62
7
100
AcDbPolyline
 90
5
 70
0
 10
6.613571
 20
2.956112
 30
0.0
 10
6.620714
 20
2.970397
 30
0.0
 10
6.627857
 20
2.977540
 30
0.0
 10
6.642143
 20
2.984683
 30
0.0
 10
6.656429
 20
2.984683
 30
0.0
  0
LWPOLYLINE
  5
128
100
AcDbEntity
  8
0
 62
7
100
AcDbPolyline
 90
2
 70
0
 10
2.885000
 20
2.353683
 30
0.0
 10
2.885000
 20
2.453683
 30
0.0
  0
LWPOLYLINE
  5
129
100
AcDbEntity
  8
0
 62
7
100
AcDbPolyline
 90
5
 70
0
 10
2.885000
 20
2.425112
 30
0.0
 10
2.892143
 20
2.439397
 30
0.0
 10
2.899286
 20
2.446540
 30
0.0
 10
2.913571
 20
2.453683
 30
0.0
 10
2.927857
 20
2.453683
 30
0.0
  0
LWPOLYLINE
  5
12a
100
AcDbEntity
  8
0
 62
7
100
AcDbPolyline
 90
16
 70
1
 10
2.999286
 20
2.353683
 30
0.0
 10
2.985000
 20
2.360826
 30
0.0
 10
2.977857
 20
2.367969
 30
0.0
 10
2.970714
 20
2.382254
 30
0.0
 10
2.970714
 20
2.425112
 30
0.0
 10
2.977857
 20
2.439397
 30
0.0
 10
2.985000
 20
2.446540
 30
0.0
 10
2.999286
 20
2.453683
 30
0.0
 10
3.020714
 20
2.453683
 30
0.0
 10
3.035000
 20
2.446540
 30
0.0
 10
3.042143
 20
2.439397
 30
0.0
 10
3.049286
 20
2.425112
 30
0.0
 10
3.049286
 20
2.382254
 30
0.0
 10
3.042143
 20
2.367969
 30
0.0
 10
3.035000
 20
2.360826
 30
0.0
 10
3.020714
 20
2.353683
 30
0.0
  0
LWPOLYLINE
  5
12b
100
AcDbEntity
  8
0
 62
7
100
AcDbPolyline
 90
2
 70
0
 10
3.177857
 20
2.453683
 30
0.0
 10
3.177857
 20
2.353683
 30
0.0
  0
LWPOLYLINE
  5
12c
100
AcDbEntity
  8
0
 62
7
100
AcDbPolyline
 90
7
 70
0
 10
3.113571
 20
2.453683
 30
0.0
 10
3.113571
 20
2.375112
 30
0.0
 10
3.120714
 20
2.360826
 30
0.0
 10
3.135000
 20
2.353683
 30
0.0
 10
3.156429
 20
2.353683
 30
0.0
 10
3.170714
 20
2.360826
 30
0.0
 10
3.177857
 20
2.367969
 30
0.0
  0
LWPOLYLINE
  5
12d
100
AcDbEntity
  8
0
 62
7
100
AcDbPolyline
 90
2
 70
0
 10
3.227857
 20
2.453683
 30
0.0
 10
3.285000
 20
2.453683
 30
0.0
  0
LWPOLYLINE
  5
12e
100
AcDbEntity
  8
0
 62
7
100
AcDbPolyline
 90
5
 70
0
 10
3.249286
 20
2.503683
 30
0.0
 10
3.249286
 20
2.375112
 30
0.0
 10
3.256429
 20
2.360826
 30
0.0
 10
3.270714
 20
2.353683
 30
0.0
 10
3.285000
 20
2.353683
 30
0.0
  0
LWPOLYLINE
  5
12f
100
AcDbEntity
  8
0
 62
7
100
AcDbPolyline
 90
13
 70
0
 10
3.392143
 20
2.360826
 30
0.0
 10
3.377857
 20
2.353683
 30
0.0
 10
3.349286
 20
2.353683
 30
0.0
 10
3.335000
 20
2.360826
 30
0.0
 10
3.327857
 20
2.375112
 30
0.0
 10
3.327857
 20
2.432254
 30
0.0
 10
3.335000
 20
2.446540
 30
0.0
 10
3.349286
 20
2.453683
 30
0.0
 10
3.377857
 20
2.453683
 30
0.0
 10
3.392143
 20
2.446540
 30
0.0
 10
3.399286
 20
2.432254
 30
0.0
 10
3.399286
 20
2.417969
 30
0.0
 10
3.327857
 20
2.403683
 30
0.0
  0
LWPOLYLINE
  5
130
100
AcDbEntity
  8
0
 62
7
100
AcDbPolyline
 90
2
 70
0
 10
3.463571
 20
2.353683
 30
0.0
 10
3.463571
 20
2.453683
 30
0.0
  0
LWPOLYLINE
  5
131
100
AcDbEntity
  8
0
 62
7
100
AcDbPolyline
 90
5
 70
0
 10
3.463571
 20
2.425112
 30
0.0
 10
3.470714
 20
2.439397
 30
0.0
 10
3.477857
 20
2.446540
 30
0.0
 10
3.492143
 20
2.453683
 30
0.0
 10
3.506429
 20
2.453683
 30
0.0
  0
LWPOLYLINE
  5
132
100
AcDbEntity
  8
0
 62
7
100
AcDbPolyline
 90
16
 70
1
 10
8.524000
 20
3.828826
 30
0.0
 10
8.581143
 20
3.828826
 30
0.0
 10
8.609714
 20
3.814540
 30
0.0
 10
8.638286
 20
3.785969
 30
0.0
 10
8.652571
 20
3.728826
 30
0.0
 10
8.652571
 20
3.628826
 30
0.0
 10
8.638286
 20
3.571683
 30
0.0
 10
8.609714
 20
3.543112
 30
0.0
 10
8.581143
 20
3.528826
 30
0.0
 10
8.524000
 20
3.528826
 30
0.0
 10
8.495429
 20
3.543112
 30
0.0
 10
8.466857
 20
3.571683
 30
0.0
 10
8.452571
 20
3.628826
 30
0.0
 10
8.452571
 20
3.728826
 30
0.0
 10
8.466857
 20
3.785969
 30
0.0
 10
8.495429
 20
3.814540
 30
0.0
  0
LWPOLYLINE
  5
133
100
AcDbEntity
  8
0
 62
7
100
AcDbPolyline
 90
10
 70
0
 10
8.781143
 20
3.828826
 30
0.0
 10
8.781143
 20
3.585969
 30
0.0
 10
8.795429
 20
3.557397
 30
0.0
 10
8.809714
 20
3.543112
 30
0.0
 10
8.838286
 20
3.528826
 30
0.0
 10
8.895429
 20
3.528826
 30
0.0
 10
8.924000
 20
3.543112
 30
0.0
 10
8.938286
 20
3.557397
 30
0.0
 10
8.952571
 20
3.585969
 30
0.0
 10
8.952571
 20
3.828826
 30
0.0
  0
LWPOLYLINE
  5
134
100
AcDbEntity
  8
0
 62
7
100
AcDbPolyline
 90
2
 70
0
 10
9.052571
 20
3.828826
 30
0.0
 10
9.224000
 20
3.828826
 30
0.0
  0
LWPOLYLINE
  5
135
100
AcDbEntity
  8
0
 62
7
100
AcDbPolyline
 90
2
 70
0
 10
9.138286
 20
3.528826
 30
0.0
 10
9.138286
 20
3.828826
 30
0.0
  0
LWPOLYLINE
  5
136
100
AcDbEntity
  8
0
 62
7
100
AcDbPolyline
 90
16
 70
0
 10
5.612143
 20
3.282683
 30
0.0
 10
5.540714
 20
3.282683
 30
0.0
 10
5.533571
 20
3.211254
 30
0.0
 10
5.540714
 20
3.218397
 30
0.0
 10
5.555000
 20
3.225540
 30
0.0
 10
5.590714
 20
3.225540
 30
0.0
 10
5.605000
 20
3.218397
 30
0.0
 10
5.612143
 20
3.211254
 30
0.0
 10
5.619286
 20
3.196969
 30
0.0
 10
5.619286
 20
3.161254
 30
0.0
 10
5.612143
 20
3.146969
 30
0.0
 10
5.605000
 20
3.139826
 30
0.0
 10
5.590714
 20
3.132683
 30
0.0
 10
5.555000
 20
3.132683
 30
0.0
 10
5.540714
 20
3.139826
 30
0.0
 10
5.533571
 20
3.146969
 30
0.0
  0
LWPOLYLINE
  5
137
100
AcDbEntity
  8
0
 62
7
100
AcDbPolyline
 90
3
 70
0
 10
5.669286
 20
3.232683
 30
0.0
 10
5.705000
 20
3.132683
 30
0.0
 10
5.740714
 20
3.232683
 30
0.0
  0
LWPOLYLINE
  5
138
100
AcDbEntity
  8
0
 62
7
100
AcDbPolyline
 90
3
 70
0
 10
6.026429
 20
3.232683
 30
0.0
 10
5.912143
 20
3.189826
 30
0.0
 10
6.026429
 20
3.146969
 30
0.0
  0
LWPOLYLINE
  5
139
100
AcDbEntity
  8
0
 62
7
100
AcDbPolyline
 90
2
 70
0
 10
6.097857
 20
3.189826
 30
0.0
 10
6.212143
 20
3.189826
 30
0.0
  0
LWPOLYLINE
  5
13a
100
AcDbEntity
  8
0
 62
7
100
AcDbPolyline
 90
3
 70
0
 10
6.283571
 20
3.232683
 30
0.0
 10
6.397857
 20
3.189826
 30
0.0
 10
6.283571
 20
3.146969
 30
0.0
  0
LWPOLYLINE
  5
13b
100
AcDbEntity
  8
0
 62
7
100
AcDbPolyline
 90
22
 70
0
 10
6.590714
 20
3.132683
 30
0.0
 10
6.619286
 20
3.132683
 30
0.0
 10
6.633571
 20
3.139826
 30
0.0
 10
6.640714
 20
3.146969
 30
0.0
 10
6.655000
 20
3.168397
 30
0.0
 10
6.662143
 20
3.196969
 30
0.0
 10
6.662143
 20
3.254112
 30
0.0
 10
6.655000
 20
3.268397
 30
0.0
 10
6.647857
 20
3.275540
 30
0.0
 10
6.633571
 20
3.282683
 30
0.0
 10
6.605000
 20
3.282683
 30
0.0
 10
6.590714
 20
3.275540
 30
0.0
 10
6.583571
 20
3.268397
 30
0.0
 10
6.576429
 20
3.254112
 30
0.0
 10
6.576429
 20
3.218397
 30
0.0
 10
6.583571
 20
3.204112
 30
0.0
 10
6.590714
 20
3.196969
 30
0.0
 10
6.605000
 20
3.189826
 30
0.0
 10
6.633571
 20
3.189826
 30
0.0
 10
6.647857
 20
3.196969
 30
0.0
 10
6.655000
 20
3.204112
 30
0.0
 10
6.662143
 20
3.218397
 30
0.0
  0
LWPOLYLINE
  5
13c
100
AcDbEntity
  8
0
 62
7
100
AcDbPolyline
 90
3
 70
0
 10
6.712143
 20
3.232683
 30
0.0
 10
6.747857
 20
3.132683
 30
0.0
 10
6.783571
 20
3.232683
 30
0.0
  0
ENDSEC
  0
SECTION
  2
OBJECTS
  0
DICTIONARY
  5
C
330
0
100
AcDbDictionary
  3
ACAD_GROUP
350
D
  3
ACAD_MLINESTYLE
350
17
  0
DICTIONARY
  5
D
330
C
100
AcDbDictionary
  0
DICTIONARY
  5
1A
330
C
100
AcDbDictionary
  0
DICTIONARY
  5
17
330
C
100
AcDbDictionary
  3
STANDARD
350
18
  0
DICTIONARY
  5
19
330
C
100
AcDbDictionary
  0
ENDSEC
  0
EOF
