<?xml version="1.0" standalone="no"?>
 <!DOCTYPE svg PUBLIC "-//W3C//DTD SVG 1.1//EN" 
 "http://www.w3.org/Graphics/SVG/1.1/DTD/svg11.dtd"> 
<svg
  xmlns:svg="http://www.w3.org/2000/svg"
  xmlns="http://www.w3.org/2000/svg"
  xmlns:xlink="http://www.w3.org/1999/xlink"
  version="1.1"
  width="10.007600cm" height="4.003040cm" viewBox="0 0 100076000 40030400">
<title>SVG Picture created as _rupture_panel-Edge_Cuts.svg date 2023/07/12 19:53:40 </title>
  <desc>Picture generated by PCBNEW </desc>
<g style="fill:#000000; fill-opacity:1.000000;stroke:#000000; stroke-opacity:1.000000;
stroke-linecap:round; stroke-linejoin:round;"
 transform="translate(0 0) scale(1 1)">
</g>
<g style="fill:#000000; fill-opacity:0.0; 
stroke:#000000; stroke-width:0.000000; stroke-opacity:1; 
stroke-linecap:round; stroke-linejoin:round;">
</g>
<g style="fill:#000000; fill-opacity:0.0; 
stroke:#000000; stroke-width:50000.000000; stroke-opacity:1; 
stroke-linecap:round; stroke-linejoin:round;">
<path d="M100050000 31425000
L100050000 40025000
" />
<path d="M50000 19775000
L50000 25000
" />
<path d="M50000 40025000
L50000 31525000
" />
<path d="M100050000 40025000
L50000 40025000
" />
<circle cx="8440000.000000" cy="12235359.000000" r="6220359.000000" /> 
<circle cx="70939771.000000" cy="30915000.000000" r="4740230.000000" /> 
<circle cx="42639771.000000" cy="30755000.000000" r="4740230.000000" /> 
<circle cx="28529771.000000" cy="30755000.000000" r="4740230.000000" /> 
</g>
<g style="fill:#000000; fill-opacity:0.0; 
stroke:#000000; stroke-width:100000.000000; stroke-opacity:1; 
stroke-linecap:round; stroke-linejoin:round;">
<path d="M24190000 14325000
L24200000 2475000
" />
<path d="M50000 19775000
L15100000 19765000
" />
<path d="M6190000 31525000
L50000 31525000
" />
<path d="M21690000 31525000
L6190000 31525000
" />
<path d="M21700000 19765000
L21690000 31525000
" />
<path d="M15100000 19765000
L21700000 19765000
" />
<path d="M93580000 31425000
L78290000 31425000
" />
<path d="M78300000 19665000
L93590000 19665000
" />
<path d="M78290000 31425000
L78300000 19665000
" />
<path d="M100050000 31425000
L93580000 31425000
" />
<path d="M93590000 19665000
L100050000 19665000
" />
</g>
<g style="fill:#000000; fill-opacity:0.0; 
stroke:#000000; stroke-width:50000.000000; stroke-opacity:1; 
stroke-linecap:round; stroke-linejoin:round;">
<path d="M55050000 12025000
L55050000 6425000
" />
<circle cx="56765920.000000" cy="30915000.000000" r="4740230.000000" /> 
<path d="M67450000 6425000
L67450000 25000
" />
<path d="M55050000 6425000
L67450000 6425000
" />
<path d="M67450000 25000
L67550000 25000
" />
<path d="M67550000 25000
L100050000 25000
" />
</g>
<g style="fill:#000000; fill-opacity:0.0; 
stroke:#000000; stroke-width:100000.000000; stroke-opacity:1; 
stroke-linecap:round; stroke-linejoin:round;">
<path d="M39900000 2485000
L39890000 14245000
" />
</g>
<g style="fill:#000000; fill-opacity:0.0; 
stroke:#000000; stroke-width:50000.000000; stroke-opacity:1; 
stroke-linecap:round; stroke-linejoin:round;">
<circle cx="92238575.000000" cy="12605000.000000" r="6220359.000000" /> 
<circle cx="96550000.000000" cy="36525000.000000" r="1900000.000000" /> 
<path d="M50000 25000
L45050000 25000
" />
<circle cx="3550000.000000" cy="36525000.000000" r="1900000.000000" /> 
<path d="M45050000 12025000
L45050000 25000
" />
</g>
<g style="fill:#000000; fill-opacity:0.0; 
stroke:#000000; stroke-width:100000.000000; stroke-opacity:1; 
stroke-linecap:round; stroke-linejoin:round;">
<path d="M39890000 14245000
L24190000 14325000
" />
</g>
<g style="fill:#000000; fill-opacity:0.0; 
stroke:#000000; stroke-width:50000.000000; stroke-opacity:1; 
stroke-linecap:round; stroke-linejoin:round;">
<circle cx="96550000.000000" cy="3525000.000000" r="1900000.000000" /> 
<path d="M55050000 12025000
L45050000 12025000
" />
</g>
<g style="fill:#000000; fill-opacity:0.0; 
stroke:#000000; stroke-width:100000.000000; stroke-opacity:1; 
stroke-linecap:round; stroke-linejoin:round;">
<path d="M24200000 2475000
L39900000 2485000
" />
</g>
<g style="fill:#000000; fill-opacity:0.0; 
stroke:#000000; stroke-width:50000.000000; stroke-opacity:1; 
stroke-linecap:round; stroke-linejoin:round;">
<path d="M100050000 25000
L100050000 19665000
" />
<circle cx="3550000.000000" cy="3525000.000000" r="1900000.000000" /> 
<g >
</g>
<g >
</g>
<g >
</g>
</g> 
</svg>
