  0
SECTION
  2
HEADER
  9
$ACADVER
  1
AC1014
  9
$HANDSEED
  5
FFFF
  9
$INSUNITS
 70
     5
  9
$MEASUREMENT
 70
     1
  0
ENDSEC
  0
SECTION
  2
TABLES
  0
TABLE
  2
VPORT
  5
8
330
0
100
AcDbSymbolTable
 70
     4
  0
VPORT
  5
2E
330
8
100
AcDbSymbolTableRecord
100
AcDbViewportTableRecord
  2
*ACTIVE
 70
     0
 10
0.0
 20
0.0
 11
1.0
 21
1.0
 12
210.0
 22
148.5
 13
0.0
 23
0.0
 14
10.0
 24
10.0
 15
10.0
 25
10.0
 16
0.0
 26
0.0
 36
1.0
 17
0.0
 27
0.0
 37
0.0
 40
341.0
 41
1.24
 42
50.0
 43
0.0
 44
0.0
 50
0.0
 51
0.0
 71
     0
 72
   100
 73
     1
 74
     3
 75
     0
 76
     0
 77
     0
 78
     0
  0
ENDTAB
  0
TABLE
  2
LTYPE
  5
5
330
0
100
AcDbSymbolTable
 70
     1
  0
LTYPE
  5
14
330
5
100
AcDbSymbolTableRecord
100
AcDbLinetypeTableRecord
  2
BYBLOCK
 70
     0
  3

 72
    65
 73
     0
 40
0.0
  0
LTYPE
  5
15
330
5
100
AcDbSymbolTableRecord
100
AcDbLinetypeTableRecord
  2
BYLAYER
 70
     0
  3

 72
    65
 73
     0
 40
0.0
  0
LTYPE
  5
16
330
5
100
AcDbSymbolTableRecord
100
AcDbLinetypeTableRecord
  2
CONTINUOUS
 70
     0
  3
Solid line
 72
    65
 73
     0
 40
0.0
  0
ENDTAB
  0
TABLE
  2
LAYER
  5
2
100
AcDbSymbolTable
 70
1
  0
LAYER
  5
50
100
AcDbSymbolTableRecord
100
AcDbLayerTableRecord
  2
0
 70
0
  6
CONTINUOUS
  0
ENDTAB
  0
TABLE
  2
STYLE
  5
3
330
0
100
AcDbSymbolTable
 70
     1
  0
STYLE
  5
11
330
3
100
AcDbSymbolTableRecord
100
AcDbTextStyleTableRecord
  2
STANDARD
 70
     0
 40
0.0
 41
1.0
 50
0.0
 71
     0
 42
2.5
  3
txt
  4

  0
ENDTAB
  0
TABLE
  2
VIEW
  5
6
330
0
100
AcDbSymbolTable
 70
     0
  0
ENDTAB
  0
TABLE
  2
UCS
  5
7
330
0
100
AcDbSymbolTable
 70
     0
  0
ENDTAB
  0
TABLE
  2
APPID
  5
9
330
0
100
AcDbSymbolTable
 70
     2
  0
APPID
  5
12
330
9
100
AcDbSymbolTableRecord
100
AcDbRegAppTableRecord
  2
ACAD
 70
     0
  0
ENDTAB
  0
TABLE
  2
DIMSTYLE
  5
A
330
0
100
AcDbSymbolTable
 70
     1
  0
DIMSTYLE
105
27
330
A
100
AcDbSymbolTableRecord
100
AcDbDimStyleTableRecord
  2
ISO-25
 70
     0
  3

  4

  5

  6

  7

 40
1.0
 41
2.5
 42
0.625
 43
3.75
 44
1.25
 45
0.0
 46
0.0
 47
0.0
 48
0.0
140
2.5
141
2.5
142
0.0
143
0.03937007874016
144
1.0
145
0.0
146
1.0
147
0.625
 71
     0
 72
     0
 73
     0
 74
     0
 75
     0
 76
     0
 77
     1
 78
     8
170
     0
171
     3
172
     1
173
     0
174
     0
175
     0
176
     0
177
     0
178
     0
270
     2
271
     2
272
     2
273
     2
274
     3
340
11
275
     0
280
     0
281
     0
282
     0
283
     0
284
     8
285
     0
286
     0
287
     3
288
     0
  0
ENDTAB
  0
TABLE
  2
BLOCK_RECORD
  5
1
330
0
100
AcDbSymbolTable
 70
     1
  0
BLOCK_RECORD
  5
1F
330
1
100
AcDbSymbolTableRecord
100
AcDbBlockTableRecord
  2
*MODEL_SPACE
  0
BLOCK_RECORD
  5
1B
330
1
100
AcDbSymbolTableRecord
100
AcDbBlockTableRecord
  2
*PAPER_SPACE
  0
ENDTAB
  0
ENDSEC
  0
SECTION
  2
BLOCKS
  0
BLOCK
  5
20
330
1F
100
AcDbEntity
  8
0
100
AcDbBlockBegin
  2
*MODEL_SPACE
 70
     0
 10
0.0
 20
0.0
 30
0.0
  3
*MODEL_SPACE
  1

  0
ENDBLK
  5
21
330
1F
100
AcDbEntity
  8
0
100
AcDbBlockEnd
  0
BLOCK
  5
1C
330
1B
100
AcDbEntity
 67
     1
  8
0
100
AcDbBlockBegin
  2
*PAPER_SPACE
  1

  0
ENDBLK
  5
1D
330
1B
100
AcDbEntity
 67
     1
  8
0
100
AcDbBlockEnd
  0
ENDSEC
  0
SECTION
  2
ENTITIES
  0
LWPOLYLINE
  5
100
100
AcDbEntity
  8
0
 62
7
100
AcDbPolyline
 90
2
 70
0
 10
10.005000
 20
0.860540
 30
0.0
 10
10.005000
 20
0.000540
 30
0.0
  0
LWPOLYLINE
  5
101
100
AcDbEntity
  8
0
 62
7
100
AcDbPolyline
 90
2
 70
0
 10
0.005000
 20
2.025540
 30
0.0
 10
0.005000
 20
4.000540
 30
0.0
  0
LWPOLYLINE
  5
102
100
AcDbEntity
  8
0
 62
7
100
AcDbPolyline
 90
2
 70
0
 10
0.005000
 20
0.000540
 30
0.0
 10
0.005000
 20
0.850540
 30
0.0
  0
SPLINE
  5
103
100
AcDbEntity
  8
0
 62
7
100
AcDbSpline
 70
8
 71
3
 72
8
 73
4
 74
0
 40
0
 40
0
 40
0
 40
0
 40
1
 40
1
 40
1
 40
1
 10
0.844000
 20
3.401540
 30
0.0
 10
0.592410
 20
3.401540
 30
0.0
 10
0.365593
 20
3.249986
 30
0.0
 10
0.269314
 20
3.017547
 30
0.0
  0
SPLINE
  5
104
100
AcDbEntity
  8
0
 62
7
100
AcDbSpline
 70
8
 71
3
 72
8
 73
4
 74
0
 40
0
 40
0
 40
0
 40
0
 40
1
 40
1
 40
1
 40
1
 10
0.269314
 20
3.017547
 30
0.0
 10
0.173034
 20
2.785108
 30
0.0
 10
0.226253
 20
2.517559
 30
0.0
 10
0.404154
 20
2.339658
 30
0.0
  0
SPLINE
  5
105
100
AcDbEntity
  8
0
 62
7
100
AcDbSpline
 70
8
 71
3
 72
8
 73
4
 74
0
 40
0
 40
0
 40
0
 40
0
 40
1
 40
1
 40
1
 40
1
 10
0.404154
 20
2.339658
 30
0.0
 10
0.582055
 20
2.161757
 30
0.0
 10
0.849604
 20
2.108539
 30
0.0
 10
1.082043
 20
2.204818
 30
0.0
  0
SPLINE
  5
106
100
AcDbEntity
  8
0
 62
7
100
AcDbSpline
 70
8
 71
3
 72
8
 73
4
 74
0
 40
0
 40
0
 40
0
 40
0
 40
1
 40
1
 40
1
 40
1
 10
1.082043
 20
2.204818
 30
0.0
 10
1.314482
 20
2.301097
 30
0.0
 10
1.466036
 20
2.527914
 30
0.0
 10
1.466036
 20
2.779504
 30
0.0
  0
SPLINE
  5
107
100
AcDbEntity
  8
0
 62
7
100
AcDbSpline
 70
8
 71
3
 72
8
 73
4
 74
0
 40
0
 40
0
 40
0
 40
0
 40
1
 40
1
 40
1
 40
1
 10
1.466036
 20
2.779504
 30
0.0
 10
1.466036
 20
2.944478
 30
0.0
 10
1.400500
 20
3.102696
 30
0.0
 10
1.283846
 20
3.219350
 30
0.0
  0
SPLINE
  5
108
100
AcDbEntity
  8
0
 62
7
100
AcDbSpline
 70
8
 71
3
 72
8
 73
4
 74
0
 40
0
 40
0
 40
0
 40
0
 40
1
 40
1
 40
1
 40
1
 10
1.283846
 20
3.219350
 30
0.0
 10
1.167191
 20
3.336004
 30
0.0
 10
1.008974
 20
3.401540
 30
0.0
 10
0.844000
 20
3.401540
 30
0.0
  0
LWPOLYLINE
  5
109
100
AcDbEntity
  8
0
 62
7
100
AcDbPolyline
 90
2
 70
0
 10
10.005000
 20
0.000540
 30
0.0
 10
0.005000
 20
0.000540
 30
0.0
  0
SPLINE
  5
10a
100
AcDbEntity
  8
0
 62
7
100
AcDbSpline
 70
8
 71
3
 72
8
 73
4
 74
0
 40
0
 40
0
 40
0
 40
0
 40
1
 40
1
 40
1
 40
1
 10
7.093977
 20
1.385563
 30
0.0
 10
6.902253
 20
1.385563
 30
0.0
 10
6.729407
 20
1.270071
 30
0.0
 10
6.656037
 20
1.092941
 30
0.0
  0
SPLINE
  5
10b
100
AcDbEntity
  8
0
 62
7
100
AcDbSpline
 70
8
 71
3
 72
8
 73
4
 74
0
 40
0
 40
0
 40
0
 40
0
 40
1
 40
1
 40
1
 40
1
 10
6.656037
 20
1.092941
 30
0.0
 10
6.582667
 20
0.915810
 30
0.0
 10
6.623223
 20
0.711925
 30
0.0
 10
6.758792
 20
0.576355
 30
0.0
  0
SPLINE
  5
10c
100
AcDbEntity
  8
0
 62
7
100
AcDbSpline
 70
8
 71
3
 72
8
 73
4
 74
0
 40
0
 40
0
 40
0
 40
0
 40
1
 40
1
 40
1
 40
1
 10
6.758792
 20
0.576355
 30
0.0
 10
6.894362
 20
0.440785
 30
0.0
 10
7.098248
 20
0.400230
 30
0.0
 10
7.275378
 20
0.473600
 30
0.0
  0
SPLINE
  5
10d
100
AcDbEntity
  8
0
 62
7
100
AcDbSpline
 70
8
 71
3
 72
8
 73
4
 74
0
 40
0
 40
0
 40
0
 40
0
 40
1
 40
1
 40
1
 40
1
 10
7.275378
 20
0.473600
 30
0.0
 10
7.452508
 20
0.546970
 30
0.0
 10
7.568000
 20
0.719816
 30
0.0
 10
7.568000
 20
0.911540
 30
0.0
  0
SPLINE
  5
10e
100
AcDbEntity
  8
0
 62
7
100
AcDbSpline
 70
8
 71
3
 72
8
 73
4
 74
0
 40
0
 40
0
 40
0
 40
0
 40
1
 40
1
 40
1
 40
1
 10
7.568000
 20
0.911540
 30
0.0
 10
7.568000
 20
1.037259
 30
0.0
 10
7.518059
 20
1.157828
 30
0.0
 10
7.429162
 20
1.246725
 30
0.0
  0
SPLINE
  5
10f
100
AcDbEntity
  8
0
 62
7
100
AcDbSpline
 70
8
 71
3
 72
8
 73
4
 74
0
 40
0
 40
0
 40
0
 40
0
 40
1
 40
1
 40
1
 40
1
 10
7.429162
 20
1.246725
 30
0.0
 10
7.340265
 20
1.335621
 30
0.0
 10
7.219696
 20
1.385563
 30
0.0
 10
7.093977
 20
1.385563
 30
0.0
  0
LWPOLYLINE
  5
110
100
AcDbEntity
  8
0
 62
7
100
AcDbPolyline
 90
1
 70
1
 10
0.844000
 20
3.401540
 30
0.0
  0
SPLINE
  5
111
100
AcDbEntity
  8
0
 62
7
100
AcDbSpline
 70
8
 71
3
 72
8
 73
4
 74
0
 40
0
 40
0
 40
0
 40
0
 40
1
 40
1
 40
1
 40
1
 10
4.263977
 20
1.401563
 30
0.0
 10
4.072253
 20
1.401563
 30
0.0
 10
3.899407
 20
1.286071
 30
0.0
 10
3.826037
 20
1.108941
 30
0.0
  0
SPLINE
  5
112
100
AcDbEntity
  8
0
 62
7
100
AcDbSpline
 70
8
 71
3
 72
8
 73
4
 74
0
 40
0
 40
0
 40
0
 40
0
 40
1
 40
1
 40
1
 40
1
 10
3.826037
 20
1.108941
 30
0.0
 10
3.752667
 20
0.931810
 30
0.0
 10
3.793223
 20
0.727925
 30
0.0
 10
3.928792
 20
0.592355
 30
0.0
  0
SPLINE
  5
113
100
AcDbEntity
  8
0
 62
7
100
AcDbSpline
 70
8
 71
3
 72
8
 73
4
 74
0
 40
0
 40
0
 40
0
 40
0
 40
1
 40
1
 40
1
 40
1
 10
3.928792
 20
0.592355
 30
0.0
 10
4.064362
 20
0.456785
 30
0.0
 10
4.268248
 20
0.416230
 30
0.0
 10
4.445378
 20
0.489600
 30
0.0
  0
SPLINE
  5
114
100
AcDbEntity
  8
0
 62
7
100
AcDbSpline
 70
8
 71
3
 72
8
 73
4
 74
0
 40
0
 40
0
 40
0
 40
0
 40
1
 40
1
 40
1
 40
1
 10
4.445378
 20
0.489600
 30
0.0
 10
4.622508
 20
0.562970
 30
0.0
 10
4.738000
 20
0.735816
 30
0.0
 10
4.738000
 20
0.927540
 30
0.0
  0
SPLINE
  5
115
100
AcDbEntity
  8
0
 62
7
100
AcDbSpline
 70
8
 71
3
 72
8
 73
4
 74
0
 40
0
 40
0
 40
0
 40
0
 40
1
 40
1
 40
1
 40
1
 10
4.738000
 20
0.927540
 30
0.0
 10
4.738000
 20
1.053259
 30
0.0
 10
4.688059
 20
1.173828
 30
0.0
 10
4.599162
 20
1.262725
 30
0.0
  0
SPLINE
  5
116
100
AcDbEntity
  8
0
 62
7
100
AcDbSpline
 70
8
 71
3
 72
8
 73
4
 74
0
 40
0
 40
0
 40
0
 40
0
 40
1
 40
1
 40
1
 40
1
 10
4.599162
 20
1.262725
 30
0.0
 10
4.510265
 20
1.351621
 30
0.0
 10
4.389696
 20
1.401563
 30
0.0
 10
4.263977
 20
1.401563
 30
0.0
  0
LWPOLYLINE
  5
117
100
AcDbEntity
  8
0
 62
7
100
AcDbPolyline
 90
1
 70
1
 10
7.093977
 20
1.385563
 30
0.0
  0
SPLINE
  5
118
100
AcDbEntity
  8
0
 62
7
100
AcDbSpline
 70
8
 71
3
 72
8
 73
4
 74
0
 40
0
 40
0
 40
0
 40
0
 40
1
 40
1
 40
1
 40
1
 10
2.852977
 20
1.401563
 30
0.0
 10
2.661253
 20
1.401563
 30
0.0
 10
2.488407
 20
1.286071
 30
0.0
 10
2.415037
 20
1.108941
 30
0.0
  0
SPLINE
  5
119
100
AcDbEntity
  8
0
 62
7
100
AcDbSpline
 70
8
 71
3
 72
8
 73
4
 74
0
 40
0
 40
0
 40
0
 40
0
 40
1
 40
1
 40
1
 40
1
 10
2.415037
 20
1.108941
 30
0.0
 10
2.341667
 20
0.931810
 30
0.0
 10
2.382223
 20
0.727925
 30
0.0
 10
2.517792
 20
0.592355
 30
0.0
  0
SPLINE
  5
11a
100
AcDbEntity
  8
0
 62
7
100
AcDbSpline
 70
8
 71
3
 72
8
 73
4
 74
0
 40
0
 40
0
 40
0
 40
0
 40
1
 40
1
 40
1
 40
1
 10
2.517792
 20
0.592355
 30
0.0
 10
2.653362
 20
0.456785
 30
0.0
 10
2.857248
 20
0.416230
 30
0.0
 10
3.034378
 20
0.489600
 30
0.0
  0
SPLINE
  5
11b
100
AcDbEntity
  8
0
 62
7
100
AcDbSpline
 70
8
 71
3
 72
8
 73
4
 74
0
 40
0
 40
0
 40
0
 40
0
 40
1
 40
1
 40
1
 40
1
 10
3.034378
 20
0.489600
 30
0.0
 10
3.211508
 20
0.562970
 30
0.0
 10
3.327000
 20
0.735816
 30
0.0
 10
3.327000
 20
0.927540
 30
0.0
  0
SPLINE
  5
11c
100
AcDbEntity
  8
0
 62
7
100
AcDbSpline
 70
8
 71
3
 72
8
 73
4
 74
0
 40
0
 40
0
 40
0
 40
0
 40
1
 40
1
 40
1
 40
1
 10
3.327000
 20
0.927540
 30
0.0
 10
3.327000
 20
1.053259
 30
0.0
 10
3.277059
 20
1.173828
 30
0.0
 10
3.188162
 20
1.262725
 30
0.0
  0
SPLINE
  5
11d
100
AcDbEntity
  8
0
 62
7
100
AcDbSpline
 70
8
 71
3
 72
8
 73
4
 74
0
 40
0
 40
0
 40
0
 40
0
 40
1
 40
1
 40
1
 40
1
 10
3.188162
 20
1.262725
 30
0.0
 10
3.099265
 20
1.351621
 30
0.0
 10
2.978696
 20
1.401563
 30
0.0
 10
2.852977
 20
1.401563
 30
0.0
  0
LWPOLYLINE
  5
11e
100
AcDbEntity
  8
0
 62
7
100
AcDbPolyline
 90
1
 70
1
 10
4.263977
 20
1.401563
 30
0.0
  0
LWPOLYLINE
  5
11f
100
AcDbEntity
  8
0
 62
7
100
AcDbPolyline
 90
1
 70
1
 10
2.852977
 20
1.401563
 30
0.0
  0
LWPOLYLINE
  5
120
100
AcDbEntity
  8
0
 62
7
100
AcDbPolyline
 90
2
 70
0
 10
2.419000
 20
2.570540
 30
0.0
 10
2.420000
 20
3.755540
 30
0.0
  0
LWPOLYLINE
  5
121
100
AcDbEntity
  8
0
 62
7
100
AcDbPolyline
 90
2
 70
0
 10
0.005000
 20
2.025540
 30
0.0
 10
1.510000
 20
2.026540
 30
0.0
  0
LWPOLYLINE
  5
122
100
AcDbEntity
  8
0
 62
7
100
AcDbPolyline
 90
2
 70
0
 10
0.619000
 20
0.850540
 30
0.0
 10
0.005000
 20
0.850540
 30
0.0
  0
LWPOLYLINE
  5
123
100
AcDbEntity
  8
0
 62
7
100
AcDbPolyline
 90
2
 70
0
 10
2.169000
 20
0.850540
 30
0.0
 10
0.619000
 20
0.850540
 30
0.0
  0
LWPOLYLINE
  5
124
100
AcDbEntity
  8
0
 62
7
100
AcDbPolyline
 90
2
 70
0
 10
2.170000
 20
2.026540
 30
0.0
 10
2.169000
 20
0.850540
 30
0.0
  0
LWPOLYLINE
  5
125
100
AcDbEntity
  8
0
 62
7
100
AcDbPolyline
 90
2
 70
0
 10
1.510000
 20
2.026540
 30
0.0
 10
2.170000
 20
2.026540
 30
0.0
  0
LWPOLYLINE
  5
126
100
AcDbEntity
  8
0
 62
7
100
AcDbPolyline
 90
2
 70
0
 10
9.358000
 20
0.860540
 30
0.0
 10
7.829000
 20
0.860540
 30
0.0
  0
LWPOLYLINE
  5
127
100
AcDbEntity
  8
0
 62
7
100
AcDbPolyline
 90
2
 70
0
 10
7.830000
 20
2.036540
 30
0.0
 10
9.359000
 20
2.036540
 30
0.0
  0
LWPOLYLINE
  5
128
100
AcDbEntity
  8
0
 62
7
100
AcDbPolyline
 90
2
 70
0
 10
7.829000
 20
0.860540
 30
0.0
 10
7.830000
 20
2.036540
 30
0.0
  0
LWPOLYLINE
  5
129
100
AcDbEntity
  8
0
 62
7
100
AcDbPolyline
 90
2
 70
0
 10
10.005000
 20
0.860540
 30
0.0
 10
9.358000
 20
0.860540
 30
0.0
  0
LWPOLYLINE
  5
12a
100
AcDbEntity
  8
0
 62
7
100
AcDbPolyline
 90
2
 70
0
 10
9.359000
 20
2.036540
 30
0.0
 10
10.005000
 20
2.036540
 30
0.0
  0
SPLINE
  5
12b
100
AcDbEntity
  8
0
 62
7
100
AcDbSpline
 70
8
 71
3
 72
8
 73
4
 74
0
 40
0
 40
0
 40
0
 40
0
 40
1
 40
1
 40
1
 40
1
 10
5.676592
 20
1.385563
 30
0.0
 10
5.484868
 20
1.385563
 30
0.0
 10
5.312022
 20
1.270071
 30
0.0
 10
5.238652
 20
1.092941
 30
0.0
  0
SPLINE
  5
12c
100
AcDbEntity
  8
0
 62
7
100
AcDbSpline
 70
8
 71
3
 72
8
 73
4
 74
0
 40
0
 40
0
 40
0
 40
0
 40
1
 40
1
 40
1
 40
1
 10
5.238652
 20
1.092941
 30
0.0
 10
5.165282
 20
0.915810
 30
0.0
 10
5.205837
 20
0.711925
 30
0.0
 10
5.341407
 20
0.576355
 30
0.0
  0
SPLINE
  5
12d
100
AcDbEntity
  8
0
 62
7
100
AcDbSpline
 70
8
 71
3
 72
8
 73
4
 74
0
 40
0
 40
0
 40
0
 40
0
 40
1
 40
1
 40
1
 40
1
 10
5.341407
 20
0.576355
 30
0.0
 10
5.476977
 20
0.440785
 30
0.0
 10
5.680862
 20
0.400230
 30
0.0
 10
5.857993
 20
0.473600
 30
0.0
  0
SPLINE
  5
12e
100
AcDbEntity
  8
0
 62
7
100
AcDbSpline
 70
8
 71
3
 72
8
 73
4
 74
0
 40
0
 40
0
 40
0
 40
0
 40
1
 40
1
 40
1
 40
1
 10
5.857993
 20
0.473600
 30
0.0
 10
6.035123
 20
0.546970
 30
0.0
 10
6.150615
 20
0.719816
 30
0.0
 10
6.150615
 20
0.911540
 30
0.0
  0
SPLINE
  5
12f
100
AcDbEntity
  8
0
 62
7
100
AcDbSpline
 70
8
 71
3
 72
8
 73
4
 74
0
 40
0
 40
0
 40
0
 40
0
 40
1
 40
1
 40
1
 40
1
 10
6.150615
 20
0.911540
 30
0.0
 10
6.150615
 20
1.037259
 30
0.0
 10
6.100673
 20
1.157828
 30
0.0
 10
6.011777
 20
1.246725
 30
0.0
  0
SPLINE
  5
130
100
AcDbEntity
  8
0
 62
7
100
AcDbSpline
 70
8
 71
3
 72
8
 73
4
 74
0
 40
0
 40
0
 40
0
 40
0
 40
1
 40
1
 40
1
 40
1
 10
6.011777
 20
1.246725
 30
0.0
 10
5.922880
 20
1.335621
 30
0.0
 10
5.802311
 20
1.385563
 30
0.0
 10
5.676592
 20
1.385563
 30
0.0
  0
LWPOLYLINE
  5
131
100
AcDbEntity
  8
0
 62
7
100
AcDbPolyline
 90
2
 70
0
 10
5.505000
 20
2.800540
 30
0.0
 10
5.505000
 20
3.360540
 30
0.0
  0
LWPOLYLINE
  5
132
100
AcDbEntity
  8
0
 62
7
100
AcDbPolyline
 90
1
 70
1
 10
5.676592
 20
1.385563
 30
0.0
  0
LWPOLYLINE
  5
133
100
AcDbEntity
  8
0
 62
7
100
AcDbPolyline
 90
2
 70
0
 10
6.745000
 20
3.360540
 30
0.0
 10
6.745000
 20
4.000540
 30
0.0
  0
LWPOLYLINE
  5
134
100
AcDbEntity
  8
0
 62
7
100
AcDbPolyline
 90
2
 70
0
 10
5.505000
 20
3.360540
 30
0.0
 10
6.745000
 20
3.360540
 30
0.0
  0
LWPOLYLINE
  5
135
100
AcDbEntity
  8
0
 62
7
100
AcDbPolyline
 90
3
 70
0
 10
6.745000
 20
4.000540
 30
0.0
 10
6.755000
 20
4.000540
 30
0.0
 10
10.005000
 20
4.000540
 30
0.0
  0
SPLINE
  5
136
100
AcDbEntity
  8
0
 62
7
100
AcDbSpline
 70
8
 71
3
 72
8
 73
4
 74
0
 40
0
 40
0
 40
0
 40
0
 40
1
 40
1
 40
1
 40
1
 10
9.223858
 20
3.364576
 30
0.0
 10
8.972267
 20
3.364576
 30
0.0
 10
8.745451
 20
3.213022
 30
0.0
 10
8.649171
 20
2.980583
 30
0.0
  0
SPLINE
  5
137
100
AcDbEntity
  8
0
 62
7
100
AcDbSpline
 70
8
 71
3
 72
8
 73
4
 74
0
 40
0
 40
0
 40
0
 40
0
 40
1
 40
1
 40
1
 40
1
 10
8.649171
 20
2.980583
 30
0.0
 10
8.552892
 20
2.748144
 30
0.0
 10
8.606111
 20
2.480595
 30
0.0
 10
8.784012
 20
2.302694
 30
0.0
  0
SPLINE
  5
138
100
AcDbEntity
  8
0
 62
7
100
AcDbSpline
 70
8
 71
3
 72
8
 73
4
 74
0
 40
0
 40
0
 40
0
 40
0
 40
1
 40
1
 40
1
 40
1
 10
8.784012
 20
2.302694
 30
0.0
 10
8.961913
 20
2.124793
 30
0.0
 10
9.229461
 20
2.071574
 30
0.0
 10
9.461900
 20
2.167854
 30
0.0
  0
SPLINE
  5
139
100
AcDbEntity
  8
0
 62
7
100
AcDbSpline
 70
8
 71
3
 72
8
 73
4
 74
0
 40
0
 40
0
 40
0
 40
0
 40
1
 40
1
 40
1
 40
1
 10
9.461900
 20
2.167854
 30
0.0
 10
9.694339
 20
2.264133
 30
0.0
 10
9.845893
 20
2.490950
 30
0.0
 10
9.845893
 20
2.742540
 30
0.0
  0
SPLINE
  5
13a
100
AcDbEntity
  8
0
 62
7
100
AcDbSpline
 70
8
 71
3
 72
8
 73
4
 74
0
 40
0
 40
0
 40
0
 40
0
 40
1
 40
1
 40
1
 40
1
 10
9.845893
 20
2.742540
 30
0.0
 10
9.845893
 20
2.907514
 30
0.0
 10
9.780358
 20
3.065731
 30
0.0
 10
9.663703
 20
3.182386
 30
0.0
  0
SPLINE
  5
13b
100
AcDbEntity
  8
0
 62
7
100
AcDbSpline
 70
8
 71
3
 72
8
 73
4
 74
0
 40
0
 40
0
 40
0
 40
0
 40
1
 40
1
 40
1
 40
1
 10
9.663703
 20
3.182386
 30
0.0
 10
9.547049
 20
3.299040
 30
0.0
 10
9.388832
 20
3.364576
 30
0.0
 10
9.223858
 20
3.364576
 30
0.0
  0
LWPOLYLINE
  5
13c
100
AcDbEntity
  8
0
 62
7
100
AcDbPolyline
 90
2
 70
0
 10
3.990000
 20
3.754540
 30
0.0
 10
3.989000
 20
2.578540
 30
0.0
  0
SPLINE
  5
13d
100
AcDbEntity
  8
0
 62
7
100
AcDbSpline
 70
8
 71
3
 72
8
 73
4
 74
0
 40
0
 40
0
 40
0
 40
0
 40
1
 40
1
 40
1
 40
1
 10
9.655000
 20
0.540540
 30
0.0
 10
9.578152
 20
0.540540
 30
0.0
 10
9.508871
 20
0.494248
 30
0.0
 10
9.479463
 20
0.423250
 30
0.0
  0
SPLINE
  5
13e
100
AcDbEntity
  8
0
 62
7
100
AcDbSpline
 70
8
 71
3
 72
8
 73
4
 74
0
 40
0
 40
0
 40
0
 40
0
 40
1
 40
1
 40
1
 40
1
 10
9.479463
 20
0.423250
 30
0.0
 10
9.450054
 20
0.352252
 30
0.0
 10
9.466310
 20
0.270529
 30
0.0
 10
9.520650
 20
0.216190
 30
0.0
  0
SPLINE
  5
13f
100
AcDbEntity
  8
0
 62
7
100
AcDbSpline
 70
8
 71
3
 72
8
 73
4
 74
0
 40
0
 40
0
 40
0
 40
0
 40
1
 40
1
 40
1
 40
1
 10
9.520650
 20
0.216190
 30
0.0
 10
9.574989
 20
0.161850
 30
0.0
 10
9.656712
 20
0.145594
 30
0.0
 10
9.727710
 20
0.175003
 30
0.0
  0
SPLINE
  5
140
100
AcDbEntity
  8
0
 62
7
100
AcDbSpline
 70
8
 71
3
 72
8
 73
4
 74
0
 40
0
 40
0
 40
0
 40
0
 40
1
 40
1
 40
1
 40
1
 10
9.727710
 20
0.175003
 30
0.0
 10
9.798708
 20
0.204411
 30
0.0
 10
9.845000
 20
0.273692
 30
0.0
 10
9.845000
 20
0.350540
 30
0.0
  0
SPLINE
  5
141
100
AcDbEntity
  8
0
 62
7
100
AcDbSpline
 70
8
 71
3
 72
8
 73
4
 74
0
 40
0
 40
0
 40
0
 40
0
 40
1
 40
1
 40
1
 40
1
 10
9.845000
 20
0.350540
 30
0.0
 10
9.845000
 20
0.400931
 30
0.0
 10
9.824982
 20
0.449258
 30
0.0
 10
9.789350
 20
0.484890
 30
0.0
  0
SPLINE
  5
142
100
AcDbEntity
  8
0
 62
7
100
AcDbSpline
 70
8
 71
3
 72
8
 73
4
 74
0
 40
0
 40
0
 40
0
 40
0
 40
1
 40
1
 40
1
 40
1
 10
9.789350
 20
0.484890
 30
0.0
 10
9.753718
 20
0.520522
 30
0.0
 10
9.705391
 20
0.540540
 30
0.0
 10
9.655000
 20
0.540540
 30
0.0
  0
LWPOLYLINE
  5
143
100
AcDbEntity
  8
0
 62
7
100
AcDbPolyline
 90
1
 70
1
 10
9.223858
 20
3.364576
 30
0.0
  0
LWPOLYLINE
  5
144
100
AcDbEntity
  8
0
 62
7
100
AcDbPolyline
 90
1
 70
1
 10
9.655000
 20
0.540540
 30
0.0
  0
SPLINE
  5
145
100
AcDbEntity
  8
0
 62
7
100
AcDbSpline
 70
8
 71
3
 72
8
 73
4
 74
0
 40
0
 40
0
 40
0
 40
0
 40
1
 40
1
 40
1
 40
1
 10
0.355000
 20
0.540540
 30
0.0
 10
0.278152
 20
0.540540
 30
0.0
 10
0.208871
 20
0.494248
 30
0.0
 10
0.179463
 20
0.423250
 30
0.0
  0
SPLINE
  5
146
100
AcDbEntity
  8
0
 62
7
100
AcDbSpline
 70
8
 71
3
 72
8
 73
4
 74
0
 40
0
 40
0
 40
0
 40
0
 40
1
 40
1
 40
1
 40
1
 10
0.179463
 20
0.423250
 30
0.0
 10
0.150054
 20
0.352252
 30
0.0
 10
0.166310
 20
0.270529
 30
0.0
 10
0.220650
 20
0.216190
 30
0.0
  0
SPLINE
  5
147
100
AcDbEntity
  8
0
 62
7
100
AcDbSpline
 70
8
 71
3
 72
8
 73
4
 74
0
 40
0
 40
0
 40
0
 40
0
 40
1
 40
1
 40
1
 40
1
 10
0.220650
 20
0.216190
 30
0.0
 10
0.274989
 20
0.161850
 30
0.0
 10
0.356712
 20
0.145594
 30
0.0
 10
0.427710
 20
0.175003
 30
0.0
  0
SPLINE
  5
148
100
AcDbEntity
  8
0
 62
7
100
AcDbSpline
 70
8
 71
3
 72
8
 73
4
 74
0
 40
0
 40
0
 40
0
 40
0
 40
1
 40
1
 40
1
 40
1
 10
0.427710
 20
0.175003
 30
0.0
 10
0.498708
 20
0.204411
 30
0.0
 10
0.545000
 20
0.273692
 30
0.0
 10
0.545000
 20
0.350540
 30
0.0
  0
SPLINE
  5
149
100
AcDbEntity
  8
0
 62
7
100
AcDbSpline
 70
8
 71
3
 72
8
 73
4
 74
0
 40
0
 40
0
 40
0
 40
0
 40
1
 40
1
 40
1
 40
1
 10
0.545000
 20
0.350540
 30
0.0
 10
0.545000
 20
0.400931
 30
0.0
 10
0.524982
 20
0.449258
 30
0.0
 10
0.489350
 20
0.484890
 30
0.0
  0
SPLINE
  5
14a
100
AcDbEntity
  8
0
 62
7
100
AcDbSpline
 70
8
 71
3
 72
8
 73
4
 74
0
 40
0
 40
0
 40
0
 40
0
 40
1
 40
1
 40
1
 40
1
 10
0.489350
 20
0.484890
 30
0.0
 10
0.453718
 20
0.520522
 30
0.0
 10
0.405391
 20
0.540540
 30
0.0
 10
0.355000
 20
0.540540
 30
0.0
  0
LWPOLYLINE
  5
14b
100
AcDbEntity
  8
0
 62
7
100
AcDbPolyline
 90
2
 70
0
 10
0.005000
 20
4.000540
 30
0.0
 10
4.505000
 20
4.000540
 30
0.0
  0
LWPOLYLINE
  5
14c
100
AcDbEntity
  8
0
 62
7
100
AcDbPolyline
 90
1
 70
1
 10
0.355000
 20
0.540540
 30
0.0
  0
LWPOLYLINE
  5
14d
100
AcDbEntity
  8
0
 62
7
100
AcDbPolyline
 90
2
 70
0
 10
4.505000
 20
2.800540
 30
0.0
 10
4.505000
 20
4.000540
 30
0.0
  0
SPLINE
  5
14e
100
AcDbEntity
  8
0
 62
7
100
AcDbSpline
 70
8
 71
3
 72
8
 73
4
 74
0
 40
0
 40
0
 40
0
 40
0
 40
1
 40
1
 40
1
 40
1
 10
9.655000
 20
3.840540
 30
0.0
 10
9.578152
 20
3.840540
 30
0.0
 10
9.508871
 20
3.794248
 30
0.0
 10
9.479463
 20
3.723250
 30
0.0
  0
SPLINE
  5
14f
100
AcDbEntity
  8
0
 62
7
100
AcDbSpline
 70
8
 71
3
 72
8
 73
4
 74
0
 40
0
 40
0
 40
0
 40
0
 40
1
 40
1
 40
1
 40
1
 10
9.479463
 20
3.723250
 30
0.0
 10
9.450054
 20
3.652252
 30
0.0
 10
9.466310
 20
3.570529
 30
0.0
 10
9.520650
 20
3.516190
 30
0.0
  0
SPLINE
  5
150
100
AcDbEntity
  8
0
 62
7
100
AcDbSpline
 70
8
 71
3
 72
8
 73
4
 74
0
 40
0
 40
0
 40
0
 40
0
 40
1
 40
1
 40
1
 40
1
 10
9.520650
 20
3.516190
 30
0.0
 10
9.574989
 20
3.461850
 30
0.0
 10
9.656712
 20
3.445594
 30
0.0
 10
9.727710
 20
3.475003
 30
0.0
  0
SPLINE
  5
151
100
AcDbEntity
  8
0
 62
7
100
AcDbSpline
 70
8
 71
3
 72
8
 73
4
 74
0
 40
0
 40
0
 40
0
 40
0
 40
1
 40
1
 40
1
 40
1
 10
9.727710
 20
3.475003
 30
0.0
 10
9.798708
 20
3.504411
 30
0.0
 10
9.845000
 20
3.573692
 30
0.0
 10
9.845000
 20
3.650540
 30
0.0
  0
SPLINE
  5
152
100
AcDbEntity
  8
0
 62
7
100
AcDbSpline
 70
8
 71
3
 72
8
 73
4
 74
0
 40
0
 40
0
 40
0
 40
0
 40
1
 40
1
 40
1
 40
1
 10
9.845000
 20
3.650540
 30
0.0
 10
9.845000
 20
3.700931
 30
0.0
 10
9.824982
 20
3.749258
 30
0.0
 10
9.789350
 20
3.784890
 30
0.0
  0
SPLINE
  5
153
100
AcDbEntity
  8
0
 62
7
100
AcDbSpline
 70
8
 71
3
 72
8
 73
4
 74
0
 40
0
 40
0
 40
0
 40
0
 40
1
 40
1
 40
1
 40
1
 10
9.789350
 20
3.784890
 30
0.0
 10
9.753718
 20
3.820522
 30
0.0
 10
9.705391
 20
3.840540
 30
0.0
 10
9.655000
 20
3.840540
 30
0.0
  0
LWPOLYLINE
  5
154
100
AcDbEntity
  8
0
 62
7
100
AcDbPolyline
 90
2
 70
0
 10
3.989000
 20
2.578540
 30
0.0
 10
2.419000
 20
2.570540
 30
0.0
  0
LWPOLYLINE
  5
155
100
AcDbEntity
  8
0
 62
7
100
AcDbPolyline
 90
1
 70
1
 10
9.655000
 20
3.840540
 30
0.0
  0
LWPOLYLINE
  5
156
100
AcDbEntity
  8
0
 62
7
100
AcDbPolyline
 90
2
 70
0
 10
5.505000
 20
2.800540
 30
0.0
 10
4.505000
 20
2.800540
 30
0.0
  0
LWPOLYLINE
  5
157
100
AcDbEntity
  8
0
 62
7
100
AcDbPolyline
 90
2
 70
0
 10
2.420000
 20
3.755540
 30
0.0
 10
3.990000
 20
3.754540
 30
0.0
  0
SPLINE
  5
158
100
AcDbEntity
  8
0
 62
7
100
AcDbSpline
 70
8
 71
3
 72
8
 73
4
 74
0
 40
0
 40
0
 40
0
 40
0
 40
1
 40
1
 40
1
 40
1
 10
0.355000
 20
3.840540
 30
0.0
 10
0.278152
 20
3.840540
 30
0.0
 10
0.208871
 20
3.794248
 30
0.0
 10
0.179463
 20
3.723250
 30
0.0
  0
SPLINE
  5
159
100
AcDbEntity
  8
0
 62
7
100
AcDbSpline
 70
8
 71
3
 72
8
 73
4
 74
0
 40
0
 40
0
 40
0
 40
0
 40
1
 40
1
 40
1
 40
1
 10
0.179463
 20
3.723250
 30
0.0
 10
0.150054
 20
3.652252
 30
0.0
 10
0.166310
 20
3.570529
 30
0.0
 10
0.220650
 20
3.516190
 30
0.0
  0
SPLINE
  5
15a
100
AcDbEntity
  8
0
 62
7
100
AcDbSpline
 70
8
 71
3
 72
8
 73
4
 74
0
 40
0
 40
0
 40
0
 40
0
 40
1
 40
1
 40
1
 40
1
 10
0.220650
 20
3.516190
 30
0.0
 10
0.274989
 20
3.461850
 30
0.0
 10
0.356712
 20
3.445594
 30
0.0
 10
0.427710
 20
3.475003
 30
0.0
  0
SPLINE
  5
15b
100
AcDbEntity
  8
0
 62
7
100
AcDbSpline
 70
8
 71
3
 72
8
 73
4
 74
0
 40
0
 40
0
 40
0
 40
0
 40
1
 40
1
 40
1
 40
1
 10
0.427710
 20
3.475003
 30
0.0
 10
0.498708
 20
3.504411
 30
0.0
 10
0.545000
 20
3.573692
 30
0.0
 10
0.545000
 20
3.650540
 30
0.0
  0
SPLINE
  5
15c
100
AcDbEntity
  8
0
 62
7
100
AcDbSpline
 70
8
 71
3
 72
8
 73
4
 74
0
 40
0
 40
0
 40
0
 40
0
 40
1
 40
1
 40
1
 40
1
 10
0.545000
 20
3.650540
 30
0.0
 10
0.545000
 20
3.700931
 30
0.0
 10
0.524982
 20
3.749258
 30
0.0
 10
0.489350
 20
3.784890
 30
0.0
  0
SPLINE
  5
15d
100
AcDbEntity
  8
0
 62
7
100
AcDbSpline
 70
8
 71
3
 72
8
 73
4
 74
0
 40
0
 40
0
 40
0
 40
0
 40
1
 40
1
 40
1
 40
1
 10
0.489350
 20
3.784890
 30
0.0
 10
0.453718
 20
3.820522
 30
0.0
 10
0.405391
 20
3.840540
 30
0.0
 10
0.355000
 20
3.840540
 30
0.0
  0
LWPOLYLINE
  5
15e
100
AcDbEntity
  8
0
 62
7
100
AcDbPolyline
 90
2
 70
0
 10
10.005000
 20
4.000540
 30
0.0
 10
10.005000
 20
2.036540
 30
0.0
  0
LWPOLYLINE
  5
15f
100
AcDbEntity
  8
0
 62
7
100
AcDbPolyline
 90
1
 70
1
 10
0.355000
 20
3.840540
 30
0.0
  0
ENDSEC
  0
SECTION
  2
OBJECTS
  0
DICTIONARY
  5
C
330
0
100
AcDbDictionary
  3
ACAD_GROUP
350
D
  3
ACAD_MLINESTYLE
350
17
  0
DICTIONARY
  5
D
330
C
100
AcDbDictionary
  0
DICTIONARY
  5
1A
330
C
100
AcDbDictionary
  0
DICTIONARY
  5
17
330
C
100
AcDbDictionary
  3
STANDARD
350
18
  0
DICTIONARY
  5
19
330
C
100
AcDbDictionary
  0
ENDSEC
  0
EOF
