  0
SECTION
  2
HEADER
  9
$ACADVER
  1
AC1014
  9
$HANDSEED
  5
FFFF
  9
$INSUNITS
 70
     5
  9
$MEASUREMENT
 70
     1
  0
ENDSEC
  0
SECTION
  2
TABLES
  0
TABLE
  2
VPORT
  5
8
330
0
100
AcDbSymbolTable
 70
     4
  0
VPORT
  5
2E
330
8
100
AcDbSymbolTableRecord
100
AcDbViewportTableRecord
  2
*ACTIVE
 70
     0
 10
0.0
 20
0.0
 11
1.0
 21
1.0
 12
210.0
 22
148.5
 13
0.0
 23
0.0
 14
10.0
 24
10.0
 15
10.0
 25
10.0
 16
0.0
 26
0.0
 36
1.0
 17
0.0
 27
0.0
 37
0.0
 40
341.0
 41
1.24
 42
50.0
 43
0.0
 44
0.0
 50
0.0
 51
0.0
 71
     0
 72
   100
 73
     1
 74
     3
 75
     0
 76
     0
 77
     0
 78
     0
  0
ENDTAB
  0
TABLE
  2
LTYPE
  5
5
330
0
100
AcDbSymbolTable
 70
     1
  0
LTYPE
  5
14
330
5
100
AcDbSymbolTableRecord
100
AcDbLinetypeTableRecord
  2
BYBLOCK
 70
     0
  3

 72
    65
 73
     0
 40
0.0
  0
LTYPE
  5
15
330
5
100
AcDbSymbolTableRecord
100
AcDbLinetypeTableRecord
  2
BYLAYER
 70
     0
  3

 72
    65
 73
     0
 40
0.0
  0
LTYPE
  5
16
330
5
100
AcDbSymbolTableRecord
100
AcDbLinetypeTableRecord
  2
CONTINUOUS
 70
     0
  3
Solid line
 72
    65
 73
     0
 40
0.0
  0
ENDTAB
  0
TABLE
  2
LAYER
  5
2
100
AcDbSymbolTable
 70
1
  0
LAYER
  5
50
100
AcDbSymbolTableRecord
100
AcDbLayerTableRecord
  2
0
 70
0
  6
CONTINUOUS
  0
ENDTAB
  0
TABLE
  2
STYLE
  5
3
330
0
100
AcDbSymbolTable
 70
     1
  0
STYLE
  5
11
330
3
100
AcDbSymbolTableRecord
100
AcDbTextStyleTableRecord
  2
STANDARD
 70
     0
 40
0.0
 41
1.0
 50
0.0
 71
     0
 42
2.5
  3
txt
  4

  0
ENDTAB
  0
TABLE
  2
VIEW
  5
6
330
0
100
AcDbSymbolTable
 70
     0
  0
ENDTAB
  0
TABLE
  2
UCS
  5
7
330
0
100
AcDbSymbolTable
 70
     0
  0
ENDTAB
  0
TABLE
  2
APPID
  5
9
330
0
100
AcDbSymbolTable
 70
     2
  0
APPID
  5
12
330
9
100
AcDbSymbolTableRecord
100
AcDbRegAppTableRecord
  2
ACAD
 70
     0
  0
ENDTAB
  0
TABLE
  2
DIMSTYLE
  5
A
330
0
100
AcDbSymbolTable
 70
     1
  0
DIMSTYLE
105
27
330
A
100
AcDbSymbolTableRecord
100
AcDbDimStyleTableRecord
  2
ISO-25
 70
     0
  3

  4

  5

  6

  7

 40
1.0
 41
2.5
 42
0.625
 43
3.75
 44
1.25
 45
0.0
 46
0.0
 47
0.0
 48
0.0
140
2.5
141
2.5
142
0.0
143
0.03937007874016
144
1.0
145
0.0
146
1.0
147
0.625
 71
     0
 72
     0
 73
     0
 74
     0
 75
     0
 76
     0
 77
     1
 78
     8
170
     0
171
     3
172
     1
173
     0
174
     0
175
     0
176
     0
177
     0
178
     0
270
     2
271
     2
272
     2
273
     2
274
     3
340
11
275
     0
280
     0
281
     0
282
     0
283
     0
284
     8
285
     0
286
     0
287
     3
288
     0
  0
ENDTAB
  0
TABLE
  2
BLOCK_RECORD
  5
1
330
0
100
AcDbSymbolTable
 70
     1
  0
BLOCK_RECORD
  5
1F
330
1
100
AcDbSymbolTableRecord
100
AcDbBlockTableRecord
  2
*MODEL_SPACE
  0
BLOCK_RECORD
  5
1B
330
1
100
AcDbSymbolTableRecord
100
AcDbBlockTableRecord
  2
*PAPER_SPACE
  0
ENDTAB
  0
ENDSEC
  0
SECTION
  2
BLOCKS
  0
BLOCK
  5
20
330
1F
100
AcDbEntity
  8
0
100
AcDbBlockBegin
  2
*MODEL_SPACE
 70
     0
 10
0.0
 20
0.0
 30
0.0
  3
*MODEL_SPACE
  1

  0
ENDBLK
  5
21
330
1F
100
AcDbEntity
  8
0
100
AcDbBlockEnd
  0
BLOCK
  5
1C
330
1B
100
AcDbEntity
 67
     1
  8
0
100
AcDbBlockBegin
  2
*PAPER_SPACE
  1

  0
ENDBLK
  5
1D
330
1B
100
AcDbEntity
 67
     1
  8
0
100
AcDbBlockEnd
  0
ENDSEC
  0
SECTION
  2
ENTITIES
  0
LWPOLYLINE
  5
100
100
AcDbEntity
  8
0
 62
7
100
AcDbPolyline
 90
2
 70
0
 10
1.622500
 20
6.905743
 30
0.0
 10
1.622500
 20
9.190743
 30
0.0
  0
SPLINE
  5
101
100
AcDbEntity
  8
0
 62
7
100
AcDbSpline
 70
8
 71
3
 72
8
 73
4
 74
0
 40
0
 40
0
 40
0
 40
0
 40
1
 40
1
 40
1
 40
1
 10
3.337500
 20
12.665743
 30
0.0
 10
3.249134
 20
12.665743
 30
0.0
 10
3.177500
 20
12.594109
 30
0.0
 10
3.177500
 20
12.505743
 30
0.0
  0
SPLINE
  5
102
100
AcDbEntity
  8
0
 62
7
100
AcDbSpline
 70
8
 71
3
 72
8
 73
4
 74
0
 40
0
 40
0
 40
0
 40
0
 40
1
 40
1
 40
1
 40
1
 10
3.177500
 20
12.505743
 30
0.0
 10
3.177500
 20
12.417378
 30
0.0
 10
3.249134
 20
12.345743
 30
0.0
 10
3.337500
 20
12.345743
 30
0.0
  0
SPLINE
  5
103
100
AcDbEntity
  8
0
 62
7
100
AcDbSpline
 70
8
 71
3
 72
8
 73
4
 74
0
 40
0
 40
0
 40
0
 40
0
 40
1
 40
1
 40
1
 40
1
 10
3.337500
 20
12.345743
 30
0.0
 10
3.425866
 20
12.345743
 30
0.0
 10
3.497500
 20
12.417378
 30
0.0
 10
3.497500
 20
12.505743
 30
0.0
  0
SPLINE
  5
104
100
AcDbEntity
  8
0
 62
7
100
AcDbSpline
 70
8
 71
3
 72
8
 73
4
 74
0
 40
0
 40
0
 40
0
 40
0
 40
1
 40
1
 40
1
 40
1
 10
3.497500
 20
12.505743
 30
0.0
 10
3.497500
 20
12.548178
 30
0.0
 10
3.480643
 20
12.588875
 30
0.0
 10
3.450637
 20
12.618880
 30
0.0
  0
SPLINE
  5
105
100
AcDbEntity
  8
0
 62
7
100
AcDbSpline
 70
8
 71
3
 72
8
 73
4
 74
0
 40
0
 40
0
 40
0
 40
0
 40
1
 40
1
 40
1
 40
1
 10
3.450637
 20
12.618880
 30
0.0
 10
3.420631
 20
12.648886
 30
0.0
 10
3.379935
 20
12.665743
 30
0.0
 10
3.337500
 20
12.665743
 30
0.0
  0
LWPOLYLINE
  5
106
100
AcDbEntity
  8
0
 62
7
100
AcDbPolyline
 90
2
 70
0
 10
1.622500
 20
3.810743
 30
0.0
 10
1.622500
 20
6.095743
 30
0.0
  0
SPLINE
  5
107
100
AcDbEntity
  8
0
 62
7
100
AcDbSpline
 70
8
 71
3
 72
8
 73
4
 74
0
 40
0
 40
0
 40
0
 40
0
 40
1
 40
1
 40
1
 40
1
 10
0.702500
 20
12.665743
 30
0.0
 10
0.637786
 20
12.665743
 30
0.0
 10
0.579444
 20
12.626761
 30
0.0
 10
0.554679
 20
12.566973
 30
0.0
  0
SPLINE
  5
108
100
AcDbEntity
  8
0
 62
7
100
AcDbSpline
 70
8
 71
3
 72
8
 73
4
 74
0
 40
0
 40
0
 40
0
 40
0
 40
1
 40
1
 40
1
 40
1
 10
0.554679
 20
12.566973
 30
0.0
 10
0.529914
 20
12.507185
 30
0.0
 10
0.543603
 20
12.438366
 30
0.0
 10
0.589363
 20
12.392606
 30
0.0
  0
SPLINE
  5
109
100
AcDbEntity
  8
0
 62
7
100
AcDbSpline
 70
8
 71
3
 72
8
 73
4
 74
0
 40
0
 40
0
 40
0
 40
0
 40
1
 40
1
 40
1
 40
1
 10
0.589363
 20
12.392606
 30
0.0
 10
0.635123
 20
12.346847
 30
0.0
 10
0.703941
 20
12.333158
 30
0.0
 10
0.763729
 20
12.357923
 30
0.0
  0
SPLINE
  5
10a
100
AcDbEntity
  8
0
 62
7
100
AcDbSpline
 70
8
 71
3
 72
8
 73
4
 74
0
 40
0
 40
0
 40
0
 40
0
 40
1
 40
1
 40
1
 40
1
 10
0.763729
 20
12.357923
 30
0.0
 10
0.823517
 20
12.382688
 30
0.0
 10
0.862500
 20
12.441029
 30
0.0
 10
0.862500
 20
12.505743
 30
0.0
  0
SPLINE
  5
10b
100
AcDbEntity
  8
0
 62
7
100
AcDbSpline
 70
8
 71
3
 72
8
 73
4
 74
0
 40
0
 40
0
 40
0
 40
0
 40
1
 40
1
 40
1
 40
1
 10
0.862500
 20
12.505743
 30
0.0
 10
0.862500
 20
12.548178
 30
0.0
 10
0.845643
 20
12.588875
 30
0.0
 10
0.815637
 20
12.618880
 30
0.0
  0
SPLINE
  5
10c
100
AcDbEntity
  8
0
 62
7
100
AcDbSpline
 70
8
 71
3
 72
8
 73
4
 74
0
 40
0
 40
0
 40
0
 40
0
 40
1
 40
1
 40
1
 40
1
 10
0.815637
 20
12.618880
 30
0.0
 10
0.785631
 20
12.648886
 30
0.0
 10
0.744935
 20
12.665743
 30
0.0
 10
0.702500
 20
12.665743
 30
0.0
  0
LWPOLYLINE
  5
10d
100
AcDbEntity
  8
0
 62
7
100
AcDbPolyline
 90
1
 70
1
 10
3.337500
 20
12.665743
 30
0.0
  0
SPLINE
  5
10e
100
AcDbEntity
  8
0
 62
7
100
AcDbSpline
 70
8
 71
3
 72
8
 73
4
 74
0
 40
0
 40
0
 40
0
 40
0
 40
1
 40
1
 40
1
 40
1
 10
0.702500
 20
0.510743
 30
0.0
 10
0.637786
 20
0.510743
 30
0.0
 10
0.579444
 20
0.471761
 30
0.0
 10
0.554679
 20
0.411973
 30
0.0
  0
SPLINE
  5
10f
100
AcDbEntity
  8
0
 62
7
100
AcDbSpline
 70
8
 71
3
 72
8
 73
4
 74
0
 40
0
 40
0
 40
0
 40
0
 40
1
 40
1
 40
1
 40
1
 10
0.554679
 20
0.411973
 30
0.0
 10
0.529914
 20
0.352185
 30
0.0
 10
0.543603
 20
0.283366
 30
0.0
 10
0.589363
 20
0.237606
 30
0.0
  0
SPLINE
  5
110
100
AcDbEntity
  8
0
 62
7
100
AcDbSpline
 70
8
 71
3
 72
8
 73
4
 74
0
 40
0
 40
0
 40
0
 40
0
 40
1
 40
1
 40
1
 40
1
 10
0.589363
 20
0.237606
 30
0.0
 10
0.635123
 20
0.191847
 30
0.0
 10
0.703941
 20
0.178158
 30
0.0
 10
0.763729
 20
0.202923
 30
0.0
  0
SPLINE
  5
111
100
AcDbEntity
  8
0
 62
7
100
AcDbSpline
 70
8
 71
3
 72
8
 73
4
 74
0
 40
0
 40
0
 40
0
 40
0
 40
1
 40
1
 40
1
 40
1
 10
0.763729
 20
0.202923
 30
0.0
 10
0.823517
 20
0.227688
 30
0.0
 10
0.862500
 20
0.286029
 30
0.0
 10
0.862500
 20
0.350743
 30
0.0
  0
SPLINE
  5
112
100
AcDbEntity
  8
0
 62
7
100
AcDbSpline
 70
8
 71
3
 72
8
 73
4
 74
0
 40
0
 40
0
 40
0
 40
0
 40
1
 40
1
 40
1
 40
1
 10
0.862500
 20
0.350743
 30
0.0
 10
0.862500
 20
0.393178
 30
0.0
 10
0.845643
 20
0.433875
 30
0.0
 10
0.815637
 20
0.463880
 30
0.0
  0
SPLINE
  5
113
100
AcDbEntity
  8
0
 62
7
100
AcDbSpline
 70
8
 71
3
 72
8
 73
4
 74
0
 40
0
 40
0
 40
0
 40
0
 40
1
 40
1
 40
1
 40
1
 10
0.815637
 20
0.463880
 30
0.0
 10
0.785631
 20
0.493886
 30
0.0
 10
0.744935
 20
0.510743
 30
0.0
 10
0.702500
 20
0.510743
 30
0.0
  0
LWPOLYLINE
  5
114
100
AcDbEntity
  8
0
 62
7
100
AcDbPolyline
 90
1
 70
1
 10
0.702500
 20
12.665743
 30
0.0
  0
SPLINE
  5
115
100
AcDbEntity
  8
0
 62
7
100
AcDbSpline
 70
8
 71
3
 72
8
 73
4
 74
0
 40
0
 40
0
 40
0
 40
0
 40
1
 40
1
 40
1
 40
1
 10
3.337500
 20
0.510743
 30
0.0
 10
3.249134
 20
0.510743
 30
0.0
 10
3.177500
 20
0.439109
 30
0.0
 10
3.177500
 20
0.350743
 30
0.0
  0
SPLINE
  5
116
100
AcDbEntity
  8
0
 62
7
100
AcDbSpline
 70
8
 71
3
 72
8
 73
4
 74
0
 40
0
 40
0
 40
0
 40
0
 40
1
 40
1
 40
1
 40
1
 10
3.177500
 20
0.350743
 30
0.0
 10
3.177500
 20
0.262378
 30
0.0
 10
3.249134
 20
0.190743
 30
0.0
 10
3.337500
 20
0.190743
 30
0.0
  0
SPLINE
  5
117
100
AcDbEntity
  8
0
 62
7
100
AcDbSpline
 70
8
 71
3
 72
8
 73
4
 74
0
 40
0
 40
0
 40
0
 40
0
 40
1
 40
1
 40
1
 40
1
 10
3.337500
 20
0.190743
 30
0.0
 10
3.425866
 20
0.190743
 30
0.0
 10
3.497500
 20
0.262378
 30
0.0
 10
3.497500
 20
0.350743
 30
0.0
  0
SPLINE
  5
118
100
AcDbEntity
  8
0
 62
7
100
AcDbSpline
 70
8
 71
3
 72
8
 73
4
 74
0
 40
0
 40
0
 40
0
 40
0
 40
1
 40
1
 40
1
 40
1
 10
3.497500
 20
0.350743
 30
0.0
 10
3.497500
 20
0.393178
 30
0.0
 10
3.480643
 20
0.433875
 30
0.0
 10
3.450637
 20
0.463880
 30
0.0
  0
SPLINE
  5
119
100
AcDbEntity
  8
0
 62
7
100
AcDbSpline
 70
8
 71
3
 72
8
 73
4
 74
0
 40
0
 40
0
 40
0
 40
0
 40
1
 40
1
 40
1
 40
1
 10
3.450637
 20
0.463880
 30
0.0
 10
3.420631
 20
0.493886
 30
0.0
 10
3.379935
 20
0.510743
 30
0.0
 10
3.337500
 20
0.510743
 30
0.0
  0
LWPOLYLINE
  5
11a
100
AcDbEntity
  8
0
 62
7
100
AcDbPolyline
 90
1
 70
1
 10
0.702500
 20
0.510743
 30
0.0
  0
LWPOLYLINE
  5
11b
100
AcDbEntity
  8
0
 62
7
100
AcDbPolyline
 90
1
 70
1
 10
3.337500
 20
0.510743
 30
0.0
  0
LWPOLYLINE
  5
11c
100
AcDbEntity
  8
0
 62
7
100
AcDbPolyline
 90
2
 70
0
 10
1.120000
 20
0.812684
 30
0.0
 10
1.500952
 20
0.812684
 30
0.0
  0
LWPOLYLINE
  5
11d
100
AcDbEntity
  8
0
 62
7
100
AcDbPolyline
 90
3
 70
0
 10
1.548571
 20
1.312684
 30
0.0
 10
1.643810
 20
1.384112
 30
0.0
 10
1.739048
 20
1.312684
 30
0.0
  0
LWPOLYLINE
  5
11e
100
AcDbEntity
  8
0
 62
7
100
AcDbPolyline
 90
20
 70
1
 10
2.381905
 20
1.360303
 30
0.0
 10
2.429524
 20
1.360303
 30
0.0
 10
2.477143
 20
1.336493
 30
0.0
 10
2.500952
 20
1.312684
 30
0.0
 10
2.524762
 20
1.265065
 30
0.0
 10
2.548571
 20
1.169827
 30
0.0
 10
2.548571
 20
1.050779
 30
0.0
 10
2.524762
 20
0.955541
 30
0.0
 10
2.500952
 20
0.907922
 30
0.0
 10
2.477143
 20
0.884112
 30
0.0
 10
2.429524
 20
0.860303
 30
0.0
 10
2.381905
 20
0.860303
 30
0.0
 10
2.334286
 20
0.884112
 30
0.0
 10
2.310476
 20
0.907922
 30
0.0
 10
2.286667
 20
0.955541
 30
0.0
 10
2.262857
 20
1.050779
 30
0.0
 10
2.262857
 20
1.169827
 30
0.0
 10
2.286667
 20
1.265065
 30
0.0
 10
2.310476
 20
1.312684
 30
0.0
 10
2.334286
 20
1.336493
 30
0.0
  0
LWPOLYLINE
  5
11f
100
AcDbEntity
  8
0
 62
7
100
AcDbPolyline
 90
22
 70
0
 10
2.977143
 20
1.360303
 30
0.0
 10
2.881905
 20
1.360303
 30
0.0
 10
2.834286
 20
1.336493
 30
0.0
 10
2.810476
 20
1.312684
 30
0.0
 10
2.762857
 20
1.241255
 30
0.0
 10
2.739048
 20
1.146017
 30
0.0
 10
2.739048
 20
0.955541
 30
0.0
 10
2.762857
 20
0.907922
 30
0.0
 10
2.786667
 20
0.884112
 30
0.0
 10
2.834286
 20
0.860303
 30
0.0
 10
2.929524
 20
0.860303
 30
0.0
 10
2.977143
 20
0.884112
 30
0.0
 10
3.000952
 20
0.907922
 30
0.0
 10
3.024762
 20
0.955541
 30
0.0
 10
3.024762
 20
1.074589
 30
0.0
 10
3.000952
 20
1.122208
 30
0.0
 10
2.977143
 20
1.146017
 30
0.0
 10
2.929524
 20
1.169827
 30
0.0
 10
2.834286
 20
1.169827
 30
0.0
 10
2.786667
 20
1.146017
 30
0.0
 10
2.762857
 20
1.122208
 30
0.0
 10
2.739048
 20
1.074589
 30
0.0
  0
LWPOLYLINE
  5
120
100
AcDbEntity
  8
0
 62
7
100
AcDbPolyline
 90
3
 70
0
 10
2.219405
 20
9.800267
 30
0.0
 10
2.286071
 20
9.600267
 30
0.0
 10
2.352738
 20
9.800267
 30
0.0
  0
LWPOLYLINE
  5
121
100
AcDbEntity
  8
0
 62
7
100
AcDbPolyline
 90
2
 70
0
 10
2.419405
 20
9.600267
 30
0.0
 10
2.419405
 20
9.800267
 30
0.0
  0
LWPOLYLINE
  5
122
100
AcDbEntity
  8
0
 62
7
100
AcDbPolyline
 90
12
 70
1
 10
2.514643
 20
9.600267
 30
0.0
 10
2.514643
 20
9.800267
 30
0.0
 10
2.562262
 20
9.800267
 30
0.0
 10
2.590833
 20
9.790743
 30
0.0
 10
2.609881
 20
9.771696
 30
0.0
 10
2.619405
 20
9.752648
 30
0.0
 10
2.628929
 20
9.714553
 30
0.0
 10
2.628929
 20
9.685982
 30
0.0
 10
2.619405
 20
9.647886
 30
0.0
 10
2.609881
 20
9.628839
 30
0.0
 10
2.590833
 20
9.609791
 30
0.0
 10
2.562262
 20
9.600267
 30
0.0
  0
LWPOLYLINE
  5
123
100
AcDbEntity
  8
0
 62
7
100
AcDbPolyline
 90
2
 70
0
 10
2.714643
 20
9.705029
 30
0.0
 10
2.781310
 20
9.705029
 30
0.0
  0
LWPOLYLINE
  5
124
100
AcDbEntity
  8
0
 62
7
100
AcDbPolyline
 90
4
 70
0
 10
2.809881
 20
9.600267
 30
0.0
 10
2.714643
 20
9.600267
 30
0.0
 10
2.714643
 20
9.800267
 30
0.0
 10
2.809881
 20
9.800267
 30
0.0
  0
LWPOLYLINE
  5
125
100
AcDbEntity
  8
0
 62
7
100
AcDbPolyline
 90
16
 70
1
 10
2.933690
 20
9.800267
 30
0.0
 10
2.971786
 20
9.800267
 30
0.0
 10
2.990833
 20
9.790743
 30
0.0
 10
3.009881
 20
9.771696
 30
0.0
 10
3.019405
 20
9.733601
 30
0.0
 10
3.019405
 20
9.666934
 30
0.0
 10
3.009881
 20
9.628839
 30
0.0
 10
2.990833
 20
9.609791
 30
0.0
 10
2.971786
 20
9.600267
 30
0.0
 10
2.933690
 20
9.600267
 30
0.0
 10
2.914643
 20
9.609791
 30
0.0
 10
2.895595
 20
9.628839
 30
0.0
 10
2.886071
 20
9.666934
 30
0.0
 10
2.886071
 20
9.733601
 30
0.0
 10
2.895595
 20
9.771696
 30
0.0
 10
2.914643
 20
9.790743
 30
0.0
  0
LWPOLYLINE
  5
126
100
AcDbEntity
  8
0
 62
7
100
AcDbPolyline
 90
2
 70
0
 10
3.057500
 20
9.581220
 30
0.0
 10
3.209881
 20
9.581220
 30
0.0
  0
LWPOLYLINE
  5
127
100
AcDbEntity
  8
0
 62
7
100
AcDbPolyline
 90
2
 70
0
 10
3.257500
 20
9.600267
 30
0.0
 10
3.257500
 20
9.800267
 30
0.0
  0
LWPOLYLINE
  5
128
100
AcDbEntity
  8
0
 62
7
100
AcDbPolyline
 90
4
 70
0
 10
3.352738
 20
9.600267
 30
0.0
 10
3.352738
 20
9.800267
 30
0.0
 10
3.467024
 20
9.600267
 30
0.0
 10
3.467024
 20
9.800267
 30
0.0
  0
LWPOLYLINE
  5
129
100
AcDbEntity
  8
0
 62
7
100
AcDbPolyline
 90
2
 70
0
 10
3.355833
 20
4.520505
 30
0.0
 10
3.355833
 20
4.587172
 30
0.0
  0
LWPOLYLINE
  5
12a
100
AcDbEntity
  8
0
 62
7
100
AcDbPolyline
 90
5
 70
0
 10
3.355833
 20
4.568124
 30
0.0
 10
3.360595
 20
4.577648
 30
0.0
 10
3.365357
 20
4.582410
 30
0.0
 10
3.374881
 20
4.587172
 30
0.0
 10
3.384405
 20
4.587172
 30
0.0
  0
LWPOLYLINE
  5
12b
100
AcDbEntity
  8
0
 62
7
100
AcDbPolyline
 90
13
 70
0
 10
3.455833
 20
4.525267
 30
0.0
 10
3.446310
 20
4.520505
 30
0.0
 10
3.427262
 20
4.520505
 30
0.0
 10
3.417738
 20
4.525267
 30
0.0
 10
3.412976
 20
4.534791
 30
0.0
 10
3.412976
 20
4.572886
 30
0.0
 10
3.417738
 20
4.582410
 30
0.0
 10
3.427262
 20
4.587172
 30
0.0
 10
3.446310
 20
4.587172
 30
0.0
 10
3.455833
 20
4.582410
 30
0.0
 10
3.460595
 20
4.572886
 30
0.0
 10
3.460595
 20
4.563363
 30
0.0
 10
3.412976
 20
4.553839
 30
0.0
  0
LWPOLYLINE
  5
12c
100
AcDbEntity
  8
0
 62
7
100
AcDbPolyline
 90
7
 70
0
 10
3.546310
 20
4.587172
 30
0.0
 10
3.546310
 20
4.506220
 30
0.0
 10
3.541548
 20
4.496696
 30
0.0
 10
3.536786
 20
4.491934
 30
0.0
 10
3.527262
 20
4.487172
 30
0.0
 10
3.512976
 20
4.487172
 30
0.0
 10
3.503452
 20
4.491934
 30
0.0
  0
LWPOLYLINE
  5
12d
100
AcDbEntity
  8
0
 62
7
100
AcDbPolyline
 90
12
 70
0
 10
3.546310
 20
4.525267
 30
0.0
 10
3.536786
 20
4.520505
 30
0.0
 10
3.517738
 20
4.520505
 30
0.0
 10
3.508214
 20
4.525267
 30
0.0
 10
3.503452
 20
4.530029
 30
0.0
 10
3.498690
 20
4.539553
 30
0.0
 10
3.498690
 20
4.568124
 30
0.0
 10
3.503452
 20
4.577648
 30
0.0
 10
3.508214
 20
4.582410
 30
0.0
 10
3.517738
 20
4.587172
 30
0.0
 10
3.536786
 20
4.587172
 30
0.0
 10
3.546310
 20
4.582410
 30
0.0
  0
LWPOLYLINE
  5
12e
100
AcDbEntity
  8
0
 62
7
100
AcDbPolyline
 90
2
 70
0
 10
3.636786
 20
4.587172
 30
0.0
 10
3.636786
 20
4.520505
 30
0.0
  0
LWPOLYLINE
  5
12f
100
AcDbEntity
  8
0
 62
7
100
AcDbPolyline
 90
7
 70
0
 10
3.593929
 20
4.587172
 30
0.0
 10
3.593929
 20
4.534791
 30
0.0
 10
3.598690
 20
4.525267
 30
0.0
 10
3.608214
 20
4.520505
 30
0.0
 10
3.622500
 20
4.520505
 30
0.0
 10
3.632024
 20
4.525267
 30
0.0
 10
3.636786
 20
4.530029
 30
0.0
  0
LWPOLYLINE
  5
130
100
AcDbEntity
  8
0
 62
7
100
AcDbPolyline
 90
4
 70
0
 10
3.698690
 20
4.520505
 30
0.0
 10
3.689167
 20
4.525267
 30
0.0
 10
3.684405
 20
4.534791
 30
0.0
 10
3.684405
 20
4.620505
 30
0.0
  0
LWPOLYLINE
  5
131
100
AcDbEntity
  8
0
 62
7
100
AcDbPolyline
 90
6
 70
0
 10
3.779643
 20
4.520505
 30
0.0
 10
3.779643
 20
4.572886
 30
0.0
 10
3.774881
 20
4.582410
 30
0.0
 10
3.765357
 20
4.587172
 30
0.0
 10
3.746310
 20
4.587172
 30
0.0
 10
3.736786
 20
4.582410
 30
0.0
  0
LWPOLYLINE
  5
132
100
AcDbEntity
  8
0
 62
7
100
AcDbPolyline
 90
10
 70
0
 10
3.779643
 20
4.525267
 30
0.0
 10
3.770119
 20
4.520505
 30
0.0
 10
3.746310
 20
4.520505
 30
0.0
 10
3.736786
 20
4.525267
 30
0.0
 10
3.732024
 20
4.534791
 30
0.0
 10
3.732024
 20
4.544315
 30
0.0
 10
3.736786
 20
4.553839
 30
0.0
 10
3.746310
 20
4.558601
 30
0.0
 10
3.770119
 20
4.558601
 30
0.0
 10
3.779643
 20
4.563363
 30
0.0
  0
LWPOLYLINE
  5
133
100
AcDbEntity
  8
0
 62
7
100
AcDbPolyline
 90
2
 70
0
 10
3.812976
 20
4.587172
 30
0.0
 10
3.851071
 20
4.587172
 30
0.0
  0
LWPOLYLINE
  5
134
100
AcDbEntity
  8
0
 62
7
100
AcDbPolyline
 90
5
 70
0
 10
3.827262
 20
4.620505
 30
0.0
 10
3.827262
 20
4.534791
 30
0.0
 10
3.832024
 20
4.525267
 30
0.0
 10
3.841548
 20
4.520505
 30
0.0
 10
3.851071
 20
4.520505
 30
0.0
  0
LWPOLYLINE
  5
135
100
AcDbEntity
  8
0
 62
7
100
AcDbPolyline
 90
16
 70
1
 10
3.898690
 20
4.520505
 30
0.0
 10
3.889167
 20
4.525267
 30
0.0
 10
3.884405
 20
4.530029
 30
0.0
 10
3.879643
 20
4.539553
 30
0.0
 10
3.879643
 20
4.568124
 30
0.0
 10
3.884405
 20
4.577648
 30
0.0
 10
3.889167
 20
4.582410
 30
0.0
 10
3.898690
 20
4.587172
 30
0.0
 10
3.912976
 20
4.587172
 30
0.0
 10
3.922500
 20
4.582410
 30
0.0
 10
3.927262
 20
4.577648
 30
0.0
 10
3.932024
 20
4.568124
 30
0.0
 10
3.932024
 20
4.539553
 30
0.0
 10
3.927262
 20
4.530029
 30
0.0
 10
3.922500
 20
4.525267
 30
0.0
 10
3.912976
 20
4.520505
 30
0.0
  0
LWPOLYLINE
  5
136
100
AcDbEntity
  8
0
 62
7
100
AcDbPolyline
 90
2
 70
0
 10
3.974881
 20
4.520505
 30
0.0
 10
3.974881
 20
4.587172
 30
0.0
  0
LWPOLYLINE
  5
137
100
AcDbEntity
  8
0
 62
7
100
AcDbPolyline
 90
5
 70
0
 10
3.974881
 20
4.568124
 30
0.0
 10
3.979643
 20
4.577648
 30
0.0
 10
3.984405
 20
4.582410
 30
0.0
 10
3.993929
 20
4.587172
 30
0.0
 10
4.003452
 20
4.587172
 30
0.0
  0
LWPOLYLINE
  5
138
100
AcDbEntity
  8
0
 62
7
100
AcDbPolyline
 90
2
 70
0
 10
2.836786
 20
7.137886
 30
0.0
 10
2.786786
 20
7.209315
 30
0.0
  0
LWPOLYLINE
  5
139
100
AcDbEntity
  8
0
 62
7
100
AcDbPolyline
 90
11
 70
0
 10
2.751071
 20
7.137886
 30
0.0
 10
2.751071
 20
7.287886
 30
0.0
 10
2.808214
 20
7.287886
 30
0.0
 10
2.822500
 20
7.280743
 30
0.0
 10
2.829643
 20
7.273601
 30
0.0
 10
2.836786
 20
7.259315
 30
0.0
 10
2.836786
 20
7.237886
 30
0.0
 10
2.829643
 20
7.223601
 30
0.0
 10
2.822500
 20
7.216458
 30
0.0
 10
2.808214
 20
7.209315
 30
0.0
 10
2.751071
 20
7.209315
 30
0.0
  0
LWPOLYLINE
  5
13a
100
AcDbEntity
  8
0
 62
7
100
AcDbPolyline
 90
16
 70
1
 10
2.929643
 20
7.287886
 30
0.0
 10
2.958214
 20
7.287886
 30
0.0
 10
2.972500
 20
7.280743
 30
0.0
 10
2.986786
 20
7.266458
 30
0.0
 10
2.993929
 20
7.237886
 30
0.0
 10
2.993929
 20
7.187886
 30
0.0
 10
2.986786
 20
7.159315
 30
0.0
 10
2.972500
 20
7.145029
 30
0.0
 10
2.958214
 20
7.137886
 30
0.0
 10
2.929643
 20
7.137886
 30
0.0
 10
2.915357
 20
7.145029
 30
0.0
 10
2.901071
 20
7.159315
 30
0.0
 10
2.893929
 20
7.187886
 30
0.0
 10
2.893929
 20
7.237886
 30
0.0
 10
2.901071
 20
7.266458
 30
0.0
 10
2.915357
 20
7.280743
 30
0.0
  0
LWPOLYLINE
  5
13b
100
AcDbEntity
  8
0
 62
7
100
AcDbPolyline
 90
10
 70
0
 10
3.058214
 20
7.287886
 30
0.0
 10
3.058214
 20
7.166458
 30
0.0
 10
3.065357
 20
7.152172
 30
0.0
 10
3.072500
 20
7.145029
 30
0.0
 10
3.086786
 20
7.137886
 30
0.0
 10
3.115357
 20
7.137886
 30
0.0
 10
3.129643
 20
7.145029
 30
0.0
 10
3.136786
 20
7.152172
 30
0.0
 10
3.143929
 20
7.166458
 30
0.0
 10
3.143929
 20
7.287886
 30
0.0
  0
LWPOLYLINE
  5
13c
100
AcDbEntity
  8
0
 62
7
100
AcDbPolyline
 90
2
 70
0
 10
3.193929
 20
7.287886
 30
0.0
 10
3.279643
 20
7.287886
 30
0.0
  0
LWPOLYLINE
  5
13d
100
AcDbEntity
  8
0
 62
7
100
AcDbPolyline
 90
2
 70
0
 10
3.236786
 20
7.137886
 30
0.0
 10
3.236786
 20
7.287886
 30
0.0
  0
LWPOLYLINE
  5
13e
100
AcDbEntity
  8
0
 62
7
100
AcDbPolyline
 90
2
 70
0
 10
3.329643
 20
7.216458
 30
0.0
 10
3.379643
 20
7.216458
 30
0.0
  0
LWPOLYLINE
  5
13f
100
AcDbEntity
  8
0
 62
7
100
AcDbPolyline
 90
4
 70
0
 10
3.401071
 20
7.137886
 30
0.0
 10
3.329643
 20
7.137886
 30
0.0
 10
3.329643
 20
7.287886
 30
0.0
 10
3.401071
 20
7.287886
 30
0.0
  0
LWPOLYLINE
  5
140
100
AcDbEntity
  8
0
 62
7
100
AcDbPolyline
 90
2
 70
0
 10
3.551071
 20
7.137886
 30
0.0
 10
3.501071
 20
7.209315
 30
0.0
  0
LWPOLYLINE
  5
141
100
AcDbEntity
  8
0
 62
7
100
AcDbPolyline
 90
11
 70
0
 10
3.465357
 20
7.137886
 30
0.0
 10
3.465357
 20
7.287886
 30
0.0
 10
3.522500
 20
7.287886
 30
0.0
 10
3.536786
 20
7.280743
 30
0.0
 10
3.543929
 20
7.273601
 30
0.0
 10
3.551071
 20
7.259315
 30
0.0
 10
3.551071
 20
7.237886
 30
0.0
 10
3.543929
 20
7.223601
 30
0.0
 10
3.536786
 20
7.216458
 30
0.0
 10
3.522500
 20
7.209315
 30
0.0
 10
3.465357
 20
7.209315
 30
0.0
  0
LWPOLYLINE
  5
142
100
AcDbEntity
  8
0
 62
7
100
AcDbPolyline
 90
10
 70
0
 10
3.994643
 20
8.353601
 30
0.0
 10
3.873214
 20
8.353601
 30
0.0
 10
3.858929
 20
8.346458
 30
0.0
 10
3.851786
 20
8.339315
 30
0.0
 10
3.844643
 20
8.325029
 30
0.0
 10
3.844643
 20
8.296458
 30
0.0
 10
3.851786
 20
8.282172
 30
0.0
 10
3.858929
 20
8.275029
 30
0.0
 10
3.873214
 20
8.267886
 30
0.0
 10
3.994643
 20
8.267886
 30
0.0
  0
LWPOLYLINE
  5
143
100
AcDbEntity
  8
0
 62
7
100
AcDbPolyline
 90
11
 70
0
 10
3.844643
 20
8.196458
 30
0.0
 10
3.994643
 20
8.196458
 30
0.0
 10
3.994643
 20
8.139315
 30
0.0
 10
3.987500
 20
8.125029
 30
0.0
 10
3.980357
 20
8.117886
 30
0.0
 10
3.966071
 20
8.110743
 30
0.0
 10
3.944643
 20
8.110743
 30
0.0
 10
3.930357
 20
8.117886
 30
0.0
 10
3.923214
 20
8.125029
 30
0.0
 10
3.916071
 20
8.139315
 30
0.0
 10
3.916071
 20
8.196458
 30
0.0
  0
LWPOLYLINE
  5
144
100
AcDbEntity
  8
0
 62
7
100
AcDbPolyline
 90
3
 70
0
 10
2.206071
 20
3.145267
 30
0.0
 10
2.272738
 20
2.945267
 30
0.0
 10
2.339405
 20
3.145267
 30
0.0
  0
LWPOLYLINE
  5
145
100
AcDbEntity
  8
0
 62
7
100
AcDbPolyline
 90
2
 70
0
 10
2.406071
 20
2.945267
 30
0.0
 10
2.406071
 20
3.145267
 30
0.0
  0
LWPOLYLINE
  5
146
100
AcDbEntity
  8
0
 62
7
100
AcDbPolyline
 90
12
 70
1
 10
2.501310
 20
2.945267
 30
0.0
 10
2.501310
 20
3.145267
 30
0.0
 10
2.548929
 20
3.145267
 30
0.0
 10
2.577500
 20
3.135743
 30
0.0
 10
2.596548
 20
3.116696
 30
0.0
 10
2.606071
 20
3.097648
 30
0.0
 10
2.615595
 20
3.059553
 30
0.0
 10
2.615595
 20
3.030981
 30
0.0
 10
2.606071
 20
2.992886
 30
0.0
 10
2.596548
 20
2.973839
 30
0.0
 10
2.577500
 20
2.954791
 30
0.0
 10
2.548929
 20
2.945267
 30
0.0
  0
LWPOLYLINE
  5
147
100
AcDbEntity
  8
0
 62
7
100
AcDbPolyline
 90
2
 70
0
 10
2.701310
 20
3.050029
 30
0.0
 10
2.767976
 20
3.050029
 30
0.0
  0
LWPOLYLINE
  5
148
100
AcDbEntity
  8
0
 62
7
100
AcDbPolyline
 90
4
 70
0
 10
2.796548
 20
2.945267
 30
0.0
 10
2.701310
 20
2.945267
 30
0.0
 10
2.701310
 20
3.145267
 30
0.0
 10
2.796548
 20
3.145267
 30
0.0
  0
LWPOLYLINE
  5
149
100
AcDbEntity
  8
0
 62
7
100
AcDbPolyline
 90
16
 70
1
 10
2.920357
 20
3.145267
 30
0.0
 10
2.958452
 20
3.145267
 30
0.0
 10
2.977500
 20
3.135743
 30
0.0
 10
2.996548
 20
3.116696
 30
0.0
 10
3.006071
 20
3.078601
 30
0.0
 10
3.006071
 20
3.011934
 30
0.0
 10
2.996548
 20
2.973839
 30
0.0
 10
2.977500
 20
2.954791
 30
0.0
 10
2.958452
 20
2.945267
 30
0.0
 10
2.920357
 20
2.945267
 30
0.0
 10
2.901310
 20
2.954791
 30
0.0
 10
2.882262
 20
2.973839
 30
0.0
 10
2.872738
 20
3.011934
 30
0.0
 10
2.872738
 20
3.078601
 30
0.0
 10
2.882262
 20
3.116696
 30
0.0
 10
2.901310
 20
3.135743
 30
0.0
  0
LWPOLYLINE
  5
14a
100
AcDbEntity
  8
0
 62
7
100
AcDbPolyline
 90
2
 70
0
 10
3.044167
 20
2.926220
 30
0.0
 10
3.196548
 20
2.926220
 30
0.0
  0
LWPOLYLINE
  5
14b
100
AcDbEntity
  8
0
 62
7
100
AcDbPolyline
 90
16
 70
1
 10
3.282262
 20
3.145267
 30
0.0
 10
3.320357
 20
3.145267
 30
0.0
 10
3.339405
 20
3.135743
 30
0.0
 10
3.358452
 20
3.116696
 30
0.0
 10
3.367976
 20
3.078601
 30
0.0
 10
3.367976
 20
3.011934
 30
0.0
 10
3.358452
 20
2.973839
 30
0.0
 10
3.339405
 20
2.954791
 30
0.0
 10
3.320357
 20
2.945267
 30
0.0
 10
3.282262
 20
2.945267
 30
0.0
 10
3.263214
 20
2.954791
 30
0.0
 10
3.244167
 20
2.973839
 30
0.0
 10
3.234643
 20
3.011934
 30
0.0
 10
3.234643
 20
3.078601
 30
0.0
 10
3.244167
 20
3.116696
 30
0.0
 10
3.263214
 20
3.135743
 30
0.0
  0
LWPOLYLINE
  5
14c
100
AcDbEntity
  8
0
 62
7
100
AcDbPolyline
 90
10
 70
0
 10
3.453690
 20
3.145267
 30
0.0
 10
3.453690
 20
2.983363
 30
0.0
 10
3.463214
 20
2.964315
 30
0.0
 10
3.472738
 20
2.954791
 30
0.0
 10
3.491786
 20
2.945267
 30
0.0
 10
3.529881
 20
2.945267
 30
0.0
 10
3.548929
 20
2.954791
 30
0.0
 10
3.558452
 20
2.964315
 30
0.0
 10
3.567976
 20
2.983363
 30
0.0
 10
3.567976
 20
3.145267
 30
0.0
  0
LWPOLYLINE
  5
14d
100
AcDbEntity
  8
0
 62
7
100
AcDbPolyline
 90
2
 70
0
 10
3.634643
 20
3.145267
 30
0.0
 10
3.748929
 20
3.145267
 30
0.0
  0
LWPOLYLINE
  5
14e
100
AcDbEntity
  8
0
 62
7
100
AcDbPolyline
 90
2
 70
0
 10
3.691786
 20
2.945267
 30
0.0
 10
3.691786
 20
3.145267
 30
0.0
  0
LWPOLYLINE
  5
14f
100
AcDbEntity
  8
0
 62
7
100
AcDbPolyline
 90
2
 70
0
 10
1.140500
 20
0.638636
 30
0.0
 10
1.140500
 20
0.538636
 30
0.0
  0
LWPOLYLINE
  5
150
100
AcDbEntity
  8
0
 62
7
100
AcDbPolyline
 90
7
 70
0
 10
1.076214
 20
0.638636
 30
0.0
 10
1.076214
 20
0.560065
 30
0.0
 10
1.083357
 20
0.545779
 30
0.0
 10
1.097643
 20
0.538636
 30
0.0
 10
1.119071
 20
0.538636
 30
0.0
 10
1.133357
 20
0.545779
 30
0.0
 10
1.140500
 20
0.552922
 30
0.0
  0
LWPOLYLINE
  5
151
100
AcDbEntity
  8
0
 62
7
100
AcDbPolyline
 90
2
 70
0
 10
1.211929
 20
0.638636
 30
0.0
 10
1.211929
 20
0.538636
 30
0.0
  0
LWPOLYLINE
  5
152
100
AcDbEntity
  8
0
 62
7
100
AcDbPolyline
 90
7
 70
0
 10
1.211929
 20
0.624351
 30
0.0
 10
1.219071
 20
0.631493
 30
0.0
 10
1.233357
 20
0.638636
 30
0.0
 10
1.254786
 20
0.638636
 30
0.0
 10
1.269071
 20
0.631493
 30
0.0
 10
1.276214
 20
0.617208
 30
0.0
 10
1.276214
 20
0.538636
 30
0.0
  0
LWPOLYLINE
  5
153
100
AcDbEntity
  8
0
 62
7
100
AcDbPolyline
 90
2
 70
0
 10
1.411929
 20
0.538636
 30
0.0
 10
1.411929
 20
0.688636
 30
0.0
  0
LWPOLYLINE
  5
154
100
AcDbEntity
  8
0
 62
7
100
AcDbPolyline
 90
12
 70
0
 10
1.411929
 20
0.545779
 30
0.0
 10
1.397643
 20
0.538636
 30
0.0
 10
1.369071
 20
0.538636
 30
0.0
 10
1.354786
 20
0.545779
 30
0.0
 10
1.347643
 20
0.552922
 30
0.0
 10
1.340500
 20
0.567208
 30
0.0
 10
1.340500
 20
0.610065
 30
0.0
 10
1.347643
 20
0.624351
 30
0.0
 10
1.354786
 20
0.631493
 30
0.0
 10
1.369071
 20
0.638636
 30
0.0
 10
1.397643
 20
0.638636
 30
0.0
 10
1.411929
 20
0.631493
 30
0.0
  0
LWPOLYLINE
  5
155
100
AcDbEntity
  8
0
 62
7
100
AcDbPolyline
 90
13
 70
0
 10
1.540500
 20
0.545779
 30
0.0
 10
1.526214
 20
0.538636
 30
0.0
 10
1.497643
 20
0.538636
 30
0.0
 10
1.483357
 20
0.545779
 30
0.0
 10
1.476214
 20
0.560065
 30
0.0
 10
1.476214
 20
0.617208
 30
0.0
 10
1.483357
 20
0.631493
 30
0.0
 10
1.497643
 20
0.638636
 30
0.0
 10
1.526214
 20
0.638636
 30
0.0
 10
1.540500
 20
0.631493
 30
0.0
 10
1.547643
 20
0.617208
 30
0.0
 10
1.547643
 20
0.602922
 30
0.0
 10
1.476214
 20
0.588636
 30
0.0
  0
LWPOLYLINE
  5
156
100
AcDbEntity
  8
0
 62
7
100
AcDbPolyline
 90
2
 70
0
 10
1.611929
 20
0.538636
 30
0.0
 10
1.611929
 20
0.638636
 30
0.0
  0
LWPOLYLINE
  5
157
100
AcDbEntity
  8
0
 62
7
100
AcDbPolyline
 90
5
 70
0
 10
1.611929
 20
0.610065
 30
0.0
 10
1.619071
 20
0.624351
 30
0.0
 10
1.626214
 20
0.631493
 30
0.0
 10
1.640500
 20
0.638636
 30
0.0
 10
1.654786
 20
0.638636
 30
0.0
  0
LWPOLYLINE
  5
158
100
AcDbEntity
  8
0
 62
7
100
AcDbPolyline
 90
16
 70
0
 10
1.697643
 20
0.545779
 30
0.0
 10
1.711929
 20
0.538636
 30
0.0
 10
1.740500
 20
0.538636
 30
0.0
 10
1.754786
 20
0.545779
 30
0.0
 10
1.761929
 20
0.560065
 30
0.0
 10
1.761929
 20
0.567208
 30
0.0
 10
1.754786
 20
0.581493
 30
0.0
 10
1.740500
 20
0.588636
 30
0.0
 10
1.719071
 20
0.588636
 30
0.0
 10
1.704786
 20
0.595779
 30
0.0
 10
1.697643
 20
0.610065
 30
0.0
 10
1.697643
 20
0.617208
 30
0.0
 10
1.704786
 20
0.631493
 30
0.0
 10
1.719071
 20
0.638636
 30
0.0
 10
1.740500
 20
0.638636
 30
0.0
 10
1.754786
 20
0.631493
 30
0.0
  0
LWPOLYLINE
  5
159
100
AcDbEntity
  8
0
 62
7
100
AcDbPolyline
 90
12
 70
0
 10
1.890500
 20
0.545779
 30
0.0
 10
1.876214
 20
0.538636
 30
0.0
 10
1.847643
 20
0.538636
 30
0.0
 10
1.833357
 20
0.545779
 30
0.0
 10
1.826214
 20
0.552922
 30
0.0
 10
1.819071
 20
0.567208
 30
0.0
 10
1.819071
 20
0.610065
 30
0.0
 10
1.826214
 20
0.624351
 30
0.0
 10
1.833357
 20
0.631493
 30
0.0
 10
1.847643
 20
0.638636
 30
0.0
 10
1.876214
 20
0.638636
 30
0.0
 10
1.890500
 20
0.631493
 30
0.0
  0
LWPOLYLINE
  5
15a
100
AcDbEntity
  8
0
 62
7
100
AcDbPolyline
 90
16
 70
1
 10
1.976214
 20
0.538636
 30
0.0
 10
1.961929
 20
0.545779
 30
0.0
 10
1.954786
 20
0.552922
 30
0.0
 10
1.947643
 20
0.567208
 30
0.0
 10
1.947643
 20
0.610065
 30
0.0
 10
1.954786
 20
0.624351
 30
0.0
 10
1.961929
 20
0.631493
 30
0.0
 10
1.976214
 20
0.638636
 30
0.0
 10
1.997643
 20
0.638636
 30
0.0
 10
2.011929
 20
0.631493
 30
0.0
 10
2.019071
 20
0.624351
 30
0.0
 10
2.026214
 20
0.610065
 30
0.0
 10
2.026214
 20
0.567208
 30
0.0
 10
2.019071
 20
0.552922
 30
0.0
 10
2.011929
 20
0.545779
 30
0.0
 10
1.997643
 20
0.538636
 30
0.0
  0
LWPOLYLINE
  5
15b
100
AcDbEntity
  8
0
 62
7
100
AcDbPolyline
 90
2
 70
0
 10
2.090500
 20
0.538636
 30
0.0
 10
2.090500
 20
0.638636
 30
0.0
  0
LWPOLYLINE
  5
15c
100
AcDbEntity
  8
0
 62
7
100
AcDbPolyline
 90
5
 70
0
 10
2.090500
 20
0.610065
 30
0.0
 10
2.097643
 20
0.624351
 30
0.0
 10
2.104786
 20
0.631493
 30
0.0
 10
2.119071
 20
0.638636
 30
0.0
 10
2.133357
 20
0.638636
 30
0.0
  0
LWPOLYLINE
  5
15d
100
AcDbEntity
  8
0
 62
7
100
AcDbPolyline
 90
13
 70
0
 10
2.240500
 20
0.545779
 30
0.0
 10
2.226214
 20
0.538636
 30
0.0
 10
2.197643
 20
0.538636
 30
0.0
 10
2.183357
 20
0.545779
 30
0.0
 10
2.176214
 20
0.560065
 30
0.0
 10
2.176214
 20
0.617208
 30
0.0
 10
2.183357
 20
0.631493
 30
0.0
 10
2.197643
 20
0.638636
 30
0.0
 10
2.226214
 20
0.638636
 30
0.0
 10
2.240500
 20
0.631493
 30
0.0
 10
2.247643
 20
0.617208
 30
0.0
 10
2.247643
 20
0.602922
 30
0.0
 10
2.176214
 20
0.588636
 30
0.0
  0
LWPOLYLINE
  5
15e
100
AcDbEntity
  8
0
 62
7
100
AcDbPolyline
 90
16
 70
0
 10
2.304786
 20
0.545779
 30
0.0
 10
2.319071
 20
0.538636
 30
0.0
 10
2.347643
 20
0.538636
 30
0.0
 10
2.361929
 20
0.545779
 30
0.0
 10
2.369071
 20
0.560065
 30
0.0
 10
2.369071
 20
0.567208
 30
0.0
 10
2.361929
 20
0.581493
 30
0.0
 10
2.347643
 20
0.588636
 30
0.0
 10
2.326214
 20
0.588636
 30
0.0
 10
2.311929
 20
0.595779
 30
0.0
 10
2.304786
 20
0.610065
 30
0.0
 10
2.304786
 20
0.617208
 30
0.0
 10
2.311929
 20
0.631493
 30
0.0
 10
2.326214
 20
0.638636
 30
0.0
 10
2.347643
 20
0.638636
 30
0.0
 10
2.361929
 20
0.631493
 30
0.0
  0
LWPOLYLINE
  5
15f
100
AcDbEntity
  8
0
 62
7
100
AcDbPolyline
 90
6
 70
0
 10
2.433357
 20
0.552922
 30
0.0
 10
2.440500
 20
0.545779
 30
0.0
 10
2.433357
 20
0.538636
 30
0.0
 10
2.426214
 20
0.545779
 30
0.0
 10
2.433357
 20
0.552922
 30
0.0
 10
2.433357
 20
0.538636
 30
0.0
  0
LWPOLYLINE
  5
160
100
AcDbEntity
  8
0
 62
7
100
AcDbPolyline
 90
16
 70
0
 10
2.497643
 20
0.545779
 30
0.0
 10
2.511929
 20
0.538636
 30
0.0
 10
2.540500
 20
0.538636
 30
0.0
 10
2.554786
 20
0.545779
 30
0.0
 10
2.561929
 20
0.560065
 30
0.0
 10
2.561929
 20
0.567208
 30
0.0
 10
2.554786
 20
0.581493
 30
0.0
 10
2.540500
 20
0.588636
 30
0.0
 10
2.519071
 20
0.588636
 30
0.0
 10
2.504786
 20
0.595779
 30
0.0
 10
2.497643
 20
0.610065
 30
0.0
 10
2.497643
 20
0.617208
 30
0.0
 10
2.504786
 20
0.631493
 30
0.0
 10
2.519071
 20
0.638636
 30
0.0
 10
2.540500
 20
0.638636
 30
0.0
 10
2.554786
 20
0.631493
 30
0.0
  0
LWPOLYLINE
  5
161
100
AcDbEntity
  8
0
 62
7
100
AcDbPolyline
 90
2
 70
0
 10
2.626214
 20
0.538636
 30
0.0
 10
2.626214
 20
0.688636
 30
0.0
  0
LWPOLYLINE
  5
162
100
AcDbEntity
  8
0
 62
7
100
AcDbPolyline
 90
7
 70
0
 10
2.690500
 20
0.538636
 30
0.0
 10
2.690500
 20
0.617208
 30
0.0
 10
2.683357
 20
0.631493
 30
0.0
 10
2.669071
 20
0.638636
 30
0.0
 10
2.647643
 20
0.638636
 30
0.0
 10
2.633357
 20
0.631493
 30
0.0
 10
2.626214
 20
0.624351
 30
0.0
  0
LWPOLYLINE
  5
163
100
AcDbEntity
  8
0
 62
7
100
AcDbPolyline
 90
16
 70
1
 10
2.783357
 20
0.538636
 30
0.0
 10
2.769071
 20
0.545779
 30
0.0
 10
2.761929
 20
0.552922
 30
0.0
 10
2.754786
 20
0.567208
 30
0.0
 10
2.754786
 20
0.610065
 30
0.0
 10
2.761929
 20
0.624351
 30
0.0
 10
2.769071
 20
0.631493
 30
0.0
 10
2.783357
 20
0.638636
 30
0.0
 10
2.804786
 20
0.638636
 30
0.0
 10
2.819071
 20
0.631493
 30
0.0
 10
2.826214
 20
0.624351
 30
0.0
 10
2.833357
 20
0.610065
 30
0.0
 10
2.833357
 20
0.567208
 30
0.0
 10
2.826214
 20
0.552922
 30
0.0
 10
2.819071
 20
0.545779
 30
0.0
 10
2.804786
 20
0.538636
 30
0.0
  0
LWPOLYLINE
  5
164
100
AcDbEntity
  8
0
 62
7
100
AcDbPolyline
 90
2
 70
0
 10
2.897643
 20
0.638636
 30
0.0
 10
2.897643
 20
0.488636
 30
0.0
  0
LWPOLYLINE
  5
165
100
AcDbEntity
  8
0
 62
7
100
AcDbPolyline
 90
12
 70
0
 10
2.897643
 20
0.631493
 30
0.0
 10
2.911929
 20
0.638636
 30
0.0
 10
2.940500
 20
0.638636
 30
0.0
 10
2.954786
 20
0.631493
 30
0.0
 10
2.961929
 20
0.624351
 30
0.0
 10
2.969071
 20
0.610065
 30
0.0
 10
2.969071
 20
0.567208
 30
0.0
 10
2.961929
 20
0.552922
 30
0.0
 10
2.954786
 20
0.545779
 30
0.0
 10
2.940500
 20
0.538636
 30
0.0
 10
2.911929
 20
0.538636
 30
0.0
 10
2.897643
 20
0.545779
 30
0.0
  0
LWPOLYLINE
  5
166
100
AcDbEntity
  8
0
 62
7
100
AcDbPolyline
 90
17
 70
0
 10
0.355357
 20
6.555743
 30
0.0
 10
0.336310
 20
6.565267
 30
0.0
 10
0.307738
 20
6.565267
 30
0.0
 10
0.279167
 20
6.555743
 30
0.0
 10
0.260119
 20
6.536696
 30
0.0
 10
0.250595
 20
6.517648
 30
0.0
 10
0.241071
 20
6.479553
 30
0.0
 10
0.241071
 20
6.450982
 30
0.0
 10
0.250595
 20
6.412886
 30
0.0
 10
0.260119
 20
6.393839
 30
0.0
 10
0.279167
 20
6.374791
 30
0.0
 10
0.307738
 20
6.365267
 30
0.0
 10
0.326786
 20
6.365267
 30
0.0
 10
0.355357
 20
6.374791
 30
0.0
 10
0.364881
 20
6.384315
 30
0.0
 10
0.364881
 20
6.450982
 30
0.0
 10
0.326786
 20
6.450982
 30
0.0
  0
LWPOLYLINE
  5
167
100
AcDbEntity
  8
0
 62
7
100
AcDbPolyline
 90
3
 70
0
 10
0.545833
 20
6.365267
 30
0.0
 10
0.450595
 20
6.365267
 30
0.0
 10
0.450595
 20
6.565267
 30
0.0
  0
LWPOLYLINE
  5
168
100
AcDbEntity
  8
0
 62
7
100
AcDbPolyline
 90
2
 70
0
 10
0.612500
 20
6.365267
 30
0.0
 10
0.612500
 20
6.565267
 30
0.0
  0
LWPOLYLINE
  5
169
100
AcDbEntity
  8
0
 62
7
100
AcDbPolyline
 90
2
 70
0
 10
0.679167
 20
6.565267
 30
0.0
 10
0.793452
 20
6.565267
 30
0.0
  0
LWPOLYLINE
  5
16a
100
AcDbEntity
  8
0
 62
7
100
AcDbPolyline
 90
2
 70
0
 10
0.736310
 20
6.365267
 30
0.0
 10
0.736310
 20
6.565267
 30
0.0
  0
LWPOLYLINE
  5
16b
100
AcDbEntity
  8
0
 62
7
100
AcDbPolyline
 90
16
 70
0
 10
0.974405
 20
6.384315
 30
0.0
 10
0.964881
 20
6.374791
 30
0.0
 10
0.936310
 20
6.365267
 30
0.0
 10
0.917262
 20
6.365267
 30
0.0
 10
0.888690
 20
6.374791
 30
0.0
 10
0.869643
 20
6.393839
 30
0.0
 10
0.860119
 20
6.412886
 30
0.0
 10
0.850595
 20
6.450982
 30
0.0
 10
0.850595
 20
6.479553
 30
0.0
 10
0.860119
 20
6.517648
 30
0.0
 10
0.869643
 20
6.536696
 30
0.0
 10
0.888690
 20
6.555743
 30
0.0
 10
0.917262
 20
6.565267
 30
0.0
 10
0.936310
 20
6.565267
 30
0.0
 10
0.964881
 20
6.555743
 30
0.0
 10
0.974405
 20
6.546220
 30
0.0
  0
LWPOLYLINE
  5
16c
100
AcDbEntity
  8
0
 62
7
100
AcDbPolyline
 90
2
 70
0
 10
1.060119
 20
6.365267
 30
0.0
 10
1.060119
 20
6.565267
 30
0.0
  0
LWPOLYLINE
  5
16d
100
AcDbEntity
  8
0
 62
7
100
AcDbPolyline
 90
2
 70
0
 10
1.060119
 20
6.470029
 30
0.0
 10
1.174405
 20
6.470029
 30
0.0
  0
LWPOLYLINE
  5
16e
100
AcDbEntity
  8
0
 62
7
100
AcDbPolyline
 90
2
 70
0
 10
1.174405
 20
6.365267
 30
0.0
 10
1.174405
 20
6.565267
 30
0.0
  0
LWPOLYLINE
  5
16f
100
AcDbEntity
  8
0
 62
7
100
AcDbPolyline
 90
2
 70
0
 10
1.222024
 20
6.346220
 30
0.0
 10
1.374405
 20
6.346220
 30
0.0
  0
LWPOLYLINE
  5
170
100
AcDbEntity
  8
0
 62
7
100
AcDbPolyline
 90
2
 70
0
 10
1.422024
 20
6.470029
 30
0.0
 10
1.488690
 20
6.470029
 30
0.0
  0
LWPOLYLINE
  5
171
100
AcDbEntity
  8
0
 62
7
100
AcDbPolyline
 90
4
 70
0
 10
1.517262
 20
6.365267
 30
0.0
 10
1.422024
 20
6.365267
 30
0.0
 10
1.422024
 20
6.565267
 30
0.0
 10
1.517262
 20
6.565267
 30
0.0
  0
LWPOLYLINE
  5
172
100
AcDbEntity
  8
0
 62
7
100
AcDbPolyline
 90
2
 70
0
 10
1.669643
 20
6.470029
 30
0.0
 10
1.602976
 20
6.470029
 30
0.0
  0
LWPOLYLINE
  5
173
100
AcDbEntity
  8
0
 62
7
100
AcDbPolyline
 90
3
 70
0
 10
1.602976
 20
6.365267
 30
0.0
 10
1.602976
 20
6.565267
 30
0.0
 10
1.698214
 20
6.565267
 30
0.0
  0
LWPOLYLINE
  5
174
100
AcDbEntity
  8
0
 62
7
100
AcDbPolyline
 90
2
 70
0
 10
1.841071
 20
6.470029
 30
0.0
 10
1.774405
 20
6.470029
 30
0.0
  0
LWPOLYLINE
  5
175
100
AcDbEntity
  8
0
 62
7
100
AcDbPolyline
 90
3
 70
0
 10
1.774405
 20
6.365267
 30
0.0
 10
1.774405
 20
6.565267
 30
0.0
 10
1.869643
 20
6.565267
 30
0.0
  0
LWPOLYLINE
  5
176
100
AcDbEntity
  8
0
 62
7
100
AcDbPolyline
 90
2
 70
0
 10
1.945833
 20
6.470029
 30
0.0
 10
2.012500
 20
6.470029
 30
0.0
  0
LWPOLYLINE
  5
177
100
AcDbEntity
  8
0
 62
7
100
AcDbPolyline
 90
4
 70
0
 10
2.041071
 20
6.365267
 30
0.0
 10
1.945833
 20
6.365267
 30
0.0
 10
1.945833
 20
6.565267
 30
0.0
 10
2.041071
 20
6.565267
 30
0.0
  0
LWPOLYLINE
  5
178
100
AcDbEntity
  8
0
 62
7
100
AcDbPolyline
 90
16
 70
0
 10
2.241071
 20
6.384315
 30
0.0
 10
2.231548
 20
6.374791
 30
0.0
 10
2.202976
 20
6.365267
 30
0.0
 10
2.183929
 20
6.365267
 30
0.0
 10
2.155357
 20
6.374791
 30
0.0
 10
2.136310
 20
6.393839
 30
0.0
 10
2.126786
 20
6.412886
 30
0.0
 10
2.117262
 20
6.450982
 30
0.0
 10
2.117262
 20
6.479553
 30
0.0
 10
2.126786
 20
6.517648
 30
0.0
 10
2.136310
 20
6.536696
 30
0.0
 10
2.155357
 20
6.555743
 30
0.0
 10
2.183929
 20
6.565267
 30
0.0
 10
2.202976
 20
6.565267
 30
0.0
 10
2.231548
 20
6.555743
 30
0.0
 10
2.241071
 20
6.546220
 30
0.0
  0
LWPOLYLINE
  5
179
100
AcDbEntity
  8
0
 62
7
100
AcDbPolyline
 90
2
 70
0
 10
2.298214
 20
6.565267
 30
0.0
 10
2.412500
 20
6.565267
 30
0.0
  0
LWPOLYLINE
  5
17a
100
AcDbEntity
  8
0
 62
7
100
AcDbPolyline
 90
2
 70
0
 10
2.355357
 20
6.365267
 30
0.0
 10
2.355357
 20
6.565267
 30
0.0
  0
LWPOLYLINE
  5
17b
100
AcDbEntity
  8
0
 62
7
100
AcDbPolyline
 90
20
 70
0
 10
2.469643
 20
6.374791
 30
0.0
 10
2.498214
 20
6.365267
 30
0.0
 10
2.545833
 20
6.365267
 30
0.0
 10
2.564881
 20
6.374791
 30
0.0
 10
2.574405
 20
6.384315
 30
0.0
 10
2.583929
 20
6.403363
 30
0.0
 10
2.583929
 20
6.422410
 30
0.0
 10
2.574405
 20
6.441458
 30
0.0
 10
2.564881
 20
6.450982
 30
0.0
 10
2.545833
 20
6.460505
 30
0.0
 10
2.507738
 20
6.470029
 30
0.0
 10
2.488690
 20
6.479553
 30
0.0
 10
2.479167
 20
6.489077
 30
0.0
 10
2.469643
 20
6.508124
 30
0.0
 10
2.469643
 20
6.527172
 30
0.0
 10
2.479167
 20
6.546220
 30
0.0
 10
2.488690
 20
6.555743
 30
0.0
 10
2.507738
 20
6.565267
 30
0.0
 10
2.555357
 20
6.565267
 30
0.0
 10
2.583929
 20
6.555743
 30
0.0
  0
LWPOLYLINE
  5
17c
100
AcDbEntity
  8
0
 62
7
100
AcDbPolyline
 90
2
 70
0
 10
0.779643
 20
11.776458
 30
0.0
 10
1.008214
 20
11.776458
 30
0.0
  0
LWPOLYLINE
  5
17d
100
AcDbEntity
  8
0
 62
7
100
AcDbPolyline
 90
2
 70
0
 10
1.251071
 20
11.805029
 30
0.0
 10
1.151071
 20
11.947886
 30
0.0
  0
LWPOLYLINE
  5
17e
100
AcDbEntity
  8
0
 62
7
100
AcDbPolyline
 90
11
 70
0
 10
1.079643
 20
11.805029
 30
0.0
 10
1.079643
 20
12.105029
 30
0.0
 10
1.193929
 20
12.105029
 30
0.0
 10
1.222500
 20
12.090743
 30
0.0
 10
1.236786
 20
12.076458
 30
0.0
 10
1.251071
 20
12.047886
 30
0.0
 10
1.251071
 20
12.005029
 30
0.0
 10
1.236786
 20
11.976458
 30
0.0
 10
1.222500
 20
11.962172
 30
0.0
 10
1.193929
 20
11.947886
 30
0.0
 10
1.079643
 20
11.947886
 30
0.0
  0
LWPOLYLINE
  5
17f
100
AcDbEntity
  8
0
 62
7
100
AcDbPolyline
 90
10
 70
0
 10
1.379643
 20
12.105029
 30
0.0
 10
1.379643
 20
11.862172
 30
0.0
 10
1.393929
 20
11.833601
 30
0.0
 10
1.408214
 20
11.819315
 30
0.0
 10
1.436786
 20
11.805029
 30
0.0
 10
1.493929
 20
11.805029
 30
0.0
 10
1.522500
 20
11.819315
 30
0.0
 10
1.536786
 20
11.833601
 30
0.0
 10
1.551071
 20
11.862172
 30
0.0
 10
1.551071
 20
12.105029
 30
0.0
  0
LWPOLYLINE
  5
180
100
AcDbEntity
  8
0
 62
7
100
AcDbPolyline
 90
11
 70
0
 10
1.693929
 20
11.805029
 30
0.0
 10
1.693929
 20
12.105029
 30
0.0
 10
1.808214
 20
12.105029
 30
0.0
 10
1.836786
 20
12.090743
 30
0.0
 10
1.851071
 20
12.076458
 30
0.0
 10
1.865357
 20
12.047886
 30
0.0
 10
1.865357
 20
12.005029
 30
0.0
 10
1.851071
 20
11.976458
 30
0.0
 10
1.836786
 20
11.962172
 30
0.0
 10
1.808214
 20
11.947886
 30
0.0
 10
1.693929
 20
11.947886
 30
0.0
  0
LWPOLYLINE
  5
181
100
AcDbEntity
  8
0
 62
7
100
AcDbPolyline
 90
2
 70
0
 10
1.951071
 20
12.105029
 30
0.0
 10
2.122500
 20
12.105029
 30
0.0
  0
LWPOLYLINE
  5
182
100
AcDbEntity
  8
0
 62
7
100
AcDbPolyline
 90
2
 70
0
 10
2.036786
 20
11.805029
 30
0.0
 10
2.036786
 20
12.105029
 30
0.0
  0
LWPOLYLINE
  5
183
100
AcDbEntity
  8
0
 62
7
100
AcDbPolyline
 90
10
 70
0
 10
2.222500
 20
12.105029
 30
0.0
 10
2.222500
 20
11.862172
 30
0.0
 10
2.236786
 20
11.833601
 30
0.0
 10
2.251071
 20
11.819315
 30
0.0
 10
2.279643
 20
11.805029
 30
0.0
 10
2.336786
 20
11.805029
 30
0.0
 10
2.365357
 20
11.819315
 30
0.0
 10
2.379643
 20
11.833601
 30
0.0
 10
2.393929
 20
11.862172
 30
0.0
 10
2.393929
 20
12.105029
 30
0.0
  0
LWPOLYLINE
  5
184
100
AcDbEntity
  8
0
 62
7
100
AcDbPolyline
 90
2
 70
0
 10
2.708214
 20
11.805029
 30
0.0
 10
2.608214
 20
11.947886
 30
0.0
  0
LWPOLYLINE
  5
185
100
AcDbEntity
  8
0
 62
7
100
AcDbPolyline
 90
11
 70
0
 10
2.536786
 20
11.805029
 30
0.0
 10
2.536786
 20
12.105029
 30
0.0
 10
2.651071
 20
12.105029
 30
0.0
 10
2.679643
 20
12.090743
 30
0.0
 10
2.693929
 20
12.076458
 30
0.0
 10
2.708214
 20
12.047886
 30
0.0
 10
2.708214
 20
12.005029
 30
0.0
 10
2.693929
 20
11.976458
 30
0.0
 10
2.679643
 20
11.962172
 30
0.0
 10
2.651071
 20
11.947886
 30
0.0
 10
2.536786
 20
11.947886
 30
0.0
  0
LWPOLYLINE
  5
186
100
AcDbEntity
  8
0
 62
7
100
AcDbPolyline
 90
2
 70
0
 10
2.836786
 20
11.962172
 30
0.0
 10
2.936786
 20
11.962172
 30
0.0
  0
LWPOLYLINE
  5
187
100
AcDbEntity
  8
0
 62
7
100
AcDbPolyline
 90
4
 70
0
 10
2.979643
 20
11.805029
 30
0.0
 10
2.836786
 20
11.805029
 30
0.0
 10
2.836786
 20
12.105029
 30
0.0
 10
2.979643
 20
12.105029
 30
0.0
  0
LWPOLYLINE
  5
188
100
AcDbEntity
  8
0
 62
7
100
AcDbPolyline
 90
2
 70
0
 10
3.036786
 20
11.776458
 30
0.0
 10
3.265357
 20
11.776458
 30
0.0
  0
LWPOLYLINE
  5
189
100
AcDbEntity
  8
0
 62
7
100
AcDbPolyline
 90
12
 70
1
 10
2.344643
 20
8.522886
 30
0.0
 10
2.494643
 20
8.522886
 30
0.0
 10
2.494643
 20
8.487172
 30
0.0
 10
2.487500
 20
8.465743
 30
0.0
 10
2.473214
 20
8.451458
 30
0.0
 10
2.458929
 20
8.444315
 30
0.0
 10
2.430357
 20
8.437172
 30
0.0
 10
2.408929
 20
8.437172
 30
0.0
 10
2.380357
 20
8.444315
 30
0.0
 10
2.366071
 20
8.451458
 30
0.0
 10
2.351786
 20
8.465743
 30
0.0
 10
2.344643
 20
8.487172
 30
0.0
  0
LWPOLYLINE
  5
18a
100
AcDbEntity
  8
0
 62
7
100
AcDbPolyline
 90
16
 70
1
 10
2.494643
 20
8.344315
 30
0.0
 10
2.494643
 20
8.315743
 30
0.0
 10
2.487500
 20
8.301458
 30
0.0
 10
2.473214
 20
8.287172
 30
0.0
 10
2.444643
 20
8.280029
 30
0.0
 10
2.394643
 20
8.280029
 30
0.0
 10
2.366071
 20
8.287172
 30
0.0
 10
2.351786
 20
8.301458
 30
0.0
 10
2.344643
 20
8.315743
 30
0.0
 10
2.344643
 20
8.344315
 30
0.0
 10
2.351786
 20
8.358601
 30
0.0
 10
2.366071
 20
8.372886
 30
0.0
 10
2.394643
 20
8.380029
 30
0.0
 10
2.444643
 20
8.380029
 30
0.0
 10
2.473214
 20
8.372886
 30
0.0
 10
2.487500
 20
8.358601
 30
0.0
  0
LWPOLYLINE
  5
18b
100
AcDbEntity
  8
0
 62
7
100
AcDbPolyline
 90
5
 70
0
 10
2.494643
 20
8.230029
 30
0.0
 10
2.344643
 20
8.194315
 30
0.0
 10
2.451786
 20
8.165743
 30
0.0
 10
2.344643
 20
8.137172
 30
0.0
 10
2.494643
 20
8.101458
 30
0.0
  0
LWPOLYLINE
  5
18c
100
AcDbEntity
  8
0
 62
7
100
AcDbPolyline
 90
4
 70
0
 10
2.344643
 20
8.044315
 30
0.0
 10
2.494643
 20
8.044315
 30
0.0
 10
2.344643
 20
7.958601
 30
0.0
 10
2.494643
 20
7.958601
 30
0.0
  0
ENDSEC
  0
SECTION
  2
OBJECTS
  0
DICTIONARY
  5
C
330
0
100
AcDbDictionary
  3
ACAD_GROUP
350
D
  3
ACAD_MLINESTYLE
350
17
  0
DICTIONARY
  5
D
330
C
100
AcDbDictionary
  0
DICTIONARY
  5
1A
330
C
100
AcDbDictionary
  0
DICTIONARY
  5
17
330
C
100
AcDbDictionary
  3
STANDARD
350
18
  0
DICTIONARY
  5
19
330
C
100
AcDbDictionary
  0
ENDSEC
  0
EOF
