  0
SECTION
  2
HEADER
  9
$ACADVER
  1
AC1014
  9
$HANDSEED
  5
FFFF
  9
$INSUNITS
 70
     5
  9
$MEASUREMENT
 70
     1
  0
ENDSEC
  0
SECTION
  2
TABLES
  0
TABLE
  2
VPORT
  5
8
330
0
100
AcDbSymbolTable
 70
     4
  0
VPORT
  5
2E
330
8
100
AcDbSymbolTableRecord
100
AcDbViewportTableRecord
  2
*ACTIVE
 70
     0
 10
0.0
 20
0.0
 11
1.0
 21
1.0
 12
210.0
 22
148.5
 13
0.0
 23
0.0
 14
10.0
 24
10.0
 15
10.0
 25
10.0
 16
0.0
 26
0.0
 36
1.0
 17
0.0
 27
0.0
 37
0.0
 40
341.0
 41
1.24
 42
50.0
 43
0.0
 44
0.0
 50
0.0
 51
0.0
 71
     0
 72
   100
 73
     1
 74
     3
 75
     0
 76
     0
 77
     0
 78
     0
  0
ENDTAB
  0
TABLE
  2
LTYPE
  5
5
330
0
100
AcDbSymbolTable
 70
     1
  0
LTYPE
  5
14
330
5
100
AcDbSymbolTableRecord
100
AcDbLinetypeTableRecord
  2
BYBLOCK
 70
     0
  3

 72
    65
 73
     0
 40
0.0
  0
LTYPE
  5
15
330
5
100
AcDbSymbolTableRecord
100
AcDbLinetypeTableRecord
  2
BYLAYER
 70
     0
  3

 72
    65
 73
     0
 40
0.0
  0
LTYPE
  5
16
330
5
100
AcDbSymbolTableRecord
100
AcDbLinetypeTableRecord
  2
CONTINUOUS
 70
     0
  3
Solid line
 72
    65
 73
     0
 40
0.0
  0
ENDTAB
  0
TABLE
  2
LAYER
  5
2
100
AcDbSymbolTable
 70
1
  0
LAYER
  5
50
100
AcDbSymbolTableRecord
100
AcDbLayerTableRecord
  2
0
 70
0
  6
CONTINUOUS
  0
ENDTAB
  0
TABLE
  2
STYLE
  5
3
330
0
100
AcDbSymbolTable
 70
     1
  0
STYLE
  5
11
330
3
100
AcDbSymbolTableRecord
100
AcDbTextStyleTableRecord
  2
STANDARD
 70
     0
 40
0.0
 41
1.0
 50
0.0
 71
     0
 42
2.5
  3
txt
  4

  0
ENDTAB
  0
TABLE
  2
VIEW
  5
6
330
0
100
AcDbSymbolTable
 70
     0
  0
ENDTAB
  0
TABLE
  2
UCS
  5
7
330
0
100
AcDbSymbolTable
 70
     0
  0
ENDTAB
  0
TABLE
  2
APPID
  5
9
330
0
100
AcDbSymbolTable
 70
     2
  0
APPID
  5
12
330
9
100
AcDbSymbolTableRecord
100
AcDbRegAppTableRecord
  2
ACAD
 70
     0
  0
ENDTAB
  0
TABLE
  2
DIMSTYLE
  5
A
330
0
100
AcDbSymbolTable
 70
     1
  0
DIMSTYLE
105
27
330
A
100
AcDbSymbolTableRecord
100
AcDbDimStyleTableRecord
  2
ISO-25
 70
     0
  3

  4

  5

  6

  7

 40
1.0
 41
2.5
 42
0.625
 43
3.75
 44
1.25
 45
0.0
 46
0.0
 47
0.0
 48
0.0
140
2.5
141
2.5
142
0.0
143
0.03937007874016
144
1.0
145
0.0
146
1.0
147
0.625
 71
     0
 72
     0
 73
     0
 74
     0
 75
     0
 76
     0
 77
     1
 78
     8
170
     0
171
     3
172
     1
173
     0
174
     0
175
     0
176
     0
177
     0
178
     0
270
     2
271
     2
272
     2
273
     2
274
     3
340
11
275
     0
280
     0
281
     0
282
     0
283
     0
284
     8
285
     0
286
     0
287
     3
288
     0
  0
ENDTAB
  0
TABLE
  2
BLOCK_RECORD
  5
1
330
0
100
AcDbSymbolTable
 70
     1
  0
BLOCK_RECORD
  5
1F
330
1
100
AcDbSymbolTableRecord
100
AcDbBlockTableRecord
  2
*MODEL_SPACE
  0
BLOCK_RECORD
  5
1B
330
1
100
AcDbSymbolTableRecord
100
AcDbBlockTableRecord
  2
*PAPER_SPACE
  0
ENDTAB
  0
ENDSEC
  0
SECTION
  2
BLOCKS
  0
BLOCK
  5
20
330
1F
100
AcDbEntity
  8
0
100
AcDbBlockBegin
  2
*MODEL_SPACE
 70
     0
 10
0.0
 20
0.0
 30
0.0
  3
*MODEL_SPACE
  1

  0
ENDBLK
  5
21
330
1F
100
AcDbEntity
  8
0
100
AcDbBlockEnd
  0
BLOCK
  5
1C
330
1B
100
AcDbEntity
 67
     1
  8
0
100
AcDbBlockBegin
  2
*PAPER_SPACE
  1

  0
ENDBLK
  5
1D
330
1B
100
AcDbEntity
 67
     1
  8
0
100
AcDbBlockEnd
  0
ENDSEC
  0
SECTION
  2
ENTITIES
  0
SPLINE
  5
100
100
AcDbEntity
  8
0
 62
7
100
AcDbSpline
 70
8
 71
3
 72
8
 73
4
 74
0
 40
0
 40
0
 40
0
 40
0
 40
1
 40
1
 40
1
 40
1
 10
2.796464
 20
11.208779
 30
0.0
 10
2.544874
 20
11.208779
 30
0.0
 10
2.318057
 20
11.057225
 30
0.0
 10
2.221778
 20
10.824786
 30
0.0
  0
SPLINE
  5
101
100
AcDbEntity
  8
0
 62
7
100
AcDbSpline
 70
8
 71
3
 72
8
 73
4
 74
0
 40
0
 40
0
 40
0
 40
0
 40
1
 40
1
 40
1
 40
1
 10
2.221778
 20
10.824786
 30
0.0
 10
2.125499
 20
10.592347
 30
0.0
 10
2.178717
 20
10.324799
 30
0.0
 10
2.356618
 20
10.146898
 30
0.0
  0
SPLINE
  5
102
100
AcDbEntity
  8
0
 62
7
100
AcDbSpline
 70
8
 71
3
 72
8
 73
4
 74
0
 40
0
 40
0
 40
0
 40
0
 40
1
 40
1
 40
1
 40
1
 10
2.356618
 20
10.146898
 30
0.0
 10
2.534519
 20
9.968997
 30
0.0
 10
2.802068
 20
9.915778
 30
0.0
 10
3.034507
 20
10.012057
 30
0.0
  0
SPLINE
  5
103
100
AcDbEntity
  8
0
 62
7
100
AcDbSpline
 70
8
 71
3
 72
8
 73
4
 74
0
 40
0
 40
0
 40
0
 40
0
 40
1
 40
1
 40
1
 40
1
 10
3.034507
 20
10.012057
 30
0.0
 10
3.266946
 20
10.108337
 30
0.0
 10
3.418500
 20
10.335153
 30
0.0
 10
3.418500
 20
10.586743
 30
0.0
  0
SPLINE
  5
104
100
AcDbEntity
  8
0
 62
7
100
AcDbSpline
 70
8
 71
3
 72
8
 73
4
 74
0
 40
0
 40
0
 40
0
 40
0
 40
1
 40
1
 40
1
 40
1
 10
3.418500
 20
10.586743
 30
0.0
 10
3.418500
 20
10.751718
 30
0.0
 10
3.352964
 20
10.909935
 30
0.0
 10
3.236310
 20
11.026589
 30
0.0
  0
SPLINE
  5
105
100
AcDbEntity
  8
0
 62
7
100
AcDbSpline
 70
8
 71
3
 72
8
 73
4
 74
0
 40
0
 40
0
 40
0
 40
0
 40
1
 40
1
 40
1
 40
1
 10
3.236310
 20
11.026589
 30
0.0
 10
3.119656
 20
11.143244
 30
0.0
 10
2.961438
 20
11.208779
 30
0.0
 10
2.796464
 20
11.208779
 30
0.0
  0
SPLINE
  5
106
100
AcDbEntity
  8
0
 62
7
100
AcDbSpline
 70
8
 71
3
 72
8
 73
4
 74
0
 40
0
 40
0
 40
0
 40
0
 40
1
 40
1
 40
1
 40
1
 10
0.928500
 20
4.810789
 30
0.0
 10
0.736776
 20
4.810789
 30
0.0
 10
0.563930
 20
4.695297
 30
0.0
 10
0.490560
 20
4.518167
 30
0.0
  0
SPLINE
  5
107
100
AcDbEntity
  8
0
 62
7
100
AcDbSpline
 70
8
 71
3
 72
8
 73
4
 74
0
 40
0
 40
0
 40
0
 40
0
 40
1
 40
1
 40
1
 40
1
 10
0.490560
 20
4.518167
 30
0.0
 10
0.417190
 20
4.341037
 30
0.0
 10
0.457745
 20
4.137151
 30
0.0
 10
0.593315
 20
4.001581
 30
0.0
  0
SPLINE
  5
108
100
AcDbEntity
  8
0
 62
7
100
AcDbSpline
 70
8
 71
3
 72
8
 73
4
 74
0
 40
0
 40
0
 40
0
 40
0
 40
1
 40
1
 40
1
 40
1
 10
0.593315
 20
4.001581
 30
0.0
 10
0.728885
 20
3.866012
 30
0.0
 10
0.932770
 20
3.825456
 30
0.0
 10
1.109901
 20
3.898826
 30
0.0
  0
SPLINE
  5
109
100
AcDbEntity
  8
0
 62
7
100
AcDbSpline
 70
8
 71
3
 72
8
 73
4
 74
0
 40
0
 40
0
 40
0
 40
0
 40
1
 40
1
 40
1
 40
1
 10
1.109901
 20
3.898826
 30
0.0
 10
1.287031
 20
3.972196
 30
0.0
 10
1.402523
 20
4.145042
 30
0.0
 10
1.402523
 20
4.336766
 30
0.0
  0
SPLINE
  5
10a
100
AcDbEntity
  8
0
 62
7
100
AcDbSpline
 70
8
 71
3
 72
8
 73
4
 74
0
 40
0
 40
0
 40
0
 40
0
 40
1
 40
1
 40
1
 40
1
 10
1.402523
 20
4.336766
 30
0.0
 10
1.402523
 20
4.462485
 30
0.0
 10
1.352581
 20
4.583055
 30
0.0
 10
1.263685
 20
4.671951
 30
0.0
  0
SPLINE
  5
10b
100
AcDbEntity
  8
0
 62
7
100
AcDbSpline
 70
8
 71
3
 72
8
 73
4
 74
0
 40
0
 40
0
 40
0
 40
0
 40
1
 40
1
 40
1
 40
1
 10
1.263685
 20
4.671951
 30
0.0
 10
1.174788
 20
4.760848
 30
0.0
 10
1.054219
 20
4.810789
 30
0.0
 10
0.928500
 20
4.810789
 30
0.0
  0
LWPOLYLINE
  5
10c
100
AcDbEntity
  8
0
 62
7
100
AcDbPolyline
 90
1
 70
1
 10
2.796464
 20
11.208779
 30
0.0
  0
SPLINE
  5
10d
100
AcDbEntity
  8
0
 62
7
100
AcDbSpline
 70
8
 71
3
 72
8
 73
4
 74
0
 40
0
 40
0
 40
0
 40
0
 40
1
 40
1
 40
1
 40
1
 10
0.944500
 20
7.640789
 30
0.0
 10
0.752776
 20
7.640789
 30
0.0
 10
0.579930
 20
7.525297
 30
0.0
 10
0.506560
 20
7.348167
 30
0.0
  0
SPLINE
  5
10e
100
AcDbEntity
  8
0
 62
7
100
AcDbSpline
 70
8
 71
3
 72
8
 73
4
 74
0
 40
0
 40
0
 40
0
 40
0
 40
1
 40
1
 40
1
 40
1
 10
0.506560
 20
7.348167
 30
0.0
 10
0.433190
 20
7.171037
 30
0.0
 10
0.473745
 20
6.967151
 30
0.0
 10
0.609315
 20
6.831581
 30
0.0
  0
SPLINE
  5
10f
100
AcDbEntity
  8
0
 62
7
100
AcDbSpline
 70
8
 71
3
 72
8
 73
4
 74
0
 40
0
 40
0
 40
0
 40
0
 40
1
 40
1
 40
1
 40
1
 10
0.609315
 20
6.831581
 30
0.0
 10
0.744885
 20
6.696012
 30
0.0
 10
0.948770
 20
6.655456
 30
0.0
 10
1.125901
 20
6.728826
 30
0.0
  0
SPLINE
  5
110
100
AcDbEntity
  8
0
 62
7
100
AcDbSpline
 70
8
 71
3
 72
8
 73
4
 74
0
 40
0
 40
0
 40
0
 40
0
 40
1
 40
1
 40
1
 40
1
 10
1.125901
 20
6.728826
 30
0.0
 10
1.303031
 20
6.802196
 30
0.0
 10
1.418523
 20
6.975042
 30
0.0
 10
1.418523
 20
7.166766
 30
0.0
  0
SPLINE
  5
111
100
AcDbEntity
  8
0
 62
7
100
AcDbSpline
 70
8
 71
3
 72
8
 73
4
 74
0
 40
0
 40
0
 40
0
 40
0
 40
1
 40
1
 40
1
 40
1
 10
1.418523
 20
7.166766
 30
0.0
 10
1.418523
 20
7.292485
 30
0.0
 10
1.368581
 20
7.413055
 30
0.0
 10
1.279685
 20
7.501951
 30
0.0
  0
SPLINE
  5
112
100
AcDbEntity
  8
0
 62
7
100
AcDbSpline
 70
8
 71
3
 72
8
 73
4
 74
0
 40
0
 40
0
 40
0
 40
0
 40
1
 40
1
 40
1
 40
1
 10
1.279685
 20
7.501951
 30
0.0
 10
1.190788
 20
7.590848
 30
0.0
 10
1.070219
 20
7.640789
 30
0.0
 10
0.944500
 20
7.640789
 30
0.0
  0
LWPOLYLINE
  5
113
100
AcDbEntity
  8
0
 62
7
100
AcDbPolyline
 90
1
 70
1
 10
0.928500
 20
4.810789
 30
0.0
  0
SPLINE
  5
114
100
AcDbEntity
  8
0
 62
7
100
AcDbSpline
 70
8
 71
3
 72
8
 73
4
 74
0
 40
0
 40
0
 40
0
 40
0
 40
1
 40
1
 40
1
 40
1
 10
0.944500
 20
9.051789
 30
0.0
 10
0.752776
 20
9.051789
 30
0.0
 10
0.579930
 20
8.936297
 30
0.0
 10
0.506560
 20
8.759167
 30
0.0
  0
SPLINE
  5
115
100
AcDbEntity
  8
0
 62
7
100
AcDbSpline
 70
8
 71
3
 72
8
 73
4
 74
0
 40
0
 40
0
 40
0
 40
0
 40
1
 40
1
 40
1
 40
1
 10
0.506560
 20
8.759167
 30
0.0
 10
0.433190
 20
8.582037
 30
0.0
 10
0.473745
 20
8.378151
 30
0.0
 10
0.609315
 20
8.242581
 30
0.0
  0
SPLINE
  5
116
100
AcDbEntity
  8
0
 62
7
100
AcDbSpline
 70
8
 71
3
 72
8
 73
4
 74
0
 40
0
 40
0
 40
0
 40
0
 40
1
 40
1
 40
1
 40
1
 10
0.609315
 20
8.242581
 30
0.0
 10
0.744885
 20
8.107012
 30
0.0
 10
0.948770
 20
8.066456
 30
0.0
 10
1.125901
 20
8.139826
 30
0.0
  0
SPLINE
  5
117
100
AcDbEntity
  8
0
 62
7
100
AcDbSpline
 70
8
 71
3
 72
8
 73
4
 74
0
 40
0
 40
0
 40
0
 40
0
 40
1
 40
1
 40
1
 40
1
 10
1.125901
 20
8.139826
 30
0.0
 10
1.303031
 20
8.213196
 30
0.0
 10
1.418523
 20
8.386042
 30
0.0
 10
1.418523
 20
8.577766
 30
0.0
  0
SPLINE
  5
118
100
AcDbEntity
  8
0
 62
7
100
AcDbSpline
 70
8
 71
3
 72
8
 73
4
 74
0
 40
0
 40
0
 40
0
 40
0
 40
1
 40
1
 40
1
 40
1
 10
1.418523
 20
8.577766
 30
0.0
 10
1.418523
 20
8.703485
 30
0.0
 10
1.368581
 20
8.824055
 30
0.0
 10
1.279685
 20
8.912951
 30
0.0
  0
SPLINE
  5
119
100
AcDbEntity
  8
0
 62
7
100
AcDbSpline
 70
8
 71
3
 72
8
 73
4
 74
0
 40
0
 40
0
 40
0
 40
0
 40
1
 40
1
 40
1
 40
1
 10
1.279685
 20
8.912951
 30
0.0
 10
1.190788
 20
9.001848
 30
0.0
 10
1.070219
 20
9.051789
 30
0.0
 10
0.944500
 20
9.051789
 30
0.0
  0
LWPOLYLINE
  5
11a
100
AcDbEntity
  8
0
 62
7
100
AcDbPolyline
 90
1
 70
1
 10
0.944500
 20
7.640789
 30
0.0
  0
LWPOLYLINE
  5
11b
100
AcDbEntity
  8
0
 62
7
100
AcDbPolyline
 90
1
 70
1
 10
0.944500
 20
9.051789
 30
0.0
  0
LWPOLYLINE
  5
11c
100
AcDbEntity
  8
0
 62
7
100
AcDbPolyline
 90
2
 70
0
 10
2.595500
 20
9.015743
 30
0.0
 10
3.771500
 20
9.015743
 30
0.0
  0
LWPOLYLINE
  5
11d
100
AcDbEntity
  8
0
 62
7
100
AcDbPolyline
 90
2
 70
0
 10
2.595500
 20
8.352743
 30
0.0
 10
2.595500
 20
9.015743
 30
0.0
  0
LWPOLYLINE
  5
11e
100
AcDbEntity
  8
0
 62
7
100
AcDbPolyline
 90
2
 70
0
 10
3.771500
 20
9.015743
 30
0.0
 10
3.771500
 20
8.351743
 30
0.0
  0
LWPOLYLINE
  5
11f
100
AcDbEntity
  8
0
 62
7
100
AcDbPolyline
 90
2
 70
0
 10
2.043500
 20
11.469743
 30
0.0
 10
2.043500
 20
9.920743
 30
0.0
  0
LWPOLYLINE
  5
120
100
AcDbEntity
  8
0
 62
7
100
AcDbPolyline
 90
2
 70
0
 10
0.867500
 20
11.470743
 30
0.0
 10
2.043500
 20
11.469743
 30
0.0
  0
LWPOLYLINE
  5
121
100
AcDbEntity
  8
0
 62
7
100
AcDbPolyline
 90
2
 70
0
 10
0.867500
 20
10.811743
 30
0.0
 10
0.867500
 20
11.470743
 30
0.0
  0
LWPOLYLINE
  5
122
100
AcDbEntity
  8
0
 62
7
100
AcDbPolyline
 90
2
 70
0
 10
0.867500
 20
9.260743
 30
0.0
 10
0.867500
 20
10.811743
 30
0.0
  0
LWPOLYLINE
  5
123
100
AcDbEntity
  8
0
 62
7
100
AcDbPolyline
 90
2
 70
0
 10
2.043500
 20
9.259743
 30
0.0
 10
0.867500
 20
9.260743
 30
0.0
  0
LWPOLYLINE
  5
124
100
AcDbEntity
  8
0
 62
7
100
AcDbPolyline
 90
2
 70
0
 10
2.043500
 20
9.920743
 30
0.0
 10
2.043500
 20
9.259743
 30
0.0
  0
LWPOLYLINE
  5
125
100
AcDbEntity
  8
0
 62
7
100
AcDbPolyline
 90
2
 70
0
 10
0.877500
 20
2.072743
 30
0.0
 10
0.877500
 20
3.600743
 30
0.0
  0
LWPOLYLINE
  5
126
100
AcDbEntity
  8
0
 62
7
100
AcDbPolyline
 90
2
 70
0
 10
2.053500
 20
3.599743
 30
0.0
 10
2.053500
 20
2.071743
 30
0.0
  0
LWPOLYLINE
  5
127
100
AcDbEntity
  8
0
 62
7
100
AcDbPolyline
 90
2
 70
0
 10
0.877500
 20
3.600743
 30
0.0
 10
2.053500
 20
3.599743
 30
0.0
  0
LWPOLYLINE
  5
128
100
AcDbEntity
  8
0
 62
7
100
AcDbPolyline
 90
2
 70
0
 10
0.877500
 20
1.410743
 30
0.0
 10
0.877500
 20
2.072743
 30
0.0
  0
SPLINE
  5
129
100
AcDbEntity
  8
0
 62
7
100
AcDbSpline
 70
8
 71
3
 72
8
 73
4
 74
0
 40
0
 40
0
 40
0
 40
0
 40
1
 40
1
 40
1
 40
1
 10
3.452500
 20
12.345743
 30
0.0
 10
3.509662
 20
12.345743
 30
0.0
 10
3.562483
 20
12.376239
 30
0.0
 10
3.591064
 20
12.425743
 30
0.0
  0
SPLINE
  5
12a
100
AcDbEntity
  8
0
 62
7
100
AcDbSpline
 70
8
 71
3
 72
8
 73
4
 74
0
 40
0
 40
0
 40
0
 40
0
 40
1
 40
1
 40
1
 40
1
 10
3.591064
 20
12.425743
 30
0.0
 10
3.619645
 20
12.475248
 30
0.0
 10
3.619645
 20
12.536239
 30
0.0
 10
3.591064
 20
12.585743
 30
0.0
  0
SPLINE
  5
12b
100
AcDbEntity
  8
0
 62
7
100
AcDbSpline
 70
8
 71
3
 72
8
 73
4
 74
0
 40
0
 40
0
 40
0
 40
0
 40
1
 40
1
 40
1
 40
1
 10
3.591064
 20
12.585743
 30
0.0
 10
3.562483
 20
12.635248
 30
0.0
 10
3.509662
 20
12.665743
 30
0.0
 10
3.452500
 20
12.665743
 30
0.0
  0
LWPOLYLINE
  5
12c
100
AcDbEntity
  8
0
 62
7
100
AcDbPolyline
 90
3
 70
0
 10
2.053500
 20
2.071743
 30
0.0
 10
2.053500
 20
1.409743
 30
0.0
 10
0.877500
 20
1.410743
 30
0.0
  0
LWPOLYLINE
  5
12d
100
AcDbEntity
  8
0
 62
7
100
AcDbPolyline
 90
2
 70
0
 10
0.817500
 20
0.190743
 30
0.0
 10
0.587500
 20
0.190743
 30
0.0
  0
SPLINE
  5
12e
100
AcDbEntity
  8
0
 62
7
100
AcDbSpline
 70
8
 71
3
 72
8
 73
4
 74
0
 40
0
 40
0
 40
0
 40
0
 40
1
 40
1
 40
1
 40
1
 10
0.928500
 20
6.228174
 30
0.0
 10
0.736776
 20
6.228174
 30
0.0
 10
0.563930
 20
6.112682
 30
0.0
 10
0.490560
 20
5.935552
 30
0.0
  0
SPLINE
  5
12f
100
AcDbEntity
  8
0
 62
7
100
AcDbSpline
 70
8
 71
3
 72
8
 73
4
 74
0
 40
0
 40
0
 40
0
 40
0
 40
1
 40
1
 40
1
 40
1
 10
0.490560
 20
5.935552
 30
0.0
 10
0.417190
 20
5.758422
 30
0.0
 10
0.457745
 20
5.554536
 30
0.0
 10
0.593315
 20
5.418967
 30
0.0
  0
SPLINE
  5
130
100
AcDbEntity
  8
0
 62
7
100
AcDbSpline
 70
8
 71
3
 72
8
 73
4
 74
0
 40
0
 40
0
 40
0
 40
0
 40
1
 40
1
 40
1
 40
1
 10
0.593315
 20
5.418967
 30
0.0
 10
0.728885
 20
5.283397
 30
0.0
 10
0.932770
 20
5.242841
 30
0.0
 10
1.109901
 20
5.316211
 30
0.0
  0
SPLINE
  5
131
100
AcDbEntity
  8
0
 62
7
100
AcDbSpline
 70
8
 71
3
 72
8
 73
4
 74
0
 40
0
 40
0
 40
0
 40
0
 40
1
 40
1
 40
1
 40
1
 10
1.109901
 20
5.316211
 30
0.0
 10
1.287031
 20
5.389581
 30
0.0
 10
1.402523
 20
5.562427
 30
0.0
 10
1.402523
 20
5.754151
 30
0.0
  0
SPLINE
  5
132
100
AcDbEntity
  8
0
 62
7
100
AcDbSpline
 70
8
 71
3
 72
8
 73
4
 74
0
 40
0
 40
0
 40
0
 40
0
 40
1
 40
1
 40
1
 40
1
 10
1.402523
 20
5.754151
 30
0.0
 10
1.402523
 20
5.879870
 30
0.0
 10
1.352581
 20
6.000440
 30
0.0
 10
1.263685
 20
6.089336
 30
0.0
  0
SPLINE
  5
133
100
AcDbEntity
  8
0
 62
7
100
AcDbSpline
 70
8
 71
3
 72
8
 73
4
 74
0
 40
0
 40
0
 40
0
 40
0
 40
1
 40
1
 40
1
 40
1
 10
1.263685
 20
6.089336
 30
0.0
 10
1.174788
 20
6.178233
 30
0.0
 10
1.054219
 20
6.228174
 30
0.0
 10
0.928500
 20
6.228174
 30
0.0
  0
LWPOLYLINE
  5
134
100
AcDbEntity
  8
0
 62
7
100
AcDbPolyline
 90
2
 70
0
 10
4.037500
 20
0.000743
 30
0.0
 10
4.037500
 20
12.857520
 30
0.0
  0
LWPOLYLINE
  5
135
100
AcDbEntity
  8
0
 62
7
100
AcDbPolyline
 90
1
 70
1
 10
0.928500
 20
6.228174
 30
0.0
  0
LWPOLYLINE
  5
136
100
AcDbEntity
  8
0
 62
7
100
AcDbPolyline
 90
2
 70
0
 10
0.002500
 20
12.857520
 30
0.0
 10
4.037500
 20
12.857520
 30
0.0
  0
LWPOLYLINE
  5
137
100
AcDbEntity
  8
0
 62
7
100
AcDbPolyline
 90
2
 70
0
 10
3.377500
 20
4.685743
 30
0.0
 10
3.972500
 20
4.685743
 30
0.0
  0
SPLINE
  5
138
100
AcDbEntity
  8
0
 62
7
100
AcDbSpline
 70
8
 71
3
 72
8
 73
4
 74
0
 40
0
 40
0
 40
0
 40
0
 40
1
 40
1
 40
1
 40
1
 10
0.587500
 20
0.510743
 30
0.0
 10
0.530338
 20
0.510743
 30
0.0
 10
0.477517
 20
0.480248
 30
0.0
 10
0.448936
 20
0.430743
 30
0.0
  0
SPLINE
  5
139
100
AcDbEntity
  8
0
 62
7
100
AcDbSpline
 70
8
 71
3
 72
8
 73
4
 74
0
 40
0
 40
0
 40
0
 40
0
 40
1
 40
1
 40
1
 40
1
 10
0.448936
 20
0.430743
 30
0.0
 10
0.420355
 20
0.381239
 30
0.0
 10
0.420355
 20
0.320248
 30
0.0
 10
0.448936
 20
0.270743
 30
0.0
  0
SPLINE
  5
13a
100
AcDbEntity
  8
0
 62
7
100
AcDbSpline
 70
8
 71
3
 72
8
 73
4
 74
0
 40
0
 40
0
 40
0
 40
0
 40
1
 40
1
 40
1
 40
1
 10
0.448936
 20
0.270743
 30
0.0
 10
0.477517
 20
0.221239
 30
0.0
 10
0.530338
 20
0.190743
 30
0.0
 10
0.587500
 20
0.190743
 30
0.0
  0
LWPOLYLINE
  5
13b
100
AcDbEntity
  8
0
 62
7
100
AcDbPolyline
 90
2
 70
0
 10
3.377500
 20
5.925743
 30
0.0
 10
3.377500
 20
4.685743
 30
0.0
  0
SPLINE
  5
13c
100
AcDbEntity
  8
0
 62
7
100
AcDbSpline
 70
8
 71
3
 72
8
 73
4
 74
0
 40
0
 40
0
 40
0
 40
0
 40
1
 40
1
 40
1
 40
1
 10
0.817500
 20
12.345743
 30
0.0
 10
0.874662
 20
12.345743
 30
0.0
 10
0.927483
 20
12.376239
 30
0.0
 10
0.956064
 20
12.425743
 30
0.0
  0
SPLINE
  5
13d
100
AcDbEntity
  8
0
 62
7
100
AcDbSpline
 70
8
 71
3
 72
8
 73
4
 74
0
 40
0
 40
0
 40
0
 40
0
 40
1
 40
1
 40
1
 40
1
 10
0.956064
 20
12.425743
 30
0.0
 10
0.984645
 20
12.475248
 30
0.0
 10
0.984645
 20
12.536239
 30
0.0
 10
0.956064
 20
12.585743
 30
0.0
  0
SPLINE
  5
13e
100
AcDbEntity
  8
0
 62
7
100
AcDbSpline
 70
8
 71
3
 72
8
 73
4
 74
0
 40
0
 40
0
 40
0
 40
0
 40
1
 40
1
 40
1
 40
1
 10
0.956064
 20
12.585743
 30
0.0
 10
0.927483
 20
12.635248
 30
0.0
 10
0.874662
 20
12.665743
 30
0.0
 10
0.817500
 20
12.665743
 30
0.0
  0
LWPOLYLINE
  5
13f
100
AcDbEntity
  8
0
 62
7
100
AcDbPolyline
 90
2
 70
0
 10
3.452500
 20
12.665743
 30
0.0
 10
3.222500
 20
12.665743
 30
0.0
  0
LWPOLYLINE
  5
140
100
AcDbEntity
  8
0
 62
7
100
AcDbPolyline
 90
2
 70
0
 10
0.817500
 20
12.345743
 30
0.0
 10
0.587500
 20
12.345743
 30
0.0
  0
LWPOLYLINE
  5
141
100
AcDbEntity
  8
0
 62
7
100
AcDbPolyline
 90
2
 70
0
 10
3.771500
 20
7.439743
 30
0.0
 10
2.595500
 20
7.440743
 30
0.0
  0
LWPOLYLINE
  5
142
100
AcDbEntity
  8
0
 62
7
100
AcDbPolyline
 90
2
 70
0
 10
0.817500
 20
0.510743
 30
0.0
 10
0.587500
 20
0.510743
 30
0.0
  0
SPLINE
  5
143
100
AcDbEntity
  8
0
 62
7
100
AcDbSpline
 70
8
 71
3
 72
8
 73
4
 74
0
 40
0
 40
0
 40
0
 40
0
 40
1
 40
1
 40
1
 40
1
 10
3.452500
 20
0.190743
 30
0.0
 10
3.509662
 20
0.190743
 30
0.0
 10
3.562483
 20
0.221239
 30
0.0
 10
3.591064
 20
0.270743
 30
0.0
  0
SPLINE
  5
144
100
AcDbEntity
  8
0
 62
7
100
AcDbSpline
 70
8
 71
3
 72
8
 73
4
 74
0
 40
0
 40
0
 40
0
 40
0
 40
1
 40
1
 40
1
 40
1
 10
3.591064
 20
0.270743
 30
0.0
 10
3.619645
 20
0.320248
 30
0.0
 10
3.619645
 20
0.381239
 30
0.0
 10
3.591064
 20
0.430743
 30
0.0
  0
SPLINE
  5
145
100
AcDbEntity
  8
0
 62
7
100
AcDbSpline
 70
8
 71
3
 72
8
 73
4
 74
0
 40
0
 40
0
 40
0
 40
0
 40
1
 40
1
 40
1
 40
1
 10
3.591064
 20
0.430743
 30
0.0
 10
3.562483
 20
0.480248
 30
0.0
 10
3.509662
 20
0.510743
 30
0.0
 10
3.452500
 20
0.510743
 30
0.0
  0
SPLINE
  5
146
100
AcDbEntity
  8
0
 62
7
100
AcDbSpline
 70
8
 71
3
 72
8
 73
4
 74
0
 40
0
 40
0
 40
0
 40
0
 40
1
 40
1
 40
1
 40
1
 10
2.759500
 20
2.828922
 30
0.0
 10
2.507910
 20
2.828922
 30
0.0
 10
2.281093
 20
2.677368
 30
0.0
 10
2.184814
 20
2.444929
 30
0.0
  0
SPLINE
  5
147
100
AcDbEntity
  8
0
 62
7
100
AcDbSpline
 70
8
 71
3
 72
8
 73
4
 74
0
 40
0
 40
0
 40
0
 40
0
 40
1
 40
1
 40
1
 40
1
 10
2.184814
 20
2.444929
 30
0.0
 10
2.088534
 20
2.212490
 30
0.0
 10
2.141753
 20
1.944941
 30
0.0
 10
2.319654
 20
1.767040
 30
0.0
  0
SPLINE
  5
148
100
AcDbEntity
  8
0
 62
7
100
AcDbSpline
 70
8
 71
3
 72
8
 73
4
 74
0
 40
0
 40
0
 40
0
 40
0
 40
1
 40
1
 40
1
 40
1
 10
2.319654
 20
1.767040
 30
0.0
 10
2.497555
 20
1.589139
 30
0.0
 10
2.765104
 20
1.535920
 30
0.0
 10
2.997543
 20
1.632200
 30
0.0
  0
SPLINE
  5
149
100
AcDbEntity
  8
0
 62
7
100
AcDbSpline
 70
8
 71
3
 72
8
 73
4
 74
0
 40
0
 40
0
 40
0
 40
0
 40
1
 40
1
 40
1
 40
1
 10
2.997543
 20
1.632200
 30
0.0
 10
3.229982
 20
1.728479
 30
0.0
 10
3.381536
 20
1.955296
 30
0.0
 10
3.381536
 20
2.206886
 30
0.0
  0
SPLINE
  5
14a
100
AcDbEntity
  8
0
 62
7
100
AcDbSpline
 70
8
 71
3
 72
8
 73
4
 74
0
 40
0
 40
0
 40
0
 40
0
 40
1
 40
1
 40
1
 40
1
 10
3.381536
 20
2.206886
 30
0.0
 10
3.381536
 20
2.371860
 30
0.0
 10
3.316000
 20
2.530077
 30
0.0
 10
3.199346
 20
2.646732
 30
0.0
  0
SPLINE
  5
14b
100
AcDbEntity
  8
0
 62
7
100
AcDbSpline
 70
8
 71
3
 72
8
 73
4
 74
0
 40
0
 40
0
 40
0
 40
0
 40
1
 40
1
 40
1
 40
1
 10
3.199346
 20
2.646732
 30
0.0
 10
3.082691
 20
2.763386
 30
0.0
 10
2.924474
 20
2.828922
 30
0.0
 10
2.759500
 20
2.828922
 30
0.0
  0
LWPOLYLINE
  5
14c
100
AcDbEntity
  8
0
 62
7
100
AcDbPolyline
 90
2
 70
0
 10
3.452500
 20
0.510743
 30
0.0
 10
3.222500
 20
0.510743
 30
0.0
  0
LWPOLYLINE
  5
14d
100
AcDbEntity
  8
0
 62
7
100
AcDbPolyline
 90
1
 70
1
 10
2.759500
 20
2.828922
 30
0.0
  0
SPLINE
  5
14e
100
AcDbEntity
  8
0
 62
7
100
AcDbSpline
 70
8
 71
3
 72
8
 73
4
 74
0
 40
0
 40
0
 40
0
 40
0
 40
1
 40
1
 40
1
 40
1
 10
0.587500
 20
12.665743
 30
0.0
 10
0.530338
 20
12.665743
 30
0.0
 10
0.477517
 20
12.635248
 30
0.0
 10
0.448936
 20
12.585743
 30
0.0
  0
SPLINE
  5
14f
100
AcDbEntity
  8
0
 62
7
100
AcDbSpline
 70
8
 71
3
 72
8
 73
4
 74
0
 40
0
 40
0
 40
0
 40
0
 40
1
 40
1
 40
1
 40
1
 10
0.448936
 20
12.585743
 30
0.0
 10
0.420355
 20
12.536239
 30
0.0
 10
0.420355
 20
12.475248
 30
0.0
 10
0.448936
 20
12.425743
 30
0.0
  0
SPLINE
  5
150
100
AcDbEntity
  8
0
 62
7
100
AcDbSpline
 70
8
 71
3
 72
8
 73
4
 74
0
 40
0
 40
0
 40
0
 40
0
 40
1
 40
1
 40
1
 40
1
 10
0.448936
 20
12.425743
 30
0.0
 10
0.477517
 20
12.376239
 30
0.0
 10
0.530338
 20
12.345743
 30
0.0
 10
0.587500
 20
12.345743
 30
0.0
  0
LWPOLYLINE
  5
151
100
AcDbEntity
  8
0
 62
7
100
AcDbPolyline
 90
2
 70
0
 10
0.002500
 20
0.000743
 30
0.0
 10
0.002500
 20
12.857520
 30
0.0
  0
SPLINE
  5
152
100
AcDbEntity
  8
0
 62
7
100
AcDbSpline
 70
8
 71
3
 72
8
 73
4
 74
0
 40
0
 40
0
 40
0
 40
0
 40
1
 40
1
 40
1
 40
1
 10
0.367500
 20
1.965743
 30
0.0
 10
0.290652
 20
1.965743
 30
0.0
 10
0.221371
 20
1.919451
 30
0.0
 10
0.191963
 20
1.848453
 30
0.0
  0
SPLINE
  5
153
100
AcDbEntity
  8
0
 62
7
100
AcDbSpline
 70
8
 71
3
 72
8
 73
4
 74
0
 40
0
 40
0
 40
0
 40
0
 40
1
 40
1
 40
1
 40
1
 10
0.191963
 20
1.848453
 30
0.0
 10
0.162554
 20
1.777455
 30
0.0
 10
0.178810
 20
1.695733
 30
0.0
 10
0.233150
 20
1.641393
 30
0.0
  0
SPLINE
  5
154
100
AcDbEntity
  8
0
 62
7
100
AcDbSpline
 70
8
 71
3
 72
8
 73
4
 74
0
 40
0
 40
0
 40
0
 40
0
 40
1
 40
1
 40
1
 40
1
 10
0.233150
 20
1.641393
 30
0.0
 10
0.287489
 20
1.587053
 30
0.0
 10
0.369212
 20
1.570798
 30
0.0
 10
0.440210
 20
1.600206
 30
0.0
  0
SPLINE
  5
155
100
AcDbEntity
  8
0
 62
7
100
AcDbSpline
 70
8
 71
3
 72
8
 73
4
 74
0
 40
0
 40
0
 40
0
 40
0
 40
1
 40
1
 40
1
 40
1
 10
0.440210
 20
1.600206
 30
0.0
 10
0.511208
 20
1.629615
 30
0.0
 10
0.557500
 20
1.698896
 30
0.0
 10
0.557500
 20
1.775743
 30
0.0
  0
SPLINE
  5
156
100
AcDbEntity
  8
0
 62
7
100
AcDbSpline
 70
8
 71
3
 72
8
 73
4
 74
0
 40
0
 40
0
 40
0
 40
0
 40
1
 40
1
 40
1
 40
1
 10
0.557500
 20
1.775743
 30
0.0
 10
0.557500
 20
1.826135
 30
0.0
 10
0.537482
 20
1.874462
 30
0.0
 10
0.501850
 20
1.910094
 30
0.0
  0
SPLINE
  5
157
100
AcDbEntity
  8
0
 62
7
100
AcDbSpline
 70
8
 71
3
 72
8
 73
4
 74
0
 40
0
 40
0
 40
0
 40
0
 40
1
 40
1
 40
1
 40
1
 10
0.501850
 20
1.910094
 30
0.0
 10
0.466218
 20
1.945726
 30
0.0
 10
0.417891
 20
1.965743
 30
0.0
 10
0.367500
 20
1.965743
 30
0.0
  0
LWPOLYLINE
  5
158
100
AcDbEntity
  8
0
 62
7
100
AcDbPolyline
 90
2
 70
0
 10
4.037500
 20
0.000743
 30
0.0
 10
0.002500
 20
0.000743
 30
0.0
  0
SPLINE
  5
159
100
AcDbEntity
  8
0
 62
7
100
AcDbSpline
 70
8
 71
3
 72
8
 73
4
 74
0
 40
0
 40
0
 40
0
 40
0
 40
1
 40
1
 40
1
 40
1
 10
3.222500
 20
12.665743
 30
0.0
 10
3.165338
 20
12.665743
 30
0.0
 10
3.112517
 20
12.635248
 30
0.0
 10
3.083936
 20
12.585743
 30
0.0
  0
SPLINE
  5
15a
100
AcDbEntity
  8
0
 62
7
100
AcDbSpline
 70
8
 71
3
 72
8
 73
4
 74
0
 40
0
 40
0
 40
0
 40
0
 40
1
 40
1
 40
1
 40
1
 10
3.083936
 20
12.585743
 30
0.0
 10
3.055355
 20
12.536239
 30
0.0
 10
3.055355
 20
12.475248
 30
0.0
 10
3.083936
 20
12.425743
 30
0.0
  0
SPLINE
  5
15b
100
AcDbEntity
  8
0
 62
7
100
AcDbSpline
 70
8
 71
3
 72
8
 73
4
 74
0
 40
0
 40
0
 40
0
 40
0
 40
1
 40
1
 40
1
 40
1
 10
3.083936
 20
12.425743
 30
0.0
 10
3.112517
 20
12.376239
 30
0.0
 10
3.165338
 20
12.345743
 30
0.0
 10
3.222500
 20
12.345743
 30
0.0
  0
SPLINE
  5
15c
100
AcDbEntity
  8
0
 62
7
100
AcDbSpline
 70
8
 71
3
 72
8
 73
4
 74
0
 40
0
 40
0
 40
0
 40
0
 40
1
 40
1
 40
1
 40
1
 10
0.367500
 20
11.265743
 30
0.0
 10
0.290652
 20
11.265743
 30
0.0
 10
0.221371
 20
11.219451
 30
0.0
 10
0.191963
 20
11.148453
 30
0.0
  0
SPLINE
  5
15d
100
AcDbEntity
  8
0
 62
7
100
AcDbSpline
 70
8
 71
3
 72
8
 73
4
 74
0
 40
0
 40
0
 40
0
 40
0
 40
1
 40
1
 40
1
 40
1
 10
0.191963
 20
11.148453
 30
0.0
 10
0.162554
 20
11.077455
 30
0.0
 10
0.178810
 20
10.995733
 30
0.0
 10
0.233150
 20
10.941393
 30
0.0
  0
SPLINE
  5
15e
100
AcDbEntity
  8
0
 62
7
100
AcDbSpline
 70
8
 71
3
 72
8
 73
4
 74
0
 40
0
 40
0
 40
0
 40
0
 40
1
 40
1
 40
1
 40
1
 10
0.233150
 20
10.941393
 30
0.0
 10
0.287489
 20
10.887053
 30
0.0
 10
0.369212
 20
10.870798
 30
0.0
 10
0.440210
 20
10.900206
 30
0.0
  0
SPLINE
  5
15f
100
AcDbEntity
  8
0
 62
7
100
AcDbSpline
 70
8
 71
3
 72
8
 73
4
 74
0
 40
0
 40
0
 40
0
 40
0
 40
1
 40
1
 40
1
 40
1
 10
0.440210
 20
10.900206
 30
0.0
 10
0.511208
 20
10.929615
 30
0.0
 10
0.557500
 20
10.998896
 30
0.0
 10
0.557500
 20
11.075743
 30
0.0
  0
SPLINE
  5
160
100
AcDbEntity
  8
0
 62
7
100
AcDbSpline
 70
8
 71
3
 72
8
 73
4
 74
0
 40
0
 40
0
 40
0
 40
0
 40
1
 40
1
 40
1
 40
1
 10
0.557500
 20
11.075743
 30
0.0
 10
0.557500
 20
11.126135
 30
0.0
 10
0.537482
 20
11.174462
 30
0.0
 10
0.501850
 20
11.210094
 30
0.0
  0
SPLINE
  5
161
100
AcDbEntity
  8
0
 62
7
100
AcDbSpline
 70
8
 71
3
 72
8
 73
4
 74
0
 40
0
 40
0
 40
0
 40
0
 40
1
 40
1
 40
1
 40
1
 10
0.501850
 20
11.210094
 30
0.0
 10
0.466218
 20
11.245726
 30
0.0
 10
0.417891
 20
11.265743
 30
0.0
 10
0.367500
 20
11.265743
 30
0.0
  0
LWPOLYLINE
  5
162
100
AcDbEntity
  8
0
 62
7
100
AcDbPolyline
 90
1
 70
1
 10
0.367500
 20
1.965743
 30
0.0
  0
LWPOLYLINE
  5
163
100
AcDbEntity
  8
0
 62
7
100
AcDbPolyline
 90
1
 70
1
 10
0.367500
 20
11.265743
 30
0.0
  0
LWPOLYLINE
  5
164
100
AcDbEntity
  8
0
 62
7
100
AcDbPolyline
 90
2
 70
0
 10
3.972500
 20
5.925743
 30
0.0
 10
3.972500
 20
4.685743
 30
0.0
  0
LWPOLYLINE
  5
165
100
AcDbEntity
  8
0
 62
7
100
AcDbPolyline
 90
2
 70
0
 10
3.377500
 20
5.925743
 30
0.0
 10
3.972500
 20
5.925743
 30
0.0
  0
LWPOLYLINE
  5
166
100
AcDbEntity
  8
0
 62
7
100
AcDbPolyline
 90
2
 70
0
 10
0.817500
 20
12.665743
 30
0.0
 10
0.587500
 20
12.665743
 30
0.0
  0
LWPOLYLINE
  5
167
100
AcDbEntity
  8
0
 62
7
100
AcDbPolyline
 90
2
 70
0
 10
2.595500
 20
7.440743
 30
0.0
 10
2.595500
 20
8.352743
 30
0.0
  0
SPLINE
  5
168
100
AcDbEntity
  8
0
 62
7
100
AcDbSpline
 70
8
 71
3
 72
8
 73
4
 74
0
 40
0
 40
0
 40
0
 40
0
 40
1
 40
1
 40
1
 40
1
 10
3.667500
 20
1.965743
 30
0.0
 10
3.590652
 20
1.965743
 30
0.0
 10
3.521371
 20
1.919451
 30
0.0
 10
3.491963
 20
1.848453
 30
0.0
  0
SPLINE
  5
169
100
AcDbEntity
  8
0
 62
7
100
AcDbSpline
 70
8
 71
3
 72
8
 73
4
 74
0
 40
0
 40
0
 40
0
 40
0
 40
1
 40
1
 40
1
 40
1
 10
3.491963
 20
1.848453
 30
0.0
 10
3.462554
 20
1.777455
 30
0.0
 10
3.478810
 20
1.695733
 30
0.0
 10
3.533150
 20
1.641393
 30
0.0
  0
SPLINE
  5
16a
100
AcDbEntity
  8
0
 62
7
100
AcDbSpline
 70
8
 71
3
 72
8
 73
4
 74
0
 40
0
 40
0
 40
0
 40
0
 40
1
 40
1
 40
1
 40
1
 10
3.533150
 20
1.641393
 30
0.0
 10
3.587489
 20
1.587053
 30
0.0
 10
3.669212
 20
1.570798
 30
0.0
 10
3.740210
 20
1.600206
 30
0.0
  0
SPLINE
  5
16b
100
AcDbEntity
  8
0
 62
7
100
AcDbSpline
 70
8
 71
3
 72
8
 73
4
 74
0
 40
0
 40
0
 40
0
 40
0
 40
1
 40
1
 40
1
 40
1
 10
3.740210
 20
1.600206
 30
0.0
 10
3.811208
 20
1.629615
 30
0.0
 10
3.857500
 20
1.698896
 30
0.0
 10
3.857500
 20
1.775743
 30
0.0
  0
SPLINE
  5
16c
100
AcDbEntity
  8
0
 62
7
100
AcDbSpline
 70
8
 71
3
 72
8
 73
4
 74
0
 40
0
 40
0
 40
0
 40
0
 40
1
 40
1
 40
1
 40
1
 10
3.857500
 20
1.775743
 30
0.0
 10
3.857500
 20
1.880678
 30
0.0
 10
3.772434
 20
1.965743
 30
0.0
 10
3.667500
 20
1.965743
 30
0.0
  0
LWPOLYLINE
  5
16d
100
AcDbEntity
  8
0
 62
7
100
AcDbPolyline
 90
2
 70
0
 10
3.452500
 20
0.190743
 30
0.0
 10
3.222500
 20
0.190743
 30
0.0
  0
SPLINE
  5
16e
100
AcDbEntity
  8
0
 62
7
100
AcDbSpline
 70
8
 71
3
 72
8
 73
4
 74
0
 40
0
 40
0
 40
0
 40
0
 40
1
 40
1
 40
1
 40
1
 10
3.222500
 20
0.510743
 30
0.0
 10
3.165338
 20
0.510743
 30
0.0
 10
3.112517
 20
0.480248
 30
0.0
 10
3.083936
 20
0.430743
 30
0.0
  0
SPLINE
  5
16f
100
AcDbEntity
  8
0
 62
7
100
AcDbSpline
 70
8
 71
3
 72
8
 73
4
 74
0
 40
0
 40
0
 40
0
 40
0
 40
1
 40
1
 40
1
 40
1
 10
3.083936
 20
0.430743
 30
0.0
 10
3.055355
 20
0.381239
 30
0.0
 10
3.055355
 20
0.320248
 30
0.0
 10
3.083936
 20
0.270743
 30
0.0
  0
SPLINE
  5
170
100
AcDbEntity
  8
0
 62
7
100
AcDbSpline
 70
8
 71
3
 72
8
 73
4
 74
0
 40
0
 40
0
 40
0
 40
0
 40
1
 40
1
 40
1
 40
1
 10
3.083936
 20
0.270743
 30
0.0
 10
3.112517
 20
0.221239
 30
0.0
 10
3.165338
 20
0.190743
 30
0.0
 10
3.222500
 20
0.190743
 30
0.0
  0
SPLINE
  5
171
100
AcDbEntity
  8
0
 62
7
100
AcDbSpline
 70
8
 71
3
 72
8
 73
4
 74
0
 40
0
 40
0
 40
0
 40
0
 40
1
 40
1
 40
1
 40
1
 10
0.817500
 20
0.190743
 30
0.0
 10
0.874662
 20
0.190743
 30
0.0
 10
0.927483
 20
0.221239
 30
0.0
 10
0.956064
 20
0.270743
 30
0.0
  0
SPLINE
  5
172
100
AcDbEntity
  8
0
 62
7
100
AcDbSpline
 70
8
 71
3
 72
8
 73
4
 74
0
 40
0
 40
0
 40
0
 40
0
 40
1
 40
1
 40
1
 40
1
 10
0.956064
 20
0.270743
 30
0.0
 10
0.984645
 20
0.320248
 30
0.0
 10
0.984645
 20
0.381239
 30
0.0
 10
0.956064
 20
0.430743
 30
0.0
  0
SPLINE
  5
173
100
AcDbEntity
  8
0
 62
7
100
AcDbSpline
 70
8
 71
3
 72
8
 73
4
 74
0
 40
0
 40
0
 40
0
 40
0
 40
1
 40
1
 40
1
 40
1
 10
0.956064
 20
0.430743
 30
0.0
 10
0.927483
 20
0.480248
 30
0.0
 10
0.874662
 20
0.510743
 30
0.0
 10
0.817500
 20
0.510743
 30
0.0
  0
LWPOLYLINE
  5
174
100
AcDbEntity
  8
0
 62
7
100
AcDbPolyline
 90
1
 70
1
 10
3.667500
 20
1.965743
 30
0.0
  0
SPLINE
  5
175
100
AcDbEntity
  8
0
 62
7
100
AcDbSpline
 70
8
 71
3
 72
8
 73
4
 74
0
 40
0
 40
0
 40
0
 40
0
 40
1
 40
1
 40
1
 40
1
 10
3.667500
 20
11.265743
 30
0.0
 10
3.590652
 20
11.265743
 30
0.0
 10
3.521371
 20
11.219451
 30
0.0
 10
3.491963
 20
11.148453
 30
0.0
  0
SPLINE
  5
176
100
AcDbEntity
  8
0
 62
7
100
AcDbSpline
 70
8
 71
3
 72
8
 73
4
 74
0
 40
0
 40
0
 40
0
 40
0
 40
1
 40
1
 40
1
 40
1
 10
3.491963
 20
11.148453
 30
0.0
 10
3.462554
 20
11.077455
 30
0.0
 10
3.478810
 20
10.995733
 30
0.0
 10
3.533150
 20
10.941393
 30
0.0
  0
SPLINE
  5
177
100
AcDbEntity
  8
0
 62
7
100
AcDbSpline
 70
8
 71
3
 72
8
 73
4
 74
0
 40
0
 40
0
 40
0
 40
0
 40
1
 40
1
 40
1
 40
1
 10
3.533150
 20
10.941393
 30
0.0
 10
3.587489
 20
10.887053
 30
0.0
 10
3.669212
 20
10.870798
 30
0.0
 10
3.740210
 20
10.900206
 30
0.0
  0
SPLINE
  5
178
100
AcDbEntity
  8
0
 62
7
100
AcDbSpline
 70
8
 71
3
 72
8
 73
4
 74
0
 40
0
 40
0
 40
0
 40
0
 40
1
 40
1
 40
1
 40
1
 10
3.740210
 20
10.900206
 30
0.0
 10
3.811208
 20
10.929615
 30
0.0
 10
3.857500
 20
10.998896
 30
0.0
 10
3.857500
 20
11.075743
 30
0.0
  0
SPLINE
  5
179
100
AcDbEntity
  8
0
 62
7
100
AcDbSpline
 70
8
 71
3
 72
8
 73
4
 74
0
 40
0
 40
0
 40
0
 40
0
 40
1
 40
1
 40
1
 40
1
 10
3.857500
 20
11.075743
 30
0.0
 10
3.857500
 20
11.180678
 30
0.0
 10
3.772434
 20
11.265743
 30
0.0
 10
3.667500
 20
11.265743
 30
0.0
  0
LWPOLYLINE
  5
17a
100
AcDbEntity
  8
0
 62
7
100
AcDbPolyline
 90
2
 70
0
 10
3.771500
 20
8.351743
 30
0.0
 10
3.771500
 20
7.439743
 30
0.0
  0
LWPOLYLINE
  5
17b
100
AcDbEntity
  8
0
 62
7
100
AcDbPolyline
 90
1
 70
1
 10
3.667500
 20
11.265743
 30
0.0
  0
LWPOLYLINE
  5
17c
100
AcDbEntity
  8
0
 62
7
100
AcDbPolyline
 90
2
 70
0
 10
3.452500
 20
12.345743
 30
0.0
 10
3.222500
 20
12.345743
 30
0.0
  0
ENDSEC
  0
SECTION
  2
OBJECTS
  0
DICTIONARY
  5
C
330
0
100
AcDbDictionary
  3
ACAD_GROUP
350
D
  3
ACAD_MLINESTYLE
350
17
  0
DICTIONARY
  5
D
330
C
100
AcDbDictionary
  0
DICTIONARY
  5
1A
330
C
100
AcDbDictionary
  0
DICTIONARY
  5
17
330
C
100
AcDbDictionary
  3
STANDARD
350
18
  0
DICTIONARY
  5
19
330
C
100
AcDbDictionary
  0
ENDSEC
  0
EOF
