<?xml version="1.0" standalone="no"?>
 <!DOCTYPE svg PUBLIC "-//W3C//DTD SVG 1.1//EN" 
 "http://www.w3.org/Graphics/SVG/1.1/DTD/svg11.dtd"> 
<svg
  xmlns:svg="http://www.w3.org/2000/svg"
  xmlns="http://www.w3.org/2000/svg"
  xmlns:xlink="http://www.w3.org/1999/xlink"
  version="1.1"
  width="4.046220cm" height="12.860020cm" viewBox="0 0 40462200 128600200">
<title>SVG Picture created as _rupture_panel-Edge_Cuts.svg date 2023/07/12 20:01:40 </title>
  <desc>Picture generated by PCBNEW </desc>
<g style="fill:#000000; fill-opacity:1.000000;stroke:#000000; stroke-opacity:1.000000;
stroke-linecap:round; stroke-linejoin:round;"
 transform="translate(0 0) scale(1 1)">
</g>
<g style="fill:#000000; fill-opacity:0.0; 
stroke:#000000; stroke-width:0.000000; stroke-opacity:1; 
stroke-linecap:round; stroke-linejoin:round;">
</g>
<g style="fill:#000000; fill-opacity:0.0; 
stroke:#000000; stroke-width:50000.000000; stroke-opacity:1; 
stroke-linecap:round; stroke-linejoin:round;">
<circle cx="27964641.000000" cy="22732766.000000" r="6220359.000000" /> 
<circle cx="9285000.000000" cy="85232537.000000" r="4740230.000000" /> 
<circle cx="9445000.000000" cy="56932537.000000" r="4740230.000000" /> 
<circle cx="9445000.000000" cy="42822537.000000" r="4740230.000000" /> 
</g>
<g style="fill:#000000; fill-opacity:0.0; 
stroke:#000000; stroke-width:100000.000000; stroke-opacity:1; 
stroke-linecap:round; stroke-linejoin:round;">
<path d="M25955000 38442766
L37715000 38442766
" />
<path d="M25955000 45072766
L25955000 38442766
" />
<path d="M37715000 38442766
L37715000 45082766
" />
<path d="M20435000 13902766
L20435000 29392766
" />
<path d="M8675000 13892766
L20435000 13902766
" />
<path d="M8675000 20482766
L8675000 13892766
" />
<path d="M8675000 35992766
L8675000 20482766
" />
<path d="M20435000 36002766
L8675000 35992766
" />
<path d="M20435000 29392766
L20435000 36002766
" />
<path d="M8775000 107872766
L8775000 92592766
" />
<path d="M20535000 92602766
L20535000 107882766
" />
<path d="M8775000 92592766
L20535000 92602766
" />
<path d="M8775000 114492766
L8775000 107872766
" />
<path d="M20535000 107882766
L20535000 114502766
" />
<path d="M20535000 114502766
L8775000 114492766
" />
</g>
<g style="fill:#000000; fill-opacity:0.0; 
stroke:#000000; stroke-width:50000.000000; stroke-opacity:1; 
stroke-linecap:round; stroke-linejoin:round;">
<path d="M34525000.000000 5142766.000000 A1600000.000000 1600000.000000 0.0 0 0 34525000.000000 1942766.000000" />
<path d="M8175000 126692766
L5875000 126692766
" />
<path d="M40375000 128592766
L40375000 25000
" />
<circle cx="9285000.000000" cy="71058686.000000" r="4740230.000000" /> 
<path d="M25000 25000
L40375000 25000
" />
<path d="M33775000 81742766
L39725000 81742766
" />
<path d="M33775000 69342766
L33775000 81742766
" />
<path d="M5875000.000000 123492766.000000 A1600000.000000 1600000.000000 0.0 0 0 5875000.000000 126692766.000000" />
<path d="M34525000 1942766
L32225000 1942766
" />
<path d="M8175000.000000 5142766.000000 A1600000.000000 1600000.000000 0.0 0 0 8175000.000000 1942766.000000" />
<path d="M8175000 5142766
L5875000 5142766
" />
</g>
<g style="fill:#000000; fill-opacity:0.0; 
stroke:#000000; stroke-width:100000.000000; stroke-opacity:1; 
stroke-linecap:round; stroke-linejoin:round;">
<path d="M37715000 54202766
L25955000 54192766
" />
</g>
<g style="fill:#000000; fill-opacity:0.0; 
stroke:#000000; stroke-width:50000.000000; stroke-opacity:1; 
stroke-linecap:round; stroke-linejoin:round;">
<path d="M8175000 123492766
L5875000 123492766
" />
<path d="M34525000 123492766
L32225000 123492766
" />
<path d="M34525000.000000 126692766.000000 A1600000.000000 1600000.000000 0.0 0 0 34525000.000000 123492766.000000" />
<circle cx="27595000.000000" cy="106531341.000000" r="6220359.000000" /> 
<path d="M25000 128592766
L25000 25000
" />
<path d="M5875000.000000 1942766.000000 A1600000.000000 1600000.000000 0.0 0 0 5875000.000000 5142766.000000" />
<path d="M40375000 128592766
L25000 128592766
" />
<circle cx="3675000.000000" cy="110842766.000000" r="1900000.000000" /> 
<path d="M32225000.000000 1942766.000000 A1600000.000000 1600000.000000 0.0 0 0 32225000.000000 5142766.000000" />
<circle cx="3675000.000000" cy="17842766.000000" r="1900000.000000" /> 
<path d="M39725000 69342766
L39725000 81742766
" />
<path d="M33775000 69342766
L39725000 69342766
" />
<path d="M8175000 1942766
L5875000 1942766
" />
</g>
<g style="fill:#000000; fill-opacity:0.0; 
stroke:#000000; stroke-width:100000.000000; stroke-opacity:1; 
stroke-linecap:round; stroke-linejoin:round;">
<path d="M25955000 54192766
L25955000 45072766
" />
</g>
<g style="fill:#000000; fill-opacity:0.0; 
stroke:#000000; stroke-width:50000.000000; stroke-opacity:1; 
stroke-linecap:round; stroke-linejoin:round;">
<path d="M34525000 126692766
L32225000 126692766
" />
<circle cx="36675000.000000" cy="110842766.000000" r="1900000.000000" /> 
<path d="M32225000.000000 123492766.000000 A1600000.000000 1600000.000000 0.0 0 0 32225000.000000 126692766.000000" />
<path d="M8175000.000000 126692766.000000 A1600000.000000 1600000.000000 0.0 0 0 8175000.000000 123492766.000000" />
</g>
<g style="fill:#000000; fill-opacity:0.0; 
stroke:#000000; stroke-width:100000.000000; stroke-opacity:1; 
stroke-linecap:round; stroke-linejoin:round;">
<path d="M37715000 45082766
L37715000 54202766
" />
</g>
<g style="fill:#000000; fill-opacity:0.0; 
stroke:#000000; stroke-width:50000.000000; stroke-opacity:1; 
stroke-linecap:round; stroke-linejoin:round;">
<circle cx="36675000.000000" cy="17842766.000000" r="1900000.000000" /> 
<path d="M34525000 5142766
L32225000 5142766
" />
<g >
</g>
<g >
</g>
<g >
</g>
</g> 
</svg>
