<?xml version="1.0" standalone="no"?>
 <!DOCTYPE svg PUBLIC "-//W3C//DTD SVG 1.1//EN" 
 "http://www.w3.org/Graphics/SVG/1.1/DTD/svg11.dtd"> 
<svg
  xmlns:svg="http://www.w3.org/2000/svg"
  xmlns="http://www.w3.org/2000/svg"
  xmlns:xlink="http://www.w3.org/1999/xlink"
  version="1.1"
  width="4.046220cm" height="12.860020cm" viewBox="0 0 40462200 128600200">
<title>SVG Picture created as _rupture_panel-F_Silkscreen.svg date 2023/07/12 20:01:40 </title>
  <desc>Picture generated by PCBNEW </desc>
<g style="fill:#000000; fill-opacity:1.000000;stroke:#000000; stroke-opacity:1.000000;
stroke-linecap:round; stroke-linejoin:round;"
 transform="translate(0 0) scale(1 1)">
</g>
<g style="fill:#000000; fill-opacity:0.0; 
stroke:#000000; stroke-width:0.000000; stroke-opacity:1; 
stroke-linecap:round; stroke-linejoin:round;">
</g>
<g style="fill:#000000; fill-opacity:0.0; 
stroke:#000000; stroke-width:120000.000000; stroke-opacity:1; 
stroke-linecap:round; stroke-linejoin:round;">
<path d="M16225000 59542766
L16225000 36692766
" />
<path d="M16225000 90492766
L16225000 67642766
" />
</g>
<g style="fill:#000000; fill-opacity:0.0; 
stroke:#000000; stroke-width:50000.000000; stroke-opacity:1; 
stroke-linecap:round; stroke-linejoin:round;">
<circle cx="33375000.000000" cy="3542766.000000" r="1600000.000000" /> 
<circle cx="7025000.000000" cy="3542766.000000" r="1600000.000000" /> 
<circle cx="7025000.000000" cy="125092766.000000" r="1600000.000000" /> 
<circle cx="33375000.000000" cy="125092766.000000" r="1600000.000000" /> 
</g>
<g style="fill:#000000; fill-opacity:0.0; 
stroke:#000000; stroke-width:500000.000000; stroke-opacity:1; 
stroke-linecap:round; stroke-linejoin:round;">
<text x="10875000.000000" y="120235266.000000"
textLength="20200000.000000" font-size="6666666.000000" lengthAdjust="spacingAndGlyphs"
text-anchor="start" opacity="0">_^ 06</text>
<g class="stroked-text"><desc>_^ 06</desc>
<path d="M11200000 120473361
L15009523 120473361
" />
<path d="M15485714 115473361
L16438095 114759075
L17390476 115473361
" />
<path d="M23819047 114997170
L24295238 114997170
L24771428 115235266
L25009523 115473361
L25247619 115949551
L25485714 116901932
L25485714 118092408
L25247619 119044789
L25009523 119520980
L24771428 119759075
L24295238 119997170
L23819047 119997170
L23342857 119759075
L23104761 119520980
L22866666 119044789
L22628571 118092408
L22628571 116901932
L22866666 115949551
L23104761 115473361
L23342857 115235266
L23819047 114997170
" />
<path d="M29771428 114997170
L28819047 114997170
L28342857 115235266
L28104761 115473361
L27628571 116187646
L27390476 117140027
L27390476 119044789
L27628571 119520980
L27866666 119759075
L28342857 119997170
L29295238 119997170
L29771428 119759075
L30009523 119520980
L30247619 119044789
L30247619 117854313
L30009523 117378123
L29771428 117140027
L29295238 116901932
L28342857 116901932
L27866666 117140027
L27628571 117378123
L27390476 117854313
" />
</g></g>
<g style="fill:#000000; fill-opacity:0.0; 
stroke:#000000; stroke-width:300000.000000; stroke-opacity:1; 
stroke-linecap:round; stroke-linejoin:round;">
<text x="28575000.000000" y="32692766.000000"
textLength="13792857.000000" font-size="2666666.000000" lengthAdjust="spacingAndGlyphs"
text-anchor="middle" opacity="0">VIDEO_IN</text>
<g class="stroked-text"><desc>VIDEO_IN</desc>
<path d="M22194047 30597527
L22860714 32597527
L23527380 30597527
" />
<path d="M24194047 32597527
L24194047 30597527
" />
<path d="M25146428 32597527
L25146428 30597527
L25622619 30597527
L25908333 30692766
L26098809 30883242
L26194047 31073718
L26289285 31454670
L26289285 31740385
L26194047 32121337
L26098809 32311813
L25908333 32502289
L25622619 32597527
L25146428 32597527
" />
<path d="M27146428 31549908
L27813095 31549908
" />
<path d="M28098809 32597527
L27146428 32597527
L27146428 30597527
L28098809 30597527
" />
<path d="M29336904 30597527
L29717857 30597527
L29908333 30692766
L30098809 30883242
L30194047 31264194
L30194047 31930861
L30098809 32311813
L29908333 32502289
L29717857 32597527
L29336904 32597527
L29146428 32502289
L28955952 32311813
L28860714 31930861
L28860714 31264194
L28955952 30883242
L29146428 30692766
L29336904 30597527
" />
<path d="M30575000 32788004
L32098809 32788004
" />
<path d="M32575000 32597527
L32575000 30597527
" />
<path d="M33527380 32597527
L33527380 30597527
L34670238 32597527
L34670238 30597527
" />
</g></g>
<g style="fill:#000000; fill-opacity:0.0; 
stroke:#000000; stroke-width:200000.000000; stroke-opacity:1; 
stroke-linecap:round; stroke-linejoin:round;">
<text x="36725000.000000" y="83442766.000000"
textLength="7199524.000000" font-size="1333333.000000" lengthAdjust="spacingAndGlyphs"
text-anchor="middle" opacity="0">regulator</text>
<g class="stroked-text"><desc>regulator</desc>
<path d="M33558333 83395146
L33558333 82728480
" />
<path d="M33558333 82918956
L33605952 82823718
L33653571 82776099
L33748809 82728480
L33844047 82728480
" />
<path d="M34558333 83347527
L34463095 83395146
L34272619 83395146
L34177380 83347527
L34129761 83252289
L34129761 82871337
L34177380 82776099
L34272619 82728480
L34463095 82728480
L34558333 82776099
L34605952 82871337
L34605952 82966575
L34129761 83061813
" />
<path d="M35463095 82728480
L35463095 83538004
L35415476 83633242
L35367857 83680861
L35272619 83728480
L35129761 83728480
L35034523 83680861
" />
<path d="M35463095 83347527
L35367857 83395146
L35177380 83395146
L35082142 83347527
L35034523 83299908
L34986904 83204670
L34986904 82918956
L35034523 82823718
L35082142 82776099
L35177380 82728480
L35367857 82728480
L35463095 82776099
" />
<path d="M36367857 82728480
L36367857 83395146
" />
<path d="M35939285 82728480
L35939285 83252289
L35986904 83347527
L36082142 83395146
L36225000 83395146
L36320238 83347527
L36367857 83299908
" />
<path d="M36986904 83395146
L36891666 83347527
L36844047 83252289
L36844047 82395146
" />
<path d="M37796428 83395146
L37796428 82871337
L37748809 82776099
L37653571 82728480
L37463095 82728480
L37367857 82776099
" />
<path d="M37796428 83347527
L37701190 83395146
L37463095 83395146
L37367857 83347527
L37320238 83252289
L37320238 83157051
L37367857 83061813
L37463095 83014194
L37701190 83014194
L37796428 82966575
" />
<path d="M38129761 82728480
L38510714 82728480
" />
<path d="M38272619 82395146
L38272619 83252289
L38320238 83347527
L38415476 83395146
L38510714 83395146
" />
<path d="M38986904 83395146
L38891666 83347527
L38844047 83299908
L38796428 83204670
L38796428 82918956
L38844047 82823718
L38891666 82776099
L38986904 82728480
L39129761 82728480
L39225000 82776099
L39272619 82823718
L39320238 82918956
L39320238 83204670
L39272619 83299908
L39225000 83347527
L39129761 83395146
L38986904 83395146
" />
<path d="M39748809 83395146
L39748809 82728480
" />
<path d="M39748809 82918956
L39796428 82823718
L39844047 82776099
L39939285 82728480
L40034523 82728480
" />
</g></g>
<g style="fill:#000000; fill-opacity:0.0; 
stroke:#000000; stroke-width:300000.000000; stroke-opacity:1; 
stroke-linecap:round; stroke-linejoin:round;">
<text x="31475000.000000" y="57292766.000000"
textLength="8902857.000000" font-size="2000000.000000" lengthAdjust="spacingAndGlyphs"
text-anchor="middle" opacity="0">ROUTER</text>
<g class="stroked-text"><desc>ROUTER</desc>
<path d="M28367857 57221337
L27867857 56507051
" />
<path d="M27510714 57221337
L27510714 55721337
L28082142 55721337
L28225000 55792766
L28296428 55864194
L28367857 56007051
L28367857 56221337
L28296428 56364194
L28225000 56435623
L28082142 56507051
L27510714 56507051
" />
<path d="M29296428 55721337
L29582142 55721337
L29725000 55792766
L29867857 55935623
L29939285 56221337
L29939285 56721337
L29867857 57007051
L29725000 57149908
L29582142 57221337
L29296428 57221337
L29153571 57149908
L29010714 57007051
L28939285 56721337
L28939285 56221337
L29010714 55935623
L29153571 55792766
L29296428 55721337
" />
<path d="M30582142 55721337
L30582142 56935623
L30653571 57078480
L30725000 57149908
L30867857 57221337
L31153571 57221337
L31296428 57149908
L31367857 57078480
L31439285 56935623
L31439285 55721337
" />
<path d="M31939285 55721337
L32796428 55721337
" />
<path d="M32367857 57221337
L32367857 55721337
" />
<path d="M33296428 56435623
L33796428 56435623
" />
<path d="M34010714 57221337
L33296428 57221337
L33296428 55721337
L34010714 55721337
" />
<path d="M35510714 57221337
L35010714 56507051
" />
<path d="M34653571 57221337
L34653571 55721337
L35225000 55721337
L35367857 55792766
L35439285 55864194
L35510714 56007051
L35510714 56221337
L35439285 56364194
L35367857 56435623
L35225000 56507051
L34653571 56507051
" />
</g></g>
<g style="fill:#000000; fill-opacity:0.0; 
stroke:#000000; stroke-width:200000.000000; stroke-opacity:1; 
stroke-linecap:round; stroke-linejoin:round;">
<g transform="rotate(-270.000000 39125000.000000 46242766.000000)">
<text x="39125000.000000" y="46992766.000000"
textLength="3461429.000000" font-size="2000000.000000" lengthAdjust="spacingAndGlyphs"
text-anchor="middle" opacity="0">UP</text>
</g>
<g class="stroked-text"><desc>UP</desc>
<path d="M39946428 45064194
L38732142 45064194
L38589285 45135623
L38517857 45207051
L38446428 45349908
L38446428 45635623
L38517857 45778480
L38589285 45849908
L38732142 45921337
L39946428 45921337
" />
<path d="M38446428 46635623
L39946428 46635623
L39946428 47207051
L39875000 47349908
L39803571 47421337
L39660714 47492766
L39446428 47492766
L39303571 47421337
L39232142 47349908
L39160714 47207051
L39160714 46635623
" />
</g></g>
<g style="fill:#000000; fill-opacity:0.0; 
stroke:#000000; stroke-width:300000.000000; stroke-opacity:1; 
stroke-linecap:round; stroke-linejoin:round;">
<text x="29775000.000000" y="99242766.000000"
textLength="16069524.000000" font-size="2666666.000000" lengthAdjust="spacingAndGlyphs"
text-anchor="middle" opacity="0">VIDEO_OUT</text>
<g class="stroked-text"><desc>VIDEO_OUT</desc>
<path d="M22060714 97147527
L22727380 99147527
L23394047 97147527
" />
<path d="M24060714 99147527
L24060714 97147527
" />
<path d="M25013095 99147527
L25013095 97147527
L25489285 97147527
L25775000 97242766
L25965476 97433242
L26060714 97623718
L26155952 98004670
L26155952 98290385
L26060714 98671337
L25965476 98861813
L25775000 99052289
L25489285 99147527
L25013095 99147527
" />
<path d="M27013095 98099908
L27679761 98099908
" />
<path d="M27965476 99147527
L27013095 99147527
L27013095 97147527
L27965476 97147527
" />
<path d="M29203571 97147527
L29584523 97147527
L29775000 97242766
L29965476 97433242
L30060714 97814194
L30060714 98480861
L29965476 98861813
L29775000 99052289
L29584523 99147527
L29203571 99147527
L29013095 99052289
L28822619 98861813
L28727380 98480861
L28727380 97814194
L28822619 97433242
L29013095 97242766
L29203571 97147527
" />
<path d="M30441666 99338004
L31965476 99338004
" />
<path d="M32822619 97147527
L33203571 97147527
L33394047 97242766
L33584523 97433242
L33679761 97814194
L33679761 98480861
L33584523 98861813
L33394047 99052289
L33203571 99147527
L32822619 99147527
L32632142 99052289
L32441666 98861813
L32346428 98480861
L32346428 97814194
L32441666 97433242
L32632142 97242766
L32822619 97147527
" />
<path d="M34536904 97147527
L34536904 98766575
L34632142 98957051
L34727380 99052289
L34917857 99147527
L35298809 99147527
L35489285 99052289
L35584523 98957051
L35679761 98766575
L35679761 97147527
" />
<path d="M36346428 97147527
L37489285 97147527
" />
<path d="M36917857 99147527
L36917857 97147527
" />
</g></g>
<g style="fill:#000000; fill-opacity:0.0; 
stroke:#000000; stroke-width:200000.000000; stroke-opacity:1; 
stroke-linecap:round; stroke-linejoin:round;">
<text x="10275000.000000" y="123285266.000000"
textLength="19961429.000000" font-size="2000000.000000" lengthAdjust="spacingAndGlyphs"
text-anchor="start" opacity="0">underscores.shop</text>
<g class="stroked-text"><desc>underscores.shop</desc>
<path d="M11405000 122213837
L11405000 123213837
" />
<path d="M10762142 122213837
L10762142 122999551
L10833571 123142408
L10976428 123213837
L11190714 123213837
L11333571 123142408
L11405000 123070980
" />
<path d="M12119285 122213837
L12119285 123213837
" />
<path d="M12119285 122356694
L12190714 122285266
L12333571 122213837
L12547857 122213837
L12690714 122285266
L12762142 122428123
L12762142 123213837
" />
<path d="M14119285 123213837
L14119285 121713837
" />
<path d="M14119285 123142408
L13976428 123213837
L13690714 123213837
L13547857 123142408
L13476428 123070980
L13405000 122928123
L13405000 122499551
L13476428 122356694
L13547857 122285266
L13690714 122213837
L13976428 122213837
L14119285 122285266
" />
<path d="M15405000 123142408
L15262142 123213837
L14976428 123213837
L14833571 123142408
L14762142 122999551
L14762142 122428123
L14833571 122285266
L14976428 122213837
L15262142 122213837
L15405000 122285266
L15476428 122428123
L15476428 122570980
L14762142 122713837
" />
<path d="M16119285 123213837
L16119285 122213837
" />
<path d="M16119285 122499551
L16190714 122356694
L16262142 122285266
L16405000 122213837
L16547857 122213837
" />
<path d="M16976428 123142408
L17119285 123213837
L17405000 123213837
L17547857 123142408
L17619285 122999551
L17619285 122928123
L17547857 122785266
L17405000 122713837
L17190714 122713837
L17047857 122642408
L16976428 122499551
L16976428 122428123
L17047857 122285266
L17190714 122213837
L17405000 122213837
L17547857 122285266
" />
<path d="M18905000 123142408
L18762142 123213837
L18476428 123213837
L18333571 123142408
L18262142 123070980
L18190714 122928123
L18190714 122499551
L18262142 122356694
L18333571 122285266
L18476428 122213837
L18762142 122213837
L18905000 122285266
" />
<path d="M19762142 123213837
L19619285 123142408
L19547857 123070980
L19476428 122928123
L19476428 122499551
L19547857 122356694
L19619285 122285266
L19762142 122213837
L19976428 122213837
L20119285 122285266
L20190714 122356694
L20262142 122499551
L20262142 122928123
L20190714 123070980
L20119285 123142408
L19976428 123213837
L19762142 123213837
" />
<path d="M20905000 123213837
L20905000 122213837
" />
<path d="M20905000 122499551
L20976428 122356694
L21047857 122285266
L21190714 122213837
L21333571 122213837
" />
<path d="M22405000 123142408
L22262142 123213837
L21976428 123213837
L21833571 123142408
L21762142 122999551
L21762142 122428123
L21833571 122285266
L21976428 122213837
L22262142 122213837
L22405000 122285266
L22476428 122428123
L22476428 122570980
L21762142 122713837
" />
<path d="M23047857 123142408
L23190714 123213837
L23476428 123213837
L23619285 123142408
L23690714 122999551
L23690714 122928123
L23619285 122785266
L23476428 122713837
L23262142 122713837
L23119285 122642408
L23047857 122499551
L23047857 122428123
L23119285 122285266
L23262142 122213837
L23476428 122213837
L23619285 122285266
" />
<path d="M24333571 123070980
L24405000 123142408
L24333571 123213837
L24262142 123142408
L24333571 123070980
L24333571 123213837
" />
<path d="M24976428 123142408
L25119285 123213837
L25405000 123213837
L25547857 123142408
L25619285 122999551
L25619285 122928123
L25547857 122785266
L25405000 122713837
L25190714 122713837
L25047857 122642408
L24976428 122499551
L24976428 122428123
L25047857 122285266
L25190714 122213837
L25405000 122213837
L25547857 122285266
" />
<path d="M26262142 123213837
L26262142 121713837
" />
<path d="M26905000 123213837
L26905000 122428123
L26833571 122285266
L26690714 122213837
L26476428 122213837
L26333571 122285266
L26262142 122356694
" />
<path d="M27833571 123213837
L27690714 123142408
L27619285 123070980
L27547857 122928123
L27547857 122499551
L27619285 122356694
L27690714 122285266
L27833571 122213837
L28047857 122213837
L28190714 122285266
L28262142 122356694
L28333571 122499551
L28333571 122928123
L28262142 123070980
L28190714 123142408
L28047857 123213837
L27833571 123213837
" />
<path d="M28976428 122213837
L28976428 123713837
" />
<path d="M28976428 122285266
L29119285 122213837
L29405000 122213837
L29547857 122285266
L29619285 122356694
L29690714 122499551
L29690714 122928123
L29619285 123070980
L29547857 123142408
L29405000 123213837
L29119285 123213837
L28976428 123142408
" />
</g></g>
<g style="fill:#000000; fill-opacity:0.0; 
stroke:#000000; stroke-width:300000.000000; stroke-opacity:1; 
stroke-linecap:round; stroke-linejoin:round;">
<text x="14125000.000000" y="65042766.000000"
textLength="24450476.000000" font-size="2666666.000000" lengthAdjust="spacingAndGlyphs"
text-anchor="middle" opacity="0">GLITCH_EFFECTS</text>
<g class="stroked-text"><desc>GLITCH_EFFECTS</desc>
<path d="M3553571 63042766
L3363095 62947527
L3077380 62947527
L2791666 63042766
L2601190 63233242
L2505952 63423718
L2410714 63804670
L2410714 64090385
L2505952 64471337
L2601190 64661813
L2791666 64852289
L3077380 64947527
L3267857 64947527
L3553571 64852289
L3648809 64757051
L3648809 64090385
L3267857 64090385
" />
<path d="M5458333 64947527
L4505952 64947527
L4505952 62947527
" />
<path d="M6125000 64947527
L6125000 62947527
" />
<path d="M6791666 62947527
L7934523 62947527
" />
<path d="M7363095 64947527
L7363095 62947527
" />
<path d="M9744047 64757051
L9648809 64852289
L9363095 64947527
L9172619 64947527
L8886904 64852289
L8696428 64661813
L8601190 64471337
L8505952 64090385
L8505952 63804670
L8601190 63423718
L8696428 63233242
L8886904 63042766
L9172619 62947527
L9363095 62947527
L9648809 63042766
L9744047 63138004
" />
<path d="M10601190 64947527
L10601190 62947527
" />
<path d="M10601190 63899908
L11744047 63899908
" />
<path d="M11744047 64947527
L11744047 62947527
" />
<path d="M12220238 65138004
L13744047 65138004
" />
<path d="M14220238 63899908
L14886904 63899908
" />
<path d="M15172619 64947527
L14220238 64947527
L14220238 62947527
L15172619 62947527
" />
<path d="M16696428 63899908
L16029761 63899908
" />
<path d="M16029761 64947527
L16029761 62947527
L16982142 62947527
" />
<path d="M18410714 63899908
L17744047 63899908
" />
<path d="M17744047 64947527
L17744047 62947527
L18696428 62947527
" />
<path d="M19458333 63899908
L20125000 63899908
" />
<path d="M20410714 64947527
L19458333 64947527
L19458333 62947527
L20410714 62947527
" />
<path d="M22410714 64757051
L22315476 64852289
L22029761 64947527
L21839285 64947527
L21553571 64852289
L21363095 64661813
L21267857 64471337
L21172619 64090385
L21172619 63804670
L21267857 63423718
L21363095 63233242
L21553571 63042766
L21839285 62947527
L22029761 62947527
L22315476 63042766
L22410714 63138004
" />
<path d="M22982142 62947527
L24125000 62947527
" />
<path d="M23553571 64947527
L23553571 62947527
" />
<path d="M24696428 64852289
L24982142 64947527
L25458333 64947527
L25648809 64852289
L25744047 64757051
L25839285 64566575
L25839285 64376099
L25744047 64185623
L25648809 64090385
L25458333 63995146
L25077380 63899908
L24886904 63804670
L24791666 63709432
L24696428 63518956
L24696428 63328480
L24791666 63138004
L24886904 63042766
L25077380 62947527
L25553571 62947527
L25839285 63042766
" />
</g></g>
<g style="fill:#000000; fill-opacity:0.0; 
stroke:#000000; stroke-width:450000.000000; stroke-opacity:1; 
stroke-linecap:round; stroke-linejoin:round;">
<text x="20225000.000000" y="10692766.000000"
textLength="25247143.000000" font-size="4000000.000000" lengthAdjust="spacingAndGlyphs"
text-anchor="middle" opacity="0">_RUPTURE_</text>
<g class="stroked-text"><desc>_RUPTURE_</desc>
<path d="M7796428 10835623
L10082142 10835623
" />
<path d="M12510714 10549908
L11510714 9121337
" />
<path d="M10796428 10549908
L10796428 7549908
L11939285 7549908
L12225000 7692766
L12367857 7835623
L12510714 8121337
L12510714 8549908
L12367857 8835623
L12225000 8978480
L11939285 9121337
L10796428 9121337
" />
<path d="M13796428 7549908
L13796428 9978480
L13939285 10264194
L14082142 10407051
L14367857 10549908
L14939285 10549908
L15225000 10407051
L15367857 10264194
L15510714 9978480
L15510714 7549908
" />
<path d="M16939285 10549908
L16939285 7549908
L18082142 7549908
L18367857 7692766
L18510714 7835623
L18653571 8121337
L18653571 8549908
L18510714 8835623
L18367857 8978480
L18082142 9121337
L16939285 9121337
" />
<path d="M19510714 7549908
L21225000 7549908
" />
<path d="M20367857 10549908
L20367857 7549908
" />
<path d="M22225000 7549908
L22225000 9978480
L22367857 10264194
L22510714 10407051
L22796428 10549908
L23367857 10549908
L23653571 10407051
L23796428 10264194
L23939285 9978480
L23939285 7549908
" />
<path d="M27082142 10549908
L26082142 9121337
" />
<path d="M25367857 10549908
L25367857 7549908
L26510714 7549908
L26796428 7692766
L26939285 7835623
L27082142 8121337
L27082142 8549908
L26939285 8835623
L26796428 8978480
L26510714 9121337
L25367857 9121337
" />
<path d="M28367857 8978480
L29367857 8978480
" />
<path d="M29796428 10549908
L28367857 10549908
L28367857 7549908
L29796428 7549908
" />
<path d="M30367857 10835623
L32653571 10835623
" />
</g></g>
<g style="fill:#000000; fill-opacity:0.0; 
stroke:#000000; stroke-width:200000.000000; stroke-opacity:1; 
stroke-linecap:round; stroke-linejoin:round;">
<g transform="rotate(-270.000000 24125000.000000 46192766.000000)">
<text x="24125000.000000" y="46942766.000000"
textLength="6942143.000000" font-size="2000000.000000" lengthAdjust="spacingAndGlyphs"
text-anchor="middle" opacity="0">DOWN</text>
</g>
<g class="stroked-text"><desc>DOWN</desc>
<path d="M23446428 43371337
L24946428 43371337
L24946428 43728480
L24875000 43942766
L24732142 44085623
L24589285 44157051
L24303571 44228480
L24089285 44228480
L23803571 44157051
L23660714 44085623
L23517857 43942766
L23446428 43728480
L23446428 43371337
" />
<path d="M24946428 45157051
L24946428 45442766
L24875000 45585623
L24732142 45728480
L24446428 45799908
L23946428 45799908
L23660714 45728480
L23517857 45585623
L23446428 45442766
L23446428 45157051
L23517857 45014194
L23660714 44871337
L23946428 44799908
L24446428 44799908
L24732142 44871337
L24875000 45014194
L24946428 45157051
" />
<path d="M24946428 46299908
L23446428 46657051
L24517857 46942766
L23446428 47228480
L24946428 47585623
" />
<path d="M23446428 48157051
L24946428 48157051
L23446428 49014194
L24946428 49014194
" />
</g><g >
</g>
<g >
</g>
<g >
</g>
</g> 
</svg>
